<svg width="47" height="28" viewBox="0 0 47 28" fill="none" xmlns="http://www.w3.org/2000/svg">
<path d="M15.2807 0.40574C15.3245 0.405499 15.3684 0.405257 15.4136 0.405009C15.5063 0.404713 15.5991 0.404774 15.6919 0.405167C15.833 0.405557 15.9741 0.404236 16.1152 0.402771C16.2055 0.402697 16.2958 0.402724 16.3862 0.402861C16.428 0.402344 16.4699 0.401826 16.513 0.401293C16.7828 0.404211 17.0128 0.435311 17.2275 0.609964C17.4177 0.857805 17.479 1.1884 17.555 1.48534C17.5685 1.53685 17.5821 1.58837 17.596 1.64146C17.6342 1.78773 17.6721 1.9341 17.7097 2.08053C17.7349 2.17858 17.7602 2.27659 17.7856 2.37459C17.9158 2.87802 18.0447 3.3818 18.1732 3.88567C18.2067 4.01713 18.2403 4.14858 18.2739 4.28003C18.8669 6.60218 19.4522 8.9263 20.0374 11.2505C20.3952 9.79549 20.7394 8.33726 21.0839 6.87909C21.1615 6.55071 21.2391 6.22235 21.3168 5.89399C21.3399 5.79636 21.363 5.69874 21.3861 5.60111C21.4545 5.31143 21.523 5.02176 21.5916 4.7321C21.629 4.57412 21.6664 4.41613 21.7038 4.25814C21.7111 4.22717 21.7185 4.1962 21.726 4.16429C21.8291 3.72865 21.9311 3.29279 22.0325 2.85676C22.0805 2.65058 22.1287 2.44446 22.1769 2.23833C22.2027 2.12768 22.2284 2.01699 22.2539 1.90628C22.2889 1.7547 22.3242 1.60322 22.3597 1.45176C22.3698 1.40752 22.3799 1.36328 22.3903 1.31771C22.4633 1.00845 22.5435 0.723926 22.8011 0.517838C23.035 0.418629 23.2451 0.41158 23.4946 0.411858C23.554 0.411562 23.554 0.411562 23.6147 0.41126C23.6982 0.410996 23.7818 0.410972 23.8653 0.411172C23.9923 0.411317 24.1192 0.410236 24.2462 0.409069C24.3277 0.408964 24.4092 0.408932 24.4907 0.408979C24.5282 0.408555 24.5658 0.408131 24.6044 0.407693C24.8496 0.409649 25.0779 0.428813 25.2885 0.563901C25.5381 0.820464 25.5972 1.18158 25.6737 1.51862C25.6879 1.5785 25.7021 1.63836 25.7163 1.69821C25.7553 1.86283 25.7934 2.02764 25.8315 2.19249C25.8727 2.37042 25.9146 2.54816 25.9565 2.72592C26.031 3.04239 26.1051 3.35897 26.1788 3.67561C26.3114 4.24469 26.4455 4.81341 26.5797 5.38213C26.6281 5.58734 26.6765 5.79254 26.7249 5.99775C26.7369 6.04869 26.7489 6.09964 26.7613 6.15212C26.8764 6.64059 26.9912 7.12912 27.1059 7.61768C27.1389 7.75804 27.1719 7.89841 27.2049 8.03877C27.3112 8.49111 27.4173 8.94349 27.5231 9.39595C27.5744 9.61539 27.6259 9.83482 27.6773 10.0542C27.702 10.1597 27.7267 10.2652 27.7513 10.3707C27.7853 10.5166 27.8195 10.6624 27.8537 10.8081C27.8638 10.8518 27.8739 10.8954 27.8844 10.9403C27.8984 10.9999 27.8984 10.9999 27.9127 11.0607C27.9208 11.0953 27.9289 11.1299 27.9372 11.1656C27.9581 11.2539 27.9581 11.2539 28.0062 11.3426C28.0177 11.298 28.0292 11.2534 28.0411 11.2075C28.3588 9.97583 28.6767 8.74415 28.9946 7.51248C29.0711 7.21626 29.1475 6.92004 29.224 6.62381C29.3427 6.16352 29.4616 5.70323 29.5804 5.24296C29.6359 5.02835 29.6913 4.81375 29.7466 4.59914C29.8581 4.16712 29.9698 3.73517 30.082 3.30335C30.1434 3.06701 30.2042 2.83053 30.2646 2.59396C30.3056 2.43414 30.3468 2.27441 30.3882 2.11469C30.4075 2.03988 30.4266 1.96503 30.4456 1.89014C30.7436 0.715958 30.7436 0.715959 31.0032 0.532233C31.1771 0.45453 31.3235 0.420296 31.5134 0.416829C31.5689 0.415719 31.5689 0.415719 31.6256 0.414586C31.794 0.412527 31.9624 0.410649 32.1309 0.409586C32.2196 0.408822 32.3084 0.407564 32.3972 0.405808C32.5255 0.403284 32.6538 0.402277 32.7822 0.401602C32.8217 0.400558 32.8612 0.399513 32.902 0.398438C33.0931 0.399112 33.1889 0.411363 33.3533 0.516466C33.4914 0.734731 33.4701 0.922053 33.4226 1.16982C33.3964 1.27585 33.3658 1.37969 33.3337 1.48408C33.3215 1.525 33.3093 1.56593 33.2968 1.60809C33.2538 1.75163 33.2097 1.89479 33.1652 2.03791C33.1483 2.09251 33.1314 2.14711 33.114 2.20337C32.9938 2.58958 32.872 2.97522 32.7496 3.36073C32.6311 3.73411 32.5132 4.10766 32.3953 4.48121C32.3832 4.51952 32.3711 4.55782 32.3587 4.59728C32.1015 5.41203 31.8484 6.22804 31.5962 7.04435C31.3401 7.87332 31.0833 8.70206 30.8231 9.52976C30.8119 9.56513 30.8008 9.6005 30.7894 9.63694C30.6798 9.9854 30.57 10.3338 30.4601 10.6821C30.4083 10.8463 30.3566 11.0104 30.3048 11.1745C30.2949 11.206 30.285 11.2375 30.2748 11.2699C30.1476 11.6738 30.0227 12.0782 29.9007 12.4837C29.8877 12.5269 29.8747 12.57 29.8612 12.6145C29.8039 12.8044 29.7471 12.9945 29.6914 13.1849C29.4677 13.9394 29.4677 13.9394 29.2189 14.1145C28.969 14.2462 28.7612 14.2711 28.4812 14.2674C28.4397 14.2674 28.3981 14.2675 28.3553 14.2676C28.268 14.2675 28.1807 14.267 28.0933 14.266C27.9605 14.2647 27.8278 14.2651 27.6949 14.2657C27.6096 14.2654 27.5244 14.265 27.4391 14.2645C27.3998 14.2646 27.3605 14.2648 27.3201 14.2649C27.0704 14.261 26.8422 14.2371 26.6243 14.1063C26.4478 13.9066 26.3901 13.694 26.33 13.4409C26.32 13.4008 26.31 13.3607 26.2997 13.3193C26.2653 13.1806 26.2318 13.0418 26.1983 12.903C26.1731 12.8003 26.1478 12.6976 26.1226 12.595C26.0372 12.2469 25.9531 11.8986 25.8691 11.5502C25.8398 11.4285 25.8104 11.3069 25.7811 11.1852C25.4416 9.77875 25.1046 8.3717 24.7683 6.96447C24.7266 6.79018 24.6849 6.61589 24.6433 6.4416C24.4282 5.54188 24.2133 4.6421 23.9988 3.74223C23.9311 3.86841 23.8865 3.98559 23.8534 4.12472C23.8439 4.16419 23.8344 4.20365 23.8246 4.24432C23.8144 4.2874 23.8043 4.33048 23.7939 4.37487C23.7829 4.42074 23.7719 4.4666 23.7606 4.51386C23.7239 4.66733 23.6875 4.82086 23.6511 4.97441C23.6251 5.0835 23.5991 5.19259 23.573 5.30168C23.5173 5.53516 23.4617 5.76868 23.4062 6.00222C23.3266 6.33756 23.2466 6.67283 23.1665 7.00808C22.9049 8.10362 22.6442 9.19938 22.385 10.2955C22.3033 10.6408 22.2213 10.986 22.1393 11.3313C22.0744 11.6048 22.0098 11.8785 21.9455 12.1522C21.9058 12.3208 21.8658 12.4894 21.8257 12.6579C21.8075 12.7349 21.7894 12.8119 21.7714 12.889C21.5251 13.9452 21.5251 13.9452 21.235 14.1524C20.9849 14.2403 20.7631 14.2581 20.4994 14.2568C20.4608 14.2569 20.4221 14.2569 20.3823 14.257C20.301 14.2571 20.2197 14.2569 20.1384 14.2565C20.0147 14.256 19.891 14.2565 19.7673 14.2571C19.6879 14.2571 19.6086 14.2569 19.5292 14.2568C19.4743 14.257 19.4743 14.257 19.4183 14.2573C18.9211 14.2532 18.9211 14.2532 18.7191 14.0934C18.4986 13.8647 18.4166 13.5903 18.3246 13.2923C18.3072 13.2382 18.2899 13.1842 18.272 13.1284C18.2146 12.948 18.1585 12.7672 18.1027 12.5863C18.0831 12.5231 18.0635 12.4598 18.0439 12.3966C17.9032 11.9424 17.7653 11.4873 17.628 11.032C17.568 10.8333 17.5079 10.6346 17.4477 10.436C17.3598 10.1459 17.2721 9.85586 17.1843 9.56577C16.9725 8.86509 16.7597 8.16468 16.5467 7.46431C16.4673 7.2029 16.3879 6.94147 16.3085 6.68003C16.0929 5.97009 15.8771 5.2602 15.6608 4.55048C15.5713 4.25669 15.4818 3.96287 15.3924 3.66904C15.3197 3.43025 15.2469 3.19149 15.174 2.95275C15.1289 2.80489 15.0839 2.65701 15.0389 2.50911C15.0182 2.44128 14.9975 2.37346 14.9768 2.30565C14.8739 1.96927 14.7736 1.63226 14.6803 1.29308C14.6652 1.23839 14.6501 1.18371 14.6345 1.12737C14.5883 0.916149 14.5923 0.772812 14.648 0.563901C14.813 0.370207 15.0464 0.40499 15.2807 0.40574Z" fill="#A3A3A3"/>
<path d="M0.483658 18.3179C0.756543 18.3797 1.00083 18.5316 1.24369 18.6664C1.27348 18.683 1.30326 18.6995 1.33395 18.7165C1.46415 18.789 1.59422 18.8617 1.72419 18.9346C5.27103 20.9139 9.11031 22.3031 20.4338 24.4158C20.5379 24.4238 20.6419 24.4322 20.7459 24.4406C22.9971 24.6199 25.2977 24.57 27.5455 24.3782C27.584 24.375 27.6226 24.3717 27.6623 24.3684C31.8723 24.0119 36.0777 23.0487 41.0118 21.1202C41.7983 20.801 41.7983 20.801 42.1569 20.9077C42.4036 21.0139 42.5073 21.1365 42.608 21.3841C42.6398 21.6064 42.6088 21.7583 42.487 21.9491C42.2391 22.2622 41.8808 22.4799 41.5514 22.6969C41.5033 22.7287 41.4553 22.7606 41.4057 22.7933C37.7176 25.2133 33.4939 26.7147 25.2424 27.925C25.2039 27.9276 25.1653 27.9302 25.1257 27.9329C21.2778 28.1916 17.2971 27.7105 12.5903 26.3162C12.4485 26.2705 12.3065 26.2258 12.1643 26.1813C9.97244 25.4843 7.82824 24.4887 5.84996 23.3188C5.80637 23.293 5.76278 23.2673 5.71787 23.2408C4.59999 22.5771 3.52058 21.8509 2.48739 21.0617C2.46318 21.0433 2.43898 21.0249 2.41404 21.006C1.692 20.4572 0.988871 19.8807 0.322439 19.2653C0.297263 19.242 0.272087 19.2188 0.246148 19.1949C0.136114 19.0897 0.043388 18.9982 0 18.8507C0.00623205 18.6762 0.023381 18.5636 0.118036 18.416C0.242906 18.3359 0.335023 18.3094 0.483658 18.3179Z" fill="#A3A3A3"/>
<path d="M10.871 0.609924C10.9138 0.630706 10.9566 0.651488 11.0007 0.6729C11.3106 0.832356 11.5761 1.026 11.8383 1.2548C11.8666 1.27873 11.8949 1.30266 11.9241 1.32731C12.8125 2.13806 13.0999 3.47126 13.1741 4.61738C13.1806 4.80331 13.1821 4.98909 13.1828 5.17511C13.1834 5.25422 13.1834 5.25422 13.184 5.33492C13.1848 5.44847 13.1855 5.56202 13.1861 5.67556C13.1871 5.85597 13.1883 6.03636 13.1896 6.21676C13.1924 6.60009 13.1948 6.98342 13.1971 7.36675C13.1999 7.81056 13.2028 8.25438 13.206 8.69819C13.2072 8.87466 13.2082 9.05113 13.2091 9.22761C13.2173 10.499 13.3024 11.5496 13.8994 12.6944C13.9877 12.8811 13.9944 13.0297 13.9572 13.2311C13.788 13.5215 13.4952 13.6917 13.2173 13.8645C13.1765 13.8904 13.1358 13.9164 13.0938 13.9431C12.9828 14.0135 12.8715 14.0834 12.7596 14.1524C12.7195 14.1775 12.6794 14.2026 12.6381 14.2285C12.4541 14.3334 12.2742 14.3191 12.0686 14.2906C11.4256 13.9948 11.0647 13.1412 10.7789 12.5402C10.5906 12.6957 10.4177 12.8557 10.2491 13.0325C9.21145 14.0702 7.79158 14.584 6.33799 14.5845C6.30431 14.5844 6.27063 14.5843 6.23592 14.5842C6.20136 14.5842 6.1668 14.5842 6.13119 14.5842C5.60299 14.5827 5.11073 14.549 4.60645 14.3827C4.55165 14.3649 4.49684 14.3472 4.44038 14.3289C3.50754 13.9972 2.76233 13.3389 2.33232 12.4481C1.83608 11.3697 1.75408 10.0286 2.16513 8.90568C2.61816 7.75231 3.47228 6.97544 4.59206 6.47428C6.46297 5.73688 8.59316 5.99858 10.5025 6.45989C10.5329 6.47509 10.5633 6.49029 10.5946 6.50595C10.6285 4.60608 10.6285 4.60608 9.85167 2.94005C8.99786 2.21636 7.75646 2.19535 6.69479 2.2777C5.72581 2.37715 4.80111 2.67928 3.89512 3.02327C3.34758 3.22831 3.34758 3.22831 3.04032 3.18944C2.94015 3.11834 2.9105 3.06798 2.85607 2.95912C2.84524 2.76521 2.84555 2.57112 2.845 2.37695C2.84456 2.2807 2.84313 2.18449 2.84168 2.08825C2.84137 2.02659 2.84113 1.96494 2.84096 1.90328C2.84031 1.81949 2.84031 1.81949 2.83965 1.73401C2.8612 1.52827 2.92292 1.36883 3.07415 1.22475C3.99854 0.635361 5.09822 0.32848 6.17259 0.149297C6.20305 0.143968 6.23352 0.138638 6.26491 0.133148C7.72943 -0.111726 9.52176 -0.0518082 10.871 0.609924ZM5.18979 8.75205C4.74463 9.35082 4.64254 10.0141 4.69858 10.7437C4.78526 11.3075 5.0065 11.7443 5.43558 12.1256C6.15761 12.5867 7.03769 12.5994 7.85725 12.4233C8.7881 12.1973 9.61777 11.773 10.1685 10.9625C10.5537 10.3256 10.6107 9.6158 10.6004 8.88682C10.5999 8.8302 10.5995 8.77359 10.5991 8.71525C10.598 8.57762 10.5965 8.44002 10.5946 8.3024C10.4472 8.23988 10.3082 8.19354 10.1509 8.16421C10.1104 8.15665 10.07 8.1491 10.0283 8.14131C8.54797 7.87837 6.34967 7.51246 5.18979 8.75205Z" fill="#A3A3A3"/>
<path d="M39.4377 0.00734609C40.7661 -0.0357341 42.7184 0.0867569 43.7596 1.02453C44.0304 1.33526 43.9998 1.66411 44.0015 2.05518C44.0029 2.14033 44.0029 2.14033 44.0044 2.2272C44.0047 2.30931 44.0047 2.30931 44.0051 2.39309C44.0055 2.44311 44.0059 2.49313 44.0064 2.54466C43.9878 2.70114 43.9449 2.78716 43.8518 2.9131C43.6561 3.01092 43.3904 2.94204 43.1891 2.87828C43.0797 2.83465 42.972 2.78815 42.8643 2.74036C42.5548 2.61018 42.2478 2.49741 41.9229 2.41217C41.8901 2.40339 41.8574 2.39462 41.8237 2.38558C41.2885 2.2512 40.7501 2.20589 40.2001 2.20762C40.1038 2.20776 40.0075 2.20668 39.9112 2.20551C39.1695 2.20202 38.3544 2.30061 37.76 2.78481C37.4817 3.06868 37.3534 3.39851 37.3109 3.78829C37.3023 3.86382 37.3023 3.86382 37.2936 3.94087C37.3422 4.4188 37.4872 4.81493 37.8636 5.12411C38.714 5.71822 39.7804 5.98005 40.7598 6.27568C42.176 6.70457 43.5699 7.17718 44.3649 8.5099C44.848 9.41821 44.8997 10.4972 44.6348 11.4808C44.3052 12.5502 43.5307 13.3943 42.562 13.9307C41.8447 14.3066 41.0542 14.4918 40.2589 14.613C40.2135 14.62 40.168 14.627 40.1212 14.6343C38.4523 14.8312 36.2486 14.5777 34.8375 13.6063C34.6433 13.4487 34.5703 13.3366 34.501 13.093C34.4825 12.885 34.4861 12.677 34.4866 12.4682C34.4859 12.4121 34.4852 12.3559 34.4844 12.2981C34.4844 12.244 34.4843 12.1899 34.4843 12.1341C34.4842 12.085 34.484 12.0358 34.4839 11.9852C34.5051 11.8173 34.5647 11.6934 34.6853 11.5729C35.0637 11.5371 35.3476 11.6495 35.6958 11.7888C37.3076 12.4083 39.3474 12.844 41.0038 12.1427C41.4638 11.9197 41.8479 11.6142 42.0323 11.1238C42.1683 10.6459 42.1553 10.1724 41.9171 9.73038C41.2616 8.77426 39.7347 8.54227 38.6985 8.22651C37.7269 7.92965 36.7686 7.62538 35.975 6.96662C35.9477 6.94601 35.9204 6.92541 35.8923 6.90418C35.2203 6.37866 34.7872 5.44385 34.6722 4.61508C34.5555 3.60296 34.7757 2.64641 35.4066 1.83026C36.2863 0.735994 37.5561 0.224551 38.9196 0.0388568C39.0922 0.020793 39.2643 0.0139307 39.4377 0.00734609Z" fill="#A3A3A3"/>
<path d="M43.4029 17.4084C43.4419 17.4084 43.481 17.4085 43.5213 17.4086C44.1309 17.4105 44.7275 17.4351 45.326 17.5609C45.3592 17.5679 45.3923 17.5748 45.4265 17.5819C46.2988 17.7715 46.2988 17.7715 46.5555 18.0644C46.9908 18.7531 46.6565 20.0401 46.4964 20.7761C46.0828 22.5639 45.305 24.1971 44.0363 25.5298C44.0029 25.5661 43.9695 25.6025 43.9351 25.6399C43.7491 25.8369 43.5645 26.0053 43.2992 26.0826C43.1231 26.076 43.0556 26.0692 42.9307 25.9444C42.9065 25.6601 42.9578 25.4563 43.0657 25.1955C43.0798 25.1599 43.0939 25.1243 43.1084 25.0876C43.1386 25.0114 43.1691 24.9353 43.1997 24.8593C43.2808 24.6581 43.3595 24.456 43.4383 24.2539C43.4541 24.2134 43.47 24.173 43.4863 24.1313C44.35 22.0389 44.35 22.0389 44.3616 19.8411C44.0303 19.4396 43.4002 19.378 42.9135 19.3257C41.5985 19.2427 40.2819 19.377 38.9767 19.5268C38.9238 19.5329 38.9238 19.5329 38.8699 19.539C38.8041 19.5465 38.7383 19.5542 38.6725 19.562C38.2384 19.6116 38.2384 19.6116 38.0337 19.5618C37.956 19.4956 37.956 19.4956 37.9099 19.3459C37.9099 19.1302 37.9622 19.0649 38.0942 18.8968C38.1934 18.8146 38.2863 18.7445 38.3936 18.6751C38.4384 18.6458 38.4384 18.6458 38.4841 18.6159C39.2927 18.1056 40.2088 17.8176 41.1372 17.6185C41.1796 17.6094 41.2219 17.6002 41.2656 17.5908C41.9738 17.4473 42.6819 17.4052 43.4029 17.4084Z" fill="#A3A3A3"/>
</svg>
