<svg width="78" height="20" viewBox="0 0 78 20" fill="none" xmlns="http://www.w3.org/2000/svg">
<path d="M15.3195 1.83823C15.5933 2.03541 15.8618 2.23621 16.1257 2.44642C16.0763 2.9064 15.779 3.16428 15.4684 3.47686C15.3855 3.56143 15.3855 3.56143 15.3008 3.64771C15.1838 3.76636 15.0663 3.88458 14.9484 4.0024C14.7683 4.18322 14.5909 4.36645 14.4135 4.54993C14.2994 4.66497 14.1851 4.77986 14.0707 4.89459C14.0178 4.94971 13.965 5.00483 13.9106 5.06162C13.7567 5.21254 13.7567 5.21254 13.4633 5.42832C13.042 5.41198 12.7834 5.24764 12.4383 5.01564C11.2105 4.26672 9.78099 4.17559 8.38395 4.43699C6.89524 4.85755 5.69335 5.70944 4.89453 7.03533C4.15313 8.43723 3.9719 9.96977 4.40781 11.5015C4.91932 12.976 5.76129 14.109 7.18004 14.8C8.6923 15.4767 10.4257 15.6171 12.0019 15.0334C13.2219 14.4995 14.0159 13.8625 14.5378 12.6081C14.6097 12.4172 14.6768 12.2245 14.7413 12.0311C13.0544 11.9959 11.3675 11.9608 9.62945 11.9246C9.62945 10.6243 9.62945 9.32394 9.62945 7.98422C12.6518 7.98422 15.6742 7.98422 18.7881 7.98422C19.4508 10.3036 18.966 12.9144 17.8297 15.013C16.6384 17.0887 14.7228 18.5987 12.4181 19.2423C10.0255 19.8847 7.39179 19.7406 5.18329 18.5319C4.30446 18.0235 3.54329 17.4241 2.8137 16.7169C2.71609 16.631 2.71609 16.631 2.61651 16.5434C1.15887 15.2156 0.144398 12.9207 0.0259492 10.9762C-0.0325231 8.09074 -0.0325231 8.09074 0.470784 6.70627C0.495923 6.63655 0.521063 6.56683 0.546964 6.49499C1.49579 3.93481 3.34401 2.10281 5.79101 0.933429C6.37755 0.664921 6.9821 0.477256 7.60602 0.3165C7.73521 0.278885 7.86439 0.24127 7.99748 0.202516C10.4823 -0.407952 13.254 0.426468 15.3195 1.83823Z" fill="#A3A3A3"/>
<path d="M34.456 1.27151C35.8052 2.22828 36.6681 3.43002 36.9711 5.06752C37.0036 5.3636 36.999 5.66281 36.999 5.96067C36.1204 5.96067 35.2418 5.96067 34.3366 5.96067C34.2312 5.32808 34.2312 5.32808 34.1236 4.68272C33.7951 3.83662 33.4215 3.33203 32.6326 2.87228C32.3185 2.73408 32.0078 2.63195 31.6742 2.55279C31.5936 2.5333 31.513 2.51381 31.43 2.49372C30.1564 2.28421 28.7402 2.37587 27.6273 3.06531C27.0064 3.52114 26.7156 4.03577 26.5624 4.78921C26.4853 5.53866 26.5906 6.15437 27.0054 6.78851C27.9843 7.94234 29.7946 8.32084 31.176 8.72978C33.1232 9.31358 35.3144 10.1379 36.4087 11.9715C37.0464 13.1752 37.2351 14.5736 36.8792 15.9047C36.3885 17.2692 35.5112 18.199 34.2301 18.8467C32.1235 19.8047 29.6123 19.9217 27.4143 19.1662C25.8058 18.5391 24.4282 17.586 23.6499 15.9979C23.3173 15.1968 23.261 14.6295 23.261 13.7349C24.1044 13.7349 24.9479 13.7349 25.8169 13.7349C25.8586 13.9458 25.9004 14.1566 25.9434 14.3739C26.1865 15.4117 26.6373 16.1065 27.5208 16.7168C28.9512 17.4911 30.7623 17.5403 32.3132 17.1428C33.1576 16.8379 33.7222 16.3984 34.1569 15.6119C34.3912 14.7172 34.3455 13.9709 34.0171 13.0959C33.4072 12.2708 32.3801 11.8275 31.4346 11.5051C31.3334 11.4693 31.2322 11.4335 31.1279 11.3965C30.6188 11.2176 30.1074 11.0468 29.5933 10.8824C27.6064 10.246 25.4081 9.45627 24.2997 7.54189C23.7039 6.29994 23.6469 4.949 24.073 3.63772C24.6046 2.33829 25.6942 1.36654 26.9459 0.776054C27.6164 0.516351 28.3098 0.359797 29.0118 0.209877C29.1025 0.189285 29.1933 0.168693 29.2868 0.147477C31.0025 -0.146337 32.9987 0.35226 34.456 1.27151Z" fill="#A3A3A3"/>
<path d="M75.7208 6.06063C77.1804 7.29346 77.7995 8.9996 78 10.8596C78 11.5976 78 12.3356 78 13.096C74.8723 13.096 71.7445 13.096 68.5219 13.096C68.9171 15.1632 68.9171 15.1632 70.2258 16.7169C71.4187 17.4134 72.644 17.5518 74.0015 17.2831C74.5636 17.0939 74.986 16.8325 75.408 16.4157C75.5506 16.2909 75.5506 16.2909 75.7636 16.2909C75.79 16.225 75.8163 16.1591 75.8435 16.0912C75.9766 15.8649 75.9766 15.8649 76.4026 15.6519C76.8595 16.0034 77.3163 16.3548 77.7871 16.7169C77.3213 17.8813 76.3792 18.5564 75.2727 19.0864C73.5253 19.8245 71.575 19.8037 69.7998 19.1663C68.189 18.4687 67.134 17.2288 66.4697 15.6369C65.6467 13.5404 65.751 10.9008 66.605 8.83619C67.4097 7.09505 68.6297 5.88728 70.4388 5.21532C72.1538 4.61429 74.2827 4.98802 75.7208 6.06063ZM69.5869 8.30371C68.9957 9.08749 68.6284 9.97737 68.6284 10.9661C70.8776 10.9661 73.1268 10.9661 75.4441 10.9661C75.4441 9.84252 75.1905 8.75931 74.422 7.9006C73.6308 7.167 72.8337 7.07063 71.7833 7.09564C70.8719 7.18207 70.1956 7.63335 69.5869 8.30371Z" fill="#A3A3A3"/>
<path d="M39.2593 5.20312C39.3614 5.20368 39.4634 5.20424 39.5686 5.20482C39.7338 5.20533 39.7338 5.20533 39.9024 5.20586C40.0183 5.20675 40.1343 5.20764 40.2537 5.20856C40.4282 5.20928 40.4282 5.20928 40.6063 5.21002C40.8948 5.21127 41.1833 5.21303 41.4718 5.21522C41.4722 5.33622 41.4725 5.45723 41.4729 5.5819C41.4769 6.72712 41.4831 7.87231 41.4914 9.0175C41.4955 9.60614 41.499 10.1948 41.5006 10.7834C41.5023 11.3524 41.5059 11.9214 41.511 12.4904C41.5126 12.7065 41.5134 12.9226 41.5135 13.1388C41.4623 15.0304 41.4623 15.0304 42.1795 16.7273C42.7077 17.2504 43.3496 17.3596 44.0676 17.3824C45.1724 17.3502 46.2938 17.0743 47.0888 16.2601C47.7095 15.4234 47.5387 14.2661 47.5316 13.2752C47.5326 13.0426 47.534 12.81 47.5356 12.5774C47.539 11.9675 47.538 11.3578 47.5361 10.748C47.5349 10.1248 47.5379 9.50154 47.5406 8.87831C47.5452 7.65725 47.5447 6.43628 47.542 5.21522C48.3855 5.21522 49.2289 5.21522 50.098 5.21522C50.098 9.88933 50.098 14.5634 50.098 19.3792C49.3248 19.3792 48.5516 19.3792 47.755 19.3792C47.5779 19.2021 47.6102 18.9764 47.5886 18.7336C47.5797 18.6357 47.5708 18.5378 47.5616 18.437C47.5551 18.3613 47.5487 18.2857 47.542 18.2077C47.4889 18.2554 47.4358 18.303 47.3811 18.3521C46.0091 19.5073 44.3771 19.7303 42.6432 19.5922C41.3538 19.3593 40.4222 18.7343 39.6613 17.6753C38.7628 16.077 38.8995 14.2112 38.9017 12.4391C38.9016 12.2334 38.9015 12.0278 38.9014 11.8221C38.9013 11.394 38.9015 10.9659 38.902 10.5378C38.9026 9.98798 38.9022 9.43816 38.9016 8.88833C38.9012 8.46507 38.9013 8.04182 38.9016 7.61856C38.9017 7.41563 38.9016 7.21271 38.9013 7.00978C38.9011 6.72786 38.9015 6.44595 38.9021 6.16403C38.9019 6.07979 38.9016 5.99554 38.9014 5.90874C38.9041 5.22125 38.9041 5.22125 39.2593 5.20312Z" fill="#A3A3A3"/>
<path d="M59.4699 1.91382C60.3133 1.91382 61.1568 1.91382 62.0258 1.91382C62.0258 3.00327 62.0258 4.09273 62.0258 5.2152C62.8692 5.2152 63.7127 5.2152 64.5817 5.2152C64.5817 5.88293 64.5817 6.55066 64.5817 7.23863C63.7382 7.23863 62.8948 7.23863 62.0258 7.23863C62.0349 8.4199 62.0449 9.60117 62.0564 10.7824C62.0617 11.331 62.0666 11.8795 62.0707 12.4281C62.0746 12.9577 62.0796 13.4873 62.0852 14.0169C62.0872 14.2187 62.0888 14.4205 62.09 14.6223C62.0918 14.9055 62.0949 15.1887 62.0983 15.4719C62.0985 15.5549 62.0988 15.6378 62.099 15.7233C62.1068 16.2336 62.1845 16.6579 62.3452 17.1428C63.1483 17.4158 63.8477 17.3301 64.6882 17.2493C64.6882 17.9521 64.6882 18.655 64.6882 19.3792C63.5508 19.6591 62.1357 19.8719 61.0673 19.2727C60.2489 18.7339 59.8463 18.0769 59.5763 17.1428C59.4784 16.5801 59.4551 16.0405 59.4578 15.4719C59.4577 15.3825 59.4577 15.293 59.4577 15.2009C59.4578 14.9076 59.4586 14.6143 59.4595 14.321C59.4597 14.1168 59.4598 13.9125 59.4599 13.7082C59.4603 13.1723 59.4614 12.6364 59.4625 12.1005C59.4636 11.5529 59.4641 11.0054 59.4647 10.4578C59.4658 9.38477 59.4677 8.3117 59.4699 7.23863C58.6264 7.23863 57.783 7.23863 56.9139 7.23863C56.9117 6.92453 56.9096 6.61043 56.9073 6.28682C56.9063 6.18771 56.9054 6.0886 56.9044 5.98649C56.9041 5.90892 56.9038 5.83135 56.9035 5.75142C56.903 5.67167 56.9024 5.59192 56.9019 5.50975C56.9139 5.32169 56.9139 5.32169 57.0204 5.2152C57.2023 5.20592 57.3846 5.2038 57.5667 5.2048C57.6658 5.20506 57.765 5.20533 57.8672 5.2056C58.0576 5.20706 58.0576 5.20706 58.2518 5.20854C58.6538 5.21074 59.0557 5.21294 59.4699 5.2152C59.4699 4.12574 59.4699 3.03629 59.4699 1.91382Z" fill="#A3A3A3"/>
<path d="M53.1864 5.21533C53.9947 5.21533 54.803 5.21533 55.6358 5.21533C55.6358 9.88945 55.6358 14.5636 55.6358 19.3793C54.7924 19.3793 53.9489 19.3793 53.0799 19.3793C53.0774 17.5483 53.0755 15.7173 53.0744 13.8862C53.0738 13.0361 53.0731 12.186 53.0719 11.3359C53.0708 10.5952 53.0701 9.85448 53.0699 9.11378C53.0697 8.72134 53.0694 8.32891 53.0686 7.93648C53.0678 7.4991 53.0678 7.06173 53.0678 6.62435C53.0674 6.49329 53.067 6.36222 53.0667 6.22719C53.0668 6.10876 53.0669 5.99033 53.0671 5.86831C53.067 5.76474 53.0669 5.66118 53.0668 5.55447C53.0799 5.32183 53.0799 5.32183 53.1864 5.21533Z" fill="#A3A3A3"/>
<path d="M54.7838 0.103429C55.2402 0.345095 55.5934 0.610075 55.8487 1.06189C55.9362 1.59457 55.9071 2.00343 55.6757 2.49294C55.2902 2.90883 54.9746 3.06487 54.411 3.12526C53.8768 3.06802 53.5541 2.89621 53.1464 2.55284C52.8814 2.0637 52.8951 1.60587 52.9733 1.06189C53.1656 0.647705 53.3213 0.474925 53.6988 0.223237C54.0972 0.0826325 54.3639 0.0509507 54.7838 0.103429Z" fill="#A3A3A3"/>
</svg>
