<svg width="86" height="25" viewBox="0 0 86 25" fill="none" xmlns="http://www.w3.org/2000/svg">
<path d="M59.0531 0.354814C59.7315 0.846103 60.0822 1.36676 60.2222 2.19127C60.2773 2.59266 60.2773 2.59266 60.2566 2.7898C60.2373 2.99791 60.2265 3.16544 60.3614 3.33377C60.495 3.44402 60.6325 3.5391 60.7776 3.63356C60.8835 3.70747 60.9894 3.78157 61.0951 3.85584C61.1491 3.8931 61.2031 3.93035 61.2587 3.96873C61.504 4.14226 61.7363 4.33065 61.969 4.52044C62.2976 4.78571 62.628 5.04775 62.9634 5.30429C63.2787 5.54547 63.5922 5.78871 63.904 6.0344C64.451 6.46524 65.0008 6.89251 65.5507 7.31967C65.7186 7.45021 65.8865 7.58087 66.0543 7.71157C66.6813 8.19969 67.3093 8.68634 67.9398 9.16981C67.9859 9.13859 68.032 9.10736 68.0795 9.07519C68.8708 8.55368 69.8974 7.95148 70.8781 7.95148C70.8838 7.56253 70.8853 7.17387 70.8829 6.78489C70.8827 6.65275 70.8836 6.5206 70.8857 6.38848C70.9273 5.6383 70.9273 5.6383 70.6664 4.96689C70.5036 4.84387 70.3419 4.74927 70.1614 4.65481C69.7466 4.18263 69.6109 3.62463 69.5881 3.00648C69.6354 2.33656 69.8939 1.78483 70.3809 1.32511C70.9962 0.83635 71.6981 0.78747 72.4548 0.85648C73.0004 0.979534 73.4605 1.26321 73.7784 1.72656C74.1471 2.35674 74.2873 2.99094 74.1305 3.71139C73.9712 4.21473 73.7079 4.59005 73.3148 4.94148C73.2536 4.96668 73.1924 4.99189 73.1294 5.01785C72.9255 5.14975 72.9255 5.14975 72.9092 5.43746C72.9062 5.55457 72.9052 5.67174 72.9058 5.78888C72.9042 5.88148 72.9042 5.88148 72.9025 5.97596C72.8994 6.17313 72.8988 6.37022 72.8982 6.56742C72.8966 6.7011 72.8947 6.83477 72.8928 6.96844C72.8882 7.29613 72.8859 7.62377 72.8848 7.95148C72.9398 7.95923 72.9948 7.96698 73.0515 7.97496C73.5109 8.0447 73.9273 8.13456 74.3539 8.31877C74.4057 8.34078 74.4574 8.36279 74.5108 8.38547C76.0858 9.07879 77.1658 10.3287 77.8298 11.8931C78.3348 13.2728 78.391 14.8715 77.9014 16.2648C77.8747 16.3416 77.8479 16.4184 77.8203 16.4975C77.2047 18.0974 75.9839 19.2912 74.4475 20.0066C72.984 20.6459 71.2346 20.6877 69.7371 20.1346C69.2613 19.9467 68.8295 19.7136 68.3978 19.4411C68.2277 19.3292 68.2277 19.3292 68.0114 19.3465C67.845 19.4852 67.6906 19.6251 67.5358 19.7759C67.49 19.8204 67.4442 19.8648 67.3969 19.9106C67.3001 20.0051 67.2035 20.0999 67.1073 20.1951C66.9602 20.3395 66.8109 20.4812 66.6614 20.623C66.5675 20.7153 66.4738 20.8076 66.3802 20.9002C66.3354 20.942 66.2906 20.9837 66.2445 21.0267C65.995 21.2801 65.9063 21.4423 65.9062 21.8032C65.9142 21.916 65.923 22.0288 65.9331 22.1415C65.8851 22.7449 65.6638 23.21 65.2268 23.6314C64.7913 23.9843 64.2873 24.1954 63.7184 24.1683C63.0933 24.0845 62.5894 23.8548 62.1681 23.3789C61.7454 22.8219 61.7288 22.2482 61.7764 21.5681C61.8609 21.0604 62.1912 20.6875 62.5648 20.3498C62.87 20.1521 63.2002 19.9687 63.5678 20.0235C63.9348 20.0695 64.2508 20.0997 64.5769 19.9007C64.9567 19.5986 65.2795 19.238 65.6061 18.8806C65.708 18.7734 65.8101 18.6663 65.9125 18.5595C66.1613 18.299 66.4064 18.0354 66.6498 17.7698C66.6108 17.6985 66.5718 17.6272 66.5316 17.5537C66.4797 17.4579 66.4278 17.362 66.376 17.2662C66.3504 17.2195 66.3248 17.1727 66.2984 17.1246C65.5218 15.684 65.386 14.0399 65.7898 12.4665C65.9384 11.9746 66.1132 11.4892 66.3813 11.0494C66.4226 10.9731 66.4639 10.8968 66.5064 10.8181C66.4046 10.5126 66.1762 10.3947 65.9242 10.2135C65.8189 10.1363 65.7137 10.0589 65.6087 9.98138C65.5551 9.94188 65.5015 9.90237 65.4463 9.86167C65.2055 9.68127 64.9711 9.49333 64.7372 9.30419C64.3774 9.01403 64.015 8.72834 63.6479 8.44744C63.3169 8.19415 62.9877 7.93874 62.6588 7.68273C62.577 7.619 62.577 7.619 62.4934 7.55399C62.3818 7.46706 62.2701 7.38013 62.1585 7.29318C61.8879 7.08251 61.6172 6.87201 61.3464 6.66148C61.2939 6.62064 61.2414 6.57979 61.1873 6.53771C60.907 6.31966 60.6266 6.10167 60.3462 5.88379C60.2879 5.83852 60.2297 5.79325 60.1697 5.74661C60.0585 5.66018 59.9472 5.57377 59.836 5.48738C59.7856 5.44821 59.7352 5.40904 59.6833 5.36868C59.6125 5.31393 59.6125 5.31393 59.5404 5.25807C59.4276 5.16919 59.3175 5.07688 59.2079 4.98403C59.0587 4.84884 59.0587 4.84884 58.856 4.87877C58.7792 4.89947 58.7023 4.92016 58.6231 4.94148C57.7817 5.15261 57.0614 5.13607 56.285 4.69009C55.6471 4.22675 55.3174 3.63391 55.1831 2.86315C55.0982 2.15437 55.3259 1.48935 55.7564 0.928147C56.5254 0.00876587 58.0055 -0.313007 59.0531 0.354814ZM69.5344 11.8931C68.8481 12.6177 68.619 13.4717 68.6371 14.4446C68.6746 15.3034 69.0856 15.9699 69.6777 16.5722C70.3643 17.1752 71.1585 17.4005 72.0626 17.365C72.9351 17.2767 73.6419 16.8644 74.2434 16.2332C74.8297 15.4989 75.0378 14.6785 74.9631 13.7565C74.8158 12.9024 74.4001 12.1369 73.7033 11.6101C72.3538 10.7111 70.7602 10.781 69.5344 11.8931Z" fill="#A3A3A3"/>
<path d="M0 4.08154C0.9933 4.08154 1.9866 4.08154 3.01 4.08154C3.01 6.35194 3.01 8.62234 3.01 10.9615C5.06755 10.9615 7.1251 10.9615 9.245 10.9615C9.245 8.69114 9.245 6.42074 9.245 4.08154C10.262 4.08154 11.2789 4.08154 12.3267 4.08154C12.3267 9.52104 12.3267 14.9605 12.3267 20.5649C11.3097 20.5649 10.2928 20.5649 9.245 20.5649C9.245 18.3654 9.245 16.166 9.245 13.8999C7.18745 13.8999 5.1299 13.8999 3.01 13.8999C3.01 16.0993 3.01 18.2988 3.01 20.5649C2.0167 20.5649 1.0234 20.5649 0 20.5649C0 15.1254 0 9.68588 0 4.08154Z" fill="#A3A3A3"/>
<path d="M57.3109 8.07238C57.4142 8.07298 57.4142 8.07298 57.5195 8.0736C59.1704 8.1015 60.6652 8.73406 61.8483 9.88644C61.9104 9.94408 61.9725 10.0017 62.0365 10.0611C63.1931 11.3091 63.745 12.7765 63.7268 14.4801C63.6329 16.2165 62.9295 17.8137 61.6333 18.9881C60.3249 20.0857 58.7429 20.5469 57.0467 20.4214C56.057 20.2843 55.3305 19.8909 54.5383 19.2748C54.5147 21.0012 54.491 22.7277 54.4667 24.5064C53.497 24.5064 52.5274 24.5064 51.5283 24.5064C51.5235 23.1059 51.5195 21.7054 51.5172 20.3049C51.5161 19.6545 51.5146 19.0041 51.5121 18.3537C51.51 17.7864 51.5086 17.219 51.5081 16.6517C51.5078 16.3517 51.5072 16.0517 51.5056 15.7517C51.5041 15.4684 51.5037 15.1852 51.504 14.9019C51.504 14.7988 51.5035 14.6957 51.5027 14.5927C51.4889 12.8044 52.0031 11.2459 53.1767 9.88644C53.2192 9.83701 53.2617 9.78759 53.3054 9.73667C54.3259 8.63554 55.8299 8.06317 57.3109 8.07238ZM55.2446 12.1557C54.6502 12.9041 54.4543 13.7524 54.5383 14.6881C54.7202 15.6291 55.2021 16.3443 55.9717 16.9098C56.7287 17.3783 57.5521 17.538 58.4302 17.3647C59.327 17.1188 60.0382 16.5956 60.525 15.7978C60.9511 14.988 61.0721 14.1193 60.8002 13.2324C60.4535 12.3196 59.8593 11.6851 58.9836 11.2643C57.6058 10.7061 56.249 11.1093 55.2446 12.1557Z" fill="#A3A3A3"/>
<path d="M26.5165 4.15308C27.4861 4.15308 28.4558 4.15308 29.4548 4.15308C29.4785 5.87953 29.5021 7.60598 29.5265 9.38474C29.763 9.19554 29.9995 9.00634 30.2431 8.81141C31.5174 8.13683 33.0099 8.02855 34.3951 8.42508C36.0248 8.95118 37.284 10.071 38.0683 11.5795C38.7881 13.0159 38.906 14.7325 38.4405 16.2675C38.121 17.2147 37.6077 17.9903 36.9081 18.7014C36.8545 18.756 36.8008 18.8106 36.7455 18.8669C35.9048 19.6714 34.9372 20.1159 33.8265 20.4214C33.7583 20.4405 33.6901 20.4597 33.6199 20.4794C32.573 20.7173 31.4677 20.6099 30.4581 20.2781C30.3833 20.2538 30.3085 20.2295 30.2314 20.2045C28.7633 19.6602 27.6966 18.4419 27.038 17.0553C26.6106 16.041 26.4944 15.0409 26.5002 13.9488C26.5002 13.8414 26.5002 13.7339 26.5001 13.6265C26.5001 13.3375 26.5009 13.0485 26.5019 12.7595C26.5028 12.4565 26.5029 12.1535 26.5031 11.8505C26.5035 11.2779 26.5047 10.7053 26.5062 10.1328C26.5078 9.4804 26.5085 8.82803 26.5093 8.17565C26.5108 6.83479 26.5134 5.49393 26.5165 4.15308ZM30.2328 12.3707C29.6383 13.119 29.4425 13.9673 29.5265 14.9031C29.7083 15.8436 30.1901 16.56 30.9598 17.1247C31.7344 17.5975 32.524 17.7535 33.4234 17.5797C34.3173 17.334 35.0281 16.8076 35.5132 16.0128C35.9394 15.2026 36.0382 14.3852 35.7928 13.4921C35.6389 13.0428 35.4188 12.6872 35.1165 12.3231C35.0602 12.2535 35.0602 12.2535 35.0028 12.1825C34.4864 11.6056 33.7144 11.29 32.9536 11.2302C31.8571 11.1918 30.9878 11.584 30.2328 12.3707Z" fill="#A3A3A3"/>
<path d="M48.7142 5.31023C49.338 5.82109 49.338 5.82109 49.5216 6.0882C49.5201 6.40402 49.3757 6.5574 49.1632 6.778C48.8638 7.09743 48.5849 7.42769 48.3094 7.76789C48.1204 8.00008 47.926 8.22697 47.7299 8.4532C47.4948 8.34841 47.3235 8.21393 47.1297 8.0456C46.4466 7.49083 45.6235 7.06082 44.7289 7.09602C44.2432 7.14943 43.8113 7.29134 43.4543 7.6366C43.1423 8.0341 43.0307 8.52592 43.0503 9.02598C43.1011 9.36972 43.2251 9.62719 43.489 9.85714C44.1785 10.3108 45.0282 10.5394 45.8055 10.798C46.8928 11.1622 47.848 11.5552 48.6616 12.3949C48.7025 12.4352 48.7434 12.4754 48.7856 12.5169C49.6767 13.4608 49.8498 14.8412 49.8281 16.0843C49.7695 17.4421 49.1378 18.5057 48.1602 19.4067C46.9299 20.4042 45.2508 20.6989 43.7095 20.5504C42.3042 20.3716 41.1527 19.7491 40.1332 18.7732C40.0756 18.7209 40.0179 18.6686 39.9586 18.6148C39.8787 18.5402 39.8787 18.5402 39.7973 18.4641C39.7497 18.4201 39.7022 18.376 39.6531 18.3306C39.5599 18.1999 39.5599 18.1999 39.5624 18.0591C39.6534 17.8673 39.7728 17.7541 39.9272 17.6086C40.134 17.409 40.3326 17.2098 40.5185 16.9905C40.8459 16.6081 41.2079 16.2593 41.5666 15.9065C41.8614 16.0188 42.0296 16.2338 42.2295 16.4664C42.7883 17.0928 43.3567 17.4413 44.2121 17.5036C44.8994 17.5263 45.4089 17.4771 45.9562 17.0398C46.3446 16.6735 46.5237 16.3362 46.5474 15.799C46.5245 15.2818 46.3551 14.9374 45.9875 14.5762C45.3243 14.042 44.4821 13.7911 43.6897 13.5147C42.2815 13.0209 40.9588 12.4166 40.2273 11.0466C39.6881 9.90411 39.6385 8.54707 39.9927 7.33929C40.4389 6.1115 41.1871 5.17018 42.3818 4.59664C44.5333 3.69552 46.8412 3.9182 48.7142 5.31023Z" fill="#A3A3A3"/>
<path d="M14.0466 8.1665C15.0163 8.1665 15.9859 8.1665 16.985 8.1665C16.9856 8.38816 16.9863 8.60981 16.987 8.83819C16.9894 9.57248 16.9934 10.3068 16.9981 11.041C17.001 11.486 17.0033 11.931 17.0044 12.376C17.0055 12.8058 17.0079 13.2356 17.0114 13.6654C17.0124 13.829 17.013 13.9926 17.013 14.1562C17.0132 14.3862 17.0152 14.6161 17.0175 14.8461C17.0171 14.913 17.0168 14.9799 17.0164 15.0488C17.0273 15.7455 17.2451 16.37 17.6921 16.909C18.2871 17.4702 18.9376 17.5901 19.7251 17.5747C20.0859 17.5481 20.3364 17.4594 20.64 17.2682C20.6898 17.2386 20.7397 17.209 20.7911 17.1786C21.3184 16.8297 21.6233 16.2947 21.7866 15.6915C21.8083 15.445 21.8089 15.1993 21.8095 14.9519C21.8102 14.8785 21.8109 14.805 21.8117 14.7293C21.8139 14.4874 21.8151 14.2454 21.8163 14.0034C21.8176 13.8353 21.819 13.6672 21.8205 13.4991C21.8242 13.0573 21.827 12.6155 21.8297 12.1737C21.8326 11.7226 21.8362 11.2715 21.8398 10.8204C21.8467 9.93578 21.8527 9.05115 21.8583 8.1665C22.8279 8.1665 23.7976 8.1665 24.7966 8.1665C24.8015 9.11849 24.8054 10.0705 24.8078 11.0225C24.8089 11.4646 24.8104 11.9068 24.8128 12.3489C24.8152 12.7764 24.8165 13.2039 24.817 13.6314C24.8174 13.7937 24.8182 13.956 24.8194 14.1183C24.8309 15.7913 24.6793 17.2914 23.5783 18.6298C23.5386 18.6812 23.4988 18.7326 23.4579 18.7855C22.637 19.7988 21.3379 20.389 20.0666 20.5648C18.4405 20.671 17.0032 20.254 15.7532 19.1853C14.7248 18.222 14.093 16.8602 14.0402 15.4488C14.0379 15.256 14.0378 15.0634 14.0385 14.8706C14.0385 14.7978 14.0385 14.725 14.0385 14.65C14.0385 14.4111 14.0391 14.1723 14.0396 13.9334C14.0398 13.7671 14.0399 13.6009 14.0399 13.4346C14.0402 12.9982 14.0409 12.5618 14.0417 12.1254C14.0424 11.6796 14.0428 11.2338 14.0431 10.7879C14.0439 9.91412 14.0452 9.04031 14.0466 8.1665Z" fill="#A3A3A3"/>
<path d="M82.8467 5.2998C82.8467 6.3877 82.8467 7.47561 82.8467 8.59647C83.7217 8.59647 84.5968 8.59647 85.4983 8.59647C85.4983 9.44787 85.4983 10.2993 85.4983 11.1765C84.6233 11.1765 83.7482 11.1765 82.8467 11.1765C82.8553 12.0651 82.8553 12.0651 82.8651 12.9537C82.8695 13.3165 82.8736 13.6794 82.8769 14.0422C82.8796 14.3349 82.8829 14.6277 82.8867 14.9204C82.888 15.0317 82.8891 15.143 82.8899 15.2543C82.8728 16.3674 82.8728 16.3674 83.3483 17.3398C83.8991 17.7904 84.531 17.7942 85.2117 17.8146C85.3257 17.8188 85.3257 17.8188 85.4421 17.823C85.628 17.8297 85.814 17.8358 86 17.8415C85.9544 18.409 85.7919 18.9444 85.6372 19.4898C85.6099 19.5873 85.5826 19.6848 85.5553 19.7824C85.489 20.0194 85.4221 20.2563 85.355 20.4931C83.9443 20.7456 82.4832 20.5661 81.27 19.7765C80.4293 19.1108 80.0582 18.2444 79.9083 17.1965C79.9022 17.0451 79.8996 16.8936 79.8997 16.7421C79.8996 16.6523 79.8995 16.5624 79.8994 16.4699C79.8997 16.3712 79.8999 16.2726 79.9002 16.174C79.9002 16.0694 79.9002 15.9649 79.9002 15.8603C79.9001 15.5772 79.9006 15.2942 79.9011 15.0111C79.9015 14.715 79.9016 14.4188 79.9016 14.1227C79.9019 13.5623 79.9024 13.0019 79.9032 12.4415C79.904 11.8033 79.9044 11.1652 79.9047 10.527C79.9055 9.21462 79.9067 7.90221 79.9083 6.5898C80.1261 6.48652 80.3438 6.38329 80.5616 6.28006C80.6228 6.25101 80.6841 6.22195 80.7472 6.19202C81.1841 5.98495 81.622 5.78053 82.0628 5.58199C82.1543 5.54021 82.1543 5.54021 82.2477 5.49759C82.3058 5.4714 82.3638 5.44521 82.4237 5.41822C82.4743 5.39531 82.5249 5.37239 82.5771 5.34878C82.7033 5.2998 82.7033 5.2998 82.8467 5.2998Z" fill="#A3A3A3"/>
</svg>
