<svg width="150" height="68" viewBox="0 0 150 68" fill="none" xmlns="http://www.w3.org/2000/svg">
<path d="M64.4656 24.567C65.2522 24.9245 65.6442 25.3863 65.9682 26.1809C66.0583 26.4503 66.0583 26.4503 66.1502 26.7252C66.2538 27.032 66.2538 27.032 66.3595 27.3449C66.4336 27.5683 66.5077 27.7917 66.5817 28.0152C66.6595 28.2467 66.7374 28.4783 66.8154 28.7098C67.0208 29.3205 67.2249 29.9317 67.4286 30.543C67.7518 31.5121 68.0774 32.4804 68.4025 33.4489C68.5194 33.7975 68.6361 34.1462 68.7528 34.4949C69.1937 35.8116 69.6407 37.1258 70.1169 38.4302C70.3735 39.1393 70.3735 39.1393 70.3735 39.5008C71.5769 39.4856 72.7801 39.468 73.9834 39.4487C74.3928 39.4424 74.8022 39.4367 75.2117 39.4316C75.7999 39.4241 76.3881 39.4145 76.9763 39.4046C77.1596 39.4027 77.3428 39.4008 77.5317 39.3989C77.7025 39.3956 77.8733 39.3924 78.0492 39.389C78.2745 39.3857 78.2745 39.3857 78.5042 39.3824C78.9319 39.3339 79.1994 39.2342 79.5636 39.0085C79.9814 38.4444 79.9515 37.8843 79.8918 37.2033C79.605 36.5915 79.605 36.5915 79.0712 36.2186C78.6597 36.2028 78.252 36.1961 77.8404 36.1956C77.5872 36.1925 77.334 36.1893 77.0808 36.1859C76.6829 36.1812 76.2852 36.1776 75.8872 36.1775C72.7305 36.173 72.7305 36.173 71.4202 34.9946C70.4533 33.9499 70.1818 31.8972 70.1376 30.5159C70.2265 28.6045 70.8503 27.0024 72.1069 25.5619C72.9805 24.8227 73.6781 24.5455 74.8116 24.5484C74.9759 24.5484 75.1401 24.5484 75.3093 24.5484C75.5734 24.5497 75.5734 24.5497 75.8429 24.551C76.0241 24.5512 76.2053 24.5514 76.392 24.5517C76.9705 24.5526 77.5491 24.5546 78.1276 24.5567C78.5199 24.5576 78.9123 24.5583 79.3046 24.559C80.2661 24.5608 81.2277 24.5635 82.1893 24.567C82.2674 24.7746 82.3454 24.9823 82.4235 25.1899C82.4669 25.3056 82.5104 25.4212 82.5552 25.5403C82.7238 25.9932 82.8844 26.4483 83.0406 26.9055C83.0971 27.0688 83.1535 27.2322 83.2117 27.4004C83.338 27.8491 83.338 27.8491 83.338 28.5056C83.1896 28.507 83.1896 28.507 83.0383 28.5085C82.008 28.519 80.9777 28.5328 79.9475 28.5486C79.5631 28.5541 79.1787 28.5587 78.7943 28.5624C78.2414 28.5679 77.6887 28.5765 77.1359 28.5857C76.8784 28.5873 76.8784 28.5873 76.6157 28.5889C75.4613 28.6005 75.4613 28.6005 74.4762 29.162C74.2843 29.5459 74.2902 29.7813 74.2916 30.2082C74.2912 30.3347 74.2907 30.4612 74.2903 30.5915C74.312 30.9655 74.342 31.2733 74.4762 31.6236C75.0468 31.8138 75.5058 31.814 76.1077 31.8223C76.3379 31.827 76.5682 31.8317 76.7984 31.8364C77.1588 31.8432 77.5191 31.8492 77.8796 31.8536C81.4763 31.9009 81.4763 31.9009 82.747 33.0993C84.1887 34.9067 84.3412 36.9586 84.1586 39.1726C83.8212 40.823 82.8855 42.1326 81.5328 43.1112C80.8294 43.4715 80.1729 43.4842 79.3989 43.4766C79.2692 43.4767 79.1394 43.4767 79.0057 43.4768C78.5786 43.4765 78.1515 43.474 77.7244 43.4714C77.4275 43.4708 77.1307 43.4703 76.8338 43.47C76.0539 43.4688 75.2739 43.4655 74.494 43.4619C73.5574 43.458 72.6209 43.4565 71.6843 43.4545C70.2627 43.4514 68.8412 43.4451 67.4196 43.4394C66.2823 39.7568 65.1451 36.0742 63.9733 32.2801C63.5875 33.5121 63.2016 34.7441 62.8041 36.0135C62.6845 36.3949 62.565 36.7762 62.4418 37.1691C61.7888 39.255 61.1508 41.3446 60.5271 43.4394C59.0107 43.4394 57.4944 43.4394 55.9321 43.4394C56.0466 42.6374 56.145 42.0677 56.4071 41.333C56.4716 41.1509 56.536 40.9687 56.6023 40.7811C56.6726 40.5858 56.743 40.3905 56.8154 40.1893C56.8895 39.981 56.9636 39.7726 57.0375 39.5643C57.2353 39.0079 57.4345 38.452 57.6342 37.8963C57.7992 37.4367 57.9636 36.9768 58.1281 36.517C58.4172 35.7088 58.7066 34.9007 58.997 34.0929C59.431 32.8858 59.8625 31.6778 60.289 30.4679C60.5107 29.8401 60.7344 29.213 60.9588 28.5861C61.0601 28.3017 61.1606 28.017 61.2602 27.732C61.3965 27.3424 61.536 26.954 61.6765 26.5658C61.7146 26.4543 61.7528 26.3428 61.7921 26.2279C62.2773 24.9126 63.1206 24.4758 64.4656 24.567Z" fill="#A3A3A3"/>
<path d="M36.4033 24.5669C37.7572 24.5669 39.1111 24.5669 40.506 24.5669C41.3397 27.0336 42.1231 29.5105 42.8753 32.003C42.9807 32.351 43.0861 32.699 43.1916 33.047C43.4457 33.8852 43.6992 34.7236 43.9522 35.5621C44.2701 35.0853 44.4033 34.7346 44.566 34.1911C44.6474 33.9215 44.6474 33.9215 44.7304 33.6465C44.7882 33.4522 44.8459 33.2578 44.9055 33.0575C44.9658 32.8574 45.0261 32.6572 45.0882 32.451C45.2485 31.9183 45.4082 31.3854 45.5676 30.8524C45.7911 30.1047 46.0154 29.3572 46.2403 28.6099C46.3599 28.2124 46.479 27.8148 46.5976 27.417C46.6523 27.2347 46.7071 27.0524 46.7635 26.8646C46.8347 26.6263 46.8347 26.6263 46.9074 26.3832C47.1055 25.7708 47.3366 25.1695 47.5626 24.5669C49.079 24.5669 50.5953 24.5669 52.1576 24.5669C52.043 25.1402 51.9267 25.6215 51.7355 26.1639C51.6825 26.315 51.6296 26.4662 51.575 26.6219C51.517 26.7855 51.459 26.9491 51.3993 27.1176C51.3383 27.2911 51.2773 27.4645 51.2144 27.6433C51.0132 28.2147 50.8111 28.7858 50.6089 29.3568C50.5055 29.649 50.5055 29.649 50.4 29.9471C50.1125 30.7596 49.8249 31.5719 49.5365 32.3841C49.1031 33.605 48.6725 34.8269 48.2445 36.0498C47.9797 36.8052 47.7129 37.5599 47.4456 38.3145C47.319 38.6731 47.1931 39.032 47.0681 39.3912C46.8937 39.892 46.7163 40.3916 46.5382 40.8911C46.4877 41.0382 46.4372 41.1854 46.3852 41.337C46.0482 42.2696 45.6985 42.9764 44.7728 43.4393C44.0536 43.4992 43.6094 43.4979 42.9368 43.2341C41.4535 41.7838 40.9845 38.8495 40.3521 36.9262C40.1049 36.1776 39.8571 35.4291 39.6092 34.6807C39.5471 34.4931 39.485 34.3055 39.421 34.1123C39.0138 32.885 38.5989 31.6606 38.1771 30.4382C38.1236 30.283 38.0701 30.1278 38.015 29.9679C37.7637 29.2396 37.5113 28.5118 37.2572 27.7845C37.1674 27.5248 37.0776 27.2651 36.9879 27.0054C36.9474 26.8908 36.9068 26.7761 36.865 26.6579C36.6185 25.9406 36.5133 25.3371 36.4033 24.5669Z" fill="#A3A3A3"/>
<path d="M54.9474 24.5669C56.4096 24.5669 57.8718 24.5669 59.3783 24.5669C59.1937 26.0439 59.1937 26.0439 58.9936 26.6249C58.9489 26.7567 58.9042 26.8885 58.8581 27.0243C58.8094 27.1638 58.7606 27.3033 58.7103 27.4471C58.659 27.5974 58.6076 27.7477 58.5546 27.9025C58.386 28.3945 58.2155 28.8859 58.0449 29.3773C57.9267 29.7209 57.8086 30.0645 57.6905 30.4082C57.3251 31.4704 56.957 32.5317 56.5885 33.5928C56.472 33.9285 56.3556 34.2643 56.2391 34.6C55.2154 37.5494 54.1825 40.4956 53.1422 43.4393C51.68 43.4393 50.2178 43.4393 48.7113 43.4393C48.8959 41.9622 48.8959 41.9622 49.1412 41.2457C49.1958 41.0844 49.2503 40.923 49.3065 40.7568C49.3661 40.5849 49.4256 40.413 49.487 40.236C49.5493 40.0528 49.6117 39.8696 49.676 39.6809C49.8797 39.0836 50.0852 38.487 50.2909 37.8904C50.3966 37.5816 50.5023 37.2727 50.6078 36.9639C51.0671 35.6205 51.5297 34.2782 51.9935 32.9364C52.0575 32.751 52.1216 32.5657 52.1876 32.3747C52.7813 30.6582 53.3775 28.9426 53.9781 27.2285C54.0196 27.1101 54.061 26.9917 54.1036 26.8697C54.3748 26.0977 54.66 25.3334 54.9474 24.5669Z" fill="#A3A3A3"/>
<path d="M84.816 24.5265C85.0276 24.5267 85.2392 24.5269 85.4572 24.5272C85.6322 24.5267 85.6322 24.5267 85.8106 24.5262C86.197 24.5256 86.5833 24.5274 86.9697 24.5292C87.2375 24.5294 87.5052 24.5295 87.7729 24.5295C88.3343 24.5297 88.8956 24.5311 89.4569 24.5333C90.1781 24.5361 90.8992 24.5367 91.6203 24.5366C92.1731 24.5366 92.726 24.5375 93.2788 24.5387C93.5448 24.5392 93.8108 24.5396 94.0768 24.5397C94.4477 24.54 94.8186 24.5415 95.1896 24.5432C95.5068 24.5442 95.5068 24.5442 95.8304 24.5451C96.3027 24.5671 96.3027 24.5671 96.4668 24.7312C96.6617 25.9833 96.8755 27.697 96.1219 28.7864C95.7575 29.2112 95.3472 29.5772 94.9158 29.9327C94.4965 30.2857 94.1224 30.6787 93.7385 31.0698C93.6044 31.2006 93.4703 31.3313 93.3321 31.466C93.0114 31.765 93.0114 31.765 92.8564 32.116C93.0189 32.1312 93.0189 32.1312 93.1847 32.1468C94.6651 32.5477 95.6879 33.6474 96.4463 34.9366C96.9857 36.7647 96.9356 38.741 96.0655 40.4624C95.0841 41.9688 93.8555 42.8626 92.1224 43.3317C89.7834 43.7669 87.5019 43.3563 85.4716 42.1266C84.8475 41.683 84.3926 41.3354 84.2408 40.5573C84.3679 39.6837 84.9108 39.173 85.4716 38.5162C85.5475 38.4128 85.6235 38.3093 85.7017 38.2027C85.9958 37.8053 86.2039 37.5594 86.6819 37.4085C87.2428 37.5687 87.5381 37.876 87.964 38.2643C88.7389 38.9206 89.5599 39.0929 90.5455 39.056C91.0334 38.9882 91.3336 38.8336 91.7077 38.5162C92.1288 37.9547 92.1196 37.3923 92.0359 36.711C91.5029 36.0257 90.9526 35.6357 90.0828 35.5212C89.7321 35.4937 89.3821 35.4748 89.0307 35.4597C88.9092 35.4534 88.7876 35.447 88.6624 35.4405C88.3647 35.4251 88.0669 35.4115 87.7691 35.3982C87.4008 34.3585 87.1432 33.3886 87.2768 32.2801C87.666 31.5712 88.1888 31.048 88.7538 30.4749C89.2953 29.8792 89.8369 29.2835 90.3948 28.6697C88.5535 28.6156 86.7123 28.5614 84.8152 28.5056C83.9024 26.0715 83.9024 26.0715 83.9946 24.8953C84.3228 24.5671 84.3228 24.5671 84.816 24.5265ZM84.9793 25.5517C85.1405 26.5655 85.1405 26.5655 85.4716 27.521C88.7209 27.6022 88.7209 27.6022 92.0359 27.6851C91.4825 28.9764 91.4825 28.9764 91.1109 29.355C91.0302 29.4392 90.9496 29.5234 90.8665 29.6101C90.7819 29.6958 90.6973 29.7815 90.6102 29.8698C90.434 30.0556 90.2582 30.2417 90.0826 30.4281C89.9966 30.5191 89.9105 30.61 89.8218 30.7037C88.7074 31.8213 88.7074 31.8213 88.1691 33.2442C88.2405 33.641 88.3251 34.0238 88.4255 34.4135C88.588 34.4296 88.7505 34.4457 88.9179 34.4622C90.3336 34.6165 91.4998 34.7697 92.6 35.7571C93.0132 36.5008 93.1147 37.2226 92.9481 38.0598C92.6477 38.98 92.1788 39.4103 91.3282 39.8701C90.0236 40.2342 88.7077 39.9219 87.537 39.2855C87.2251 39.0915 86.9203 38.8923 86.6204 38.6803C86.3957 38.9104 86.174 39.1435 85.9537 39.3778C85.768 39.572 85.768 39.572 85.5787 39.7701C85.2726 40.1258 85.2726 40.1258 85.3152 40.5034C85.7596 41.385 86.7864 41.8429 87.6665 42.1881C89.324 42.6887 91.423 42.7879 93.0039 42.0028C93.1177 41.9354 93.2315 41.8679 93.3488 41.7984C93.466 41.7326 93.5832 41.6668 93.7039 41.599C94.756 40.9193 95.3647 39.8669 95.7514 38.688C96.0006 37.2685 95.9289 35.8176 95.1539 34.5776C94.383 33.6727 93.4608 33.1873 92.3641 32.7724C92.1983 32.7047 92.0324 32.637 91.8615 32.5673C91.7566 32.5267 91.6517 32.4861 91.5436 32.4442C91.7856 31.5817 92.3411 31.1047 92.9693 30.5057C93.1779 30.3024 93.3863 30.0987 93.5943 29.8948C93.6939 29.7972 93.7935 29.6997 93.8961 29.5992C94.326 29.1696 94.7239 28.7161 95.1155 28.2518C95.3181 28.0133 95.3181 28.0133 95.6463 27.6851C95.6463 26.9811 95.6463 26.2771 95.6463 25.5517C92.1262 25.5517 88.6061 25.5517 84.9793 25.5517Z" fill="#A3A3A3"/>
<path d="M98.9419 24.5378C99.1559 24.5347 99.1559 24.5347 99.3742 24.5314C99.5302 24.5302 99.6862 24.529 99.847 24.5278C100.008 24.5264 100.169 24.5251 100.335 24.5238C100.679 24.5215 101.022 24.5197 101.365 24.5184C101.882 24.5157 102.398 24.5085 102.915 24.5012C105.983 24.4773 108.76 24.8034 111.124 26.9772C113.25 29.2849 113.674 31.9971 113.586 35.0134C113.464 37.5386 112.46 39.7587 110.58 41.47C108.716 42.9278 106.645 43.4606 104.318 43.4726C104.104 43.474 104.104 43.474 103.886 43.4754C103.587 43.477 103.287 43.478 102.987 43.4787C102.529 43.4803 102.072 43.4854 101.614 43.4905C101.322 43.4916 101.03 43.4925 100.738 43.4931C100.534 43.4961 100.534 43.4961 100.325 43.4992C99.5603 43.4963 99.0545 43.4472 98.4361 42.9469C98.0915 42.43 98.0669 42.3125 98.0673 41.7237C98.0666 41.5741 98.0659 41.4245 98.0652 41.2704C98.0661 41.1067 98.067 40.943 98.068 40.7743C98.0677 40.6017 98.0674 40.429 98.067 40.2511C98.0664 39.6791 98.0682 39.1072 98.07 38.5353C98.0702 38.139 98.0703 37.7427 98.0703 37.3464C98.0705 36.5157 98.0719 35.6849 98.0741 34.8541C98.0769 33.7866 98.0775 32.7191 98.0774 31.6516C98.0774 30.8334 98.0783 30.0152 98.0795 29.197C98.08 28.8032 98.0803 28.4094 98.0805 28.0156C98.0808 27.4667 98.0822 26.9177 98.084 26.3688C98.0839 26.1222 98.0839 26.1222 98.0838 25.8707C98.0845 25.7221 98.0852 25.5734 98.0859 25.4203C98.0862 25.2904 98.0865 25.1604 98.0867 25.0266C98.1275 24.4558 98.4468 24.5442 98.9419 24.5378ZM99.9316 25.4708C99.7428 25.4858 99.5539 25.5008 99.3594 25.5163C99.2171 25.528 99.0749 25.5396 98.9284 25.5515C98.917 27.6827 98.9082 29.8139 98.9029 31.9451C98.9003 32.9347 98.8968 33.9242 98.8912 34.9137C98.8859 35.8682 98.883 36.8226 98.8817 37.7771C98.8808 38.1417 98.879 38.5064 98.8763 38.871C98.8728 39.3807 98.8723 39.8903 98.8725 40.3999C98.8707 40.5516 98.869 40.7033 98.8671 40.8596C98.8678 40.9983 98.8685 41.1371 98.8692 41.2801C98.8687 41.4006 98.8683 41.5212 98.8678 41.6454C98.9474 42.062 99.0816 42.2048 99.4207 42.4546C99.91 42.5078 100.364 42.5314 100.854 42.5315C101.068 42.5334 101.068 42.5334 101.287 42.5353C101.59 42.5371 101.894 42.5376 102.197 42.5368C102.653 42.5367 103.109 42.5434 103.565 42.5508C105.905 42.5665 108.132 42.3194 109.924 40.6494C110.062 40.5276 110.201 40.4057 110.344 40.2802C112.058 38.3465 112.783 36.2024 112.748 33.6178C112.599 31.3887 111.956 29.0687 110.252 27.5208C108.625 26.172 106.854 25.5649 104.764 25.4592C104.567 25.4489 104.567 25.4489 104.365 25.4385C102.88 25.3659 101.414 25.3514 99.9316 25.4708Z" fill="#A3A3A3"/>
<path d="M103.195 27.1617C103.362 27.1597 103.529 27.1577 103.701 27.1556C105.515 27.1521 107.1 27.4116 108.48 28.6714C109.922 30.202 110.396 31.9218 110.457 34.003C110.393 35.9733 109.93 37.8266 108.58 39.3262C107.048 40.7183 105.201 40.8447 103.236 40.8545C102.977 40.8595 102.977 40.8595 102.712 40.8647C102.547 40.8656 102.383 40.8664 102.213 40.8673C102.063 40.8688 101.912 40.8703 101.758 40.8719C101.636 40.8526 101.515 40.8333 101.39 40.8134C100.988 40.2112 101.022 39.7725 101.037 39.0777C101.038 38.9515 101.039 38.8252 101.041 38.6951C101.045 38.2776 101.052 37.8602 101.059 37.4428C101.063 37.1532 101.067 36.8637 101.071 36.5741C101.079 35.9674 101.088 35.3607 101.098 34.7539C101.11 33.9745 101.121 33.1951 101.131 32.4157C101.138 31.8179 101.147 31.2202 101.156 30.6224C101.16 30.3349 101.164 30.0474 101.168 29.7599C101.173 29.3591 101.18 28.9583 101.187 28.5575C101.188 28.4377 101.19 28.3178 101.191 28.1943C101.218 26.8087 101.999 27.1625 103.195 27.1617ZM102.046 28.1771C102.046 32.0222 102.046 35.8672 102.046 39.8288C105.197 39.9512 105.197 39.9512 107.667 38.8236C109.099 37.3263 109.501 35.685 109.491 33.677C109.448 31.9301 108.909 30.3874 107.626 29.1618C105.789 27.8681 104.528 28.1771 102.046 28.1771Z" fill="#A3A3A3"/>
</svg>
