<svg width="150" height="68" viewBox="0 0 150 68" fill="none" xmlns="http://www.w3.org/2000/svg">
<path d="M66.7317 14.0162C66.8247 14.0164 66.9177 14.0167 67.0135 14.0169C67.1115 14.0167 67.2095 14.0166 67.3104 14.0164C67.6414 14.016 67.9725 14.0163 68.3035 14.0167C68.5397 14.0165 68.7759 14.0163 69.0122 14.0161C69.5888 14.0157 70.1654 14.0158 70.7421 14.0161C71.2105 14.0163 71.6789 14.0163 72.1474 14.0162C72.2139 14.0162 72.2804 14.0162 72.349 14.0162C72.4842 14.0161 72.6193 14.0161 72.7545 14.0161C74.0234 14.0158 75.2923 14.0161 76.5612 14.0167C77.6511 14.0171 78.7411 14.017 79.831 14.0166C81.0952 14.016 82.3594 14.0158 83.6236 14.0161C83.7583 14.0162 83.893 14.0162 84.0277 14.0162C84.0939 14.0162 84.1602 14.0162 84.2285 14.0163C84.6966 14.0164 85.1648 14.0162 85.6329 14.016C86.2624 14.0157 86.8919 14.0159 87.5214 14.0165C87.7532 14.0166 87.985 14.0166 88.2167 14.0163C88.5317 14.0161 88.8466 14.0164 89.1615 14.0169C89.301 14.0166 89.301 14.0166 89.4433 14.0162C90.0723 14.0182 90.0723 14.0182 90.1828 14.1292C90.1924 14.2653 90.1952 14.4018 90.1952 14.5382C90.1956 14.6712 90.1956 14.6712 90.196 14.8069C90.1957 14.9547 90.1957 14.9547 90.1953 15.1055C90.1955 15.2093 90.1957 15.3131 90.1958 15.42C90.1962 15.7708 90.1959 16.1215 90.1956 16.4722C90.1957 16.7224 90.1959 16.9727 90.1961 17.223C90.1965 17.8339 90.1965 18.4448 90.1962 19.0557C90.1959 19.552 90.1959 20.0483 90.196 20.5446C90.196 20.6151 90.1961 20.6856 90.1961 20.7582C90.1961 20.9014 90.1961 21.0446 90.1962 21.1878C90.1964 22.5321 90.1961 23.8764 90.1956 25.2207C90.1951 26.3755 90.1952 27.5302 90.1957 28.685C90.1962 30.0243 90.1964 31.3637 90.1961 32.703C90.1961 32.8457 90.1961 32.9884 90.196 33.1311C90.196 33.2013 90.196 33.2715 90.196 33.3438C90.1959 33.8398 90.196 34.3358 90.1963 34.8317C90.1966 35.4987 90.1964 36.1656 90.1958 36.8325C90.1957 37.0781 90.1957 37.3236 90.1959 37.5692C90.1962 37.9028 90.1958 38.2365 90.1953 38.5701C90.1956 38.6687 90.1958 38.7672 90.196 38.8687C90.1958 38.9574 90.1955 39.0461 90.1952 39.1374C90.1952 39.2146 90.1952 39.2917 90.1952 39.3711C90.1828 39.5464 90.1828 39.5464 90.0836 39.6461C89.7755 39.656 89.4697 39.6594 89.1615 39.6587C89.0145 39.6589 89.0145 39.6589 88.8646 39.6592C88.5336 39.6596 88.2025 39.6593 87.8715 39.6589C87.6353 39.6591 87.3991 39.6593 87.1628 39.6595C86.5862 39.6599 86.0096 39.6598 85.433 39.6595C84.9645 39.6593 84.4961 39.6593 84.0277 39.6594C83.9611 39.6594 83.8946 39.6594 83.826 39.6594C83.6908 39.6595 83.5557 39.6595 83.4205 39.6595C82.1516 39.6598 80.8827 39.6595 79.6138 39.659C78.5239 39.6585 77.4339 39.6586 76.344 39.659C75.0798 39.6596 73.8156 39.6598 72.5514 39.6595C72.4167 39.6595 72.282 39.6594 72.1474 39.6594C72.0811 39.6594 72.0148 39.6594 71.9465 39.6593C71.4784 39.6593 71.0102 39.6594 70.5421 39.6596C69.9126 39.6599 69.2831 39.6597 68.6536 39.6591C68.4218 39.659 68.1901 39.6591 67.9583 39.6593C67.6434 39.6595 67.3284 39.6592 67.0135 39.6587C66.874 39.659 66.874 39.659 66.7317 39.6594C66.1027 39.6574 66.1027 39.6574 65.9923 39.5464C65.9836 39.3325 65.9817 39.1184 65.9826 38.9043C65.9829 38.7742 65.9832 38.6441 65.9835 38.5101C65.9844 38.3717 65.9852 38.2333 65.9861 38.0949C65.9866 37.9561 65.987 37.8172 65.9874 37.6784C65.9886 37.3376 65.9902 36.9967 65.9923 36.6558C65.938 36.6493 65.8838 36.6429 65.8279 36.6363C61.5697 36.1155 57.8448 34.0278 55.1316 30.6453C54.5415 29.8875 53.9924 29.1092 53.5004 28.2831C53.4284 28.1682 53.4284 28.1682 53.3548 28.051C52.8862 27.2942 52.4926 26.4962 52.1125 25.6915C52.0681 25.5993 52.0681 25.5993 52.0228 25.5052C51.8635 25.1583 51.7422 24.8768 51.815 24.4954C51.9831 24.2891 51.9831 24.2891 52.224 24.0843C52.3142 24.0072 52.4045 23.9301 52.4974 23.8507C52.6002 23.7663 52.7032 23.6822 52.8065 23.5984C52.8616 23.5533 52.9168 23.5082 52.9737 23.4617C53.6903 22.8789 54.4211 22.322 55.1858 21.8042C55.2422 21.7658 55.2986 21.7274 55.3567 21.6878C56.113 21.1728 56.8715 20.6663 57.6644 20.2094C57.7798 20.1414 57.7798 20.1414 57.8975 20.072C59.0744 19.3998 60.3469 18.8023 61.6424 18.4044C61.8468 18.3407 62.0491 18.2703 62.2497 18.1957C63.413 17.7699 64.7468 17.4185 65.9923 17.4185C65.9917 17.3194 65.9912 17.2203 65.9907 17.1181C65.9889 16.7516 65.9878 16.3852 65.9868 16.0187C65.9863 15.8598 65.9856 15.7009 65.9848 15.5421C65.9836 15.3142 65.983 15.0864 65.9826 14.8585C65.9821 14.7871 65.9816 14.7156 65.981 14.642C65.981 14.4711 65.9861 14.3001 65.9923 14.1292C66.1846 13.9359 66.4757 14.017 66.7317 14.0162ZM66.1905 17.7175C66.1905 18.2438 66.1905 18.7701 66.1905 19.3123C66.4043 19.3197 66.4043 19.3197 66.6223 19.3271C68.1007 19.3826 69.4537 19.4855 70.8502 20.0101C71.0179 20.0679 71.0179 20.0679 71.189 20.1269C72.6038 20.6452 73.9253 21.4543 75.0091 22.5082C75.2002 22.6897 75.3934 22.8374 75.609 22.9879C76.2619 23.4661 76.9388 24.1107 77.1952 24.8941C76.084 26.2965 74.9527 27.5941 73.527 28.6818C73.3988 28.7853 73.3988 28.7853 73.2679 28.8909C72.7003 29.3457 72.0714 29.7113 71.445 30.0772C71.3742 30.1218 71.3034 30.1664 71.2305 30.2123C69.7209 31.0838 67.847 31.1005 66.1905 30.775C66.1879 31.0221 66.1859 31.2692 66.1843 31.5163C66.1831 31.622 66.1831 31.622 66.1818 31.7299C66.181 31.91 66.1854 32.0901 66.1905 32.2701C66.5037 32.5849 67.486 32.4002 67.9403 32.4015C69.0254 32.4007 70.0174 32.3297 71.0485 31.9711C71.1712 31.9288 71.2938 31.8865 71.4202 31.843C72.6756 31.3833 73.9066 30.7434 74.9816 29.9456C75.2373 29.7602 75.5015 29.5953 75.7701 29.4294C76.1771 29.1715 76.5347 28.8956 76.8893 28.5697C77.1291 28.3529 77.378 28.1502 77.629 27.9467C78.3296 27.3726 79.017 26.8088 79.5746 26.0902C79.7971 25.8605 80.0211 25.6358 80.2597 25.4229C80.6457 25.0938 80.6457 25.0938 80.7829 24.6325C80.5165 24.0968 80.1149 23.757 79.6687 23.3757C79.4971 23.2194 79.3572 23.0649 79.2152 22.8819C78.9636 22.5823 78.711 22.4146 78.3849 22.2029C78.3137 22.1294 78.2426 22.0559 78.1692 21.9802C77.1249 20.952 75.8085 20.1932 74.5201 19.5185C74.3435 19.4244 74.17 19.3244 73.9972 19.2236C71.5904 17.8772 68.8772 17.677 66.1905 17.7175ZM64.9695 19.7064C64.8698 19.7268 64.7702 19.7471 64.6675 19.7681C62.0428 20.3264 59.2318 21.4583 57.367 23.4987C57.2749 23.5871 57.1829 23.6755 57.0881 23.7666C56.8485 23.9683 56.8485 23.9683 56.8713 24.1964C56.7827 24.2359 56.7827 24.2359 56.6923 24.2762C56.3812 24.4471 56.2177 24.6225 56.0394 24.9296C55.8089 25.9354 56.966 27.4421 57.4661 28.2831C57.5244 28.3828 57.5827 28.4825 57.6427 28.5852C58.2007 29.5062 58.8847 30.317 59.6472 31.074C59.7578 31.1921 59.7578 31.1921 59.8707 31.3127C61.374 32.8957 63.4613 33.962 65.5957 34.3633C65.7266 34.3633 65.8574 34.3633 65.9923 34.3633C65.9923 33.7712 65.9923 33.1791 65.9923 32.5691C65.7632 32.5033 65.5342 32.4375 65.2983 32.3698C62.4472 31.4256 60.566 29.6363 59.2073 26.9562C58.6736 25.8577 58.6736 25.8577 58.6558 25.2928C59.3375 23.8273 62.005 22.7189 63.4431 22.1906C64.2728 21.9209 65.1363 21.7651 65.9923 21.6049C65.9923 20.947 65.9923 20.2891 65.9923 19.6114C65.6137 19.6114 65.3321 19.6321 64.9695 19.7064ZM66.1905 21.9039C66.1905 22.4631 66.1905 23.0222 66.1905 23.5984C66.3807 23.6354 66.5709 23.6724 66.7668 23.7105C68.0945 24.0228 68.8632 24.6373 69.5746 25.7818C69.6743 25.9453 69.7718 26.11 69.8692 26.2748C70.0554 26.5859 70.2512 26.8861 70.4536 27.1867C70.854 27.0508 71.1024 26.8736 71.4079 26.5824C72.0511 25.9831 72.7226 25.4185 73.4279 24.8941C73.3592 24.2702 72.6896 23.8747 72.2382 23.4987C71.0603 22.6072 69.4727 21.8139 67.9751 21.8042C67.8749 21.8016 67.7747 21.7991 67.6715 21.7964C67.1538 21.7888 66.7062 21.8175 66.1905 21.9039ZM62.2249 25.3925C62.0228 25.5825 62.0228 25.5825 61.9275 25.7912C62.1014 27.1414 63.4638 28.7786 64.4699 29.5913C65.1708 30.1355 65.1708 30.1355 65.9923 30.3763C65.9923 28.2382 65.9923 26.1002 65.9923 23.8974C64.4108 23.8974 63.3906 24.3573 62.2249 25.3925ZM82.2143 28.2582C81.9053 28.5464 81.5911 28.8181 81.26 29.0805C81.1932 29.1359 81.1264 29.1912 81.0575 29.2483C78.248 31.5584 75.122 33.4022 71.5875 34.3072C71.4921 34.3318 71.3967 34.3564 71.2985 34.3818C70.092 34.6746 68.8863 34.6762 67.6529 34.6685C67.5102 34.668 67.3676 34.6676 67.2249 34.6672C66.8801 34.6662 66.5353 34.6642 66.1905 34.6623C66.1905 35.2215 66.1905 35.7807 66.1905 36.3568C68.3419 37.4383 73.1534 35.9298 75.3115 35.36C75.4383 35.3268 75.4383 35.3268 75.5675 35.293C76.0796 35.1576 76.5885 35.0131 77.0961 34.8616C77.1944 34.8326 77.1944 34.8326 77.2946 34.803C78.3222 34.4974 79.3272 34.1371 80.3292 33.7555C80.5613 33.6674 80.7939 33.5806 81.0265 33.4938C82.3416 32.9982 83.5713 32.3819 84.7981 31.697C84.8635 31.6606 84.9289 31.6243 84.9963 31.5868C85.3657 31.377 85.691 31.1476 86.0188 30.8746C86.1047 30.8253 86.1906 30.776 86.2791 30.7251C86.5274 30.5674 86.644 30.4151 86.8119 30.1769C86.1749 29.7163 85.4985 29.336 84.8115 28.9576C84.2567 28.6517 83.7121 28.3335 83.172 28.002C82.7191 27.7669 82.5537 27.9391 82.2143 28.2582Z" fill="#A3A3A3"/>
<path d="M74.3321 43.8196C74.4189 43.8192 74.5057 43.8189 74.5952 43.8186C74.6901 43.8188 74.785 43.819 74.8827 43.8192C74.9805 43.8191 75.0783 43.819 75.1791 43.8189C75.3874 43.8189 75.5956 43.819 75.8039 43.8195C76.1181 43.82 76.4323 43.8195 76.7465 43.8188C80.7372 43.8173 80.7372 43.8173 82.0802 45.0324C83.2597 46.2754 83.3004 47.8649 83.2745 49.4929C83.2305 50.7128 82.943 51.8358 82.0469 52.7028C80.9711 53.6109 79.7747 53.616 78.4298 53.6138C78.2368 53.614 78.2368 53.614 78.04 53.6141C77.7692 53.6143 77.4984 53.6141 77.2276 53.6136C76.8798 53.613 76.5321 53.6134 76.1844 53.614C75.8526 53.6144 75.5208 53.6141 75.1891 53.6138C75.0638 53.614 74.9386 53.6143 74.8095 53.6145C74.6946 53.6141 74.5798 53.6138 74.4614 53.6135C74.309 53.6134 74.309 53.6134 74.1536 53.6133C73.9242 53.6006 73.9242 53.6006 73.8251 53.5009C73.8151 53.2041 73.8116 52.9097 73.8123 52.6128C73.8121 52.5196 73.8119 52.4264 73.8117 52.3304C73.8113 52.0208 73.8116 51.7112 73.8119 51.4015C73.8119 51.1874 73.8118 50.9732 73.8116 50.7591C73.8115 50.3096 73.8117 49.8601 73.8122 49.4107C73.8127 48.8331 73.8124 48.2556 73.8118 47.678C73.8115 47.2356 73.8116 46.7932 73.8118 46.3508C73.8119 46.1378 73.8118 45.9247 73.8116 45.7117C73.8113 45.4146 73.8117 45.1174 73.8123 44.8202C73.8121 44.7313 73.8119 44.6423 73.8117 44.5507C73.8142 43.8201 73.8142 43.8201 74.3321 43.8196ZM76.7002 46.2247C76.7002 47.9022 76.7002 49.5797 76.7002 51.3081C78.4089 51.3848 78.4089 51.3848 79.7674 50.6664C80.373 49.9099 80.4445 49.1698 80.3684 48.2182C80.2958 47.9062 80.1972 47.615 80.071 47.3211C80.0319 47.2197 80.0319 47.2197 79.992 47.1163C79.8325 46.857 79.6508 46.7563 79.3894 46.6047C79.3038 46.5539 79.2182 46.5032 79.1299 46.4509C78.332 46.0448 77.6807 46.2247 76.7002 46.2247Z" fill="#A3A3A3"/>
<path d="M48.5443 43.8324C49.2701 43.8277 49.9958 43.8242 50.7216 43.8221C51.0588 43.821 51.3959 43.8196 51.7331 43.8174C52.1224 43.8149 52.5118 43.8138 52.9011 43.8129C53.0791 43.8114 53.0791 43.8114 53.2606 43.8098C54.7494 43.8096 56.1488 43.9352 57.3199 44.9444C58.2557 45.9898 58.3201 47.4262 58.2989 48.7628C58.2982 48.9037 58.2976 49.0446 58.2972 49.1855C58.2957 49.5507 58.2918 49.9159 58.2874 50.2812C58.2833 50.6561 58.2815 51.031 58.2795 51.406C58.2755 52.1375 58.2678 52.869 58.2602 53.6006C57.3114 53.6006 56.3626 53.6006 55.3851 53.6006C55.3795 53.0476 55.3795 53.0476 55.3739 52.4835C55.3693 52.1236 55.3642 51.7637 55.3591 51.4037C55.3558 51.155 55.353 50.9063 55.3507 50.6575C55.3474 50.2985 55.3422 49.9395 55.3367 49.5805C55.336 49.4706 55.3354 49.3607 55.3348 49.2474C55.3196 48.4294 55.2597 47.5924 54.7655 46.9161C53.8231 46.2486 52.4634 46.4677 51.4194 46.424C51.4194 48.7922 51.4194 51.1605 51.4194 53.6006C50.4706 53.6006 49.5219 53.6006 48.5443 53.6006C48.3781 53.2663 48.4315 52.8892 48.4324 52.5217C48.4322 52.4306 48.432 52.3395 48.4318 52.2456C48.4314 51.9435 48.4317 51.6413 48.432 51.3392C48.432 51.1299 48.4319 50.9206 48.4317 50.7113C48.4316 50.2722 48.4318 49.8331 48.4323 49.3941C48.4328 48.8303 48.4325 48.2665 48.4319 47.7027C48.4316 47.2704 48.4317 46.838 48.4319 46.4057C48.432 46.1978 48.4319 45.9898 48.4317 45.7819C48.4314 45.4917 48.4318 45.2015 48.4324 44.9113C48.4322 44.8247 48.432 44.7381 48.4318 44.6489C48.4339 44.0545 48.4339 44.0545 48.5443 43.8324Z" fill="#A3A3A3"/>
<path d="M92.1262 43.821C92.2851 43.8211 92.444 43.8216 92.6029 43.8226C92.6864 43.8228 92.7699 43.8229 92.8559 43.8231C93.1236 43.8236 93.3913 43.8249 93.659 43.8261C93.8401 43.8266 94.0211 43.8271 94.2022 43.8275C94.647 43.8286 95.0917 43.8303 95.5365 43.8324C95.8225 44.3902 96.0883 44.9411 96.2987 45.5331C96.5596 46.2531 96.8387 46.965 97.1228 47.6761C97.1659 47.7841 97.209 47.8921 97.2535 48.0033C97.3373 48.2131 97.4212 48.4229 97.5052 48.6327C97.6509 48.9968 97.7959 49.3612 97.9407 49.7256C98.0801 50.0764 98.2198 50.427 98.3605 50.7773C98.7226 51.6799 99.0667 52.5883 99.403 53.5008C99.3039 53.6005 99.3039 53.6005 99.0105 53.6118C98.8823 53.6113 98.754 53.6108 98.6219 53.6103C98.5198 53.61 98.5198 53.61 98.4156 53.6098C98.1974 53.6093 97.9792 53.608 97.761 53.6067C97.6134 53.6062 97.4658 53.6058 97.3182 53.6054C96.9556 53.6043 96.5931 53.6026 96.2305 53.6005C96.1473 53.391 96.0648 53.1812 95.9827 52.9713C95.9367 52.8545 95.8906 52.7377 95.8432 52.6174C95.7348 52.3047 95.7348 52.3047 95.7348 52.0057C94.328 52.0386 92.9212 52.0715 91.4717 52.1054C91.3081 52.5659 91.1446 53.0264 90.976 53.5008C90.8769 53.6005 90.8769 53.6005 90.6108 53.6118C90.495 53.6113 90.3792 53.6108 90.26 53.6103C90.0726 53.6098 90.0726 53.6098 89.8814 53.6093C89.7485 53.6084 89.6156 53.6076 89.4827 53.6067C89.3494 53.6062 89.2161 53.6058 89.0828 53.6054C88.7555 53.6042 88.4282 53.6026 88.1009 53.6005C87.9705 53.2071 88.1013 52.9909 88.2558 52.6287C88.312 52.4924 88.3682 52.3561 88.4243 52.2199C88.4677 52.1159 88.4677 52.1159 88.512 52.0099C88.6382 51.7065 88.76 51.4014 88.8817 51.0962C88.9061 51.0351 88.9305 50.9741 88.9556 50.9112C89.1276 50.4786 89.2924 50.0435 89.4553 49.6074C89.8625 48.5186 90.2985 47.4434 90.748 46.3717C91.0471 45.654 91.3201 44.9331 91.5722 44.1977C91.706 43.8344 91.706 43.8344 92.1262 43.821ZM93.5537 46.2246C93.517 46.3239 93.517 46.3239 93.4797 46.4252C93.3662 46.7322 93.2524 47.0391 93.1385 47.3459C93.0979 47.4554 93.0573 47.5649 93.0154 47.6777C92.7729 48.3279 92.5231 48.9713 92.2428 49.6061C92.1483 49.8227 92.1483 49.8227 92.1657 50.1119C93.1145 50.1119 94.0633 50.1119 95.0408 50.1119C94.6074 48.8046 94.1373 47.5134 93.6528 46.2246C93.6201 46.2246 93.5874 46.2246 93.5537 46.2246Z" fill="#A3A3A3"/>
<path d="M58.4574 43.8323C58.8914 43.8249 59.3255 43.8195 59.7596 43.8159C59.9073 43.8144 60.055 43.8123 60.2027 43.8097C60.4148 43.8061 60.6269 43.8044 60.8391 43.8031C60.9668 43.8015 61.0945 43.8 61.2261 43.7983C61.3266 43.8095 61.4272 43.8207 61.5307 43.8323C61.7078 44.0994 61.7676 44.2305 61.8359 44.53C61.8546 44.6092 61.8732 44.6884 61.8924 44.77C61.9121 44.8553 61.9318 44.9405 61.9521 45.0284C62.1351 45.7935 62.3476 46.541 62.5905 47.2888C62.8247 48.0168 63.0234 48.753 63.2157 49.4931C63.2389 49.581 63.262 49.6689 63.2859 49.7594C63.316 49.876 63.316 49.876 63.3468 49.995C63.4154 50.2146 63.5048 50.4076 63.6127 50.6102C64.1012 49.2044 64.1012 49.2044 64.4926 47.7695C64.6814 46.9649 64.9236 46.1785 65.168 45.3897C65.1883 45.3241 65.2086 45.2584 65.2294 45.1908C65.5758 44.0714 65.5758 44.0714 65.6947 43.8323C66.6435 43.8323 67.5922 43.8323 68.5698 43.8323C68.6957 44.0855 68.6528 44.157 68.5764 44.4249C68.5533 44.5063 68.5302 44.5878 68.5065 44.6717C68.4803 44.7606 68.4542 44.8496 68.4273 44.9412C68.4004 45.034 68.3736 45.1269 68.3459 45.2225C68.0797 46.1299 67.781 47.0257 67.4796 47.9217C67.291 48.4835 67.1112 49.0479 66.934 49.6134C66.6821 50.4151 66.4234 51.2142 66.1594 52.0119C66.1259 52.1133 66.0924 52.2148 66.0579 52.3193C66.0264 52.4143 65.9948 52.5093 65.9623 52.6072C65.9345 52.6909 65.9067 52.7745 65.8781 52.8607C65.7911 53.1099 65.6931 53.3552 65.5955 53.6004C64.2214 53.6004 62.8473 53.6004 61.4316 53.6004C61.2016 52.9097 61.2016 52.9097 60.9669 52.205C60.9196 52.0634 60.8724 51.9218 60.8237 51.7759C60.5911 51.0759 60.3651 50.3744 60.1479 49.6694C59.9603 49.0621 59.7657 48.4573 59.5708 47.8524C59.471 47.5419 59.3714 47.2314 59.2717 46.9209C59.2032 46.7079 59.1345 46.495 59.0655 46.2822C58.9647 45.971 58.8649 45.6596 58.7652 45.348C58.7343 45.2532 58.7033 45.1583 58.6714 45.0605C58.6432 44.9719 58.615 44.8833 58.586 44.792C58.5611 44.7147 58.5362 44.6374 58.5105 44.5577C58.4523 44.3091 58.4481 44.0868 58.4574 43.8323Z" fill="#A3A3A3"/>
<path d="M84.9473 43.8192C85.0718 43.8191 85.1963 43.819 85.3245 43.8188C85.3897 43.8191 85.4548 43.8193 85.5219 43.8195C85.721 43.82 85.9201 43.8195 86.1192 43.8188C86.2437 43.819 86.3682 43.8191 86.4964 43.8192C86.6116 43.8193 86.7267 43.8195 86.8453 43.8196C87.1098 43.8325 87.1098 43.8325 87.209 43.9322C87.2184 44.2325 87.2214 44.5306 87.2202 44.831C87.2203 44.9253 87.2203 45.0196 87.2203 45.1168C87.2202 45.4302 87.2194 45.7435 87.2187 46.0569C87.2185 46.2735 87.2183 46.4901 87.2182 46.7067C87.2179 47.2781 87.2169 47.8495 87.2158 48.4209C87.2148 49.0035 87.2143 49.5861 87.2138 50.1687C87.2128 51.3126 87.211 52.4566 87.209 53.6006C86.2275 53.6006 85.246 53.6006 84.2347 53.6006C84.2325 52.3417 84.2307 51.0828 84.2296 49.824C84.2291 49.2395 84.2284 48.655 84.2273 48.0705C84.2262 47.5069 84.2256 46.9434 84.2253 46.3798C84.2252 46.1643 84.2248 45.9488 84.2243 45.7333C84.2236 45.4325 84.2234 45.1318 84.2235 44.831C84.2231 44.741 84.2228 44.6509 84.2224 44.5581C84.2236 43.8359 84.2384 43.8199 84.9473 43.8192Z" fill="#A3A3A3"/>
<path d="M69.562 43.8325C70.5107 43.8325 71.4595 43.8325 72.4371 43.8325C72.4371 47.056 72.4371 50.2795 72.4371 53.6007C71.4883 53.6007 70.5395 53.6007 69.562 53.6007C69.562 50.3772 69.562 47.1537 69.562 43.8325Z" fill="#A3A3A3"/>
<path d="M101.188 52.1053C101.374 52.2175 101.374 52.2175 101.485 52.4044C101.581 52.8336 101.635 53.0738 101.473 53.4821C101.255 53.737 101.101 53.8715 100.791 53.9992C100.329 54.0075 100.153 53.9496 99.8058 53.6379C99.5687 53.2478 99.5435 53.0529 99.6014 52.6037C99.6571 52.3795 99.6571 52.3795 99.7997 52.205C100.325 51.8942 100.626 51.8665 101.188 52.1053ZM100.097 52.7034C100.097 52.8679 100.097 53.0323 100.097 53.2018C100.13 53.2018 100.163 53.2018 100.196 53.2018C100.196 53.0373 100.196 52.8728 100.196 52.7034C100.164 52.7034 100.131 52.7034 100.097 52.7034Z" fill="#A3A3A3"/>
</svg>
