<svg width="150" height="68" viewBox="0 0 150 68" fill="none" xmlns="http://www.w3.org/2000/svg">
<g clip-path="url(#clip0_31_468)">
<path d="M48.0901 26.2962C49.2066 26.2948 50.3231 26.2938 51.4396 26.2931C51.9582 26.2928 52.4767 26.2924 52.9952 26.2917C53.4476 26.2911 53.9 26.2907 54.3523 26.2906C54.5915 26.2905 54.8306 26.2904 55.0697 26.2899C56.9843 26.2866 56.9843 26.2866 57.7953 26.3554C57.7953 26.3946 57.7953 26.4337 57.7953 26.474C57.849 26.4729 57.849 26.4729 57.9039 26.4719C58.2117 26.4685 58.5002 26.4847 58.8036 26.5332C58.8036 26.5723 58.8036 26.6114 58.8036 26.6517C58.8673 26.6591 58.931 26.6664 58.9966 26.674C59.2372 26.7099 59.4537 26.7627 59.6859 26.8295C59.6859 26.8686 59.6859 26.9077 59.6859 26.948C59.8107 26.9676 59.9355 26.9872 60.064 27.0073C60.064 27.0464 60.064 27.0855 60.064 27.1258C60.1264 27.1258 60.1888 27.1258 60.2531 27.1258C60.2531 27.1649 60.2531 27.204 60.2531 27.2443C60.2983 27.2579 60.3434 27.2715 60.39 27.2855C60.6041 27.3784 60.7333 27.4945 60.8991 27.6517C60.9814 27.7285 60.9814 27.7285 61.0655 27.8068C61.1893 27.9453 61.2388 28.0164 61.2614 28.1925C61.303 28.1925 61.3446 28.1925 61.3875 28.1925C61.4083 28.3098 61.4291 28.4272 61.4505 28.548C61.4921 28.548 61.5337 28.548 61.5765 28.548C61.7328 28.918 61.7858 29.2167 61.7656 29.6147C61.8072 29.6147 61.8488 29.6147 61.8917 29.6147C61.8917 29.9667 61.8917 30.3187 61.8917 30.6814C61.8501 30.6814 61.8085 30.6814 61.7656 30.6814C61.7695 30.74 61.7734 30.7987 61.7774 30.8592C61.7792 31.124 61.685 31.3281 61.5765 31.5703C61.535 31.5703 61.4934 31.5703 61.4505 31.5703C61.4297 31.668 61.4089 31.7658 61.3875 31.8666C61.3459 31.8666 61.3043 31.8666 61.2614 31.8666C61.2371 31.9183 61.2371 31.9183 61.2122 31.9712C61.1292 32.1143 61.0377 32.2113 60.9148 32.3258C60.8765 32.3622 60.8381 32.3985 60.7986 32.436C60.6943 32.5184 60.6943 32.5184 60.5682 32.5184C60.5682 32.5575 60.5682 32.5966 60.5682 32.6369C60.485 32.6565 60.4018 32.676 60.3161 32.6962C60.3161 32.7353 60.3161 32.7744 60.3161 32.8147C59.9616 32.9925 59.9616 32.9925 59.7489 32.9925C59.7489 33.0316 59.7489 33.0707 59.7489 33.111C59.5306 33.1403 59.5306 33.1403 59.3078 33.1703C59.3078 33.2094 59.3078 33.2485 59.3078 33.2888C58.7148 33.4929 58.7148 33.4929 58.4255 33.4666C58.4255 33.5057 58.4255 33.5448 58.4255 33.5851C58.3671 33.5923 58.3087 33.5994 58.2485 33.6068C58.173 33.6168 58.0976 33.6267 58.0198 33.6369C57.9445 33.6466 57.8692 33.6562 57.7916 33.6661C57.6998 33.6847 57.6998 33.6847 57.6062 33.7036C57.5854 33.7427 57.5646 33.7818 57.5432 33.8221C57.8552 33.8612 58.1671 33.9003 58.4885 33.9406C58.4885 33.9797 58.4885 34.0189 58.4885 34.0592C58.6965 34.0787 58.9045 34.0983 59.1187 34.1184C59.1187 34.1575 59.1187 34.1966 59.1187 34.2369C59.165 34.2442 59.2113 34.2514 59.2591 34.2589C59.7657 34.3669 60.1518 34.6688 60.4422 35.0666C60.4422 35.1057 60.4422 35.1448 60.4422 35.1851C60.4838 35.1851 60.5254 35.1851 60.5682 35.1851C60.589 35.2829 60.6098 35.3806 60.6312 35.4814C60.6728 35.4814 60.7144 35.4814 60.7573 35.4814C60.7573 35.54 60.7573 35.5987 60.7573 35.6592C60.7989 35.6592 60.8405 35.6592 60.8833 35.6592C60.9673 35.9357 61.0514 36.2122 61.1354 36.4888C61.1582 36.5597 61.1811 36.6307 61.2046 36.7038C61.2549 36.8808 61.2829 37.0401 61.2969 37.2221C61.2971 37.4069 61.2971 37.4069 61.3875 37.5554C61.4011 37.6644 61.4109 37.7738 61.419 37.8832C61.4242 37.9496 61.4294 38.016 61.4348 38.0844C61.4453 38.2256 61.4558 38.3668 61.4663 38.508C61.4715 38.5744 61.4767 38.6408 61.482 38.7091C61.4866 38.7705 61.4911 38.8319 61.4958 38.8951C61.4974 39.034 61.4974 39.034 61.5765 39.0962C61.5901 39.1921 61.5999 39.2886 61.6081 39.3851C61.6133 39.4434 61.6185 39.5018 61.6238 39.5619C61.6343 39.686 61.6448 39.8101 61.6553 39.9341C61.6605 39.9925 61.6657 40.0509 61.6711 40.111C61.6756 40.1649 61.6802 40.2189 61.6849 40.2744C61.6887 40.3988 61.6887 40.3988 61.7656 40.4591C61.7682 40.5579 61.7683 40.6567 61.7656 40.7554C61.8072 40.7554 61.8488 40.7554 61.8917 40.7554C61.9306 40.8398 61.9306 40.8398 61.9704 40.9258C62.081 41.1114 62.1254 41.1623 62.3328 41.2295C62.3328 41.2686 62.3328 41.3077 62.3328 41.348C62.6863 41.348 63.0399 41.348 63.4042 41.348C63.4042 41.3089 63.4042 41.2698 63.4042 41.2295C63.5913 41.21 63.7785 41.1904 63.9713 41.1703C64.0505 41.3425 64.0974 41.4545 64.0974 41.6443C64.0572 41.6522 64.017 41.6601 63.9755 41.6682C63.9235 41.6786 63.8714 41.6891 63.8177 41.6999C63.7399 41.7154 63.7399 41.7154 63.6604 41.7311C63.5317 41.7514 63.5317 41.7514 63.4672 41.8221C63.0118 41.8997 62.5523 41.8904 62.0911 41.8891C61.955 41.8888 61.819 41.8891 61.6829 41.8895C61.2648 41.8896 60.8555 41.8859 60.4422 41.8221C60.4422 41.783 60.4422 41.7439 60.4422 41.7036C60.2758 41.684 60.1094 41.6645 59.938 41.6443C59.938 41.6052 59.938 41.5661 59.938 41.5258C59.8756 41.5258 59.8132 41.5258 59.7489 41.5258C59.7489 41.4867 59.7489 41.4476 59.7489 41.4073C59.7122 41.4023 59.6755 41.3974 59.6377 41.3923C59.4559 41.3352 59.3836 41.2515 59.2605 41.1147C59.2219 41.0726 59.1832 41.0305 59.1434 40.9872C59.0557 40.874 59.0557 40.874 59.0557 40.7554C59.0141 40.7554 58.9725 40.7554 58.9297 40.7554C58.9089 40.6186 58.8881 40.4817 58.8667 40.3406C58.8251 40.3406 58.7835 40.3406 58.7406 40.3406C58.7322 40.2985 58.7239 40.2565 58.7153 40.2131C58.6986 40.1314 58.6986 40.1314 58.6815 40.048C58.6706 39.9937 58.6596 39.9394 58.6483 39.8835C58.6286 39.7508 58.6286 39.7508 58.5515 39.6888C58.5427 39.5305 58.5489 39.3733 58.5515 39.2147C58.51 39.2147 58.4684 39.2147 58.4255 39.2147C58.3681 38.7787 58.3553 38.3501 58.3625 37.911C58.3209 37.911 58.2793 37.911 58.2364 37.911C58.233 37.8685 58.2295 37.8261 58.2259 37.7823C58.21 37.5906 58.1937 37.399 58.1774 37.2073C58.1719 37.1405 58.1664 37.0736 58.1607 37.0048C58.1525 36.9091 58.1525 36.9091 58.1441 36.8115C58.1392 36.7525 58.1342 36.6935 58.1291 36.6328C58.1191 36.4885 58.1191 36.4885 58.0474 36.3703C58.0389 36.2119 58.0447 36.0549 58.0474 35.8962C58.0058 35.8962 57.9642 35.8962 57.9213 35.8962C57.7159 35.3386 57.7159 35.3386 57.6693 35.0666C57.6277 35.0666 57.5861 35.0666 57.5432 35.0666C57.5432 35.0274 57.5432 34.9883 57.5432 34.948C57.5016 34.948 57.46 34.948 57.4172 34.948C57.2833 34.8369 57.2833 34.8369 57.1651 34.711C57.1651 34.6719 57.1651 34.6328 57.1651 34.5925C57.1278 34.581 57.0905 34.5696 57.0521 34.5578C56.6204 34.424 56.6204 34.424 56.4364 34.348C56.2191 34.2747 56.0082 34.2589 55.7786 34.2369C55.7786 34.1978 55.7786 34.1587 55.7786 34.1184C54.9676 34.1184 54.1565 34.1184 53.3208 34.1184C53.3208 36.4455 53.3208 38.7726 53.3208 41.1703C54.1527 41.1898 54.9846 41.2094 55.8417 41.2295C55.8417 41.386 55.8417 41.5424 55.8417 41.7036C53.2836 41.7036 50.7256 41.7036 48.0901 41.7036C48.0901 41.5471 48.0901 41.3907 48.0901 41.2295C48.922 41.2295 49.7538 41.2295 50.6109 41.2295C50.6109 36.4775 50.6109 31.7255 50.6109 26.8295C49.779 26.8295 48.9472 26.8295 48.0901 26.8295C48.0901 26.6535 48.0901 26.4775 48.0901 26.2962ZM53.3208 26.8295C53.3208 29.0589 53.3208 31.2882 53.3208 33.5851C53.9239 33.5851 54.527 33.5851 55.1484 33.5851C55.1484 33.546 55.1484 33.5069 55.1484 33.4666C55.2376 33.4697 55.2376 33.4697 55.3286 33.4728C55.8674 33.4835 56.3305 33.4416 56.85 33.2888C56.85 33.2497 56.85 33.2106 56.85 33.1703C57.0164 33.1507 57.1827 33.1312 57.3542 33.111C57.3542 33.0719 57.3542 33.0328 57.3542 32.9925C57.4185 32.987 57.4185 32.987 57.4841 32.9814C57.7294 32.9176 57.9235 32.7995 58.1104 32.6369C58.1104 32.5978 58.1104 32.5587 58.1104 32.5184C58.152 32.5184 58.1936 32.5184 58.2364 32.5184C58.3812 32.3666 58.4255 32.3122 58.4255 32.1036C58.4671 32.1036 58.5087 32.1036 58.5515 32.1036C58.6798 31.8826 58.7406 31.7677 58.7406 31.511C58.7822 31.511 58.8238 31.511 58.8667 31.511C58.9229 31.2394 58.9378 30.9819 58.938 30.7054C58.9381 30.6424 58.9381 30.6424 58.9382 30.578C58.9383 30.4895 58.9382 30.4011 58.9379 30.3127C58.9376 30.1781 58.9379 30.0435 58.9383 29.9089C58.9382 29.8226 58.9382 29.7362 58.938 29.6499C58.9379 29.5332 58.9379 29.5332 58.9378 29.4141C58.9304 29.2184 58.9064 29.0363 58.8667 28.8443C58.8251 28.8443 58.7835 28.8443 58.7406 28.8443C58.7328 28.7808 58.725 28.7172 58.717 28.6517C58.6841 28.4663 58.6523 28.3504 58.5515 28.1925C58.51 28.1925 58.4684 28.1925 58.4255 28.1925C58.4112 28.1497 58.3969 28.1069 58.3822 28.0629C58.2829 27.8627 58.1603 27.7446 57.9844 27.5999C57.9428 27.5999 57.9012 27.5999 57.8583 27.5999C57.8583 27.5608 57.8583 27.5217 57.8583 27.4814C57.241 27.1461 56.7515 26.9158 56.0307 26.948C56.0307 26.9089 56.0307 26.8698 56.0307 26.8295C55.1364 26.8295 54.2422 26.8295 53.3208 26.8295Z" fill="#A3A3A3"/>
<path d="M119.241 26.2962C120.35 26.2948 121.459 26.2938 122.569 26.2931C123.084 26.2928 123.599 26.2924 124.114 26.2917C124.564 26.2911 125.013 26.2907 125.463 26.2906C125.7 26.2905 125.938 26.2904 126.176 26.2899C126.4 26.2895 126.624 26.2894 126.849 26.2895C126.969 26.2895 127.089 26.2891 127.209 26.2888C128.751 26.2905 128.751 26.2905 128.883 26.4147C129.031 26.4383 129.179 26.4588 129.328 26.4777C129.45 26.4934 129.45 26.4934 129.574 26.5094C129.669 26.5212 129.669 26.5212 129.765 26.5332C129.765 26.5723 129.765 26.6115 129.765 26.6517C129.839 26.6444 129.839 26.6444 129.915 26.6369C130.181 26.6542 130.374 26.7305 130.617 26.8281C130.813 26.9043 131.009 26.9569 131.215 27.0073C131.215 27.0464 131.215 27.0855 131.215 27.1258C131.25 27.1332 131.285 27.1405 131.321 27.148C131.481 27.1886 131.629 27.2438 131.782 27.3036C131.782 27.3427 131.782 27.3818 131.782 27.4221C131.886 27.4417 131.99 27.4612 132.097 27.4814C132.097 27.5205 132.097 27.5596 132.097 27.5999C132.171 27.6274 132.171 27.6274 132.247 27.6555C132.412 27.7184 132.412 27.7184 132.538 27.7777C132.538 27.8168 132.538 27.8559 132.538 27.8962C132.621 27.9157 132.704 27.9353 132.79 27.9555C132.79 27.9946 132.79 28.0337 132.79 28.074C132.825 28.0876 132.86 28.1012 132.896 28.1152C133.083 28.2142 133.217 28.3387 133.369 28.4814C133.452 28.5581 133.452 28.5581 133.537 28.6365C133.663 28.775 133.713 28.8446 133.735 29.0221C133.777 29.0221 133.819 29.0221 133.861 29.0221C133.861 29.0612 133.861 29.1003 133.861 29.1406C133.903 29.1406 133.945 29.1406 133.987 29.1406C134.082 29.2511 134.082 29.2511 134.184 29.3962C134.218 29.4436 134.252 29.4911 134.287 29.5399C134.366 29.674 134.366 29.674 134.366 29.8517C134.407 29.8517 134.449 29.8517 134.492 29.8517C134.534 29.9367 134.576 30.022 134.618 30.1073C134.641 30.1547 134.664 30.2022 134.689 30.2511C134.744 30.3851 134.744 30.3851 134.744 30.5629C134.785 30.5629 134.827 30.5629 134.87 30.5629C134.87 30.6215 134.87 30.6802 134.87 30.7406C134.911 30.7406 134.953 30.7406 134.996 30.7406C135.017 30.9166 135.037 31.0926 135.059 31.274C135.1 31.274 135.142 31.274 135.185 31.274C135.193 31.3161 135.202 31.3581 135.21 31.4015C135.227 31.4832 135.227 31.4832 135.244 31.5666C135.255 31.6209 135.266 31.6752 135.277 31.7311C135.297 31.8638 135.297 31.8638 135.374 31.9258C135.377 32.0443 135.377 32.1629 135.374 32.2814C135.416 32.2814 135.457 32.2814 135.5 32.2814C135.5 33.4938 135.5 34.7063 135.5 35.9555C135.458 35.9555 135.417 35.9555 135.374 35.9555C135.378 36.0471 135.378 36.0471 135.382 36.1406C135.374 36.3688 135.328 36.5126 135.248 36.7258C135.203 36.8615 135.158 36.9973 135.114 37.1332C135.081 37.2357 135.081 37.2357 135.047 37.3402C135.03 37.3917 135.013 37.4431 134.996 37.4962C134.954 37.4962 134.913 37.4962 134.87 37.4962C134.858 37.5439 134.858 37.5439 134.846 37.5925C134.799 37.7607 134.74 37.9242 134.681 38.0888C134.639 38.0888 134.598 38.0888 134.555 38.0888C134.534 38.1866 134.513 38.2843 134.492 38.3851C134.45 38.3851 134.408 38.3851 134.366 38.3851C134.366 38.4437 134.366 38.5024 134.366 38.5629C134.324 38.5629 134.282 38.5629 134.24 38.5629C134.224 38.6056 134.208 38.6484 134.192 38.6925C134.106 38.8755 134.005 39.0079 133.861 39.1555C133.82 39.1555 133.778 39.1555 133.735 39.1555C133.714 39.2031 133.714 39.2031 133.692 39.2517C133.581 39.4414 133.449 39.5875 133.294 39.748C133.253 39.748 133.211 39.748 133.168 39.748C133.147 39.8067 133.127 39.8654 133.105 39.9258C132.993 40.021 132.993 40.021 132.857 40.1147C132.812 40.1461 132.768 40.1775 132.721 40.2098C132.601 40.2814 132.601 40.2814 132.475 40.2814C132.475 40.3205 132.475 40.3596 132.475 40.3999C132.292 40.5209 132.198 40.5777 131.971 40.5777C131.971 40.6168 131.971 40.6559 131.971 40.6962C131.88 40.7361 131.79 40.7755 131.699 40.8147C131.649 40.8367 131.598 40.8587 131.546 40.8814C131.404 40.9332 131.404 40.9332 131.215 40.9332C131.215 40.9723 131.215 41.0115 131.215 41.0517C131.131 41.0517 131.048 41.0517 130.962 41.0517C130.962 41.0909 130.962 41.13 130.962 41.1703C130.775 41.1898 130.588 41.2094 130.395 41.2295C130.395 41.2686 130.395 41.3077 130.395 41.348C130.01 41.4581 129.665 41.5512 129.261 41.5258C129.261 41.5649 129.261 41.604 129.261 41.6443C128.718 41.7026 128.179 41.7117 127.633 41.7103C127.541 41.7103 127.449 41.7103 127.357 41.7104C127.109 41.7104 126.862 41.71 126.614 41.7096C126.354 41.7092 126.095 41.7092 125.835 41.7091C125.345 41.7089 124.854 41.7085 124.364 41.7079C123.805 41.7072 123.246 41.7069 122.687 41.7066C121.538 41.706 120.389 41.7049 119.241 41.7036C119.241 41.5472 119.241 41.3907 119.241 41.2295C120.01 41.2295 120.78 41.2295 121.572 41.2295C121.572 36.4775 121.572 31.7255 121.572 26.8295C120.803 26.8295 120.033 26.8295 119.241 26.8295C119.241 26.6535 119.241 26.4775 119.241 26.2962ZM124.282 26.7703C124.282 31.5614 124.282 36.3525 124.282 41.2888C126.251 41.3458 126.251 41.3458 128.316 41.0517C128.43 41.0195 128.544 40.9874 128.658 40.9555C128.754 40.9283 128.85 40.9012 128.946 40.874C128.946 40.8349 128.946 40.7957 128.946 40.7555C129.091 40.7359 129.237 40.7163 129.387 40.6962C129.387 40.6571 129.387 40.618 129.387 40.5777C129.512 40.5581 129.637 40.5386 129.765 40.5184C129.765 40.4793 129.765 40.4402 129.765 40.3999C129.834 40.377 129.834 40.377 129.904 40.3536C130.088 40.2783 130.226 40.1901 130.383 40.074C130.433 40.0379 130.483 40.0019 130.534 39.9647C130.572 39.9323 130.609 39.8999 130.647 39.8666C130.647 39.8275 130.647 39.7883 130.647 39.748C130.689 39.748 130.731 39.748 130.773 39.748C130.964 39.567 130.964 39.567 131.025 39.3332C131.067 39.3332 131.109 39.3332 131.152 39.3332C131.296 39.1814 131.341 39.127 131.341 38.9184C131.382 38.9184 131.424 38.9184 131.467 38.9184C131.487 38.8206 131.508 38.7229 131.53 38.6221C131.571 38.6221 131.613 38.6221 131.656 38.6221C131.719 38.4903 131.782 38.3582 131.845 38.2258C131.863 38.1887 131.881 38.1516 131.899 38.1134C132 37.8992 132.057 37.7307 132.034 37.4962C132.075 37.4962 132.117 37.4962 132.16 37.4962C132.16 37.3984 132.16 37.3006 132.16 37.1999C132.201 37.1999 132.243 37.1999 132.286 37.1999C132.317 36.8186 132.317 36.8186 132.349 36.4295C132.391 36.4295 132.432 36.4295 132.475 36.4295C132.547 35.8951 132.544 35.3671 132.538 34.8295C132.58 34.8295 132.621 34.8295 132.664 34.8295C132.664 34.3015 132.664 33.7735 132.664 33.2295C132.622 33.2295 132.581 33.2295 132.538 33.2295C132.539 33.1233 132.539 33.1233 132.54 33.0149C132.546 32.3203 132.546 32.3203 132.475 31.6295C132.433 31.6295 132.392 31.6295 132.349 31.6295C132.353 31.5635 132.357 31.4975 132.361 31.4295C132.363 31.1222 132.265 30.851 132.16 30.5629C132.118 30.5629 132.077 30.5629 132.034 30.5629C132.03 30.4969 132.026 30.4309 132.022 30.3629C131.981 30.04 131.822 29.777 131.656 29.4962C131.614 29.4962 131.573 29.4962 131.53 29.4962C131.509 29.3984 131.488 29.3006 131.467 29.1999C131.425 29.1999 131.383 29.1999 131.341 29.1999C131.321 29.1535 131.302 29.107 131.282 29.0592C131.219 28.9081 131.219 28.9081 131.152 28.7851C131.11 28.7851 131.068 28.7851 131.025 28.7851C131.005 28.7264 130.984 28.6677 130.962 28.6073C130.876 28.506 130.876 28.506 130.773 28.4295C130.732 28.4295 130.69 28.4295 130.647 28.4295C130.616 28.3415 130.616 28.3415 130.584 28.2517C130.543 28.2517 130.501 28.2517 130.458 28.2517C130.458 28.2126 130.458 28.1735 130.458 28.1332C130.336 28.0388 130.336 28.0388 130.183 27.948C130.131 27.9161 130.08 27.8842 130.028 27.8513C129.899 27.7678 129.899 27.7678 129.765 27.7777C129.765 27.7386 129.765 27.6995 129.765 27.6592C129.64 27.6396 129.516 27.62 129.387 27.5999C129.387 27.5608 129.387 27.5217 129.387 27.4814C129.241 27.4618 129.096 27.4423 128.946 27.4221C128.946 27.383 128.946 27.3439 128.946 27.3036C128.259 27.0736 127.6 26.9107 126.866 26.948C126.866 26.9089 126.866 26.8698 126.866 26.8295C125.587 26.8002 125.587 26.8002 124.282 26.7703Z" fill="#A3A3A3"/>
<path d="M37.7527 25.9921C37.8056 25.992 37.8585 25.9919 37.9129 25.9919C38.0242 25.9919 38.1354 25.992 38.2466 25.9922C38.4159 25.9925 38.5851 25.9922 38.7544 25.9918C38.8629 25.9919 38.9715 25.9919 39.0801 25.9921C39.1302 25.9919 39.1803 25.9918 39.2319 25.9917C39.6554 25.9934 40.0339 26.0309 40.4311 26.1798C40.6501 26.2583 40.8723 26.327 41.0948 26.3962C41.1379 26.4097 41.181 26.4231 41.2254 26.4369C41.3289 26.4691 41.4324 26.5012 41.5359 26.5333C41.5359 26.5724 41.5359 26.6115 41.5359 26.6518C41.571 26.6591 41.6061 26.6665 41.6423 26.674C41.8019 26.7146 41.9505 26.7698 42.1031 26.8296C42.1031 26.8687 42.1031 26.9078 42.1031 26.9481C42.2071 26.9676 42.3111 26.9872 42.4182 27.0073C42.4182 27.0465 42.4182 27.0856 42.4182 27.1259C42.4806 27.1259 42.543 27.1259 42.6073 27.1259C42.6073 27.165 42.6073 27.2041 42.6073 27.2444C42.653 27.2597 42.6987 27.2749 42.7459 27.2907C42.93 27.366 43.0679 27.4542 43.2257 27.5703C43.2755 27.6064 43.3253 27.6424 43.3766 27.6796C43.4139 27.712 43.4511 27.7443 43.4896 27.7777C43.4896 27.8168 43.4896 27.8559 43.4896 27.8962C43.5312 27.8962 43.5727 27.8962 43.6156 27.8962C43.718 27.9777 43.718 27.9777 43.8047 28.074C43.8047 28.1131 43.8047 28.1522 43.8047 28.1925C43.8671 28.2121 43.9294 28.2316 43.9937 28.2518C43.9937 28.2909 43.9937 28.33 43.9937 28.3703C44.0353 28.3703 44.0769 28.3703 44.1198 28.3703C44.3088 28.5754 44.3088 28.5754 44.3088 28.7259C44.3504 28.7259 44.392 28.7259 44.4349 28.7259C44.5796 28.8776 44.6239 28.9321 44.6239 29.1407C44.6655 29.1407 44.7071 29.1407 44.75 29.1407C44.7708 29.2189 44.7916 29.2971 44.813 29.3777C44.8546 29.3777 44.8962 29.3777 44.939 29.3777C45.0677 29.5499 45.1281 29.6385 45.1281 29.8518C45.1697 29.8518 45.2113 29.8518 45.2541 29.8518C45.2749 29.9691 45.2957 30.0865 45.3172 30.2073C45.3588 30.2073 45.4004 30.2073 45.4432 30.2073C45.6323 30.5925 45.6323 30.5925 45.6323 30.8592C45.6739 30.8592 45.7155 30.8592 45.7583 30.8592C45.775 30.915 45.7918 30.9707 45.809 31.0282C45.8424 31.1389 45.8424 31.1389 45.8765 31.2518C45.9094 31.3611 45.9094 31.3611 45.9429 31.4726C45.9856 31.6093 46.0313 31.7451 46.0813 31.8796C46.1478 32.0783 46.1452 32.2521 46.1364 32.4592C46.178 32.4592 46.2196 32.4592 46.2625 32.4592C46.3131 32.9849 46.3353 33.5055 46.3334 34.0333C46.3336 34.1001 46.3339 34.167 46.3341 34.2359C46.3336 34.6737 46.3086 35.1051 46.2625 35.5407C46.2209 35.5407 46.1793 35.5407 46.1364 35.5407C46.1403 35.6055 46.1442 35.6702 46.1483 35.737C46.1483 36.2396 45.9322 36.7303 45.7583 37.1999C45.7167 37.1999 45.6751 37.1999 45.6323 37.1999C45.6206 37.2788 45.6206 37.2788 45.6086 37.3592C45.5728 37.5379 45.521 37.6861 45.4432 37.8518C45.4016 37.8518 45.36 37.8518 45.3172 37.8518C45.2964 37.9691 45.2756 38.0865 45.2541 38.2073C45.2125 38.2073 45.171 38.2073 45.1281 38.2073C45.1281 38.266 45.1281 38.3247 45.1281 38.3851C45.0865 38.3851 45.0449 38.3851 45.0021 38.3851C44.9813 38.4829 44.9605 38.5807 44.939 38.6814C44.8974 38.6814 44.8559 38.6814 44.813 38.6814C44.7974 38.723 44.7818 38.7645 44.7657 38.8073C44.6761 39.0011 44.569 39.1639 44.4349 39.3333C44.3933 39.3333 44.3517 39.3333 44.3088 39.3333C44.3088 39.3724 44.3088 39.4115 44.3088 39.4518C44.2474 39.5125 44.1839 39.5714 44.1198 39.6296C44.0769 39.6821 44.034 39.7347 43.9898 39.7888C43.9495 39.834 43.9092 39.8793 43.8677 39.9259C43.8261 39.9259 43.7845 39.9259 43.7416 39.9259C43.7416 39.965 43.7416 40.0041 43.7416 40.0444C43.4599 40.2814 43.4599 40.2814 43.3005 40.2814C43.3005 40.3205 43.3005 40.3596 43.3005 40.3999C43.1946 40.4893 43.1946 40.4893 43.0563 40.5851C43.011 40.617 42.9656 40.649 42.9189 40.6819C42.7963 40.7555 42.7963 40.7555 42.6703 40.7555C42.6703 40.7946 42.6703 40.8337 42.6703 40.874C42.394 41.0518 42.394 41.0518 42.2291 41.0518C42.2291 41.0909 42.2291 41.13 42.2291 41.1703C42.1388 41.2102 42.0481 41.2496 41.9574 41.2888C41.9069 41.3108 41.8565 41.3328 41.8045 41.3555C41.662 41.4073 41.662 41.4073 41.4729 41.4073C41.4729 41.4465 41.4729 41.4856 41.4729 41.5259C41.3897 41.5259 41.3065 41.5259 41.2208 41.5259C41.2208 41.565 41.2208 41.6041 41.2208 41.6444C41.0935 41.6815 40.9661 41.7185 40.8387 41.7555C40.7678 41.7761 40.6969 41.7967 40.6238 41.818C40.5138 41.8494 40.5138 41.8494 40.4015 41.8814C40.307 41.9122 40.307 41.9122 40.2105 41.9435C39.8995 42.0262 39.5871 42.018 39.2662 42.0178C39.1999 42.018 39.1336 42.0183 39.0654 42.0185C38.9255 42.0189 38.7857 42.0189 38.6458 42.0186C38.4337 42.0185 38.2216 42.0198 38.0095 42.0213C37.873 42.0215 37.7365 42.0215 37.6001 42.0215C37.5375 42.022 37.4749 42.0226 37.4104 42.0231C36.7741 42.0192 36.2077 41.8394 35.612 41.6444C35.612 41.6053 35.612 41.5662 35.612 41.5259C35.5782 41.5185 35.5444 41.5112 35.5095 41.5036C35.3306 41.4594 35.1568 41.4042 34.9817 41.3481C34.9817 41.309 34.9817 41.2699 34.9817 41.2296C34.857 41.21 34.7322 41.1905 34.6036 41.1703C34.6036 41.1312 34.6036 41.0921 34.6036 41.0518C34.5542 41.0335 34.5048 41.0151 34.4539 40.9962C34.2885 40.9333 34.2885 40.9333 34.1625 40.874C34.1625 40.8349 34.1625 40.7958 34.1625 40.7555C34.0958 40.7344 34.0958 40.7344 34.0278 40.7129C33.8157 40.6236 33.6602 40.5092 33.4811 40.3703C33.3888 40.2997 33.3888 40.2997 33.2947 40.2277C33.2483 40.1868 33.2019 40.1458 33.1541 40.1036C33.1541 40.0645 33.1541 40.0254 33.1541 39.9851C33.0918 39.9656 33.0294 39.946 32.9651 39.9259C32.9651 39.8867 32.9651 39.8476 32.9651 39.8073C32.9235 39.8073 32.8819 39.8073 32.839 39.8073C32.65 39.6022 32.65 39.6022 32.65 39.4518C32.6084 39.4518 32.5668 39.4518 32.5239 39.4518C32.3349 39.2467 32.3349 39.2467 32.3349 39.0962C32.2933 39.0962 32.2517 39.0962 32.2088 39.0962C32.1776 38.9789 32.1776 38.9789 32.1458 38.8592C32.1042 38.8592 32.0626 38.8592 32.0198 38.8592C31.999 38.7614 31.9782 38.6636 31.9567 38.5629C31.9152 38.5629 31.8736 38.5629 31.8307 38.5629C31.8307 38.5042 31.8307 38.4456 31.8307 38.3851C31.7891 38.3851 31.7475 38.3851 31.7047 38.3851C31.6839 38.2873 31.6631 38.1896 31.6416 38.0888C31.6001 38.0888 31.5585 38.0888 31.5156 38.0888C31.4989 38.0488 31.4821 38.0088 31.4649 37.9675C31.4426 37.9147 31.4204 37.8618 31.3974 37.8073C31.3645 37.729 31.3645 37.729 31.331 37.649C31.268 37.4988 31.268 37.4988 31.1921 37.3731C31.1375 37.2592 31.1375 37.2592 31.1375 37.0222C31.0959 37.0222 31.0543 37.0222 31.0114 37.0222C31.0031 36.9843 30.9947 36.9465 30.9861 36.9076C30.975 36.8586 30.9638 36.8096 30.9524 36.7592C30.9414 36.7104 30.9304 36.6616 30.9191 36.6113C30.8975 36.4902 30.8975 36.4902 30.8224 36.4296C30.8198 36.3111 30.8197 36.1925 30.8224 36.074C30.7808 36.074 30.7392 36.074 30.6963 36.074C30.688 36.002 30.6796 35.9299 30.671 35.8557C30.6597 35.7618 30.6485 35.6679 30.6373 35.574C30.6318 35.5265 30.6263 35.4789 30.6206 35.4299C30.6141 35.1996 30.6141 35.1996 30.5073 35.0073C30.5017 34.8623 30.5 34.7189 30.5011 34.5738C30.5012 34.5305 30.5013 34.4871 30.5014 34.4425C30.5017 34.3036 30.5025 34.1647 30.5033 34.0259C30.5036 33.9319 30.5039 33.838 30.5042 33.744C30.5049 33.5133 30.506 33.2825 30.5073 33.0518C30.5489 33.0518 30.5905 33.0518 30.6333 33.0518C30.6326 33.0095 30.6318 32.9673 30.6311 32.9238C30.6279 32.6036 30.6367 32.3005 30.6963 31.9851C30.7379 31.9851 30.7795 31.9851 30.8224 31.9851C30.8185 31.9063 30.8185 31.9063 30.8145 31.8259C30.8225 31.6275 30.8652 31.5128 30.9484 31.3333C30.9717 31.2349 30.9933 31.1362 31.0114 31.037C31.053 31.037 31.0946 31.037 31.1375 31.037C31.1583 30.8805 31.1791 30.7241 31.2005 30.5629C31.2421 30.5629 31.2837 30.5629 31.3265 30.5629C31.3343 30.5311 31.3421 30.4993 31.3502 30.4666C31.3973 30.2984 31.4559 30.1349 31.5156 29.9703C31.5572 29.9703 31.5988 29.9703 31.6416 29.9703C31.6624 29.8725 31.6832 29.7747 31.7047 29.674C31.7463 29.674 31.7879 29.674 31.8307 29.674C31.8307 29.6153 31.8307 29.5567 31.8307 29.4962C31.8723 29.4962 31.9139 29.4962 31.9567 29.4962C31.9632 29.4632 31.9697 29.4302 31.9764 29.3962C32.0287 29.2309 32.1044 29.1043 32.2088 28.9629C32.2504 28.9629 32.292 28.9629 32.3349 28.9629C32.3522 28.9285 32.3695 28.8941 32.3873 28.8587C32.5827 28.506 32.8486 28.2267 33.1753 27.9777C33.2949 27.8874 33.2949 27.8874 33.4496 27.737C33.5766 27.6175 33.6972 27.5147 33.8474 27.4222C33.889 27.4222 33.9306 27.4222 33.9734 27.4222C33.9734 27.383 33.9734 27.3439 33.9734 27.3036C34.2497 27.1259 34.2497 27.1259 34.4146 27.1259C34.4146 27.0867 34.4146 27.0476 34.4146 27.0073C34.5185 26.9878 34.6225 26.9682 34.7297 26.9481C34.7297 26.909 34.7297 26.8699 34.7297 26.8296C35.0842 26.6518 35.0842 26.6518 35.2969 26.6518C35.2969 26.6127 35.2969 26.5736 35.2969 26.5333C35.4673 26.4733 35.638 26.4142 35.8089 26.3555C35.8568 26.3385 35.9048 26.3216 35.9541 26.3041C36.2281 26.2108 36.4503 26.1564 36.7463 26.1777C36.7463 26.1386 36.7463 26.0995 36.7463 26.0592C37.0846 26.006 37.41 25.9912 37.7527 25.9921ZM37.3135 26.5333C37.3135 26.5724 37.3135 26.6115 37.3135 26.6518C37.2762 26.6547 37.2389 26.6576 37.2005 26.6606C36.9234 26.6852 36.6852 26.714 36.4312 26.8296C36.4312 26.8687 36.4312 26.9078 36.4312 26.9481C36.3272 26.9676 36.2233 26.9872 36.1161 27.0073C36.1161 27.0465 36.1161 27.0856 36.1161 27.1259C36.0635 27.1332 36.0635 27.1332 36.0098 27.1407C35.6275 27.2573 35.3454 27.6037 35.1078 27.8962C35.087 27.9549 35.0662 28.0136 35.0448 28.074C35.0032 28.074 34.9616 28.074 34.9187 28.074C34.8771 28.1388 34.8355 28.2036 34.7927 28.2703C34.7693 28.3067 34.7459 28.3432 34.7218 28.3807C34.653 28.4956 34.653 28.4956 34.6666 28.6666C34.6251 28.6666 34.5835 28.6666 34.5406 28.6666C34.3248 29.0672 34.186 29.4014 34.1625 29.8518C34.1209 29.8518 34.0793 29.8518 34.0364 29.8518C33.8977 30.2948 33.8977 30.2948 33.808 30.7481C33.7844 30.9185 33.7844 30.9185 33.7213 30.9777C33.6476 31.4319 33.6521 31.882 33.6583 32.3407C33.6167 32.3407 33.5751 32.3407 33.5323 32.3407C33.5323 33.4553 33.5323 34.57 33.5323 35.7185C33.5739 35.7185 33.6155 35.7185 33.6583 35.7185C33.6572 35.799 33.6572 35.799 33.6561 35.8812C33.6529 36.287 33.6623 36.6793 33.7213 37.0814C33.7629 37.0814 33.8045 37.0814 33.8474 37.0814C33.8415 37.1786 33.8415 37.1786 33.8356 37.2777C33.8337 37.6027 33.9352 37.8992 34.0364 38.2073C34.078 38.2073 34.1196 38.2073 34.1625 38.2073C34.1833 38.3833 34.2041 38.5593 34.2255 38.7407C34.2671 38.7407 34.3087 38.7407 34.3515 38.7407C34.3593 38.8042 34.3671 38.8678 34.3752 38.9333C34.408 39.1187 34.4398 39.2346 34.5406 39.3925C34.5822 39.3925 34.6238 39.3925 34.6666 39.3925C34.6874 39.4903 34.7082 39.5881 34.7297 39.6888C34.7713 39.6888 34.8129 39.6888 34.8557 39.6888C34.8632 39.7237 34.8707 39.7585 34.8784 39.7944C34.9829 40.1349 35.2556 40.3708 35.5489 40.5777C35.5931 40.6242 35.6373 40.6706 35.6829 40.7185C35.9979 40.9889 36.376 41.2296 36.8094 41.2296C36.8094 41.2687 36.8094 41.3078 36.8094 41.3481C37.298 41.528 37.7679 41.5536 38.2872 41.549C38.4162 41.5481 38.5451 41.549 38.6741 41.5502C39.3372 41.5511 39.8663 41.4271 40.4646 41.1703C40.4646 41.1312 40.4646 41.0921 40.4646 41.0518C40.5101 41.0469 40.5555 41.042 40.6024 41.037C40.8187 40.9827 40.9271 40.8935 41.0948 40.7555C41.1533 40.7139 41.2118 40.6724 41.272 40.6296C41.3175 40.5929 41.363 40.5562 41.4099 40.5185C41.4099 40.4793 41.4099 40.4402 41.4099 40.3999C41.4515 40.3999 41.4931 40.3999 41.5359 40.3999C41.5567 40.3217 41.5775 40.2435 41.5989 40.1629C41.6405 40.1629 41.6821 40.1629 41.725 40.1629C41.8286 40.0313 41.9233 39.9008 42.0164 39.7629C42.0562 39.7065 42.0562 39.7065 42.0967 39.649C42.2367 39.4438 42.2922 39.3458 42.2922 39.0962C42.3338 39.0962 42.3754 39.0962 42.4182 39.0962C42.482 38.9459 42.5449 38.7953 42.6073 38.6444C42.6253 38.6021 42.6433 38.5599 42.6619 38.5164C42.7648 38.2654 42.8184 38.0661 42.7963 37.7925C42.8379 37.7925 42.8795 37.7925 42.9224 37.7925C43.0458 37.3131 43.1442 36.8648 43.1114 36.3703C43.153 36.3703 43.1946 36.3703 43.2375 36.3703C43.3124 35.6582 43.3101 34.9473 43.3087 34.2324C43.3084 34.03 43.3087 33.8276 43.3091 33.6252C43.3202 32.6548 43.3202 32.6548 43.2375 31.6888C43.2167 31.6693 43.1959 31.6497 43.1745 31.6296C43.1522 31.4904 43.1331 31.3508 43.1154 31.211C43.0729 30.8888 43.0173 30.5791 42.9224 30.2666C42.8808 30.2666 42.8392 30.2666 42.7963 30.2666C42.7755 30.0515 42.7547 29.8364 42.7333 29.6147C42.6917 29.6147 42.6501 29.6147 42.6073 29.6147C42.6021 29.5561 42.5969 29.4974 42.5915 29.437C42.5581 29.2096 42.4671 29.0326 42.3512 28.8323C42.2922 28.7259 42.2922 28.7259 42.2291 28.5481C42.1875 28.5481 42.146 28.5481 42.1031 28.5481C42.0836 28.5016 42.0641 28.4552 42.044 28.4073C41.9816 28.2563 41.9816 28.2563 41.914 28.1333C41.8724 28.1333 41.8309 28.1333 41.788 28.1333C41.7841 28.1003 41.7802 28.0673 41.7762 28.0333C41.7026 27.8364 41.5717 27.7422 41.4099 27.5999C41.3736 27.564 41.3372 27.528 41.2998 27.4909C41.2621 27.4536 41.2243 27.4162 41.1854 27.3777C41.1502 27.3426 41.115 27.3074 41.0788 27.2712C40.9577 27.1765 40.8704 27.1499 40.7166 27.1259C40.7166 27.0867 40.7166 27.0476 40.7166 27.0073C40.5919 26.9878 40.4671 26.9682 40.3385 26.9481C40.3385 26.909 40.3385 26.8699 40.3385 26.8296C40.0472 26.6981 39.849 26.6291 39.5192 26.6518C39.5192 26.6127 39.5192 26.5736 39.5192 26.5333C38.7867 26.4425 38.046 26.4425 37.3135 26.5333Z" fill="#A3A3A3"/>
<path d="M14.5 26.2964C15.5261 26.295 16.5523 26.294 17.5784 26.2933C18.0549 26.293 18.5315 26.2926 19.0081 26.2919C19.4239 26.2913 19.8397 26.2909 20.2555 26.2908C20.4753 26.2907 20.695 26.2906 20.9148 26.2901C22.9076 26.2863 22.9076 26.2863 23.512 26.3556C23.5328 26.3752 23.5536 26.3948 23.575 26.4149C23.7444 26.4386 23.913 26.4594 24.0831 26.4779C24.1309 26.4833 24.1787 26.4886 24.228 26.4942C24.3464 26.5075 24.4649 26.5205 24.5833 26.5334C24.5833 26.5725 24.5833 26.6116 24.5833 26.6519C24.6594 26.6464 24.6594 26.6464 24.7369 26.6408C25.023 26.655 25.262 26.7361 25.5286 26.8297C25.5286 26.8688 25.5286 26.9079 25.5286 26.9482C25.6742 26.9678 25.8198 26.9873 25.9698 27.0075C25.9698 27.0466 25.9698 27.0857 25.9698 27.126C26.0322 27.126 26.0946 27.126 26.1589 27.126C26.1589 27.1651 26.1589 27.2042 26.1589 27.2445C26.2628 27.2641 26.3668 27.2836 26.474 27.3038C26.474 27.3429 26.474 27.382 26.474 27.4223C26.5195 27.437 26.5649 27.4516 26.6118 27.4668C26.9348 27.6017 27.1529 27.805 27.3562 28.0742C27.3562 28.1133 27.3562 28.1524 27.3562 28.1927C27.3978 28.1927 27.4394 28.1927 27.4823 28.1927C27.5427 28.2964 27.6031 28.4001 27.6635 28.5038C27.6971 28.5615 27.7307 28.6193 27.7654 28.6788C27.7968 28.7335 27.8281 28.7882 27.8604 28.8445C27.8853 28.8858 27.9101 28.927 27.9357 28.9695C27.9865 29.0816 27.9865 29.0816 27.9865 29.3186C28.0281 29.3186 28.0696 29.3186 28.1125 29.3186C28.1827 29.7449 28.1871 30.1655 28.1873 30.5964C28.1881 30.6671 28.1889 30.7378 28.1897 30.8106C28.1903 31.1676 28.181 31.4718 28.0495 31.8075C28.0294 31.8645 28.0093 31.9215 27.9887 31.9802C27.9684 32.0332 27.9482 32.0862 27.9274 32.1408C27.9073 32.1941 27.8872 32.2475 27.8666 32.3024C27.7945 32.466 27.7154 32.61 27.6083 32.7556C27.5667 32.7556 27.5251 32.7556 27.4823 32.7556C27.4659 32.7898 27.4495 32.8239 27.4326 32.8591C27.3508 33.0023 27.2578 33.1117 27.1436 33.2334C27.1067 33.2732 27.0698 33.313 27.0318 33.354C26.9157 33.4662 26.8018 33.5583 26.663 33.6445C26.6214 33.6445 26.5798 33.6445 26.537 33.6445C26.537 33.6836 26.537 33.7228 26.537 33.7631C26.2607 33.9408 26.2607 33.9408 26.0958 33.9408C26.0958 33.9799 26.0958 34.0191 26.0958 34.0593C25.9711 34.0789 25.8463 34.0985 25.7177 34.1186C25.7177 34.1577 25.7177 34.1968 25.7177 34.2371C25.6391 34.2672 25.5603 34.2968 25.4814 34.326C25.4375 34.3425 25.3936 34.359 25.3484 34.376C25.2135 34.4149 25.2135 34.4149 24.9615 34.4149C24.9615 34.454 24.9615 34.4931 24.9615 34.5334C24.9211 34.5406 24.8807 34.5478 24.8391 34.5552C24.591 34.6004 24.3491 34.6469 24.1067 34.7149C23.8837 34.7721 23.6734 34.7969 23.4438 34.8151C23.3178 34.824 23.3178 34.824 23.1969 34.889C23.0151 34.8956 22.8349 34.8987 22.6531 34.8989C22.5986 34.8991 22.5442 34.8993 22.4881 34.8995C22.3726 34.8998 22.2571 34.9 22.1415 34.9C21.9663 34.9001 21.7911 34.9012 21.6158 34.9023C21.5034 34.9025 21.3909 34.9026 21.2784 34.9026C21.2266 34.9031 21.1748 34.9035 21.1214 34.9039C20.6068 34.9021 20.1618 34.7847 19.6677 34.6519C19.6469 36.8226 19.6261 38.9933 19.6047 41.2297C20.4366 41.2297 21.2684 41.2297 22.1255 41.2297C22.1255 41.3862 22.1255 41.5426 22.1255 41.7038C19.6091 41.7038 17.0927 41.7038 14.5 41.7038C14.5 41.5473 14.5 41.3909 14.5 41.2297C15.2903 41.2297 16.0806 41.2297 16.8948 41.2297C16.874 36.4777 16.8532 31.7257 16.8318 26.8297C16.0623 26.8297 15.2928 26.8297 14.5 26.8297C14.5 26.6537 14.5 26.4777 14.5 26.2964ZM19.6047 26.8297C19.6047 29.2155 19.6047 31.6013 19.6047 34.0593C19.7503 34.0789 19.8958 34.0985 20.0458 34.1186C20.0458 34.1577 20.0458 34.1968 20.0458 34.2371C20.9252 34.5195 22.0692 34.5459 22.9448 34.2371C22.9448 34.198 22.9448 34.1589 22.9448 34.1186C23.0046 34.1162 23.0644 34.1137 23.126 34.1112C23.5337 34.0588 23.8707 33.795 24.2052 33.5853C24.2052 33.5462 24.2052 33.5071 24.2052 33.4668C24.2884 33.4276 24.3716 33.3885 24.4573 33.3482C24.4573 33.3091 24.4573 33.27 24.4573 33.2297C24.4989 33.2297 24.5405 33.2297 24.5833 33.2297C24.6145 33.1124 24.6145 33.1124 24.6464 32.9927C24.6879 32.9927 24.7295 32.9927 24.7724 32.9927C24.7724 32.934 24.7724 32.8753 24.7724 32.8149C24.814 32.8149 24.8556 32.8149 24.8984 32.8149C24.9192 32.6976 24.94 32.5802 24.9615 32.4593C25.0031 32.4593 25.0446 32.4593 25.0875 32.4593C25.1083 32.2833 25.1291 32.1073 25.1505 31.926C25.1921 31.926 25.2337 31.926 25.2766 31.926C25.2804 31.8889 25.2842 31.8518 25.2881 31.8135C25.2961 31.7409 25.2961 31.7409 25.3041 31.6668C25.3118 31.5946 25.3118 31.5946 25.3196 31.5209C25.3396 31.3927 25.3396 31.3927 25.4026 31.2742C25.4086 31.189 25.4108 31.1037 25.411 31.0184C25.4111 30.9682 25.4111 30.9181 25.4112 30.8664C25.411 30.814 25.4107 30.7615 25.4105 30.7075C25.4107 30.6548 25.411 30.6022 25.4112 30.5479C25.4111 30.4978 25.4111 30.4477 25.411 30.3962C25.4109 30.327 25.4109 30.327 25.4108 30.2564C25.4151 30.1471 25.4151 30.1471 25.3396 30.089C25.3249 29.9893 25.3136 29.8892 25.3041 29.789C25.2962 29.7073 25.2962 29.7073 25.2881 29.6239C25.2843 29.5818 25.2805 29.5398 25.2766 29.4964C25.235 29.4964 25.1934 29.4964 25.1505 29.4964C25.1518 29.4328 25.1531 29.3693 25.1545 29.3038C25.1514 29.1321 25.1422 29.0054 25.0875 28.8445C25.0459 28.8445 25.0043 28.8445 24.9615 28.8445C24.9303 28.6392 24.9303 28.6392 24.8984 28.4297C24.8568 28.4297 24.8152 28.4297 24.7724 28.4297C24.7724 28.3711 24.7724 28.3124 24.7724 28.2519C24.7308 28.2519 24.6892 28.2519 24.6464 28.2519C24.6152 28.1346 24.6152 28.1346 24.5833 28.0149C24.5417 28.0149 24.5001 28.0149 24.4573 28.0149C24.4261 27.8976 24.4261 27.8976 24.3943 27.7779C24.3527 27.7779 24.3111 27.7779 24.2682 27.7779C24.2682 27.7388 24.2682 27.6996 24.2682 27.6593C24.012 27.47 24.012 27.47 23.701 27.4223C23.701 27.3832 23.701 27.3441 23.701 27.3038C23.5923 27.2552 23.4832 27.2072 23.3741 27.1593C23.3134 27.1325 23.2528 27.1057 23.1902 27.0781C22.9313 26.9779 22.6998 26.9401 22.4209 26.9445C22.3442 26.9458 22.2676 26.947 22.1885 26.9482C22.1885 26.9091 22.1885 26.87 22.1885 26.8297C21.3359 26.8297 20.4832 26.8297 19.6047 26.8297Z" fill="#A3A3A3"/>
<path d="M64.9459 26.2886C65.005 26.2888 65.0642 26.2889 65.1251 26.2891C65.1875 26.2891 65.2498 26.289 65.314 26.289C65.5246 26.2889 65.7352 26.2892 65.9457 26.2895C66.096 26.2895 66.2463 26.2895 66.3965 26.2895C66.7633 26.2895 67.1301 26.2897 67.4968 26.2901C67.9235 26.2905 68.3501 26.2906 68.7767 26.2907C69.5376 26.2908 70.2984 26.2912 71.0593 26.2918C71.7986 26.2923 72.5378 26.2927 73.2771 26.293C73.3454 26.293 73.3454 26.293 73.4151 26.293C73.6436 26.2931 73.872 26.2932 74.1005 26.2933C75.9968 26.2939 77.8932 26.295 79.7896 26.2962C79.7896 27.8411 79.7896 29.386 79.7896 30.9777C79.644 30.9777 79.4985 30.9777 79.3485 30.9777C79.3447 30.9185 79.3408 30.8593 79.3369 30.7983C79.3316 30.7219 79.3263 30.6454 79.3209 30.5666C79.3158 30.4903 79.3107 30.414 79.3054 30.3354C79.3076 30.1564 79.3076 30.1564 79.2224 30.0888C79.2178 29.9389 79.2166 29.7906 79.2185 29.6407C79.2188 29.5986 79.2191 29.5564 79.2194 29.513C79.2201 29.4087 79.2212 29.3043 79.2224 29.1999C79.1808 29.1999 79.1392 29.1999 79.0964 29.1999C79.0902 29.1534 79.084 29.1069 79.0777 29.059C79.0192 28.6723 78.9409 28.402 78.7183 28.074C78.7183 28.0154 78.7183 27.9567 78.7183 27.8962C78.6767 27.8962 78.6351 27.8962 78.5922 27.8962C78.587 27.8596 78.5818 27.8229 78.5765 27.7851C78.5419 27.6511 78.5419 27.6511 78.415 27.5925C78.3695 27.5754 78.324 27.5583 78.2771 27.5407C78.1931 27.5012 78.1091 27.4617 78.025 27.4222C78.025 27.3831 78.025 27.3439 78.025 27.3036C77.9834 27.2975 77.9418 27.2914 77.899 27.2851C77.7099 27.2444 77.7099 27.2444 77.4815 27.1574C77.203 27.0577 76.9339 27.0225 76.6386 26.9962C76.5898 26.9914 76.5409 26.9865 76.4906 26.9815C76.372 26.9698 76.2532 26.9589 76.1344 26.9481C76.1344 26.909 76.1344 26.8699 76.1344 26.8296C75.2817 26.8296 74.4291 26.8296 73.5506 26.8296C73.5506 31.5816 73.5506 36.3336 73.5506 41.2296C74.3824 41.2296 75.2143 41.2296 76.0714 41.2296C76.0714 41.386 76.0714 41.5425 76.0714 41.7037C73.5134 41.7037 70.9554 41.7037 68.3198 41.7037C68.3198 41.5472 68.3198 41.3908 68.3198 41.2296C69.1517 41.21 69.9836 41.1905 70.8407 41.1703C70.8407 36.4379 70.8407 31.7054 70.8407 26.8296C70.0088 26.8296 69.1769 26.8296 68.3198 26.8296C68.3198 26.8687 68.3198 26.9078 68.3198 26.9481C68.208 26.9568 68.208 26.9568 68.0938 26.9657C67.3619 27.0279 67.3619 27.0279 66.6717 27.256C66.5552 27.3036 66.5552 27.3036 66.3662 27.3036C66.3662 27.3428 66.3662 27.3819 66.3662 27.4222C66.2754 27.4778 66.1845 27.5332 66.0929 27.5877C65.8642 27.7437 65.6996 27.9396 65.6099 28.1925C65.5683 28.1925 65.5267 28.1925 65.4839 28.1925C65.4631 28.349 65.4423 28.5054 65.4209 28.6666C65.3793 28.6666 65.3377 28.6666 65.2948 28.6666C65.2948 28.8035 65.2948 28.9404 65.2948 29.0814C65.2532 29.0814 65.2116 29.0814 65.1688 29.0814C65.1695 29.119 65.1702 29.1566 65.171 29.1953C65.1771 29.7907 65.1407 30.3834 65.1058 30.9777C65.0126 30.9793 64.9193 30.9805 64.8261 30.9814C64.7482 30.9825 64.7482 30.9825 64.6688 30.9835C64.5386 30.9777 64.5386 30.9777 64.4756 30.9185C64.4692 30.7764 64.467 30.636 64.4674 30.4938C64.4673 30.4494 64.4672 30.405 64.4671 30.3592C64.4668 30.2117 64.467 30.0641 64.4672 29.9166C64.4671 29.8145 64.4671 29.7125 64.467 29.6104C64.4669 29.3962 64.467 29.182 64.4673 28.9677C64.4677 28.6925 64.4675 28.4173 64.4671 28.1421C64.4669 27.9312 64.467 27.7204 64.4671 27.5095C64.4672 27.408 64.4671 27.3065 64.467 27.205C64.4668 27.0634 64.4671 26.9218 64.4674 26.7802C64.4673 26.7378 64.4671 26.6954 64.467 26.6518C64.4688 26.2586 64.5376 26.2895 64.9459 26.2886Z" fill="#A3A3A3"/>
<path d="M86.1114 25.9864C86.1601 25.9864 86.2088 25.9864 86.2589 25.9865C86.3612 25.9866 86.4636 25.9871 86.5659 25.9878C86.7215 25.9889 86.877 25.9891 87.0326 25.989C87.1325 25.9893 87.2325 25.9897 87.3324 25.9901C87.4014 25.9902 87.4014 25.9902 87.4717 25.9903C87.7536 25.9927 88.0201 26.0165 88.2974 26.0593C88.2974 26.0984 88.2974 26.1375 88.2974 26.1778C88.339 26.1742 88.3806 26.1705 88.4235 26.1667C88.6813 26.1819 88.8776 26.2642 89.1167 26.3556C89.1167 26.3947 89.1167 26.4338 89.1167 26.4741C89.2623 26.4937 89.4079 26.5132 89.5578 26.5334C89.5578 26.5725 89.5578 26.6116 89.5578 26.6519C89.725 26.7156 89.8908 26.776 90.062 26.8297C90.062 26.8688 90.062 26.9079 90.062 26.9482C90.1868 26.9677 90.3116 26.9873 90.4401 27.0074C90.4401 27.0466 90.4401 27.0857 90.4401 27.126C90.838 27.2313 90.838 27.2313 91.2437 27.2074C91.4223 27.1048 91.4543 27.0153 91.5115 26.8297C91.5531 26.8297 91.5947 26.8297 91.6375 26.8297C91.6375 26.7123 91.6375 26.595 91.6375 26.4741C91.8247 26.4741 92.0119 26.4741 92.2047 26.4741C92.2047 28.0386 92.2047 29.603 92.2047 31.2149C92.0175 31.2149 91.8304 31.2149 91.6375 31.2149C91.6337 31.1642 91.6299 31.1136 91.626 31.0614C91.6207 30.9959 91.6154 30.9305 91.61 30.863C91.6023 30.765 91.6023 30.765 91.5944 30.6651C91.5932 30.509 91.5932 30.509 91.5115 30.4445C91.4878 30.3425 91.4674 30.2399 91.4485 30.1371C91.4376 30.0784 91.4267 30.0197 91.4155 29.9593C91.4056 29.9043 91.3957 29.8493 91.3854 29.7926C91.3724 29.7205 91.3595 29.6484 91.3461 29.5741C91.3344 29.5063 91.3344 29.5063 91.3224 29.4371C91.2808 29.4371 91.2392 29.4371 91.1964 29.4371C91.154 29.3323 91.1121 29.2273 91.0703 29.1223C91.0352 29.0346 91.0352 29.0346 90.9994 28.9452C90.9443 28.7852 90.9443 28.7852 90.9443 28.6074C90.9027 28.6074 90.8611 28.6074 90.8183 28.6074C90.6292 28.3476 90.6292 28.3476 90.6292 28.1926C90.5876 28.1926 90.546 28.1926 90.5032 28.1926C90.4824 28.1144 90.4616 28.0362 90.4401 27.9556C90.3985 27.9556 90.3569 27.9556 90.3141 27.9556C90.2117 27.8741 90.2117 27.8741 90.125 27.7778C90.125 27.7387 90.125 27.6996 90.125 27.6593C90.0834 27.6593 90.0418 27.6593 89.999 27.6593C89.9307 27.5933 89.9307 27.5933 89.8611 27.526C89.6645 27.3451 89.4845 27.2463 89.2427 27.126C89.2427 27.0869 89.2427 27.0477 89.2427 27.0074C89.118 26.9879 88.9932 26.9683 88.8646 26.9482C88.8646 26.9091 88.8646 26.87 88.8646 26.8297C88.8139 26.8223 88.7632 26.815 88.711 26.8074C87.9515 26.6822 87.9515 26.6822 87.8563 26.5926C86.9908 26.4432 85.9647 26.441 85.1567 26.7799C85.0203 26.8297 85.0203 26.8297 84.8313 26.8297C84.8313 26.8688 84.8313 26.9079 84.8313 26.9482C84.7585 26.9775 84.6857 27.0069 84.6107 27.0371C84.2917 27.1863 84.0486 27.4016 83.8229 27.6593C83.8022 27.718 83.7814 27.7766 83.7599 27.8371C83.7183 27.8371 83.6767 27.8371 83.6339 27.8371C83.6131 27.9544 83.5923 28.0717 83.5709 28.1926C83.5293 28.1926 83.4877 28.1926 83.4448 28.1926C83.4448 28.2709 83.4448 28.3491 83.4448 28.4297C83.4032 28.4297 83.3616 28.4297 83.3188 28.4297C83.3131 28.5249 83.3131 28.5249 83.3072 28.622C83.3019 28.7048 83.2966 28.7876 83.2912 28.8704C83.2887 28.9123 83.2863 28.9542 83.2837 28.9974C83.2629 29.3118 83.2629 29.3118 83.1927 29.3778C83.1866 29.4666 83.1846 29.5556 83.1849 29.6445C83.1847 29.6928 83.1845 29.741 83.1844 29.7908C83.1786 29.9109 83.1786 29.9109 83.2558 29.9704C83.2762 30.0923 83.2941 30.2147 83.3109 30.3371C83.3718 30.7245 83.4538 31 83.7599 31.2741C83.7599 31.3132 83.7599 31.3523 83.7599 31.3926C83.8204 31.4146 83.8204 31.4146 83.882 31.4371C84.138 31.5353 84.39 31.6417 84.6422 31.7482C84.6422 31.7873 84.6422 31.8264 84.6422 31.8667C84.7473 31.8865 84.8523 31.9062 84.9573 31.926C85.1251 31.9575 85.2929 31.9891 85.4608 32.0206C85.5026 32.0285 85.5444 32.0364 85.5875 32.0445C85.5875 32.0836 85.5875 32.1227 85.5875 32.163C85.8579 32.1826 86.1282 32.2021 86.4068 32.2223C86.4068 32.2614 86.4068 32.3005 86.4068 32.3408C86.4419 32.3394 86.477 32.338 86.5131 32.3366C86.8094 32.33 87.0599 32.3527 87.3442 32.4292C87.5545 32.4765 87.7669 32.4888 87.9821 32.504C88.1084 32.5186 88.1084 32.5186 88.1714 32.5778C88.3303 32.6015 88.4884 32.6223 88.648 32.6408C88.7152 32.6489 88.7152 32.6489 88.7837 32.6571C88.8947 32.6704 89.0057 32.6834 89.1167 32.6963C89.1167 32.7354 89.1167 32.7746 89.1167 32.8149C89.1817 32.8124 89.2467 32.81 89.3136 32.8074C89.5526 32.8147 89.7138 32.8562 89.936 32.9334C90.0406 32.9548 90.1456 32.9751 90.2511 32.9926C90.2511 33.0317 90.2511 33.0709 90.2511 33.1112C90.4174 33.1307 90.5838 33.1503 90.7552 33.1704C90.7552 33.2095 90.7552 33.2486 90.7552 33.2889C90.841 33.2999 90.841 33.2999 90.9285 33.3112C91.1075 33.3435 91.2295 33.3821 91.3854 33.4667C91.3854 33.5058 91.3854 33.5449 91.3854 33.5852C91.4894 33.6048 91.5934 33.6243 91.7006 33.6445C91.7006 33.6836 91.7006 33.7227 91.7006 33.763C91.7512 33.7832 91.7512 33.7832 91.803 33.8037C92.0902 33.953 92.3457 34.1511 92.5198 34.4149C92.5198 34.454 92.5198 34.4931 92.5198 34.5334C92.5614 34.5334 92.603 34.5334 92.6459 34.5334C92.6667 34.6312 92.6875 34.7289 92.7089 34.8297C92.7505 34.8297 92.7921 34.8297 92.8349 34.8297C92.8557 34.9861 92.8765 35.1426 92.8979 35.3037C92.9395 35.3037 92.9811 35.3037 93.024 35.3037C93.024 35.4015 93.024 35.4993 93.024 35.6C93.0656 35.6 93.1072 35.6 93.15 35.6C93.2176 36.0515 93.2227 36.4993 93.2213 36.9545C93.2209 37.0813 93.2213 37.208 93.2217 37.3348C93.2219 37.7484 93.2113 38.153 93.15 38.563C93.1084 38.563 93.0668 38.563 93.024 38.563C93.0169 38.6224 93.0099 38.6817 93.0026 38.7429C92.9665 38.9801 92.8883 39.1938 92.7995 39.4186C92.7708 39.4918 92.7421 39.5651 92.7126 39.6405C92.6796 39.7232 92.6796 39.7232 92.6459 39.8074C92.6043 39.8074 92.5627 39.8074 92.5198 39.8074C92.5198 39.8661 92.5198 39.9248 92.5198 39.9852C92.4782 39.9852 92.4366 39.9852 92.3938 39.9852C92.3756 40.0304 92.3574 40.0757 92.3386 40.1223C92.2677 40.2815 92.2677 40.2815 92.1417 40.4593C92.1001 40.4593 92.0585 40.4593 92.0157 40.4593C92.0059 40.5125 92.0059 40.5125 91.996 40.5667C91.9464 40.7149 91.8916 40.7778 91.7636 40.8741C91.722 40.8741 91.6804 40.8741 91.6375 40.8741C91.6167 40.9328 91.5959 40.9914 91.5745 41.0519C91.5121 41.0519 91.4497 41.0519 91.3854 41.0519C91.3854 41.091 91.3854 41.1301 91.3854 41.1704C91.0518 41.4074 91.0518 41.4074 90.8183 41.4074C90.8183 41.4466 90.8183 41.4857 90.8183 41.526C90.7559 41.526 90.6935 41.526 90.6292 41.526C90.6292 41.5651 90.6292 41.6042 90.6292 41.6445C90.4836 41.664 90.338 41.6836 90.1881 41.7037C90.1881 41.7429 90.1881 41.782 90.1881 41.8223C90.1478 41.8301 90.1076 41.838 90.0662 41.8461C90.0141 41.8566 89.962 41.867 89.9084 41.8778C89.8565 41.8881 89.8046 41.8984 89.7511 41.9091C89.6223 41.9294 89.6223 41.9294 89.5578 42C89.4496 42.0062 89.3411 42.0083 89.2327 42.0086C89.1286 42.0092 89.1286 42.0092 89.0223 42.0098C88.9466 42.0099 88.871 42.0099 88.793 42.01C88.7156 42.0102 88.6383 42.0104 88.5586 42.0106C88.3944 42.0109 88.2302 42.011 88.066 42.011C87.8151 42.011 87.5642 42.0122 87.3133 42.0134C87.154 42.0135 86.9947 42.0136 86.8354 42.0137C86.7603 42.0141 86.6853 42.0145 86.608 42.015C86.5023 42.0147 86.5023 42.0147 86.3946 42.0144C86.3329 42.0145 86.2712 42.0146 86.2077 42.0147C86.0062 41.9982 85.8401 41.9463 85.6506 41.8815C85.5459 41.8601 85.4409 41.8398 85.3354 41.8223C85.3354 41.7832 85.3354 41.744 85.3354 41.7037C85.2627 41.6989 85.1899 41.694 85.1149 41.6889C84.8589 41.6599 84.6676 41.581 84.4443 41.463C84.3223 41.4051 84.2083 41.3748 84.075 41.3482C84.075 41.3091 84.075 41.27 84.075 41.2297C83.9087 41.2101 83.7423 41.1906 83.5709 41.1704C83.5709 41.1313 83.5709 41.0922 83.5709 41.0519C83.3005 41.0519 83.0301 41.0519 82.7516 41.0519C82.6892 41.3257 82.6268 41.5994 82.5625 41.8815C82.3546 41.8815 82.1466 41.8815 81.9323 41.8815C81.9323 40.0237 81.9323 38.166 81.9323 36.2519C82.1403 36.2519 82.3483 36.2519 82.5625 36.2519C82.5833 36.7603 82.6041 37.2688 82.6256 37.7926C82.6671 37.7926 82.7087 37.7926 82.7516 37.7926C82.7835 37.9061 82.8149 38.0197 82.8461 38.1334C82.8637 38.1966 82.8812 38.2599 82.8993 38.325C82.9407 38.5037 82.9407 38.5037 82.9407 38.7408C82.9822 38.7408 83.0238 38.7408 83.0667 38.7408C83.0875 38.8777 83.1083 39.0146 83.1297 39.1556C83.1713 39.1556 83.2129 39.1556 83.2558 39.1556C83.2766 39.2534 83.2974 39.3512 83.3188 39.4519C83.3604 39.4519 83.402 39.4519 83.4448 39.4519C83.4448 39.5106 83.4448 39.5692 83.4448 39.6297C83.4864 39.6297 83.528 39.6297 83.5709 39.6297C83.6021 39.747 83.6021 39.747 83.6339 39.8667C83.6755 39.8667 83.7171 39.8667 83.7599 39.8667C83.949 40.0718 83.949 40.0718 83.949 40.2223C83.9841 40.2259 84.0192 40.2296 84.0553 40.2334C84.2635 40.3021 84.3724 40.4239 84.5162 40.5778C84.5162 40.6169 84.5162 40.656 84.5162 40.6963C84.6202 40.7159 84.7241 40.7354 84.8313 40.7556C84.8313 40.7947 84.8313 40.8338 84.8313 40.8741C84.8675 40.8816 84.9037 40.8891 84.9411 40.8968C85.0852 40.9339 85.2085 40.9842 85.3433 41.0445C85.6484 41.1747 85.9586 41.2639 86.2808 41.3482C86.3466 41.3683 86.4125 41.3884 86.4804 41.4091C86.7312 41.4689 86.9615 41.4839 87.2182 41.4824C87.2641 41.4826 87.31 41.4827 87.3573 41.4828C87.4536 41.4829 87.55 41.4827 87.6464 41.4822C87.7929 41.4815 87.9393 41.4822 88.0857 41.4829C88.1799 41.4828 88.2741 41.4827 88.3683 41.4824C88.4115 41.4827 88.4547 41.4829 88.4993 41.4832C88.7881 41.4806 89.0306 41.4263 89.3058 41.3482C89.3889 41.3482 89.4721 41.3482 89.5578 41.3482C89.5578 41.3091 89.5578 41.27 89.5578 41.2297C89.6013 41.2174 89.6448 41.2051 89.6895 41.1924C90.0906 41.0688 90.3861 40.9193 90.7063 40.6602C90.8183 40.5778 90.8183 40.5778 90.9443 40.5778C90.9613 40.544 90.9783 40.5101 90.9958 40.4753C91.0726 40.3367 91.1604 40.2133 91.2555 40.0852C91.4958 39.749 91.6476 39.4453 91.7006 39.0371C91.7421 39.0371 91.7837 39.0371 91.8266 39.0371C91.8266 38.5677 91.8266 38.0984 91.8266 37.6149C91.785 37.6149 91.7434 37.6149 91.7006 37.6149C91.6798 37.3997 91.659 37.1846 91.6375 36.963C91.5959 36.963 91.5543 36.963 91.5115 36.963C91.479 36.8921 91.4465 36.8212 91.413 36.7482C91.2869 36.5067 91.1326 36.3664 90.9059 36.2061C90.8625 36.1701 90.8625 36.1701 90.8183 36.1334C90.8183 36.0943 90.8183 36.0552 90.8183 36.0149C90.7143 35.9953 90.6103 35.9757 90.5032 35.9556C90.5032 35.9165 90.5032 35.8774 90.5032 35.8371C90.459 35.8297 90.4148 35.8224 90.3692 35.8149C90.1769 35.7755 89.9956 35.7202 89.8099 35.6593C89.8099 35.6202 89.8099 35.5811 89.8099 35.5408C89.602 35.5212 89.394 35.5017 89.1797 35.4815C89.1797 35.4424 89.1797 35.4033 89.1797 35.363C89.1186 35.3654 89.0575 35.3679 88.9946 35.3704C88.7599 35.3709 88.5511 35.3267 88.324 35.2748C88.0657 35.2235 87.804 35.2048 87.5412 35.1852C87.5412 35.1461 87.5412 35.107 87.5412 35.0667C87.5023 35.0674 87.4634 35.0681 87.4233 35.0688C87.0575 35.0725 86.7066 35.0515 86.3438 35.0074C86.3438 34.9683 86.3438 34.9292 86.3438 34.8889C86.2697 34.8914 86.1956 34.8938 86.1193 34.8963C85.8609 34.9049 85.6449 34.8405 85.3985 34.7704C85.3153 34.7489 85.232 34.7278 85.1486 34.707C85.1074 34.6967 85.0661 34.6864 85.0237 34.6757C84.9823 34.6654 84.9409 34.6551 84.8982 34.6445C84.8551 34.6337 84.812 34.6229 84.7676 34.6118C84.6628 34.5857 84.558 34.5595 84.4532 34.5334C84.4532 34.4943 84.4532 34.4552 84.4532 34.4149C84.3843 34.4039 84.3843 34.4039 84.3141 34.3926C83.5381 34.2294 82.9495 33.6793 82.5251 33.0732C82.356 32.8063 82.2474 32.5996 82.2474 32.2815C82.2058 32.2815 82.1642 32.2815 82.1214 32.2815C82.113 32.2095 82.1046 32.1375 82.096 32.0632C82.0848 31.9693 82.0736 31.8754 82.0623 31.7815C82.0568 31.734 82.0513 31.6864 82.0457 31.6374C82.0391 31.4071 82.0391 31.4071 81.9323 31.2149C81.926 31.1014 81.9241 30.9877 81.924 30.8741C81.9239 30.8051 81.9238 30.736 81.9237 30.6649C81.9239 30.5921 81.9242 30.5194 81.9244 30.4445C81.9242 30.3718 81.924 30.299 81.9237 30.2241C81.9238 30.1551 81.9239 30.086 81.924 30.0149C81.924 29.951 81.9241 29.8871 81.9242 29.8213C81.9323 29.6741 81.9323 29.6741 81.9953 29.6149C82.0204 29.4758 82.0422 29.3361 82.0623 29.1963C82.079 29.0816 82.079 29.0816 82.096 28.9646C82.1044 28.9054 82.1128 28.8462 82.1214 28.7852C82.163 28.7852 82.2046 28.7852 82.2474 28.7852C82.2552 28.7327 82.263 28.6801 82.2711 28.626C82.3069 28.4472 82.3587 28.2991 82.4365 28.1334C82.4781 28.1334 82.5197 28.1334 82.5625 28.1334C82.5833 28.0356 82.6041 27.9378 82.6256 27.8371C82.6671 27.8371 82.7087 27.8371 82.7516 27.8371C82.7646 27.7967 82.7776 27.7564 82.791 27.7149C82.9047 27.4865 83.0605 27.2991 83.2558 27.126C83.2974 27.126 83.3389 27.126 83.3818 27.126C83.3818 27.0869 83.3818 27.0477 83.3818 27.0074C83.7229 26.7704 83.7229 26.7704 83.886 26.7704C83.886 26.7313 83.886 26.6922 83.886 26.6519C84.0691 26.5309 84.1633 26.4741 84.3901 26.4741C84.3901 26.435 84.3901 26.3959 84.3901 26.3556C84.5069 26.3184 84.6238 26.2814 84.7407 26.2445C84.8058 26.2239 84.8708 26.2032 84.9379 26.182C85.0067 26.1611 85.0755 26.1401 85.1464 26.1186C85.2127 26.098 85.279 26.0774 85.3472 26.0562C85.6064 25.9956 85.8465 25.9839 86.1114 25.9864Z" fill="#A3A3A3"/>
<path d="M101.595 26.0001C102.083 25.9927 102.083 25.9927 102.225 26.0593C102.251 26.1818 102.251 26.1818 102.264 26.3297C102.271 26.4031 102.271 26.4031 102.279 26.4781C102.282 26.5159 102.285 26.5537 102.288 26.5927C102.33 26.5927 102.371 26.5927 102.414 26.5927C102.446 26.6765 102.477 26.7604 102.509 26.8445C102.535 26.9146 102.535 26.9146 102.562 26.9862C102.603 27.126 102.603 27.126 102.603 27.363C102.645 27.363 102.686 27.363 102.729 27.363C102.75 27.539 102.771 27.715 102.792 27.8964C102.834 27.8964 102.875 27.8964 102.918 27.8964C102.95 27.9802 102.982 28.0641 103.013 28.1482C103.039 28.2183 103.039 28.2183 103.066 28.2899C103.107 28.4297 103.107 28.4297 103.107 28.6667C103.149 28.6667 103.19 28.6667 103.233 28.6667C103.285 28.8185 103.336 28.9704 103.387 29.1223C103.409 29.1864 103.409 29.1864 103.431 29.2518C103.504 29.4704 103.57 29.6848 103.611 29.9112C103.653 29.9112 103.695 29.9112 103.737 29.9112C103.758 30.0872 103.779 30.2632 103.8 30.4445C103.842 30.4445 103.884 30.4445 103.927 30.4445C103.959 30.5283 103.99 30.6123 104.021 30.6964C104.047 30.7665 104.047 30.7665 104.074 30.838C104.116 30.9778 104.116 30.9778 104.116 31.2149C104.157 31.2149 104.199 31.2149 104.242 31.2149C104.293 31.3667 104.344 31.5185 104.395 31.6704C104.417 31.7345 104.417 31.7345 104.439 31.8C104.512 32.0185 104.578 32.2329 104.62 32.4593C104.661 32.4593 104.703 32.4593 104.746 32.4593C104.767 32.6353 104.787 32.8113 104.809 32.9927C104.85 32.9927 104.892 32.9927 104.935 32.9927C104.967 33.0765 104.998 33.1604 105.029 33.2445C105.056 33.3146 105.056 33.3146 105.083 33.3862C105.124 33.526 105.124 33.526 105.124 33.763C105.166 33.763 105.207 33.763 105.25 33.763C105.271 33.939 105.292 34.115 105.313 34.2964C105.355 34.2964 105.396 34.2964 105.439 34.2964C105.471 34.3802 105.502 34.4641 105.534 34.5482C105.56 34.6183 105.56 34.6183 105.587 34.6899C105.628 34.8297 105.628 34.8297 105.628 35.0667C105.67 35.0667 105.711 35.0667 105.754 35.0667C105.776 35.1345 105.798 35.2022 105.821 35.2721C105.85 35.3604 105.879 35.4488 105.908 35.5371C105.929 35.6042 105.929 35.6042 105.952 35.6726C106.008 35.8906 106.008 35.8906 106.132 36.0741C106.135 36.1729 106.135 36.2717 106.132 36.3704C106.174 36.3704 106.215 36.3704 106.258 36.3704C106.279 36.5269 106.3 36.6833 106.321 36.8445C106.363 36.8445 106.405 36.8445 106.447 36.8445C106.479 36.9283 106.511 37.0123 106.542 37.0964C106.568 37.1665 106.568 37.1665 106.595 37.238C106.636 37.3778 106.636 37.3778 106.636 37.6149C106.678 37.6149 106.72 37.6149 106.762 37.6149C106.805 37.7382 106.847 37.8617 106.889 37.9853C106.912 38.054 106.935 38.1228 106.959 38.1936C107.015 38.3853 107.015 38.3853 107.015 38.6223C107.056 38.6223 107.098 38.6223 107.141 38.6223C107.141 38.7201 107.141 38.8178 107.141 38.9186C107.182 38.9186 107.224 38.9186 107.267 38.9186C107.287 39.075 107.308 39.2315 107.33 39.3927C107.371 39.3927 107.413 39.3927 107.456 39.3927C107.472 39.4448 107.489 39.497 107.506 39.5508C107.54 39.654 107.54 39.654 107.574 39.7593C107.607 39.8614 107.607 39.8614 107.64 39.9656C107.703 40.1585 107.703 40.1585 107.779 40.3216C107.834 40.4593 107.834 40.4593 107.834 40.6964C107.875 40.6964 107.917 40.6964 107.96 40.6964C108.001 40.8528 108.043 41.0093 108.086 41.1704C109.115 41.1998 109.115 41.1998 110.166 41.2297C110.166 41.3861 110.166 41.5426 110.166 41.7038C107.712 41.7038 105.258 41.7038 102.729 41.7038C102.729 41.5473 102.729 41.3909 102.729 41.2297C103.499 41.2297 104.268 41.2297 105.061 41.2297C105.061 41.1319 105.061 41.0341 105.061 40.9334C105.019 40.9334 104.978 40.9334 104.935 40.9334C104.935 40.8552 104.935 40.777 104.935 40.6964C104.893 40.6964 104.852 40.6964 104.809 40.6964C104.788 40.5204 104.767 40.3444 104.746 40.163C104.704 40.163 104.663 40.163 104.62 40.163C104.487 39.6054 104.487 39.6054 104.431 39.3334C104.389 39.3334 104.348 39.3334 104.305 39.3334C104.253 39.1829 104.202 39.0322 104.151 38.8815C104.129 38.8182 104.129 38.8182 104.107 38.7535C104.026 38.5131 103.963 38.2804 103.927 38.0297C103.885 38.0297 103.843 38.0297 103.8 38.0297C103.78 37.8537 103.759 37.6777 103.737 37.4964C103.696 37.4964 103.654 37.4964 103.611 37.4964C103.58 37.4113 103.548 37.3261 103.517 37.2408C103.491 37.1697 103.491 37.1697 103.464 37.0971C103.422 36.963 103.422 36.963 103.422 36.7853C101.717 36.7853 100.012 36.7853 98.2547 36.7853C98.2339 36.9221 98.2131 37.059 98.1916 37.2001C98.1392 37.3431 98.1392 37.3431 98.0774 37.4741C97.9185 37.8289 97.8031 38.1941 97.6875 38.563C97.6459 38.563 97.6043 38.563 97.5614 38.563C97.5544 38.6212 97.5473 38.6793 97.54 38.7392C97.5012 38.9947 97.4219 39.2331 97.3369 39.4778C97.3222 39.5212 97.3074 39.5645 97.2922 39.6092C97.2562 39.7149 97.2198 39.8205 97.1833 39.926C97.1417 39.926 97.1001 39.926 97.0573 39.926C97.0586 39.9737 97.0599 40.0213 97.0612 40.0704C97.0573 40.2223 97.0573 40.2223 96.9942 40.2815C96.9795 40.401 96.9682 40.5209 96.9588 40.6408C96.9535 40.7063 96.9482 40.7717 96.9428 40.8392C96.9371 40.9152 96.9371 40.9152 96.9312 40.9927C96.9936 41.0122 97.056 41.0318 97.1203 41.0519C97.1203 41.091 97.1203 41.1301 97.1203 41.1704C97.8274 41.19 98.5345 41.2095 99.263 41.2297C99.263 41.3861 99.263 41.5426 99.263 41.7038C97.5161 41.7038 95.7691 41.7038 93.9692 41.7038C93.9692 41.5473 93.9692 41.3909 93.9692 41.2297C94.8115 41.2004 94.8115 41.2004 95.6708 41.1704C95.6708 41.1313 95.6708 41.0922 95.6708 41.0519C95.7098 41.0165 95.7488 40.981 95.789 40.9445C95.9305 40.8075 95.9853 40.698 96.0489 40.5186C96.0905 40.5186 96.1321 40.5186 96.175 40.5186C96.1958 40.3817 96.2166 40.2448 96.238 40.1038C96.2796 40.1038 96.3212 40.1038 96.364 40.1038C96.3711 40.0553 96.3782 40.0069 96.3854 39.957C96.4338 39.7145 96.5081 39.4864 96.5885 39.2519C96.6107 39.1865 96.6107 39.1865 96.6332 39.1197C96.6693 39.0131 96.7057 38.9066 96.7422 38.8001C96.7837 38.8001 96.8253 38.8001 96.8682 38.8001C96.8799 38.7102 96.8799 38.7102 96.8918 38.6186C96.93 38.3924 96.9862 38.1888 97.0573 37.9704C97.0989 37.9704 97.1404 37.9704 97.1833 37.9704C97.2041 37.7944 97.2249 37.6184 97.2463 37.4371C97.2879 37.4371 97.3295 37.4371 97.3724 37.4371C97.3802 37.387 97.388 37.3369 97.396 37.2853C97.4371 37.0725 97.4954 36.8737 97.5614 36.6667C97.603 36.6667 97.6446 36.6667 97.6875 36.6667C97.7083 36.4907 97.7291 36.3147 97.7505 36.1334C97.7921 36.1334 97.8337 36.1334 97.8765 36.1334C97.8713 36.0955 97.8661 36.0576 97.8608 36.0186C97.88 35.797 97.9639 35.6428 98.0641 35.4436C98.1566 35.243 98.2052 35.043 98.2547 34.8297C98.2962 34.8297 98.3378 34.8297 98.3807 34.8297C98.3924 34.7399 98.3924 34.7399 98.4043 34.6482C98.4425 34.422 98.4987 34.2184 98.5698 34.0001C98.6114 34.0001 98.6529 34.0001 98.6958 34.0001C98.7166 33.8241 98.7374 33.6481 98.7588 33.4667C98.8004 33.4667 98.842 33.4667 98.8849 33.4667C98.8919 33.4183 98.899 33.3699 98.9063 33.32C98.9546 33.0775 99.0289 32.8494 99.1094 32.6149C99.1315 32.5495 99.1315 32.5495 99.1541 32.4827C99.1901 32.3761 99.2265 32.2695 99.263 32.163C99.3046 32.163 99.3462 32.163 99.389 32.163C99.4007 32.0732 99.4007 32.0732 99.4127 31.9815C99.4508 31.7554 99.507 31.5518 99.5781 31.3334C99.6197 31.3334 99.6613 31.3334 99.7041 31.3334C99.7249 31.1574 99.7457 30.9814 99.7672 30.8001C99.8087 30.8001 99.8503 30.8001 99.8932 30.8001C99.8932 30.7218 99.8932 30.6436 99.8932 30.563C99.9348 30.563 99.9764 30.563 100.019 30.563C100.04 30.387 100.061 30.211 100.082 30.0297C100.124 30.0297 100.165 30.0297 100.208 30.0297C100.229 29.8537 100.25 29.6777 100.271 29.4964C100.313 29.4964 100.355 29.4964 100.397 29.4964C100.404 29.4582 100.411 29.4201 100.419 29.3809C100.474 29.1427 100.548 28.9112 100.622 28.6778C100.644 28.6078 100.644 28.6078 100.667 28.5363C100.703 28.4217 100.739 28.3072 100.775 28.1927C100.817 28.1927 100.859 28.1927 100.902 28.1927C100.902 28.0949 100.902 27.9971 100.902 27.8964C100.943 27.8964 100.985 27.8964 101.028 27.8964C101.048 27.7204 101.069 27.5444 101.091 27.363C101.132 27.363 101.174 27.363 101.217 27.363C101.237 27.187 101.258 27.011 101.28 26.8297C101.321 26.8297 101.363 26.8297 101.406 26.8297C101.417 26.7729 101.417 26.7729 101.429 26.7149C101.481 26.4759 101.538 26.238 101.595 26.0001ZM100.775 30.0297C100.755 30.1861 100.734 30.3426 100.712 30.5038C100.671 30.5038 100.629 30.5038 100.586 30.5038C100.423 30.9071 100.423 30.9071 100.397 31.3334C100.356 31.3334 100.314 31.3334 100.271 31.3334C100.251 31.5094 100.23 31.6854 100.208 31.8667C100.167 31.8667 100.125 31.8667 100.082 31.8667C99.9184 32.27 99.9184 32.27 99.8932 32.6964C99.8516 32.6964 99.81 32.6964 99.7672 32.6964C99.7464 32.8724 99.7256 33.0484 99.7041 33.2297C99.6625 33.2297 99.6209 33.2297 99.5781 33.2297C99.5628 33.2827 99.5475 33.3357 99.5318 33.3903C99.4201 33.7693 99.2997 34.1362 99.1374 34.4991C99.0359 34.7434 98.9592 34.9943 98.8804 35.2457C98.8218 35.4223 98.8218 35.4223 98.7519 35.5829C98.6888 35.7355 98.6859 35.8527 98.6958 36.0149C98.6542 36.0149 98.6126 36.0149 98.5698 36.0149C98.5698 36.0931 98.5698 36.1713 98.5698 36.2519C98.5074 36.2813 98.5074 36.2813 98.4437 36.3112C100.024 36.3112 101.605 36.3112 103.233 36.3112C103.233 36.2525 103.233 36.1938 103.233 36.1334C103.192 36.1334 103.15 36.1334 103.107 36.1334C103.099 36.0613 103.092 35.9892 103.084 35.9149C103.058 35.7147 103.01 35.5469 102.918 35.363C102.877 35.363 102.835 35.363 102.792 35.363C102.787 35.297 102.782 35.231 102.776 35.163C102.742 34.8993 102.648 34.6751 102.536 34.4325C102.482 34.3085 102.445 34.1899 102.414 34.0593C102.372 34.0593 102.331 34.0593 102.288 34.0593C102.257 33.7953 102.257 33.7953 102.225 33.526C102.183 33.526 102.142 33.526 102.099 33.526C102.091 33.4649 102.083 33.4038 102.075 33.3408C102.04 33.1336 101.986 32.9521 101.91 32.7556C101.868 32.7556 101.827 32.7556 101.784 32.7556C101.753 32.4916 101.753 32.4916 101.721 32.2223C101.679 32.2223 101.638 32.2223 101.595 32.2223C101.587 32.1502 101.579 32.0781 101.571 32.0038C101.545 31.8036 101.497 31.6358 101.406 31.4519C101.364 31.4519 101.323 31.4519 101.28 31.4519C101.274 31.3859 101.269 31.3199 101.264 31.2519C101.23 30.9893 101.136 30.7665 101.027 30.5241C100.954 30.3621 100.895 30.1974 100.839 30.0297C100.818 30.0297 100.797 30.0297 100.775 30.0297Z" fill="#A3A3A3"/>
<path d="M111.111 26.2962C112.047 26.2948 112.982 26.2938 113.918 26.2931C114.352 26.2928 114.787 26.2924 115.221 26.2917C115.64 26.2911 116.059 26.2907 116.478 26.2906C116.638 26.2905 116.798 26.2902 116.958 26.2899C117.182 26.2895 117.405 26.2894 117.629 26.2895C117.729 26.2891 117.729 26.2891 117.832 26.2888C117.922 26.2889 117.922 26.2889 118.015 26.2891C118.068 26.289 118.121 26.289 118.175 26.2889C118.295 26.2962 118.295 26.2962 118.358 26.3555C118.366 26.5629 118.366 26.5629 118.358 26.7703C118.338 26.7898 118.317 26.8094 118.295 26.8295C117.567 26.8295 116.84 26.8295 116.09 26.8295C116.09 31.5815 116.09 36.3335 116.09 41.2295C116.817 41.2295 117.545 41.2295 118.295 41.2295C118.358 41.2888 118.358 41.2888 118.358 41.7036C115.967 41.7036 113.575 41.7036 111.111 41.7036C111.111 41.5472 111.111 41.3907 111.111 41.2295C111.839 41.2295 112.567 41.2295 113.317 41.2295C113.317 36.4775 113.317 31.7255 113.317 26.8295C112.589 26.8295 111.861 26.8295 111.111 26.8295C111.111 26.6535 111.111 26.4775 111.111 26.2962Z" fill="#A3A3A3"/>
</g>
<defs>
<clipPath id="clip0_31_468">
<rect width="121" height="16" fill="white" transform="translate(14.5 26)"/>
</clipPath>
</defs>
</svg>
