<svg width="150" height="68" viewBox="0 0 150 68" fill="none" xmlns="http://www.w3.org/2000/svg">
<path d="M51.3618 27.1016C52.4927 27.1016 53.6237 27.1016 54.789 27.1016C55.0565 27.6902 55.3168 28.2711 55.5517 28.8718C55.5807 28.9453 55.6096 29.0187 55.6395 29.0944C55.7333 29.3326 55.8269 29.5709 55.9204 29.8093C55.9863 29.9767 56.0523 30.1442 56.1182 30.3116C56.2534 30.6548 56.3884 30.9979 56.5234 31.3412C56.7973 32.0381 57.0722 32.7346 57.3472 33.4311C57.4298 33.6406 57.5125 33.8501 57.5951 34.0596C57.975 35.0221 58.3576 35.9835 58.7434 36.9437C59.3085 35.6666 59.8463 34.3813 60.3595 33.0824C60.954 31.5788 61.559 30.08 62.1871 28.59C62.2173 28.5181 62.2475 28.4462 62.2786 28.3721C62.3626 28.1726 62.4469 27.9733 62.5314 27.774C62.5684 27.6861 62.5684 27.6861 62.6063 27.5963C62.7755 27.1997 62.7755 27.1997 62.8736 27.1016C63.9466 27.1016 65.0195 27.1016 66.125 27.1016C66.125 31.5964 66.125 36.0913 66.125 40.7224C65.8977 40.8361 65.7312 40.8217 65.4769 40.822C65.3831 40.8221 65.2893 40.8222 65.1927 40.8223C65.0944 40.822 64.9961 40.8216 64.8947 40.8213C64.7964 40.8216 64.6981 40.8219 64.5968 40.8223C64.4561 40.8221 64.4561 40.8221 64.3126 40.822C64.2262 40.8219 64.1399 40.8218 64.051 40.8217C63.8402 40.8103 63.8402 40.8103 63.6645 40.7224C63.6355 37.4455 63.6065 34.1686 63.5766 30.7924C62.4914 33.5372 62.4914 33.5372 61.4078 36.2826C61.0896 37.0855 61.0896 37.0855 60.9332 37.4794C60.8254 37.7512 60.7182 38.0231 60.6112 38.2952C60.4782 38.6338 60.3442 38.972 60.2095 39.3099C60.1593 39.4363 60.1095 39.5628 60.0601 39.6894C59.9924 39.8626 59.9235 40.0352 59.8543 40.2077C59.8156 40.3054 59.777 40.4031 59.7372 40.5037C59.6222 40.7224 59.6222 40.7224 59.3585 40.8103C59.1243 40.8301 58.8955 40.8426 58.661 40.8487C58.5981 40.8528 58.5352 40.8568 58.4703 40.8609C58.2851 40.8649 58.2851 40.8649 57.9525 40.8103C57.6352 40.4167 57.4614 39.9798 57.2794 39.5117C57.2493 39.4359 57.2192 39.36 57.1882 39.2819C57.1231 39.1177 57.0583 38.9534 56.9938 38.789C56.8556 38.4369 56.716 38.0854 56.5766 37.7338C56.5033 37.5491 56.4301 37.3643 56.357 37.1796C55.9862 36.2433 55.6096 35.3094 55.2318 34.376C55.1268 34.1166 55.022 33.8573 54.9171 33.5979C54.8512 33.4349 54.7852 33.2718 54.7193 33.1087C54.6768 33.0036 54.6768 33.0036 54.6334 32.8964C54.337 32.1644 54.0352 31.4348 53.7344 30.7045C53.7054 34.0104 53.6764 37.3163 53.6466 40.7224C53.4231 40.8341 53.2645 40.8217 53.0146 40.822C52.9244 40.8221 52.8342 40.8222 52.7412 40.8223C52.6467 40.822 52.5521 40.8216 52.4547 40.8213C52.3599 40.8216 52.265 40.8219 52.1673 40.8223C52.0321 40.8221 52.0321 40.8221 51.8942 40.822C51.8111 40.8219 51.728 40.8218 51.6424 40.8217C51.4497 40.8103 51.4497 40.8103 51.3618 40.7224C51.3533 40.5467 51.3511 40.3707 51.3512 40.1947C51.3511 40.08 51.351 39.9653 51.3508 39.8471C51.3512 39.7187 51.3515 39.5904 51.3518 39.4621C51.3518 39.3279 51.3518 39.1937 51.3518 39.0595C51.3517 38.694 51.3523 38.3285 51.3529 37.9631C51.3534 37.5815 51.3535 37.2 51.3536 36.8185C51.3538 36.0955 51.3546 35.3726 51.3555 34.6496C51.3564 33.8267 51.3569 33.0039 51.3574 32.181C51.3583 30.4879 51.3599 28.7947 51.3618 27.1016ZM63.6645 30.353C63.7524 30.5287 63.7524 30.5287 63.7524 30.5287L63.6645 30.353Z" fill="#A3A3A3"/>
<path d="M33.8743 34.4832C37.4412 34.4832 41.0082 34.4832 44.6831 34.4832C44.6831 38.0501 44.6831 41.617 44.6831 45.292C41.1162 45.292 37.5493 45.292 33.8743 45.292C33.8743 41.725 33.8743 38.1581 33.8743 34.4832Z" fill="#A3A3A3"/>
<path d="M22.0108 34.4832C25.5777 34.4832 29.1446 34.4832 32.8196 34.4832C32.8196 38.0501 32.8196 41.617 32.8196 45.292C29.2527 45.292 25.6858 45.292 22.0108 45.292C22.0108 41.725 22.0108 38.1581 22.0108 34.4832Z" fill="#A3A3A3"/>
<path d="M33.8743 22.7078C37.4412 22.7078 41.0082 22.7078 44.6831 22.7078C44.6831 26.2457 44.6831 29.7836 44.6831 33.4287C41.1162 33.4287 37.5493 33.4287 33.8743 33.4287C33.8743 29.8908 33.8743 26.3529 33.8743 22.7078Z" fill="#A3A3A3"/>
<path d="M22.0108 22.7078C25.5777 22.7078 29.1446 22.7078 32.8196 22.7078C32.8196 26.2457 32.8196 29.7836 32.8196 33.4287C29.2527 33.4287 25.6858 33.4287 22.0108 33.4287C22.0108 29.8908 22.0108 26.3529 22.0108 22.7078Z" fill="#A3A3A3"/>
<path d="M122.454 26.3108C122.454 27.0067 122.454 27.7027 122.454 28.4198C122.251 28.3618 122.048 28.3038 121.838 28.244C121.408 28.1996 121.011 28.1859 120.608 28.3539C120.292 28.6306 120.103 28.8849 120.063 29.3141C120.06 29.3863 120.056 29.4586 120.053 29.533C120.048 29.6391 120.048 29.6391 120.043 29.7473C120.039 29.8366 120.035 29.926 120.031 30.018C120.019 30.3026 120.006 30.5872 119.993 30.8803C121.602 30.9238 121.602 30.9238 123.244 30.9682C123.244 30.2432 123.244 29.5182 123.244 28.7713C123.621 28.6538 123.999 28.5367 124.376 28.4198C124.483 28.3863 124.591 28.3527 124.702 28.3182C124.804 28.2865 124.907 28.2547 125.012 28.2221C125.107 28.1926 125.202 28.1632 125.3 28.1328C125.529 28.0683 125.529 28.0683 125.705 28.0683C125.705 29.0253 125.705 29.9822 125.705 30.9682C126.459 30.9682 127.213 30.9682 127.99 30.9682C127.99 31.6062 127.99 32.2442 127.99 32.9015C127.236 32.9015 126.482 32.9015 125.705 32.9015C125.711 33.5793 125.717 34.257 125.726 34.9347C125.73 35.2503 125.733 35.566 125.735 35.8816C125.738 36.1859 125.741 36.4901 125.746 36.7944C125.748 36.9664 125.749 37.1384 125.75 37.3104C125.751 37.416 125.753 37.5215 125.755 37.6302C125.756 37.7227 125.757 37.8152 125.758 37.9105C125.799 38.2223 125.894 38.4331 126.056 38.7013C126.357 38.9015 126.472 38.9008 126.825 38.8991C126.958 38.8997 126.958 38.8997 127.093 38.9004C127.436 38.8812 127.436 38.8812 127.99 38.7013C127.99 39.3393 127.99 39.9773 127.99 40.6346C127.009 41.0551 125.873 41.1808 124.845 40.8135C124.112 40.4705 123.705 39.965 123.398 39.2286C123.216 38.4984 123.233 37.7688 123.236 37.0207C123.236 36.9015 123.236 36.7823 123.236 36.6632C123.237 36.3517 123.237 36.0402 123.238 35.7288C123.239 35.4101 123.24 35.0913 123.24 34.7726C123.241 34.1489 123.243 33.5252 123.244 32.9015C122.171 32.9305 121.098 32.9595 119.993 32.9894C119.993 35.5413 119.993 38.0932 119.993 40.7225C119.721 40.8132 119.531 40.8217 119.245 40.822C119.151 40.8222 119.058 40.8223 118.961 40.8224C118.863 40.822 118.765 40.8217 118.664 40.8214C118.565 40.8217 118.467 40.822 118.365 40.8224C118.224 40.8222 118.224 40.8222 118.081 40.822C117.995 40.8219 117.909 40.8218 117.82 40.8217C117.62 40.8104 117.62 40.8104 117.532 40.7225C117.524 40.4791 117.521 40.238 117.522 39.9946C117.522 39.9183 117.522 39.842 117.522 39.7634C117.522 39.5099 117.523 39.2565 117.524 39.0031C117.524 38.8278 117.524 38.6526 117.524 38.4774C117.525 38.0152 117.525 37.5531 117.526 37.0909C117.527 36.6197 117.528 36.1485 117.528 35.6773C117.529 34.752 117.531 33.8268 117.532 32.9015C117.01 32.9015 116.488 32.9015 115.951 32.9015C115.951 32.2635 115.951 31.6255 115.951 30.9682C116.473 30.9682 116.995 30.9682 117.532 30.9682C117.528 30.7852 117.528 30.7852 117.523 30.5985C117.5 29.2885 117.544 28.1487 118.463 27.1209C119.604 26.0666 121.007 25.9893 122.454 26.3108Z" fill="#A3A3A3"/>
<path d="M92.1419 30.6935C93.6033 30.6504 94.8967 31.0585 96.0026 32.0226C96.8212 32.8846 97.2473 34.1008 97.3208 35.2741C97.3254 35.3419 97.3301 35.4098 97.3349 35.4797C97.3854 36.9408 97.0222 38.3155 96.0631 39.4427C95.0539 40.4843 93.864 40.9681 92.429 41.0156C91.2121 41.0347 90.0562 40.8576 89.0604 40.1073C88.992 40.0557 88.9236 40.0042 88.8531 39.9511C87.8962 39.166 87.3711 38.0753 87.215 36.8558C87.1104 35.2193 87.2723 33.6387 88.3849 32.3522C89.4297 31.2485 90.6378 30.7845 92.1419 30.6935ZM90.2907 33.6044C89.6717 34.4743 89.5599 35.5516 89.6755 36.5922C89.858 37.4793 90.1515 38.1645 90.9058 38.7012C91.606 39.0773 92.492 39.0813 93.2599 38.9103C93.8732 38.6732 94.3163 38.1794 94.5856 37.5863C94.9307 36.5703 94.992 35.0405 94.5372 34.0575C94.1344 33.4016 93.6749 32.9844 92.9314 32.7624C91.9137 32.5549 90.9821 32.8344 90.2907 33.6044Z" fill="#A3A3A3"/>
<path d="M110.685 30.6942C112.119 30.6477 113.463 31.0636 114.517 32.0446C115.719 33.3135 115.83 34.8734 115.786 36.529C115.728 37.7648 115.17 38.8506 114.32 39.7365C113.08 40.8638 111.615 41.0463 110.009 40.9976C108.763 40.9286 107.649 40.3064 106.812 39.4042C105.723 38.0459 105.645 36.5138 105.757 34.8347C105.917 33.6029 106.589 32.4536 107.549 31.6766C108.476 31.0319 109.571 30.7569 110.685 30.6942ZM108.833 33.5165C108.131 34.4782 108.126 35.6254 108.218 36.7679C108.362 37.5866 108.711 38.1617 109.367 38.6659C110.027 39.0691 110.808 39.0761 111.557 38.9648C112.137 38.7945 112.541 38.5085 112.875 37.9982C113.444 36.9226 113.497 35.5476 113.177 34.3788C112.944 33.7349 112.594 33.2745 111.985 32.9508C110.905 32.4826 109.672 32.6739 108.833 33.5165Z" fill="#A3A3A3"/>
<path d="M104.264 31.144C104.352 31.2318 104.352 31.2318 104.362 31.4354C104.361 31.5673 104.361 31.5673 104.36 31.7018C104.36 31.8441 104.36 31.8441 104.359 31.9893C104.358 32.139 104.358 32.139 104.357 32.2918C104.357 32.392 104.356 32.4922 104.356 32.5955C104.355 32.8439 104.353 33.0924 104.352 33.3409C104.093 33.2795 103.872 33.1985 103.632 33.0827C102.91 32.7576 102.057 32.5454 101.287 32.8301C100.982 33.0067 100.869 33.0989 100.749 33.4287C100.749 33.7798 100.782 33.9732 100.997 34.2533C101.429 34.6629 102.048 34.8453 102.587 35.0737C103.341 35.4035 104.078 35.776 104.483 36.5264C104.545 36.6358 104.545 36.6358 104.607 36.7475C104.913 37.3728 104.872 38.1981 104.74 38.8736C104.464 39.6706 103.856 40.1975 103.127 40.5852C101.695 41.2339 100.11 41.0874 98.6397 40.6346C98.5237 40.5766 98.4077 40.5186 98.2882 40.4589C98.2882 39.7049 98.2882 38.9509 98.2882 38.1741C98.6795 38.3306 99.0574 38.5022 99.4381 38.6821C99.967 38.9033 100.446 38.9935 101.018 38.9869C101.078 38.9876 101.138 38.9883 101.199 38.989C101.579 38.9875 101.893 38.9382 102.243 38.7892C102.334 38.6386 102.334 38.6386 102.33 38.4377C102.34 38.338 102.349 38.2383 102.358 38.1356C102.325 37.7573 102.238 37.6547 101.979 37.3832C101.734 37.2344 101.734 37.2344 101.457 37.1182C101.355 37.0716 101.253 37.0251 101.148 36.9771C100.935 36.8823 100.723 36.7886 100.51 36.6949C99.559 36.2594 98.7719 35.7451 98.376 34.7469C98.1416 34.0437 98.207 33.1462 98.524 32.4803C99.0464 31.6045 99.8267 31.0943 100.806 30.8388C101.969 30.5771 103.158 30.7082 104.264 31.144Z" fill="#A3A3A3"/>
<path d="M79.8341 31.2317C79.8341 31.9857 79.8341 32.7396 79.8341 33.5165C79.5323 33.441 79.3343 33.3588 79.0652 33.2144C78.2484 32.8012 77.4562 32.6772 76.5607 32.9233C76.1968 33.0433 75.924 33.2033 75.6161 33.4286C75.5291 33.4576 75.4421 33.4866 75.3524 33.5165C75.2539 33.6786 75.2539 33.6786 75.1767 33.868C75.1477 33.9219 75.1187 33.9758 75.0888 34.0314C74.5922 34.9703 74.4721 36.0346 74.7538 37.07C75.031 37.8403 75.4069 38.3215 76.1433 38.7012C76.9939 39.0471 78.0011 38.9796 78.8373 38.627C79.1192 38.488 79.3884 38.3348 79.6584 38.1739C79.7164 38.1739 79.7744 38.1739 79.8341 38.1739C79.8341 38.8699 79.8341 39.5659 79.8341 40.2829C78.43 40.985 76.8761 41.277 75.3318 40.8133C74.061 40.3376 73.1943 39.6374 72.5404 38.4375C71.9216 36.9441 71.9158 35.3 72.4525 33.7801C72.976 32.5246 73.9509 31.5933 75.1986 31.0724C76.6531 30.557 78.4312 30.5302 79.8341 31.2317Z" fill="#A3A3A3"/>
<path d="M87.1276 30.9683C87.1566 31.7512 87.1856 32.5342 87.2154 33.3409C86.8964 33.2539 86.5775 33.1669 86.2488 33.0773C85.6216 33.0244 85.1878 33.0619 84.667 33.4288C84.1081 33.9567 83.9006 34.799 83.8622 35.5445C83.8609 35.6401 83.8595 35.7357 83.8581 35.8342C83.8563 35.9433 83.8546 36.0523 83.8528 36.1646C83.8513 36.2823 83.8498 36.3999 83.8483 36.5175C83.8465 36.6389 83.8447 36.7603 83.8428 36.8817C83.838 37.1998 83.8336 37.5179 83.8294 37.8361C83.8249 38.1612 83.8201 38.4864 83.8152 38.8116C83.8058 39.4486 83.7969 40.0856 83.7883 40.7226C83.5602 40.8366 83.3922 40.8218 83.1371 40.8221C82.9958 40.8223 82.9958 40.8223 82.8517 40.8224C82.7529 40.8221 82.6542 40.8218 82.5525 40.8214C82.4039 40.8219 82.4039 40.8219 82.2523 40.8224C82.1582 40.8223 82.0642 40.8222 81.9672 40.8221C81.8804 40.822 81.7937 40.8219 81.7043 40.8218C81.5035 40.8104 81.5035 40.8104 81.4156 40.7226C81.4072 40.5958 81.4049 40.4687 81.405 40.3417C81.4049 40.2595 81.4048 40.1773 81.4047 40.0926C81.405 40.0017 81.4053 39.9108 81.4056 39.8172C81.4056 39.722 81.4056 39.6269 81.4056 39.5288C81.4056 39.2126 81.4063 38.8964 81.407 38.5802C81.4072 38.3617 81.4073 38.1431 81.4074 37.9245C81.4077 37.407 81.4084 36.8894 81.4093 36.3718C81.4103 35.725 81.4108 35.0782 81.4113 34.4313C81.4122 33.277 81.4138 32.1226 81.4156 30.9683C82.1986 30.9683 82.9816 30.9683 83.7883 30.9683C83.8173 31.4033 83.8463 31.8382 83.8761 32.2864C83.9468 32.1668 84.0175 32.0472 84.0903 31.9239C84.4428 31.3948 84.8814 31.1179 85.4469 30.8474C86.0501 30.7268 86.5556 30.7395 87.1276 30.9683Z" fill="#A3A3A3"/>
<path d="M68.2348 30.9683C69.0178 30.9683 69.8007 30.9683 70.6074 30.9683C70.6074 34.1872 70.6074 37.4061 70.6074 40.7225C70.3794 40.8366 70.2114 40.8218 69.9563 40.8221C69.815 40.8223 69.815 40.8223 69.6708 40.8224C69.5721 40.8221 69.4734 40.8218 69.3717 40.8214C69.2231 40.8219 69.2231 40.8219 69.0715 40.8224C68.9774 40.8223 68.8833 40.8222 68.7864 40.8221C68.6996 40.822 68.6129 40.8219 68.5235 40.8218C68.3227 40.8104 68.3227 40.8104 68.2348 40.7225C68.2264 40.5958 68.2241 40.4687 68.2242 40.3417C68.2241 40.2595 68.224 40.1773 68.2239 40.0926C68.2242 40.0017 68.2245 39.9108 68.2248 39.8172C68.2248 39.722 68.2248 39.6269 68.2248 39.5288C68.2248 39.2126 68.2255 38.8964 68.2262 38.5802C68.2264 38.3616 68.2265 38.1431 68.2266 37.9245C68.2269 37.4069 68.2276 36.8894 68.2285 36.3718C68.2295 35.725 68.23 35.0782 68.2305 34.4313C68.2314 33.277 68.233 32.1226 68.2348 30.9683Z" fill="#A3A3A3"/>
<path d="M70.0957 26.9368C70.4371 27.1644 70.6844 27.4332 70.8701 27.8046C70.9272 28.2502 70.9389 28.6461 70.6834 29.0294C70.404 29.3594 70.1313 29.5358 69.6931 29.5865C69.2306 29.6039 68.8883 29.5684 68.4975 29.2985C68.1577 28.9682 68.0165 28.6212 67.9702 28.1561C68.0272 27.6145 68.2761 27.3804 68.6756 27.0474C69.1092 26.7435 69.6166 26.7677 70.0957 26.9368Z" fill="#A3A3A3"/>
</svg>
