<svg width="150" height="68" viewBox="0 0 150 68" fill="none" xmlns="http://www.w3.org/2000/svg">
<path d="M42.8902 20.4326C43.3436 20.437 43.7971 20.4409 44.2505 20.4445C45.354 20.454 46.4573 20.4691 47.5607 20.4871C47.5191 20.9412 47.4763 21.3953 47.433 21.8493C47.4093 22.1021 47.3856 22.355 47.3611 22.6155C47.2714 23.3707 47.1369 24.1028 46.9769 24.846C46.7281 24.8472 46.4793 24.8484 46.2229 24.8497C45.2952 24.8575 44.3679 24.8718 43.4403 24.8904C43.0397 24.8971 42.6391 24.9013 42.2384 24.9029C41.6608 24.9056 41.0833 24.9183 40.5059 24.9312C40.1589 24.9358 39.8119 24.9403 39.4543 24.945C38.1811 25.2038 37.8049 25.5323 37.052 26.5896C36.7008 27.6337 36.5167 28.6904 36.3348 29.7749C36.2785 30.084 36.2223 30.3932 36.1643 30.7118C36.0467 31.3644 35.9318 32.0176 35.8195 32.6712C35.648 33.6684 35.4685 34.6639 35.2875 35.6595C35.1739 36.2951 35.0608 36.9308 34.9482 37.5665C34.8689 38.0112 34.8689 38.0112 34.788 38.4647C34.5349 39.9455 34.3025 41.3608 34.4248 42.8631C35.2312 43.6658 35.9448 43.6125 37.052 43.7349C37.0874 43.4783 37.1228 43.2217 37.1592 42.9574C38.0447 36.6441 38.0447 36.6441 38.5116 36.1794C39.2911 36.1384 40.0658 36.167 40.8468 36.1794C40.9913 34.7409 40.9913 34.7409 41.1387 33.2734C40.4644 33.1775 39.7901 33.0816 39.0954 32.9828C39.1372 32.5347 39.1799 32.0867 39.2231 31.6388C39.2468 31.3893 39.2705 31.1398 39.2949 30.8828C39.3928 30.029 39.5373 29.1809 39.6792 28.3332C41.3168 28.3332 42.9544 28.3332 44.6416 28.3332C44.4672 30.974 44.1052 33.5426 43.6435 36.1452C43.5286 36.7974 43.4188 37.4503 43.3092 38.1035C42.1839 44.615 42.1839 44.615 39.6792 46.6409C37.658 47.8518 35.5748 48.0734 33.2572 47.8033C31.9304 47.4737 30.8731 46.8666 30.0462 45.7691C28.4309 42.2466 30.139 37.0674 30.8026 33.4356C30.9769 32.4732 31.1425 31.5096 31.3079 30.5456C31.4201 29.9246 31.5328 29.3037 31.646 28.6829C31.6935 28.3991 31.741 28.1154 31.79 27.8231C32.2318 25.4929 33.1509 23.5246 34.8262 21.8129C37.4481 20.2593 39.9395 20.383 42.8902 20.4326Z" fill="#A3A3A3"/>
<path d="M89.6136 27.1528C90.0381 27.1618 90.0381 27.1618 90.4711 27.171C90.6482 28.0366 90.8244 28.9023 91.0002 29.7682C91.0485 30.004 91.0969 30.2398 91.1467 30.4828C91.6476 32.9571 92.0733 35.4346 92.5144 37.9231C93.1887 34.3749 93.8631 30.8267 94.5578 27.171C95.0394 27.171 95.5211 27.171 96.0173 27.171C95.8553 29.3006 95.5814 31.3783 95.1861 33.4767C95.1347 33.756 95.0832 34.0353 95.0303 34.3231C94.868 35.2025 94.7038 36.0815 94.5395 36.9605C94.4282 37.5619 94.3171 38.1634 94.206 38.7648C93.9356 40.2281 93.6634 41.6911 93.3902 43.1539C92.8122 43.1539 92.2342 43.1539 91.6387 43.1539C90.6273 37.6877 90.6273 37.6877 89.5954 32.1112C89.0284 34.5569 88.5076 36.961 88.0993 39.4306C88.0021 40.0161 87.9041 40.6015 87.8052 41.1867C87.7633 41.4396 87.7215 41.6925 87.6784 41.9531C87.552 42.5727 87.552 42.5727 87.2601 43.1539C86.7785 43.1539 86.2968 43.1539 85.8006 43.1539C86.1909 39.9623 86.7107 36.8033 87.2854 33.6399C87.4266 32.8612 87.5655 32.0821 87.7042 31.3029C87.7936 30.8072 87.8831 30.3115 87.9728 29.8159C88.0348 29.4668 88.0348 29.4668 88.0981 29.1107C88.4526 27.1764 88.4526 27.1764 89.6136 27.1528Z" fill="#A3A3A3"/>
<path d="M61.9919 27.6068C62.9586 29.1466 62.8478 30.9675 62.448 32.6923C61.87 32.6923 61.292 32.6923 60.6965 32.6923C60.721 32.496 60.7455 32.2997 60.7707 32.0975C60.8004 31.8382 60.8301 31.579 60.8607 31.3119C60.8912 31.0557 60.9217 30.7995 60.9531 30.5355C60.9869 29.8199 60.9115 29.3023 60.6965 28.6239C59.6607 28.6005 58.7747 28.6404 57.7775 28.9145C56.0877 34.9338 56.0877 34.9338 55.7341 41.1196C56.0738 41.5211 56.0738 41.5211 57.0112 41.4829C58.0133 41.4999 58.0133 41.4999 58.5335 41.1094C59.1475 40.2576 59.3417 39.3084 59.5836 38.3045C59.6354 38.1005 59.6871 37.8965 59.7404 37.6864C59.8673 37.1847 59.9904 36.6822 60.1127 36.1795C59.4384 36.1795 58.7641 36.1795 58.0694 36.1795C58.1657 35.7 58.262 35.2205 58.3613 34.7265C59.5172 34.7265 60.6732 34.7265 61.8642 34.7265C61.4104 40.8698 61.4104 40.8698 59.5289 42.5726C58.2173 43.3572 56.9322 43.341 55.4422 43.1538C54.5482 42.7179 54.5482 42.7179 53.9827 41.9914C53.4589 39.7642 53.9397 37.6907 54.3476 35.4711C54.4111 35.1016 54.4747 34.732 54.5403 34.3513C55.4975 28.9761 55.4975 28.9761 56.8835 27.7521C58.5219 26.6869 60.2745 26.5547 61.9919 27.6068Z" fill="#A3A3A3"/>
<path d="M118.494 27.1709C119.19 27.7213 119.56 28.1299 119.954 28.9144C119.993 29.9819 120.003 30.8029 119.662 31.8204C119.18 31.8204 118.699 31.8204 118.202 31.8204C118.208 31.5028 118.214 31.1851 118.221 30.8578C118.256 29.8026 118.256 29.8026 117.91 28.9144C117.108 28.6395 117.108 28.6395 116.159 28.6238C115.133 29.464 114.511 30.1164 114.262 31.4209C114.484 32.9145 115.425 33.6666 116.451 34.7264C116.782 35.0992 117.111 35.4744 117.436 35.8525C117.577 36.0136 117.718 36.1746 117.863 36.3406C118.656 37.3217 118.574 38.1423 118.494 39.376C118.175 40.7967 117.648 42.0137 116.434 42.9074C115.214 43.4374 113.947 43.3591 112.656 43.1538C111.744 42.7179 111.744 42.7179 111.197 41.9914C110.819 40.7063 110.832 39.5045 111.197 38.2136C111.678 38.2136 112.16 38.2136 112.656 38.2136C112.674 38.42 112.691 38.6264 112.71 38.8391C112.734 39.1061 112.759 39.3732 112.784 39.6484C112.807 39.9148 112.831 40.1811 112.856 40.4555C112.878 41.1084 112.878 41.1084 113.24 41.4102C114.225 41.5557 114.225 41.5557 115.283 41.4102C116.28 40.5963 116.433 40.0843 116.615 38.8129C116.544 37.5168 115.932 36.7427 114.991 35.8888C114.683 35.6318 114.373 35.3774 114.061 35.126C113.092 34.3115 112.732 33.7882 112.548 32.5424C112.506 30.8405 112.639 29.6129 113.664 28.2163C115.097 26.7429 116.631 26.7148 118.494 27.1709Z" fill="#A3A3A3"/>
<path d="M111.032 27.643C111.79 28.7898 111.853 29.8833 111.653 31.221C111.598 31.4188 111.544 31.6166 111.488 31.8204C111.007 31.8204 110.525 31.8204 110.029 31.8204C110.018 31.6383 110.007 31.4563 109.996 31.2687C109.977 31.0312 109.957 30.7937 109.938 30.549C109.921 30.313 109.904 30.077 109.886 29.8339C109.787 29.0948 109.787 29.0948 108.861 28.6238C108.058 28.6838 107.567 28.7833 106.933 29.2856C106.199 30.1888 106.234 31.2738 106.234 32.4016C106.383 33.2472 106.383 33.2472 106.818 33.8546C106.996 33.9407 107.175 34.0269 107.358 34.1157C108.821 34.862 109.855 36.2302 110.357 37.7595C110.294 39.5532 109.874 40.9099 108.697 42.2819C107.461 43.2913 106.525 43.25 104.962 43.2377C104.191 43.1537 104.191 43.1537 103.425 42.627C102.676 41.4418 102.682 40.4577 102.731 39.0854C102.828 38.7977 102.924 38.51 103.023 38.2136C103.505 38.2136 103.986 38.2136 104.483 38.2136C104.454 39.0791 104.454 39.0791 104.426 39.9447C104.444 40.6295 104.444 40.6295 105.066 41.4101C106.44 41.5743 106.44 41.5743 107.657 41.0287C108.388 39.9377 108.388 38.9048 108.277 37.6324C107.685 36.6649 106.945 36.0436 106.07 35.3439C105.031 34.4632 104.525 33.7534 104.191 32.4016C104.247 30.8694 104.487 29.415 105.431 28.1698C107.075 26.7197 109.137 26.3852 111.032 27.643Z" fill="#A3A3A3"/>
<path d="M97.185 27.1709C99.4005 27.1709 101.616 27.1709 103.899 27.1709C103.899 27.6504 103.899 28.1299 103.899 28.6239C102.165 28.6239 100.431 28.6239 98.6445 28.6239C98.5542 29.2592 98.4639 29.8945 98.3708 30.5491C98.1861 31.8486 97.9856 33.1409 97.7688 34.4359C99.1174 34.4359 100.466 34.4359 101.855 34.4359C101.759 34.8194 101.663 35.203 101.564 35.5982C100.215 35.5982 98.8664 35.5982 97.4769 35.5982C97.417 35.9901 97.3572 36.3819 97.2956 36.7856C97.2162 37.298 97.1367 37.8103 97.0573 38.3226C97.0179 38.5811 96.9786 38.8396 96.9381 39.1059C96.8995 39.3531 96.861 39.6003 96.8212 39.8551C96.7861 40.0833 96.7509 40.3116 96.7147 40.5468C96.6012 41.1196 96.6012 41.1196 96.3092 41.7008C97.9468 41.7008 99.5844 41.7008 101.272 41.7008C101.272 42.1803 101.272 42.6598 101.272 43.1538C99.0561 43.1538 96.8405 43.1538 94.5578 43.1538C94.9701 39.5881 95.5482 36.0764 96.1998 32.547C96.2957 32.0222 96.3915 31.4974 96.4871 30.9725C96.7182 29.705 96.9516 28.438 97.185 27.1709Z" fill="#A3A3A3"/>
<path d="M70.9521 27.1379C71.2196 27.1395 71.4872 27.141 71.7628 27.1426C72.0516 27.1435 72.3404 27.1444 72.6379 27.1454C72.9418 27.1478 73.2456 27.1503 73.5587 27.1528C74.0162 27.1547 74.0162 27.1547 74.4829 27.1567C75.2391 27.1602 75.9953 27.165 76.7514 27.1709C76.6551 27.6504 76.5588 28.1299 76.4595 28.6239C74.8219 28.6239 73.1843 28.6239 71.4971 28.6239C71.461 29.0375 71.4249 29.451 71.3876 29.8771C71.2253 31.5146 70.9334 33.1111 70.6214 34.7265C71.8737 34.7265 73.1259 34.7265 74.4162 34.7265C74.4162 35.206 74.4162 35.6855 74.4162 36.1795C73.0676 36.2754 71.719 36.3713 70.3295 36.4701C70.2486 36.9282 70.1677 37.3863 70.0843 37.8584C69.9776 38.4551 69.8708 39.0518 69.7639 39.6485C69.7107 39.951 69.6574 40.2535 69.6026 40.5651C69.5508 40.8526 69.4991 41.1401 69.4458 41.4364C69.3984 41.7027 69.351 41.969 69.3022 42.2434C69.1618 42.8632 69.1618 42.8632 68.8699 43.1538C68.3836 43.1656 67.8968 43.1663 67.4104 43.1538C67.8306 40.0317 68.3492 36.9306 68.8952 33.8282C69.0362 33.0258 69.1751 32.2231 69.3141 31.4204C69.4035 30.9101 69.493 30.3998 69.5826 29.8896C69.6446 29.5296 69.6446 29.5296 69.7079 29.1624C70.0591 27.1853 70.0591 27.1853 70.9521 27.1379Z" fill="#A3A3A3"/>
<path d="M79.9624 27.1709C82.5633 27.1709 85.1642 27.1709 87.8439 27.1709C87.7476 27.6504 87.6513 28.1299 87.552 28.6239C86.4924 28.6239 85.4328 28.6239 84.3411 28.6239C84.3143 29.0303 84.2876 29.4368 84.2601 29.8555C84.0194 32.4918 83.4904 35.086 83.0092 37.6869C82.912 38.2183 82.8149 38.7498 82.7179 39.2812C82.482 40.5724 82.2444 41.8632 82.0058 43.1538C81.4278 43.1538 80.8498 43.1538 80.2543 43.1538C80.4865 41.7382 80.7199 40.3228 80.9545 38.9076C81.0339 38.4281 81.1128 37.9485 81.1914 37.4688C81.6781 34.5007 82.213 31.5578 82.8815 28.6239C81.8219 28.6239 80.7623 28.6239 79.6705 28.6239C79.7669 28.1444 79.8632 27.6649 79.9624 27.1709Z" fill="#A3A3A3"/>
<path d="M89.0116 27.4614C89.3969 27.4614 89.7822 27.4614 90.1792 27.4614C90.4722 29.0432 90.7631 30.6253 91.0522 32.2078C91.1508 32.7456 91.2499 33.2834 91.3495 33.8211C91.493 34.5956 91.6345 35.3704 91.7756 36.1453C91.8203 36.3842 91.865 36.6231 91.911 36.8693C92.1349 38.1101 92.2727 39.2713 92.2225 40.5383C92.4152 40.5383 92.6079 40.5383 92.8064 40.5383C92.8368 40.1641 92.8673 39.7899 92.8987 39.4043C93.1086 37.3223 93.4728 35.2675 93.8365 33.2078C93.957 32.5215 94.0736 31.8347 94.1901 31.1478C94.2664 30.7117 94.343 30.2756 94.4198 29.8396C94.4714 29.5313 94.4714 29.5313 94.524 29.2168C94.613 28.7247 94.7289 28.2374 94.8497 27.752C95.0424 27.6561 95.235 27.5602 95.4335 27.4614C95.4676 29.0095 95.3704 30.3977 95.0709 31.9248C95.0334 32.1197 94.9959 32.3145 94.9573 32.5153C94.8383 33.1316 94.7164 33.7474 94.5943 34.3631C94.4362 35.1727 94.2792 35.9825 94.1222 36.7924C94.0842 36.9873 94.0462 37.1822 94.007 37.383C93.6724 39.1079 93.3763 40.8379 93.0983 42.5725C92.713 42.5725 92.3276 42.5725 91.9306 42.5725C91.16 38.353 90.3894 34.1336 89.5954 29.7862C89.1393 31.1485 88.8188 32.4175 88.5817 33.8205C88.5443 34.0346 88.507 34.2487 88.4685 34.4693C88.3502 35.1481 88.2338 35.8272 88.1176 36.5063C88 37.1875 87.882 37.8685 87.7636 38.5496C87.6903 38.9719 87.6175 39.3943 87.5453 39.8168C87.385 40.7452 87.2177 41.6633 86.9682 42.5725C86.7756 42.5725 86.5829 42.5725 86.3844 42.5725C86.574 40.7396 86.8286 38.9317 87.1415 37.1159C87.1858 36.8565 87.23 36.5971 87.2756 36.3299C87.3685 35.787 87.4617 35.2441 87.5553 34.7013C87.6988 33.8682 87.8404 33.0347 87.9819 32.2012C88.0726 31.6721 88.1635 31.1429 88.2544 30.6137C88.2967 30.3643 88.339 30.1149 88.3825 29.8579C88.6862 28.1093 88.6862 28.1093 89.0116 27.4614Z" fill="#A3A3A3"/>
<path d="M77.6272 27.1709C78.2051 27.1709 78.7831 27.1709 79.3786 27.1709C79.0108 29.3072 78.6419 31.4432 78.2722 33.5792C78.1465 34.3061 78.0211 35.0331 77.8959 35.7601C77.7161 36.8039 77.5355 37.8476 77.3546 38.8913C77.2987 39.2174 77.2427 39.5434 77.1851 39.8793C77.1325 40.1818 77.0799 40.4843 77.0257 40.7959C76.9797 41.0624 76.9337 41.3289 76.8863 41.6035C76.7514 42.282 76.7514 42.282 76.4595 43.1538C75.9779 43.1538 75.4962 43.1538 75 43.1538C75.1621 41.0242 75.436 38.9465 75.8313 36.848C75.9084 36.4291 75.9084 36.4291 75.9871 36.0017C76.1493 35.1223 76.3135 34.2433 76.4778 33.3643C76.5891 32.7629 76.7003 32.1614 76.8113 31.56C77.0818 30.0967 77.354 28.6337 77.6272 27.1709Z" fill="#A3A3A3"/>
<path d="M60.9884 27.4614C61.6486 27.9371 61.6486 27.9371 62.1561 28.6238C62.2701 29.5002 62.2701 29.5002 62.229 30.4401C62.2185 30.7532 62.208 31.0664 62.1971 31.3891C62.1768 31.7464 62.1768 31.7464 62.1561 32.111C61.8671 32.111 61.5781 32.111 61.2803 32.111C61.2905 31.9114 61.3007 31.7117 61.3111 31.506C61.319 31.2441 61.3269 30.9823 61.3351 30.7125C61.3452 30.4529 61.3554 30.1933 61.3659 29.9259C61.3391 29.1964 61.3391 29.1964 60.9006 28.684C60.0478 28.0809 59.369 28.1949 58.3613 28.3332C57.024 29.3907 56.669 30.2484 56.3761 31.901C56.3393 32.1012 56.3024 32.3014 56.2645 32.5077C56.1881 32.929 56.1144 33.3508 56.0433 33.7731C55.9351 34.4157 55.8192 35.0565 55.7016 35.6975C54.9425 38.708 54.9425 38.708 55.6246 41.5191C56.5369 42.1405 56.9839 42.1898 58.0694 41.9914C59.5538 40.8399 59.8628 39.7312 60.2039 37.9775C60.253 37.7484 60.3021 37.5193 60.3527 37.2833C60.4722 36.7226 60.585 36.1605 60.6965 35.5982C60.0222 35.5982 59.3479 35.5982 58.6532 35.5982C58.6532 35.4064 58.6532 35.2146 58.6532 35.017C59.5201 35.017 60.3871 35.017 61.2803 35.017C61.4454 37.4273 60.9286 39.9932 59.5289 41.9914C58.2599 42.824 57.2435 43.0817 55.7341 42.8632C54.8766 42.3001 54.8766 42.3001 54.2746 41.4102C54.1124 39.1262 54.5256 36.9514 54.9314 34.7082C54.9912 34.3514 55.051 33.9946 55.1127 33.627C55.8939 29.2506 55.8939 29.2506 57.5403 27.752C58.6764 27.3499 59.8022 27.1931 60.9884 27.4614Z" fill="#A3A3A3"/>
<path d="M118.202 27.4615C118.95 27.8793 118.95 27.8793 119.37 28.6239C119.46 29.5049 119.438 30.3575 119.37 31.2393C119.177 31.2393 118.985 31.2393 118.786 31.2393C118.739 30.6528 118.691 30.0663 118.644 29.4798C118.531 28.7997 118.531 28.7997 117.618 28.3333C116.135 28.1691 116.135 28.1691 114.882 28.8782C113.943 30.1007 113.939 31.1923 114.116 32.6923C114.81 34.1315 115.902 35.031 117.12 36.0297C117.693 36.5356 117.884 36.8432 117.98 37.5984C118.036 39.2959 117.79 40.6159 116.743 41.9915C115.505 42.8677 114.45 43.0808 112.948 42.8633C112.09 42.3184 112.09 42.3184 111.488 41.4103C111.371 40.429 111.402 39.4872 111.488 38.5043C111.777 38.5043 112.066 38.5043 112.364 38.5043C112.346 38.8639 112.328 39.2235 112.309 39.594C112.315 40.3831 112.36 40.8183 112.674 41.5556C113.254 42.0734 113.254 42.0734 114.225 42.1549C115.535 41.9526 115.932 41.5595 116.743 40.5385C117.109 39.4444 117.187 38.7861 117.035 37.6325C116.199 36.3868 115.076 35.3891 114.006 34.3451C113.122 33.4439 112.979 33.0026 112.857 31.766C112.992 30.1231 113.523 28.8726 114.754 27.7521C115.925 27.3376 116.975 27.2655 118.202 27.4615Z" fill="#A3A3A3"/>
<path d="M110.029 27.4615C110.777 28.0427 110.777 28.0427 111.197 28.9145C111.284 29.7169 111.252 30.4273 111.197 31.2393C111.004 31.2393 110.811 31.2393 110.613 31.2393C110.577 31.0538 110.542 30.8684 110.506 30.6774C110.457 30.4372 110.408 30.1971 110.357 29.9497C110.31 29.7104 110.262 29.471 110.214 29.2244C110.153 29.0262 110.092 28.828 110.029 28.6239C109.126 28.1746 108.396 28.248 107.402 28.3333C106.532 29.017 106.003 29.5966 105.862 30.708C105.809 32.0602 105.811 32.7793 106.563 33.9455C107.144 34.4863 107.717 34.9913 108.332 35.4893C109.509 36.4781 109.694 36.9098 109.846 38.4316C109.805 39.7976 109.387 40.8951 108.569 41.9914C107.332 42.8677 106.277 43.0807 104.775 42.8632C103.917 42.3183 103.917 42.3183 103.315 41.4102C103.198 40.4289 103.229 39.4871 103.315 38.5042C103.508 38.5042 103.7 38.5042 103.899 38.5042C103.91 38.6829 103.921 38.8616 103.932 39.0457C103.951 39.2806 103.97 39.5154 103.99 39.7574C104.007 39.99 104.024 40.2227 104.041 40.4623C104.218 41.2395 104.43 41.5178 105.066 41.9914C106.185 42.1099 107.087 42.1199 107.986 41.4102C108.586 40.3587 108.854 39.5879 108.898 38.3771C108.44 36.9328 107.585 36.0761 106.526 35.017C106.378 34.8687 106.23 34.7204 106.077 34.5675C105.948 34.4402 105.819 34.3128 105.687 34.1816C104.874 33.3723 104.716 32.8997 104.665 31.7841C104.68 30.269 105.213 29.1586 106.234 28.0427C107.433 27.2883 108.65 27.2223 110.029 27.4615Z" fill="#A3A3A3"/>
<path d="M98.311 27.4285C98.5419 27.43 98.7727 27.4315 99.0105 27.4331C99.3845 27.4345 99.3845 27.4345 99.7659 27.4359C100.028 27.4384 100.29 27.4408 100.56 27.4433C100.823 27.4446 101.087 27.4459 101.358 27.4473C102.01 27.4507 102.663 27.4555 103.315 27.4615C103.315 27.7491 103.315 28.0368 103.315 28.3333C101.677 28.3333 100.04 28.3333 98.3526 28.3333C97.9673 30.443 97.5819 32.5527 97.185 34.7264C98.5336 34.7264 99.8822 34.7264 101.272 34.7264C101.272 34.9182 101.272 35.11 101.272 35.3076C99.8267 35.3076 98.3818 35.3076 96.893 35.3076C96.8569 35.7092 96.8208 36.1108 96.7836 36.5245C96.6012 38.3589 96.3091 40.1713 96.0173 41.9914C97.6549 41.9914 99.2925 41.9914 100.98 41.9914C100.98 42.1832 100.98 42.375 100.98 42.5726C99.0532 42.5726 97.1266 42.5726 95.1416 42.5726C95.5126 39.445 95.9617 36.3455 96.5017 33.2427C96.6219 32.5508 96.7396 31.8584 96.8571 31.166C96.9332 30.7246 97.0094 30.2832 97.0858 29.8419C97.1382 29.5323 97.1382 29.5323 97.1917 29.2164C97.4974 27.478 97.4974 27.478 98.311 27.4285Z" fill="#A3A3A3"/>
<path d="M70.6214 27.4614C72.4517 27.4614 74.2819 27.4614 76.1676 27.4614C76.1676 27.7491 76.1676 28.0368 76.1676 28.3332C74.53 28.3332 72.8924 28.3332 71.2052 28.3332C71.1209 28.9506 71.0366 29.5679 70.9498 30.2039C70.7173 31.8325 70.4251 33.4186 70.0376 35.017C71.2899 35.017 72.5422 35.017 73.8324 35.017C73.8324 35.3047 73.8324 35.5924 73.8324 35.8888C72.4838 35.8888 71.1352 35.8888 69.7457 35.8888C69.6915 36.581 69.6915 36.581 69.6362 37.2873C69.4843 38.9747 69.2023 40.6214 68.87 42.2819C68.4365 42.4258 68.4365 42.4258 67.9942 42.5725C68.3499 39.4899 68.8043 36.4369 69.3544 33.3828C69.4744 32.7151 69.5922 32.047 69.7098 31.3788C69.7858 30.9516 69.862 30.5244 69.9384 30.0972C69.9734 29.8987 70.0083 29.7002 70.0444 29.4956C70.2958 28.1097 70.2958 28.1097 70.6214 27.4614Z" fill="#A3A3A3"/>
<path d="M80.2543 27.4614C82.5662 27.4614 84.8781 27.4614 87.2601 27.4614C87.2601 27.7491 87.2601 28.0368 87.2601 28.3332C86.2005 28.3332 85.1409 28.3332 84.0491 28.3332C84.0028 28.6827 83.9566 29.0322 83.9089 29.3923C83.32 33.7164 82.5393 37.9969 81.7139 42.2819C81.2804 42.4258 81.2804 42.4258 80.8381 42.5725C81.5561 37.8148 82.3248 33.0697 83.1734 28.3332C82.2101 28.3332 81.2468 28.3332 80.2543 28.3332C80.2543 28.0455 80.2543 27.7578 80.2543 27.4614Z" fill="#A3A3A3"/>
<path d="M78.211 27.4614C78.4036 27.4614 78.5963 27.4614 78.7948 27.4614C78.5913 29.1806 78.331 30.8828 78.0377 32.5889C77.9934 32.848 77.9492 33.1071 77.9036 33.374C77.8106 33.9175 77.7174 34.4608 77.6239 35.0041C77.4808 35.8367 77.339 36.6696 77.1973 37.5024C77.1065 38.032 77.0157 38.5615 76.9248 39.091C76.8825 39.3399 76.8402 39.5887 76.7967 39.845C76.7367 40.1915 76.7367 40.1915 76.6756 40.5449C76.6408 40.7477 76.6061 40.9504 76.5702 41.1592C76.4595 41.7007 76.4595 41.7007 76.1676 42.5725C75.975 42.5725 75.7823 42.5725 75.5838 42.5725C75.5187 40.8437 75.767 39.2501 76.0844 37.5529C76.1355 37.2727 76.1867 36.9924 76.2394 36.7037C76.3472 36.115 76.4559 35.5264 76.5655 34.9379C76.7337 34.0335 76.8987 33.1285 77.0633 32.2234C77.1686 31.6508 77.2741 31.0784 77.3797 30.5059C77.4293 30.2341 77.4789 29.9623 77.5299 29.6822C77.5767 29.4328 77.6234 29.1834 77.6716 28.9265C77.7124 28.7061 77.7532 28.4857 77.7953 28.2587C77.9191 27.752 77.9191 27.752 78.211 27.4614Z" fill="#A3A3A3"/>
<path d="M63.0318 34.4358C64.5731 34.4358 66.1143 34.4358 67.7023 34.4358C67.606 34.9153 67.5097 35.3948 67.4104 35.8888C65.9655 35.8888 64.5205 35.8888 63.0318 35.8888C63.0318 35.4093 63.0318 34.9298 63.0318 34.4358Z" fill="#A3A3A3"/>
<path d="M63.6156 34.7266C64.7716 34.7266 65.9275 34.7266 67.1185 34.7266C67.1185 35.0143 67.1185 35.3019 67.1185 35.5984C65.8662 35.5984 64.6139 35.5984 63.3237 35.5984C63.42 35.3107 63.5164 35.023 63.6156 34.7266Z" fill="#A3A3A3"/>
</svg>
