<svg width="150" height="68" viewBox="0 0 150 68" fill="none" xmlns="http://www.w3.org/2000/svg">
<path d="M66.8464 25.1265C68.0594 25.1265 69.2725 25.1265 70.5222 25.1265C70.1649 28.7002 70.1649 28.7002 69.7054 29.6191C70.065 29.6049 70.4246 29.5907 70.7951 29.576C71.2694 29.565 71.7438 29.5539 72.2325 29.5425C72.9362 29.5212 72.9362 29.5212 73.654 29.4995C75.1509 29.6311 75.8712 29.9408 77.057 30.8444C78.2264 32.5985 78.0675 34.0953 77.8739 36.1539C77.267 38.9667 76.2384 41.0561 73.7896 42.6887C72.7132 42.7814 72.7132 42.7814 71.4364 42.7684C70.9797 42.7658 70.523 42.7632 70.0524 42.7605C69.5757 42.7536 69.0989 42.7468 68.6078 42.7397C68.1263 42.736 67.6448 42.7324 67.1488 42.7286C65.9588 42.7189 64.7689 42.7055 63.579 42.6887C65.7642 30.3 65.7642 30.3 66.8464 25.1265ZM68.8885 33.2949C68.4842 35.3166 68.0799 37.3383 67.6633 39.4213C70.557 39.6662 70.557 39.6662 73.228 38.8342C74.0443 37.3129 74.1251 35.818 74.1981 34.1118C72.8447 33.2095 72.4236 33.2031 70.8541 33.2439C70.2055 33.2607 69.5568 33.2776 68.8885 33.2949Z" fill="#A3A3A3"/>
<path d="M112.182 30.8444C113.022 32.1046 113.111 32.4 113.101 33.831C113.104 34.2835 113.104 34.2835 113.107 34.7452C112.999 35.7455 112.999 35.7455 112.182 38.1961C109.217 38.3308 106.252 38.4656 103.197 38.6045C103.815 39.2229 104.391 39.0999 105.253 39.1421C105.584 39.1592 105.914 39.1764 106.254 39.194C106.602 39.21 106.949 39.2261 107.307 39.2426C107.655 39.2603 108.004 39.2779 108.364 39.2961C109.228 39.3395 110.092 39.3807 110.957 39.4213C111.008 41.7698 111.008 41.7698 110.548 42.6887C109.162 42.7244 107.775 42.7461 106.388 42.7653C105.996 42.7756 105.604 42.7858 105.2 42.7964C101.533 42.8345 101.533 42.8345 99.9295 41.4634C98.9743 39.5531 99.2265 36.7772 99.8002 34.7675C100.924 32.3284 102.475 30.8675 105.009 29.9C107.814 29.3586 109.687 29.5237 112.182 30.8444ZM103.605 34.1118C103.605 34.2466 103.605 34.3814 103.605 34.5202C105.627 34.5202 107.649 34.5202 109.732 34.5202C109.597 34.1159 109.462 33.7116 109.323 33.295C107.244 32.2551 105.497 33.0311 103.605 34.1118Z" fill="#A3A3A3"/>
<path d="M37.3382 29.4659C37.7089 29.4506 38.0795 29.4354 38.4614 29.4196C40.2759 29.3958 41.2527 29.4439 42.8073 30.4455C44.454 33.0816 43.3986 36.1592 42.7499 39.0128C42.633 39.5459 42.633 39.5459 42.5137 40.0897C42.3232 40.9567 42.1285 41.8228 41.933 42.6886C40.2483 42.7123 38.5636 42.7268 36.8788 42.7397C36.3986 42.7465 35.9185 42.7534 35.4238 42.7604C34.7367 42.7644 34.7367 42.7644 34.0358 42.7684C33.6123 42.7727 33.1888 42.777 32.7525 42.7814C31.7224 42.6886 31.7224 42.6886 30.9056 41.8718C30.571 39.9614 30.7275 38.2633 31.6714 36.5623C32.5393 35.337 32.5393 35.337 33.3561 34.9286C34.464 34.8337 35.5648 34.7573 36.6746 34.6988C37.1365 34.6724 37.1365 34.6724 37.6079 34.6454C38.3688 34.6021 39.1298 34.5609 39.8909 34.5202C39.8909 34.1158 39.8909 33.7115 39.8909 33.2949C37.4649 33.2949 35.0388 33.2949 32.5393 33.2949C33.0953 28.8467 33.4626 29.5255 37.3382 29.4659ZM34.5814 38.196C34.4466 38.6003 34.3118 39.0046 34.173 39.4212C35.7903 39.4212 37.4077 39.4212 39.074 39.4212C39.074 39.0169 39.074 38.6126 39.074 38.196C37.5915 38.196 36.1089 38.196 34.5814 38.196Z" fill="#A3A3A3"/>
<path d="M54.1857 29.6192C55.5051 29.564 56.8223 29.5235 58.1423 29.4916C58.5148 29.4744 58.8873 29.4573 59.2711 29.4397C61.0937 29.4066 62.0747 29.4397 63.6385 30.444C65.2816 33.0834 64.2285 36.1578 63.5794 39.0129C63.4626 39.546 63.4626 39.546 63.3433 40.0898C63.1528 40.9568 62.9581 41.8229 62.7626 42.6887C61.0779 42.7124 59.3932 42.7269 57.7084 42.7398C57.2282 42.7466 56.748 42.7535 56.2533 42.7605C55.5663 42.7645 55.5663 42.7645 54.8653 42.7685C54.4419 42.7728 54.0184 42.7771 53.582 42.7815C52.552 42.6887 52.552 42.6887 51.7352 41.8719C51.4006 39.9615 51.5571 38.2634 52.501 36.5624C53.3689 35.3371 53.3689 35.3371 54.1857 34.9287C55.2936 34.8338 56.3943 34.7574 57.5041 34.699C57.9661 34.6725 57.9661 34.6725 58.4375 34.6455C59.1984 34.6022 59.9594 34.561 60.7205 34.5203C60.7205 34.1159 60.7205 33.7116 60.7205 33.295C58.2944 33.295 55.8684 33.295 53.3689 33.295C53.6384 32.082 53.908 30.869 54.1857 29.6192ZM55.411 38.1961C55.2762 38.6004 55.1414 39.0048 55.0025 39.4214C56.6199 39.4214 58.2373 39.4214 59.9036 39.4214C59.9036 39.017 59.9036 38.6127 59.9036 38.1961C58.4211 38.1961 56.9385 38.1961 55.411 38.1961Z" fill="#A3A3A3"/>
<path d="M85.7872 29.4914C86.0957 29.4795 86.4042 29.4677 86.7221 29.4555C88.259 29.438 89.145 29.5314 90.5256 30.2651C91.6296 31.5845 91.7212 32.3981 91.7604 34.1117C91.6279 35.2459 91.3828 36.3256 91.0967 37.4301C91.0027 37.8526 91.0027 37.8526 90.9069 38.2836C90.403 40.2953 89.8183 41.5283 88.0846 42.6886C86.5613 42.9596 85.0836 42.9368 83.5409 42.8928C82.9273 42.8943 82.9273 42.8943 82.3012 42.896C79.3216 42.856 79.3216 42.856 78.38 42.1469C77.2927 40.678 77.4343 38.9189 77.6076 37.1748C78.1927 34.3097 78.7162 31.8652 81.1414 30.0274C82.6943 29.5098 84.1683 29.5119 85.7872 29.4914ZM81.9582 33.7032C81.6591 34.9302 81.6591 34.9302 81.4732 36.358C81.4 36.8424 81.3269 37.3267 81.2515 37.8258C81.2151 38.2175 81.1788 38.6092 81.1414 39.0127C81.8478 39.7192 82.7854 39.4914 83.7451 39.4977C84.1442 39.5035 84.5432 39.5093 84.9544 39.5153C86.1355 39.501 86.1355 39.501 87.2677 38.6043C87.6115 37.4439 87.6115 37.4439 87.7783 36.1283C87.8478 35.6855 87.9173 35.2427 87.9889 34.7865C88.0362 34.2503 88.0362 34.2503 88.0846 33.7032C87.6445 33.1718 87.6445 33.1718 86.5929 33.2406C86.1501 33.2416 85.7073 33.2427 85.2511 33.2438C84.8094 33.2427 84.3677 33.2417 83.9126 33.2406C82.7928 33.2172 82.7928 33.2172 81.9582 33.7032Z" fill="#A3A3A3"/>
<path d="M22.3495 25.0801C22.9004 25.0801 23.4513 25.0825 24.0022 25.0866C24.4365 25.0874 24.4365 25.0874 24.8795 25.0883C25.8076 25.0906 26.7356 25.0957 27.6637 25.1009C28.2915 25.103 28.9193 25.1048 29.5471 25.1065C31.089 25.111 32.631 25.1181 34.1729 25.1264C33.9034 26.3395 33.6338 27.5525 33.3561 28.8023C31.8735 28.8023 30.3909 28.8023 28.8634 28.8023C28.8234 29.1203 28.7834 29.4382 28.7422 29.7659C28.1609 34.1156 27.3031 38.3932 26.4129 42.6887C25.0651 42.6887 23.7173 42.6887 22.3286 42.6887C22.5111 39.6332 22.9819 36.6805 23.5539 33.6778C23.6267 33.2936 23.6995 32.9095 23.7745 32.5137C24.3167 29.7272 24.3167 29.7272 24.7792 28.8023C23.4314 28.8023 22.0836 28.8023 20.695 28.8023C20.6551 26.2895 20.6551 26.2895 20.695 25.5349C21.1034 25.1264 21.1034 25.1264 22.3495 25.0801Z" fill="#A3A3A3"/>
<path d="M121.921 25.0867C122.759 25.1 123.597 25.1133 124.434 25.1266C124.221 28.5873 123.642 31.9503 122.97 35.3451C122.798 36.2173 122.63 37.0901 122.462 37.9632C121.632 42.2239 121.632 42.2239 121.167 42.6888C120.076 42.7464 118.992 42.7061 117.899 42.6888C118.112 39.228 118.691 35.865 119.363 32.4702C119.535 31.5981 119.704 30.7252 119.871 29.8521C120.789 25.1465 120.789 25.1465 121.921 25.0867Z" fill="#A3A3A3"/>
<path d="M115.857 25.1265C117.07 25.1265 118.283 25.1265 119.533 25.1265C119.253 28.2664 118.677 31.3325 118.069 34.4217C117.898 35.2923 117.729 36.1634 117.561 37.0346C116.733 41.2867 116.733 41.2867 116.266 42.6887C115.053 42.6887 113.84 42.6887 112.59 42.6887C114.775 30.3 114.775 30.3 115.857 25.1265Z" fill="#A3A3A3"/>
<path d="M98.5758 29.5937C98.9818 29.5974 99.3877 29.601 99.8059 29.6048C100.271 29.6119 100.271 29.6119 100.746 29.6192C100.611 30.8322 100.476 32.0452 100.337 33.295C99.1241 33.295 97.9111 33.295 96.6613 33.295C96.1222 36.3949 95.5831 39.4949 95.0277 42.6887C93.6799 42.6887 92.3321 42.6887 90.9434 42.6887C92.367 32.4558 92.367 32.4558 94.0066 30.7424C95.5667 29.6503 96.7188 29.5718 98.5758 29.5937Z" fill="#A3A3A3"/>
<path d="M50.5606 29.5935C51.0081 29.5971 51.4556 29.6008 51.9167 29.6046C52.261 29.6094 52.6053 29.6141 52.9601 29.619C52.6027 32.8353 52.6027 32.8353 52.1432 33.2948C51.059 33.4805 49.9696 33.5817 48.8758 33.7032C48.8285 33.9609 48.7811 34.2186 48.7323 34.4841C48.518 35.6451 48.3013 36.8056 48.0845 37.9661C48.01 38.3718 47.9355 38.7774 47.8588 39.1954C47.7864 39.581 47.714 39.9667 47.6394 40.364C47.5731 40.7212 47.5068 41.0784 47.4385 41.4464C47.2421 42.2801 47.2421 42.2801 46.8337 42.6885C46.2132 42.7179 45.5914 42.7228 44.9703 42.7141C44.6328 42.7104 44.2953 42.7067 43.9476 42.7029C43.687 42.6982 43.4264 42.6934 43.1579 42.6885C44.4204 32.6475 44.4204 32.6475 46.2466 30.7677C47.8027 29.6106 48.631 29.5729 50.5606 29.5935Z" fill="#A3A3A3"/>
<path d="M125.251 29.6191C126.329 29.6191 127.407 29.6191 128.518 29.6191C128.311 34.0427 127.341 38.3579 126.476 42.6887C125.263 42.6887 124.05 42.6887 122.8 42.6887C123.046 39.8495 123.449 37.1057 124.026 34.316C124.098 33.9517 124.171 33.5874 124.246 33.212C124.787 30.5473 124.787 30.5473 125.251 29.6191Z" fill="#A3A3A3"/>
<path d="M126.068 25.1265C127.146 25.1265 128.224 25.1265 129.335 25.1265C129.335 26.2047 129.335 27.2829 129.335 28.3939C128.122 28.3939 126.909 28.3939 125.659 28.3939C125.608 26.0454 125.608 26.0454 126.068 25.1265Z" fill="#A3A3A3"/>
</svg>
