<svg width="150" height="68" viewBox="0 0 150 68" fill="none" xmlns="http://www.w3.org/2000/svg">
<path d="M35.0068 26.8686C35.1305 26.9363 35.2541 27.0039 35.3814 27.0736C36.3654 27.6933 36.9148 28.5796 37.5 29.5693C36.9879 30.2561 36.5041 30.8508 35.774 31.3054C34.8044 31.2534 34.2371 30.9052 33.4606 30.3409C32.4986 29.6372 32.4986 29.6372 31.363 29.3764C30.9452 29.4519 30.9452 29.4519 30.5599 29.6175C30.4306 29.6663 30.3013 29.715 30.1681 29.7652C29.7639 29.9573 29.7639 29.9573 29.4452 30.5338C29.3621 30.9233 29.2959 31.3165 29.2399 31.7108C29.1899 32.0618 29.1899 32.0618 29.1388 32.4199C29.1054 32.6648 29.072 32.9098 29.0377 33.1621C29.0028 33.4026 28.9679 33.643 28.932 33.8908C28.755 35.1589 28.592 36.3907 28.6781 37.6712C29.1141 38.1725 29.4715 38.3689 30.0685 38.6357C30.7898 38.6357 31.301 38.3587 31.9406 38.0397C32.3219 37.8641 32.3219 37.8641 32.7055 37.8641C32.7688 37.2912 32.832 36.7183 32.8973 36.128C32.2011 36.128 31.5049 36.128 30.7877 36.128C30.9142 35.1095 31.0408 34.0909 31.1712 33.0415C33.0699 33.0415 34.9685 33.0415 36.9247 33.0415C36.9247 34.7777 36.9247 34.7777 36.8366 35.3975C36.8174 35.5364 36.7982 35.6753 36.7785 35.8184C36.7575 35.9624 36.7365 36.1063 36.7149 36.2546C36.6936 36.4066 36.6723 36.5585 36.6504 36.7151C36.583 37.1947 36.5141 37.6741 36.4452 38.1535C36.3989 38.481 36.3527 38.8085 36.3066 39.1361C36.1943 39.934 36.08 40.7316 35.9658 41.5293C34.8899 41.5293 33.814 41.5293 32.7055 41.5293C32.6422 41.402 32.5789 41.2747 32.5137 41.1435C32.418 41.1992 32.3223 41.2549 32.2238 41.3123C30.8124 42.0463 29.3804 42.1588 27.8278 41.8104C26.4908 41.3502 25.6905 40.6096 25.063 39.3619C24.2615 37.4238 24.4669 35.4157 24.7585 33.3912C24.804 33.0184 24.804 33.0184 24.8503 32.638C25.1218 30.6493 25.6424 28.9459 27.1378 27.5506C29.4155 25.8191 32.4826 25.4602 35.0068 26.8686Z" fill="#A3A3A3"/>
<path d="M40.4549 26.5866C41.5955 26.5677 42.7361 26.5538 43.8769 26.5446C44.2645 26.5408 44.652 26.5356 45.0395 26.529C45.5986 26.5196 46.1575 26.5153 46.7166 26.512C46.8882 26.508 47.0597 26.5041 47.2364 26.5C48.5779 26.4995 49.6005 26.8207 50.6249 27.6853C50.7557 27.8454 50.7557 27.8454 50.8891 28.0087C51.0244 28.168 51.0244 28.168 51.1625 28.3306C51.991 29.5719 51.9205 30.888 51.7932 32.3226C51.4669 33.7024 50.6223 34.5889 49.4474 35.3817C49.2538 35.4448 49.0603 35.5079 48.8609 35.5729C49.2219 36.889 49.6985 38.1399 50.2329 39.3961C50.6203 40.3148 50.6203 40.3148 50.6203 40.7352C50.7493 40.7352 50.8783 40.7352 51.0113 40.7352C51.0629 40.4888 51.1145 40.2424 51.1677 39.9885C51.3859 39.0309 51.6919 38.1196 52.0269 37.1958C52.0873 37.0269 52.1477 36.858 52.2099 36.684C52.404 36.142 52.5995 35.6005 52.7951 35.0591C52.9284 34.6878 53.0617 34.3165 53.1949 33.9453C54.0786 31.486 54.9771 29.0326 55.8985 26.5866C58.4144 26.5866 60.9304 26.5866 63.5226 26.5866C63.7665 30.0316 63.7665 30.0316 63.87 31.5014C63.9406 32.5038 64.0113 33.5063 64.0824 34.5087C64.1397 35.3169 64.1967 36.1252 64.2535 36.9335C64.2752 37.2417 64.297 37.5499 64.319 37.8581C64.3497 38.2901 64.38 38.7222 64.4103 39.1542C64.4276 39.4001 64.445 39.6459 64.4629 39.8992C64.4936 40.4321 64.5 40.9663 64.5 41.5C63.2098 41.5 61.9195 41.5 60.5902 41.5C60.1737 40.6852 60.3859 39.5101 60.3947 38.632C58.8465 38.632 57.2982 38.632 55.703 38.632C55.574 39.1999 55.445 39.7678 55.312 40.3528C55.183 40.7314 55.054 41.11 54.9211 41.5C52.2761 41.5 49.6311 41.5 46.906 41.5C46.5512 40.6285 46.1964 39.757 45.8308 38.8591C45.7186 38.5848 45.6063 38.3106 45.4906 38.028C45.4033 37.812 45.316 37.5961 45.226 37.3736C45.0909 37.0417 45.0909 37.0417 44.953 36.703C44.7556 36.1465 44.7556 36.1465 44.7556 35.5729C44.2395 35.5729 43.7235 35.5729 43.1917 35.5729C43.1822 35.7489 43.1726 35.9249 43.1627 36.1062C42.8942 40.5524 42.8942 40.5524 42.4098 41.5C41.1195 41.5 39.8293 41.5 38.5 41.5C38.6254 39.671 38.8368 37.8676 39.0994 36.0531C39.1387 35.7781 39.1778 35.503 39.2169 35.2279C39.3188 34.5127 39.4215 33.7977 39.5245 33.0827C39.6299 32.3495 39.7344 31.6163 39.839 30.883C40.0434 29.4507 40.2488 28.0187 40.4549 26.5866ZM44.1692 29.6458C44.1028 29.9443 44.0379 30.2431 43.9737 30.542C43.9374 30.7084 43.9011 30.8748 43.8637 31.0462C43.7802 31.5457 43.7633 32.0086 43.7782 32.5137C44.2833 32.5241 44.7881 32.5317 45.2932 32.5376C45.4359 32.5409 45.5785 32.5441 45.7254 32.5474C46.77 32.561 46.77 32.561 47.688 32.1314C47.918 31.6814 47.916 31.3894 47.9201 30.8886C47.9243 30.6608 47.9243 30.6608 47.9285 30.4285C47.9219 29.9861 47.9219 29.9861 47.4925 29.6458C46.9237 29.618 46.3743 29.6102 45.8064 29.6219C45.5713 29.6245 45.5713 29.6245 45.3314 29.6271C44.944 29.6316 44.5566 29.6385 44.1692 29.6458ZM58.8308 29.6458C58.1857 31.5386 57.5406 33.4315 56.8759 35.3817C57.9726 35.3817 59.0693 35.3817 60.1992 35.3817C60.1716 34.6408 60.143 33.8999 60.1137 33.159C60.106 32.9498 60.0984 32.7405 60.0904 32.525C60.0822 32.3216 60.0741 32.1183 60.0656 31.9088C60.0584 31.7226 60.0513 31.5363 60.0439 31.3444C60.002 30.769 59.914 30.2131 59.8083 29.6458C59.4857 29.6458 59.1632 29.6458 58.8308 29.6458Z" fill="#A3A3A3"/>
<path d="M67.5263 26.5C68.9853 26.5 70.4442 26.5 71.9474 26.5C72.4433 27.8807 72.895 29.2676 73.3287 30.6699C73.4564 31.082 73.5853 31.4936 73.7143 31.9053C73.7958 32.168 73.8772 32.4308 73.9586 32.6937C74.0322 32.9306 74.1059 33.1675 74.1818 33.4117C74.3421 34 74.3421 34 74.3421 34.5769C74.4637 34.5769 74.5853 34.5769 74.7105 34.5769C74.7194 34.4158 74.7283 34.2546 74.7375 34.0885C74.8414 32.3849 75.0325 30.7126 75.2747 29.024C75.309 28.7794 75.3433 28.5347 75.3786 28.2826C75.4621 27.6883 75.5467 27.0941 75.6316 26.5C76.9082 26.5 78.1847 26.5 79.5 26.5C79.0538 30.0756 78.6051 33.6508 78.1326 37.2227C78.0926 37.5253 78.0527 37.8278 78.0129 38.1305C77.9574 38.5531 77.9013 38.9756 77.845 39.3981C77.7973 39.7574 77.7973 39.7574 77.7487 40.1239C77.6579 40.7308 77.6579 40.7308 77.4737 41.5C76.0755 41.5 74.6774 41.5 73.2368 41.5C72.3772 38.8077 71.5175 36.1154 70.6579 33.4231C70.3045 34.9369 70.1039 36.4585 69.9095 38.0024C69.8465 38.5005 69.7828 38.9985 69.7189 39.4965C69.6775 39.8244 69.6775 39.8244 69.6353 40.159C69.5526 40.7308 69.5526 40.7308 69.3684 41.5C68.0918 41.5 66.8153 41.5 65.5 41.5C65.7367 39.6862 65.9736 37.8724 66.211 36.0587C66.3212 35.2164 66.4313 34.3742 66.5412 33.532C66.6472 32.7189 66.7536 31.906 66.8601 31.093C66.9006 30.783 66.9411 30.4731 66.9815 30.1631C67.0381 29.7285 67.095 29.2939 67.1521 28.8594C67.1844 28.6121 67.2167 28.3649 67.25 28.1101C67.3266 27.5708 67.4239 27.0347 67.5263 26.5Z" fill="#A3A3A3"/>
<path d="M90.3436 26.8773C91.1505 27.5149 91.9714 28.2641 92.4923 29.1908C92.5342 29.777 92.407 30.0359 92.0573 30.4794C91.4632 31.0948 91.4632 31.0948 91.0598 31.3115C90.1554 31.2823 89.6209 30.9085 88.8999 30.3476C88.0017 29.6443 88.0017 29.6443 86.9414 29.3836C86.5513 29.4591 86.5513 29.4591 86.1916 29.6246C86.0709 29.6733 85.9502 29.722 85.8258 29.7722C85.4484 29.9642 85.4484 29.9642 85.1508 30.5404C85.0735 30.9132 85.0116 31.2899 84.9592 31.6677C84.9124 32.0042 84.9124 32.0042 84.8647 32.3474C84.8336 32.5821 84.8024 32.8169 84.7703 33.0587C84.7378 33.2882 84.7052 33.5177 84.6717 33.7542C84.3806 35.7073 84.3806 35.7073 84.4346 37.6737C84.8436 38.1896 85.1669 38.3669 85.7328 38.6377C86.4063 38.6377 86.8836 38.3607 87.4807 38.042C87.8367 37.8665 87.8367 37.8665 88.1949 37.8665C88.2539 37.2939 88.313 36.7213 88.3739 36.1314C87.7239 36.1314 87.0739 36.1314 86.4043 36.1314C86.5224 35.1134 86.6406 34.0955 86.7624 33.0467C88.5351 33.0467 90.3078 33.0467 92.1342 33.0467C92.1342 34.7821 92.1342 34.7821 92.0549 35.3805C92.0288 35.582 92.0288 35.582 92.0023 35.7876C91.9738 35.9962 91.9738 35.9962 91.9446 36.2089C91.9155 36.4296 91.9155 36.4296 91.8857 36.6548C91.8448 36.9625 91.8034 37.2702 91.7615 37.5777C91.6973 38.0505 91.635 38.5235 91.5729 38.9965C91.5328 39.2964 91.4926 39.5963 91.4522 39.8961C91.4242 40.1087 91.4242 40.1087 91.3957 40.3257C91.2595 41.3145 91.2595 41.3145 91.0598 41.5296C90.577 41.5437 90.0988 41.5474 89.6162 41.5416C89.4803 41.5407 89.3445 41.5399 89.2045 41.539C88.868 41.5367 88.5314 41.5332 88.1949 41.5296C88.1358 41.4023 88.0767 41.2751 88.0158 41.144C87.9265 41.1997 87.8371 41.2553 87.7451 41.3127C86.4273 42.0463 85.0903 42.1587 83.6407 41.8105C82.4062 41.3557 81.6776 40.6066 81.0324 39.4088C80.2207 37.4769 80.5068 35.2423 80.7862 33.2154C80.8137 32.9845 80.8412 32.7536 80.8695 32.5157C81.1484 30.4227 81.7467 28.5759 83.3602 27.2629C85.479 25.9075 88.1347 25.4428 90.3436 26.8773Z" fill="#A3A3A3"/>
<path d="M96.0396 26.5C96.2328 26.5004 96.4259 26.5009 96.625 26.5013C96.9522 26.5013 96.9522 26.5013 97.286 26.5013C97.5234 26.5023 97.7608 26.5033 98.0053 26.5043C98.3677 26.5047 98.3677 26.5047 98.7375 26.5052C99.3808 26.5061 100.024 26.5078 100.668 26.5099C101.324 26.5119 101.98 26.5127 102.636 26.5137C103.924 26.5158 105.212 26.5192 106.5 26.5231C106.374 27.6003 106.248 28.6775 106.118 29.7873C103.783 29.8507 101.449 29.914 99.0441 29.9793C98.9179 30.7397 98.7918 31.5 98.6618 32.2834C100.554 32.2834 102.447 32.2834 104.397 32.2834C104.206 34.5876 104.206 34.5876 104.015 35.5476C102.059 35.5476 100.103 35.5476 98.0882 35.5476C98.0251 36.4347 97.9621 37.3218 97.8971 38.2358C100.168 38.2358 102.439 38.2358 104.779 38.2358C104.588 40.732 104.588 40.732 104.397 41.5C100.801 41.5 97.205 41.5 93.5 41.5C93.7151 38.6911 93.7151 38.6911 93.8678 37.5955C93.9016 37.3502 93.9354 37.105 93.9703 36.8524C94.0066 36.5945 94.0431 36.3366 94.0795 36.0787C94.1174 35.8072 94.1552 35.5357 94.193 35.2642C94.2716 34.7013 94.3507 34.1385 94.4302 33.5758C94.5322 32.8534 94.6328 32.1309 94.733 31.4083C94.8104 30.8505 94.8887 30.2928 94.9672 29.7351C95.0046 29.4684 95.0418 29.2017 95.0787 28.9349C95.1301 28.565 95.1826 28.1952 95.2352 27.8254C95.2647 27.615 95.2943 27.4047 95.3247 27.1879C95.4456 26.5314 95.4456 26.5314 96.0396 26.5Z" fill="#A3A3A3"/>
<path d="M109.569 26.5866C110.636 26.5676 111.703 26.5538 112.771 26.5446C113.133 26.5408 113.496 26.5356 113.858 26.529C114.382 26.5196 114.905 26.5153 115.429 26.512C115.589 26.508 115.748 26.5041 115.913 26.5C117.333 26.4995 118.478 26.8694 119.514 27.8772C120.369 29.205 120.659 30.3777 120.419 31.9469C120.116 33.385 119.57 34.3727 118.35 35.1823C118.245 35.2481 118.141 35.3139 118.033 35.3817C117.847 35.5079 117.661 35.6341 117.469 35.7641C117.532 35.9243 117.594 36.0844 117.659 36.2495C117.891 36.8429 118.122 37.4365 118.353 38.0304C118.453 38.2875 118.553 38.5445 118.654 38.8015C118.798 39.1705 118.942 39.5398 119.085 39.9092C119.172 40.1315 119.259 40.3537 119.348 40.5828C119.538 41.1176 119.538 41.1176 119.538 41.5C118.234 41.5 116.931 41.5 115.588 41.5C115.293 40.7176 114.998 39.935 114.704 39.1521C114.604 38.8856 114.504 38.6193 114.403 38.3531C114.259 37.9708 114.115 37.5882 113.972 37.2055C113.885 36.9753 113.798 36.745 113.709 36.5077C113.519 35.9553 113.519 35.9553 113.519 35.5729C113.084 35.5729 112.65 35.5729 112.202 35.5729C112.186 35.7117 112.17 35.8505 112.154 35.9935C112.08 36.6261 112.006 37.2586 111.932 37.8912C111.907 38.1095 111.881 38.3279 111.855 38.5529C111.83 38.7648 111.805 38.9768 111.78 39.1952C111.757 39.3894 111.735 39.5837 111.711 39.7838C111.637 40.3578 111.544 40.929 111.45 41.5C110.146 41.5 108.843 41.5 107.5 41.5C107.867 38.474 108.251 35.4511 108.659 32.4305C108.748 31.7714 108.836 31.1121 108.924 30.4528C108.981 30.0312 109.038 29.6096 109.094 29.188C109.12 28.992 109.147 28.7961 109.173 28.5942C109.198 28.4139 109.222 28.2335 109.248 28.0477C109.269 27.8895 109.29 27.7314 109.312 27.5685C109.381 27.1602 109.381 27.1602 109.569 26.5866ZM112.955 29.6458C112.831 30.5922 112.706 31.5386 112.579 32.5138C113.061 32.5293 113.542 32.5406 114.024 32.5496C114.228 32.5568 114.228 32.5568 114.436 32.5642C115.291 32.5761 115.877 32.5265 116.528 31.9402C116.695 31.4793 116.695 31.4793 116.705 30.9722C116.718 30.8044 116.731 30.6365 116.745 30.4636C116.761 29.9897 116.761 29.9897 116.34 29.6458C115.976 29.5929 115.976 29.5929 115.563 29.6085C115.411 29.6097 115.26 29.6109 115.104 29.6122C114.866 29.617 114.866 29.617 114.624 29.6219C114.464 29.6236 114.304 29.6253 114.14 29.6271C113.745 29.6316 113.35 29.6385 112.955 29.6458Z" fill="#A3A3A3"/>
<path d="M123.984 32.0216C124.438 32.0977 124.438 32.0977 125.034 32.3192C125.63 33.1308 125.537 33.9847 125.392 34.9329C125.118 35.4977 125.118 35.4977 124.629 35.8189C123.801 36.0444 123.153 36.0911 122.353 35.7746C121.883 35.4039 121.609 35.1052 121.508 34.5307C121.487 33.7859 121.475 33.1523 121.936 32.5186C122.664 32.0046 123.09 31.9595 123.984 32.0216Z" fill="#A3A3A3"/>
</svg>
