<svg width="64" height="20" viewBox="0 0 64 20" fill="none" xmlns="http://www.w3.org/2000/svg">
<path d="M30.2089 0.0468868C30.6796 0.269432 31.0196 0.579095 31.2243 1.06231C31.2834 1.45752 31.2788 1.84873 31.2752 2.24773C31.2761 2.42592 31.2761 2.42592 31.2769 2.60772C31.2782 3.00028 31.2765 3.39276 31.2747 3.78532C31.2745 4.05903 31.2748 4.33275 31.2751 4.60646C31.2754 5.1805 31.274 5.75453 31.2717 6.32857C31.269 6.98912 31.2688 7.64963 31.27 8.31018C31.2711 8.94843 31.2704 9.58666 31.269 10.2249C31.2684 10.4951 31.2685 10.7652 31.2689 11.0353C31.2692 11.4146 31.2675 11.7938 31.2653 12.1731C31.266 12.3383 31.266 12.3383 31.2667 12.5069C31.2561 13.6114 31.0332 14.6595 30.5452 15.6527C30.51 15.7258 30.4747 15.7989 30.4383 15.8742C30.1316 16.4884 29.7632 17.0088 29.295 17.5122C29.235 17.5813 29.1751 17.6504 29.1133 17.7216C27.9705 18.9666 26.2361 19.8348 24.5502 19.9717C22.2106 20.0649 20.2122 19.6308 18.4299 18.0199C18.3593 17.9575 18.2886 17.895 18.2157 17.8307C16.8422 16.545 16.0312 14.7238 15.9588 12.8496C15.9266 10.638 16.3242 8.58872 17.9088 6.94727C19.5307 5.33936 21.4064 4.68562 23.6594 4.66707C25.0389 4.67843 26.1821 4.86066 27.4113 5.49488C27.4758 5.52767 27.5403 5.56045 27.6068 5.59423C27.7636 5.67399 27.9201 5.75434 28.0765 5.83481C28.0756 5.77638 28.0747 5.71794 28.0737 5.65773C28.0647 5.04825 28.0586 4.43878 28.0542 3.82925C28.0521 3.60193 28.0494 3.37461 28.0458 3.14731C28.0409 2.82012 28.0386 2.49301 28.0368 2.16579C28.0347 2.06455 28.0326 1.9633 28.0305 1.85898C28.0303 1.26815 28.0803 0.918221 28.4826 0.453057C29.0022 -0.0285018 29.5331 -0.0518162 30.2089 0.0468868ZM20.2323 9.40784C19.3031 10.5726 19.1269 11.809 19.2423 13.2474C19.4411 14.2524 20.0567 15.2103 20.8574 15.8491C22.0995 16.667 23.3938 16.9232 24.8553 16.634C26.1101 16.2128 27.0049 15.4041 27.6005 14.2438C28.101 13.2204 28.1823 11.9007 27.8163 10.8104C27.2116 9.42438 26.2922 8.65918 24.9287 8.06875C23.2229 7.57293 21.4317 8.13056 20.2323 9.40784Z" fill="#A3A3A3"/>
<path d="M60.0367 6.06788C60.4093 6.37261 60.7444 6.70719 61.0785 7.05326C61.1533 7.12499 61.2282 7.19672 61.3053 7.27062C62.6196 8.60524 63.142 10.5096 63.1601 12.3335C63.14 14.3561 62.4978 16.214 61.0483 17.6533C60.9577 17.7408 60.8671 17.8282 60.7738 17.9183C60.7021 17.9932 60.6304 18.0681 60.5565 18.1452C59.2218 19.4594 57.3175 19.9819 55.4936 19.9999C53.471 19.9799 51.6131 19.3377 50.1737 17.8882C50.0863 17.7976 49.9989 17.707 49.9088 17.6137C49.8339 17.542 49.759 17.4702 49.6819 17.3963C48.3676 16.0617 47.8452 14.1573 47.8271 12.3335C47.8472 10.3109 48.4894 8.45294 49.9389 7.01359C50.0295 6.92615 50.1201 6.83872 50.2134 6.74863C50.2851 6.67376 50.3569 6.59889 50.4308 6.52174C52.8877 4.10235 57.3322 4.05451 60.0367 6.06788ZM52.1173 9.40777C51.1881 10.5726 51.0119 11.8089 51.1273 13.2474C51.3261 14.2523 51.9417 15.2102 52.7424 15.849C53.9845 16.667 55.2788 16.9231 56.7403 16.634C57.9951 16.2127 58.8899 15.404 59.4855 14.2437C59.986 13.2204 60.0673 11.9007 59.7013 10.8103C59.0966 9.42432 58.1772 8.65912 56.8137 8.06868C55.1079 7.57287 53.3167 8.1305 52.1173 9.40777Z" fill="#A3A3A3"/>
<path d="M44.0941 6.06788C44.4667 6.37261 44.8018 6.70719 45.1358 7.05326C45.2107 7.12499 45.2856 7.19672 45.3627 7.27062C46.677 8.60524 47.1994 10.5096 47.2174 12.3335C47.1974 14.3561 46.5552 16.214 45.1057 17.6533C45.0151 17.7408 44.9245 17.8282 44.8312 17.9183C44.7595 17.9932 44.6877 18.0681 44.6138 18.1452C43.2792 19.4594 41.3748 19.9819 39.551 19.9999C37.5284 19.9799 35.6705 19.3377 34.2311 17.8882C34.1437 17.7976 34.0562 17.707 33.9661 17.6137C33.8913 17.542 33.8164 17.4702 33.7393 17.3963C32.425 16.0617 31.9026 14.1573 31.8845 12.3335C31.9045 10.3109 32.5468 8.45294 33.9963 7.01359C34.0869 6.92615 34.1774 6.83872 34.2708 6.74863C34.3425 6.67376 34.4142 6.59889 34.4881 6.52174C36.945 4.10235 41.3896 4.05451 44.0941 6.06788ZM36.1747 9.40777C35.2455 10.5726 35.0693 11.8089 35.1847 13.2474C35.3835 14.2523 35.999 15.2102 36.7998 15.849C38.0418 16.667 39.3362 16.9231 40.7977 16.634C42.0525 16.2127 42.9472 15.404 43.5429 14.2437C44.0434 13.2204 44.1247 11.9007 43.7587 10.8103C43.154 9.42432 42.2346 8.65912 40.871 8.06868C39.1653 7.57287 37.3741 8.1305 36.1747 9.40777Z" fill="#A3A3A3"/>
<path d="M12.2096 6.06788C12.5822 6.37261 12.9172 6.70719 13.2513 7.05326C13.3262 7.12499 13.401 7.19672 13.4782 7.27062C14.7924 8.60524 15.3149 10.5096 15.3329 12.3335C15.3129 14.3561 14.6707 16.214 13.2212 17.6533C13.1306 17.7408 13.04 17.8282 12.9467 17.9183C12.8749 17.9932 12.8032 18.0681 12.7293 18.1452C11.3947 19.4594 9.49032 19.9819 7.66646 19.9999C5.64387 19.9799 3.78594 19.3377 2.34659 17.8882C2.25915 17.7976 2.17171 17.707 2.08162 17.6137C2.00675 17.542 1.93188 17.4702 1.85474 17.3963C0.54049 16.0617 0.018058 14.1573 0 12.3335C0.0200257 10.3109 0.66223 8.45294 2.11177 7.01359C2.20235 6.92615 2.29293 6.83872 2.38625 6.74863C2.45798 6.67376 2.52971 6.59889 2.60361 6.52174C5.06051 4.10235 9.50509 4.05451 12.2096 6.06788ZM4.29017 9.40777C3.36099 10.5726 3.18475 11.8089 3.30013 13.2474C3.49897 14.2523 4.11452 15.2102 4.91529 15.849C6.15733 16.667 7.4517 16.9231 8.91314 16.634C10.1679 16.2127 11.0627 15.404 11.6584 14.2437C12.1589 13.2204 12.2402 11.9007 11.8741 10.8103C11.2695 9.42432 10.3501 8.65912 8.98652 8.06868C7.28077 7.57287 5.48957 8.1305 4.29017 9.40777Z" fill="#A3A3A3"/>
</svg>
