<svg width="86" height="28" viewBox="0 0 86 28" fill="none" xmlns="http://www.w3.org/2000/svg">
<path d="M15.248 0.11357C15.3796 0.151212 15.5113 0.188854 15.6469 0.227636C15.7905 0.269941 15.934 0.312246 16.0819 0.355833C16.3913 0.444895 16.7007 0.533901 17.0101 0.62286C17.1768 0.671183 17.3435 0.719507 17.5153 0.769294C18.0939 0.936356 18.6738 1.09855 19.254 1.26028C19.3542 1.28825 19.4544 1.31622 19.5576 1.34504C19.9568 1.45649 20.3561 1.56792 20.7554 1.67912C21.0351 1.75709 21.3147 1.83542 21.5942 1.91385C21.7556 1.95895 21.917 2.00406 22.0833 2.05053C22.4647 2.16473 22.4647 2.16473 22.7404 2.30255C22.7404 9.80687 22.7404 17.3112 22.7404 25.0429C14.6434 27.3563 14.6434 27.3563 13.6442 26.9724C13.4705 26.9137 13.4705 26.9137 13.2932 26.8538C12.8938 26.716 12.4988 26.5691 12.1034 26.42C11.8821 26.3377 11.8821 26.3377 11.6563 26.2537C11.1759 26.0749 10.6959 25.8948 10.2159 25.7148C9.88376 25.5908 9.55154 25.467 9.2193 25.3432C8.54333 25.0911 7.86752 24.8387 7.19183 24.5859C6.26267 24.2384 5.33283 23.8928 4.40272 23.5479C3.99477 23.3965 3.58682 23.2451 3.17888 23.0938C2.92077 22.998 2.66265 22.9022 2.40453 22.8065C2.04872 22.6744 1.69299 22.5421 1.33729 22.4098C1.2327 22.371 1.12812 22.3322 1.02037 22.2923C0.307217 22.0267 0.307217 22.0267 0 21.8731C0 16.4608 0 11.0486 0 5.47242C1.60534 4.83028 3.20524 4.19129 4.82668 3.59357C4.94423 3.55018 5.06179 3.50679 5.1829 3.46208C5.30315 3.4177 5.42339 3.37331 5.54727 3.32759C6.06344 3.13645 6.57952 2.94506 7.0956 2.75369C7.2258 2.70545 7.356 2.65721 7.49015 2.60751C9.0441 2.03143 10.5955 1.44852 12.1468 0.865354C12.3769 0.778841 12.6071 0.692354 12.8372 0.605897C13.0447 0.527975 13.2521 0.449987 13.4595 0.371921C14.6281 -0.0670307 14.6281 -0.0670307 15.248 0.11357ZM13.2024 4.69526C13.0295 4.7362 12.8566 4.77715 12.6785 4.81933C12.4904 4.86455 12.3023 4.90979 12.1142 4.95505C11.921 5.00112 11.7278 5.04713 11.5345 5.09311C11.1301 5.18947 10.7258 5.28625 10.3216 5.38335C9.80299 5.50791 9.28419 5.63161 8.76532 5.75503C8.36658 5.84994 7.96793 5.94519 7.5693 6.04057C7.37799 6.08632 7.18665 6.13198 6.99529 6.17755C6.72831 6.24121 6.46144 6.30538 6.19459 6.36956C6.04261 6.40598 5.89064 6.4424 5.73406 6.47992C5.38072 6.56044 5.38072 6.56044 5.09936 6.7128C5.05388 11.079 5.0084 15.4451 4.96154 19.9436C2.84668 20.7622 2.84668 20.7622 0.689102 21.5974C0.734583 21.6884 0.780064 21.7793 0.826923 21.8731C1.23068 21.9533 1.62591 22.0156 2.03352 22.0688C2.22345 22.0951 2.22345 22.0951 2.41721 22.1219C2.83806 22.1798 3.25913 22.2359 3.68024 22.2919C3.97195 22.3316 4.26365 22.3714 4.55534 22.4112C5.16791 22.4947 5.7806 22.5773 6.39338 22.6593C7.17878 22.7644 7.96396 22.871 8.74909 22.9782C9.35202 23.0604 9.95502 23.1421 10.558 23.2236C10.8475 23.2628 11.137 23.302 11.4265 23.3413C11.8316 23.3962 12.2367 23.4505 12.6419 23.5046C12.7617 23.5209 12.8814 23.5373 13.0048 23.5541C13.1157 23.5688 13.2266 23.5834 13.3409 23.5986C13.4366 23.6114 13.5323 23.6243 13.631 23.6375C13.9557 23.6681 14.2828 23.6647 14.609 23.6647C14.609 17.3429 14.609 11.0211 14.609 4.50767C14.0913 4.50767 13.7028 4.57588 13.2024 4.69526Z" fill="#A3A3A3"/>
<path d="M43.8303 6.92163C45.2738 8.2149 46.1541 10.4275 46.2954 12.3235C46.2995 12.4276 46.3036 12.5318 46.3078 12.639C46.3161 12.825 46.3161 12.825 46.3245 13.0148C46.3813 15.548 45.8127 18.0941 44.0682 20.0081C42.524 21.493 40.6459 22.1383 38.5209 22.2003C36.4785 22.1384 34.5274 21.5459 33.0167 20.1244C31.6913 18.6836 30.8161 16.8197 30.7341 14.8441C30.727 14.696 30.7199 14.5478 30.7126 14.3952C30.6461 11.7418 31.2628 9.18274 33.0943 7.17789C36.0789 4.36307 40.6804 4.56225 43.8303 6.92163ZM34.4703 8.81827C33.0447 10.6584 32.7583 12.725 32.9392 14.982C33.1556 16.5981 33.788 18.0651 35.0668 19.108C36.5824 20.1846 38.1101 20.4498 39.9524 20.1556C41.2755 19.8025 42.361 18.998 43.1379 17.8762C44.3273 15.7719 44.4294 13.2185 43.8045 10.909C43.3452 9.38837 42.4862 8.27246 41.0965 7.4966C38.8134 6.44736 36.1702 7.01294 34.4703 8.81827Z" fill="#A3A3A3"/>
<path d="M54.4391 4.5076C54.4391 5.09885 54.4391 5.6901 54.4391 6.29927C54.2572 6.25378 54.0753 6.2083 53.8878 6.16144C53.6585 6.14564 53.4286 6.13736 53.1987 6.1356C53.0239 6.13267 53.0239 6.13267 52.8456 6.12968C52.4816 6.1641 52.2661 6.24266 51.9584 6.43709C51.3785 7.23169 51.378 8.0826 51.3296 9.02983C51.3097 9.40221 51.2898 9.77458 51.2693 10.1582C52.7246 10.1582 54.18 10.1582 55.6795 10.1582C55.6681 9.70912 55.6568 9.25999 55.6451 8.79726C55.6329 7.45836 55.7888 6.55506 56.5323 5.42927C57.3749 4.62412 58.2941 4.21652 59.461 4.20612C59.6099 4.20319 59.6099 4.20319 59.7619 4.2002C60.0898 4.23196 60.0898 4.23196 60.9167 4.5076C60.9167 5.09885 60.9167 5.6901 60.9167 6.29927C60.6893 6.25378 60.4619 6.2083 60.2276 6.16144C59.3804 6.06491 59.3804 6.06491 58.5813 6.30088C58.2163 6.59446 58.0334 6.81777 57.8846 7.26401C57.8644 7.48806 57.8506 7.71273 57.841 7.9375C57.8353 8.06675 57.8295 8.19599 57.8235 8.32916C57.8181 8.46373 57.8127 8.59831 57.8071 8.73696C57.7982 8.94123 57.7982 8.94123 57.7891 9.14962C57.7745 9.4858 57.7606 9.82202 57.7468 10.1582C58.6109 10.1582 59.4751 10.1582 60.3654 10.1582C60.3654 10.704 60.3654 11.2498 60.3654 11.8121C59.5013 11.8121 58.6371 11.8121 57.7468 11.8121C57.7468 15.1322 57.7468 18.4523 57.7468 21.873C57.0646 21.873 56.3824 21.873 55.6795 21.873C55.6795 18.5529 55.6795 15.2328 55.6795 11.8121C54.2241 11.8121 52.7687 11.8121 51.2693 11.8121C51.2693 15.1322 51.2693 18.4523 51.2693 21.873C50.6325 21.873 49.9958 21.873 49.3398 21.873C49.3398 18.5529 49.3398 15.2328 49.3398 11.8121C48.6576 11.8121 47.9753 11.8121 47.2725 11.8121C47.2725 11.2663 47.2725 10.7205 47.2725 10.1582C47.9547 10.1582 48.6369 10.1582 49.3398 10.1582C49.3302 9.85391 49.3302 9.85391 49.3204 9.54343C49.3152 9.27174 49.3102 9.00005 49.3053 8.72835C49.3007 8.59528 49.2961 8.46222 49.2913 8.32512C49.2763 7.20974 49.4766 6.27972 50.1726 5.38674C51.4603 4.29611 52.8213 3.86048 54.4391 4.5076Z" fill="#A3A3A3"/>
<path d="M84.3805 10.8734C85.394 11.8244 85.7524 12.9509 85.9999 14.2931C85.9999 15.0208 85.9999 15.7484 85.9999 16.4982C83.3166 16.4982 80.6332 16.4982 77.8685 16.4982C78.1484 18.192 78.1484 18.192 79.0745 19.5044C80.2485 20.2946 81.4149 20.4011 82.7994 20.1499C83.5034 19.96 84.0798 19.6684 84.6777 19.253C84.8974 19.1168 84.8974 19.1168 85.173 19.1168C85.173 19.7535 85.173 20.3902 85.173 21.0463C83.1968 22.1157 81.2898 22.4954 79.0847 21.8786C77.7625 21.3921 76.8694 20.4798 76.2491 19.2374C75.8873 18.3903 75.7476 17.5492 75.6634 16.636C75.6534 16.5299 75.6435 16.4239 75.6333 16.3146C75.5537 14.5289 76.1514 12.7838 77.2914 11.4247C79.1617 9.43113 82.2305 9.14772 84.3805 10.8734ZM78.8333 12.5014C78.2542 13.3093 78.013 13.8328 77.8685 14.8443C79.8697 14.8443 81.8708 14.8443 83.9326 14.8443C83.7964 13.4824 83.7232 12.8171 82.6922 11.9501C81.3777 11.2308 79.8886 11.4183 78.8333 12.5014Z" fill="#A3A3A3"/>
<path d="M74.5609 10.2962C74.5609 11.0239 74.5609 11.7516 74.5609 12.5013C74.1885 12.3264 73.8161 12.1514 73.4438 11.9764C72.3841 11.5403 71.249 11.5334 70.1781 11.9371C69.0931 12.4768 68.5157 13.323 68.0833 14.4308C67.6781 15.6464 67.8356 17.2356 68.3326 18.3905C68.7906 19.263 69.3732 19.7267 70.2884 20.0815C71.5566 20.4665 72.6895 20.1726 73.8718 19.668C74.2129 19.5316 74.2129 19.5316 74.5609 19.3924C74.5609 20.0291 74.5609 20.6658 74.5609 21.3219C72.8921 22.2489 71.1438 22.3853 69.3048 21.8796C68.0384 21.4165 66.9433 20.4309 66.2916 19.2545C65.4894 17.473 65.4424 15.2903 66.1097 13.4564C66.8145 11.8924 67.7898 10.7755 69.4023 10.1282C71.1192 9.57618 72.8872 9.63252 74.5609 10.2962Z" fill="#A3A3A3"/>
<path d="M61.8813 10.1582C62.5636 10.1582 63.2458 10.1582 63.9487 10.1582C63.9487 14.0241 63.9487 17.8899 63.9487 21.8729C63.2664 21.8729 62.5842 21.8729 61.8813 21.8729C61.8813 18.0071 61.8813 14.1412 61.8813 10.1582Z" fill="#A3A3A3"/>
<path d="M63.2683 4.71766C63.7579 4.83809 63.9502 5.06121 64.2244 5.47245C64.3207 5.86381 64.3207 6.18364 64.2244 6.57501C63.9502 6.98624 63.7579 7.20937 63.2683 7.32979C62.7276 7.36871 62.4781 7.29433 62.0193 6.98847C61.7134 6.52968 61.639 6.28016 61.678 5.73947C61.8797 4.91924 62.4977 4.6622 63.2683 4.71766Z" fill="#A3A3A3"/>
</svg>
