<svg width="87" height="24" viewBox="0 0 87 24" fill="none" xmlns="http://www.w3.org/2000/svg">
<path d="M13.251 0.463653C13.7788 0.744174 14.0875 1.00849 14.5308 1.43254C15.3028 1.98839 15.7623 1.90321 16.6847 1.86316C18.2719 1.86316 19.5292 2.53609 20.6791 3.58563C21.7336 4.66407 22.4263 5.74694 22.415 7.27951C22.4044 7.73709 22.3895 8.19439 22.3742 8.65182C22.3563 9.68001 22.4654 10.295 23.12 11.1184C23.8848 12.1253 23.885 13.6746 23.7413 14.8774C23.2397 16.8456 22.442 18.1424 20.7314 19.2306C20.2963 19.4706 20.2963 19.4706 19.5786 19.7218C18.7907 20.1309 18.6458 20.5462 18.2606 21.3179C17.6167 22.4267 16.4675 23.2753 15.2829 23.7446C13.2784 24.222 11.4508 24.0551 9.65874 23.0314C9.19598 22.7242 9.19598 22.7242 8.80648 22.399C8.33827 22.089 8.09891 22.1067 7.54528 22.15C5.96208 22.1919 4.64748 21.7653 3.41928 20.758C2.36825 19.7589 1.57905 18.6257 1.34918 17.174C1.35392 16.6741 1.36581 16.178 1.38506 15.6788C1.43516 14.3389 1.14273 13.5038 0.470749 12.3251C-0.257376 10.9495 -0.0252135 9.43708 0.392251 7.98749C0.927151 6.60212 1.8393 5.55679 3.07165 4.73394C3.69954 4.47334 4.31951 4.29326 4.9855 4.15978C5.00721 4.01743 5.02892 3.87508 5.05129 3.72842C5.38165 2.34601 6.46768 1.49215 7.6178 0.758207C9.22087 -0.117208 11.5364 -0.260258 13.251 0.463653ZM6.98458 3.73963C6.13074 5.03655 6.228 6.54709 6.21222 8.04052C6.20779 8.33253 6.19993 8.62451 6.18867 8.91633C6.058 10.5737 6.058 10.5737 6.66106 12.0334C7.18476 12.3699 7.61174 12.5807 8.23905 12.5807C8.23182 12.38 8.22459 12.1793 8.21714 11.9726C8.19344 11.222 8.18639 10.4721 8.18415 9.72117C8.1809 9.39739 8.17325 9.07361 8.16097 8.75004C8.0832 6.60525 8.0832 6.60525 8.43044 5.69087C9.17484 4.93089 9.93629 4.57437 10.9184 4.15978C11.1698 4.01718 11.4191 3.87083 11.6638 3.7172C11.9402 3.55734 11.9402 3.55734 12.2223 3.39424C12.413 3.28372 12.6037 3.17319 12.8002 3.05932C13.0055 2.9409 13.0055 2.9409 13.2151 2.82009C12.655 2.20401 12.187 1.90144 11.3521 1.79886C9.33961 1.7728 8.30177 2.22639 6.98458 3.73963ZM11.7797 5.5234C11.4651 5.7088 11.4651 5.7088 11.1442 5.89795C10.2155 6.39556 10.2155 6.39556 9.38736 7.03056C9.37357 7.35326 9.37131 7.67649 9.3754 7.99945C9.37713 8.17535 9.37885 8.35126 9.38063 8.53249C9.38285 8.66842 9.38507 8.80436 9.38736 8.94442C10.2087 8.69811 10.885 8.38396 11.6122 7.93142C11.8106 7.8109 12.0089 7.69039 12.2133 7.56622C12.627 7.31217 13.0396 7.05647 13.4513 6.79918C13.6497 6.6794 13.848 6.55963 14.0524 6.43622C14.2315 6.3254 14.4106 6.21459 14.5951 6.10041C15.2627 5.82758 15.5893 5.87426 16.2772 6.07364C16.7911 6.32375 16.7911 6.32375 17.3037 6.63658C17.4891 6.74821 17.6745 6.85985 17.8655 6.97487C18.0558 7.09193 18.2462 7.20899 18.4423 7.3296C18.8241 7.56142 19.2061 7.79294 19.5884 8.02412C19.7564 8.12714 19.9245 8.23015 20.0977 8.33629C20.4403 8.5776 20.4403 8.5776 20.6791 8.56165C20.8049 7.20329 20.5014 6.24222 19.7222 5.11671C18.7682 4.14674 17.7456 3.70328 16.3969 3.52582C14.6736 3.73097 13.2409 4.64771 11.7797 5.5234ZM2.88026 7.22195C1.97844 8.46924 1.68405 9.72331 1.92333 11.241C2.52229 13.3616 4.66886 14.4511 6.45677 15.4635C6.6518 15.5793 6.84682 15.6951 7.04775 15.8145C7.33066 15.9756 7.33066 15.9756 7.61929 16.1401C7.78895 16.2378 7.95861 16.3355 8.13341 16.4362C8.62253 16.6511 8.62253 16.6511 9.1293 16.4566C9.60896 16.201 10.0755 15.9322 10.5357 15.6429C9.93332 15.1436 9.33986 14.8774 8.6136 14.5933C5.81599 13.3639 5.81599 13.3639 4.79411 12.198C4.13212 10.311 4.36243 8.21829 4.60273 6.26502C3.88659 6.26502 3.37544 6.75015 2.88026 7.22195ZM14.0285 7.78414C13.8232 7.9144 13.6179 8.04467 13.4065 8.17887C13.6278 8.84302 13.7134 8.87338 14.3028 9.18739C14.449 9.2667 14.5952 9.34602 14.7458 9.42774C14.8998 9.50903 15.0539 9.59032 15.2127 9.67407C15.666 9.91722 16.1179 10.1613 16.5658 10.4142C17.0433 10.6789 17.0433 10.6789 17.5766 10.8747C18.1597 11.1334 18.5278 11.3396 18.9566 11.8152C19.2224 12.8627 19.199 13.875 19.1719 14.9491C19.1716 15.239 19.1721 15.5288 19.1734 15.8186C19.1749 16.5259 19.1647 17.2324 19.148 17.9395C19.3582 17.8238 19.5684 17.7081 19.785 17.5889C19.9623 17.4913 19.9623 17.4913 20.1433 17.3917C21.1381 16.763 21.6104 15.852 21.9351 14.7563C22.1595 13.5419 21.8951 12.4784 21.2533 11.4324C20.7043 10.6607 20.1718 10.2296 19.3514 9.76079C19.1328 9.63522 18.9142 9.50965 18.689 9.38027C18.5192 9.28474 18.5192 9.28474 18.346 9.18729C17.9995 8.99216 17.6549 8.79399 17.3104 8.59529C15.7214 7.50782 15.7214 7.50782 14.0285 7.78414ZM11.2055 9.3384C10.5533 9.72802 9.9271 10.1271 9.38736 10.6669C9.25914 11.5802 9.22666 12.4363 9.38736 13.3463C9.87465 13.9291 10.4146 14.2072 11.1098 14.4946C11.2618 14.576 11.4138 14.6574 11.5704 14.7413C12.2816 14.9363 12.6231 14.7491 13.2749 14.4228C14.0611 13.9568 14.0611 13.9568 14.468 13.172C14.5666 12.2647 14.4803 11.3774 14.3634 10.4755C12.9166 9.35805 12.9166 9.35805 11.2055 9.3384ZM15.7031 11.4324C15.6399 13.7692 15.5768 16.1061 15.5117 18.5137C15.1959 18.64 14.8801 18.7663 14.5548 18.8965C14.2275 19.0707 13.9033 19.251 13.5821 19.4362C13.4039 19.5386 13.2256 19.641 13.042 19.7465C12.7665 19.906 12.7665 19.906 12.4854 20.0687C12.298 20.1765 12.1107 20.2843 11.9176 20.3954C11.4566 20.6607 10.996 20.9266 10.5357 21.1931C11.1376 21.8285 11.6797 22.0935 12.5534 22.221C13.9181 22.2553 14.9838 22.0312 16.0858 21.1931C17.4476 19.6127 17.4936 18.1154 17.5241 16.1256C17.5302 15.8203 17.5393 15.5152 17.5516 15.2101C17.6947 13.4893 17.6947 13.4893 17.0838 11.9713C16.6559 11.7001 16.225 11.4324 15.7031 11.4324ZM12.8884 15.69C12.6672 15.82 12.4461 15.9499 12.2249 16.0799C11.8769 16.2856 11.5291 16.4918 11.1817 16.6986C10.8462 16.8978 10.5097 17.0954 10.1731 17.2929C9.97207 17.4121 9.77105 17.5314 9.56394 17.6543C9.01952 17.9319 8.65665 18.1056 8.04767 18.1309C7.50285 17.9067 7.50285 17.9067 6.91431 17.5635C6.70238 17.442 6.49046 17.3205 6.27212 17.1953C6.05052 17.0647 5.82898 16.934 5.6075 16.8032C5.17035 16.5495 4.73247 16.297 4.29472 16.0444C4.10136 15.9309 3.908 15.8174 3.70879 15.7005C3.32028 15.436 3.32028 15.436 3.07165 15.4515C2.97143 16.6291 3.20638 17.5079 3.83719 18.5137C4.69639 19.5183 5.757 20.2651 7.09074 20.4275C8.50794 20.4409 9.5229 19.9464 10.7271 19.2433C10.9676 19.1085 10.9676 19.1085 11.213 18.9708C11.6937 18.6981 12.1676 18.4162 12.6409 18.1309C12.8057 18.0354 12.9705 17.9398 13.1403 17.8414C13.3753 17.6979 13.3753 17.6979 13.615 17.5515C13.7564 17.4669 13.8977 17.3823 14.0434 17.2951C14.4118 16.9942 14.4118 16.9942 14.4669 16.4644C14.4708 15.9866 14.4388 15.5401 14.3634 15.0687C13.77 15.0687 13.3946 15.3892 12.8884 15.69Z" fill="#A3A3A3"/>
<path d="M37.1862 6.09757C38.8404 7.82705 39.3189 9.66002 39.3146 11.9925C39.2623 13.8592 38.6185 15.4378 37.3297 16.7912C36.0439 17.929 34.6242 18.2947 32.9278 18.3223C31.3135 18.2095 29.921 17.5804 28.7517 16.4563C27.4509 14.8874 27.0425 12.9561 27.1153 10.9577C27.3416 8.81117 28.044 7.31424 29.6743 5.88226C31.9269 4.228 34.9626 4.64373 37.1862 6.09757ZM30.8704 8.04731C29.7953 9.33148 29.6058 10.5529 29.6197 12.177C29.7336 13.4187 30.3104 14.5821 31.2054 15.4515C32.1239 15.9542 32.8423 16.1537 33.8848 16.0257C35.2146 15.5607 35.8854 14.8952 36.5163 13.6334C36.9707 12.3151 36.9707 10.7412 36.5163 9.42289C36.0113 8.41291 35.5084 7.68841 34.4589 7.22196C33.0271 6.87141 32.0238 7.07748 30.8704 8.04731Z" fill="#A3A3A3"/>
<path d="M75.0324 5.1167C75.9798 5.1167 76.9272 5.1167 77.9032 5.1167C78.7355 6.87264 79.4141 8.66439 80.0802 10.4875C80.2993 11.0839 80.519 11.6802 80.7389 12.2765C80.8184 12.4925 80.8184 12.4925 80.8996 12.713C81.3599 13.9596 81.8376 15.199 82.3379 16.4302C82.5532 16.9686 82.6878 17.3527 82.6878 17.9395C81.8668 17.9395 81.0458 17.9395 80.1998 17.9395C79.2429 15.7147 79.2429 15.7147 79.2429 15.0687C77.4745 15.1319 75.7061 15.1951 73.8841 15.2601C73.5683 16.0812 73.2526 16.9022 72.9272 17.7481C72.7358 17.9395 72.7358 17.9395 72.1729 17.9582C71.9442 17.956 71.7155 17.9538 71.4798 17.9515C71.2507 17.9498 71.0215 17.948 70.7853 17.9462C70.5193 17.9429 70.5193 17.9429 70.2478 17.9395C71.3814 14.5839 72.6565 11.2838 73.9309 7.97987C74.1644 7.37425 74.3973 6.76842 74.6302 6.16259C74.763 5.81745 74.8957 5.4723 75.0324 5.1167ZM76.3721 8.17886C76.0846 8.94023 75.7977 9.70185 75.5109 10.4635C75.3877 10.7897 75.3877 10.7897 75.2619 11.1225C75.1842 11.3292 75.1065 11.5358 75.0265 11.7487C74.9543 11.9401 74.8821 12.1315 74.8078 12.3287C74.639 12.7237 74.639 12.7237 74.6497 12.9635C75.8497 12.9635 77.0496 12.9635 78.286 12.9635C77.8297 11.3158 77.2138 9.75713 76.5635 8.17886C76.5004 8.17886 76.4372 8.17886 76.3721 8.17886Z" fill="#A3A3A3"/>
<path d="M47.5447 8.65723C48.5744 9.26434 49.1769 10.1899 49.6499 11.2649C49.9463 13.1027 50.026 14.9755 49.004 16.5997C48.1478 17.6814 47.2419 18.1323 45.882 18.308C44.8766 18.3357 44.1077 18.1202 43.2624 17.5566C43.1992 18.7566 43.1361 19.9566 43.071 21.193C42.25 21.193 41.4289 21.193 40.583 21.193C40.583 17.0246 40.583 12.8562 40.583 8.56153C41.4041 8.56153 42.2251 8.56153 43.071 8.56153C43.1342 8.68785 43.1973 8.81416 43.2624 8.9443C43.4045 8.84957 43.5466 8.75483 43.693 8.65723C44.8476 8.08543 46.3768 8.15192 47.5447 8.65723ZM43.2624 11.4323C42.7554 12.5429 42.7333 13.5832 43.1189 14.7337C43.3797 15.358 43.5874 15.7271 44.2193 16.0256C44.9663 16.2192 45.4265 16.2559 46.1691 16.0375C46.9853 15.4389 47.3705 14.7168 47.5394 13.7185C47.5915 12.5538 47.251 11.645 46.492 10.7744C45.2366 10.0921 44.1127 10.2471 43.2624 11.4323Z" fill="#A3A3A3"/>
<path d="M57.5328 8.69322C58.6118 9.34155 59.143 10.2517 59.5304 11.4324C59.6251 12.664 59.6251 12.664 59.7218 13.9204C57.5744 13.9204 55.4271 13.9204 53.2147 13.9204C53.6208 15.0621 53.6208 15.0621 54.363 15.8343C55.155 16.0686 55.8599 16.1209 56.6237 15.7984C57.0459 15.4486 57.4343 15.0872 57.8079 14.686C58.6605 15.0649 58.6605 15.0649 59.5304 15.4515C59.2489 16.5776 58.6175 17.2658 57.6644 17.9156C56.257 18.4028 54.8085 18.4838 53.4061 17.9395C52.3044 17.3688 51.5867 16.5913 51.0795 15.4605C50.6167 13.7892 50.678 11.8254 51.4922 10.2841C52.6671 8.26331 55.4956 7.76757 57.5328 8.69322ZM53.7888 10.8583C53.5994 11.2372 53.4099 11.6162 53.2147 12.0066C54.541 12.0066 55.8673 12.0066 57.2338 12.0066C57.114 11.1246 57.114 11.1246 56.839 10.7147C55.8159 10.0546 54.7413 10.1716 53.7888 10.8583Z" fill="#A3A3A3"/>
<path d="M66.9942 8.37023C67.8483 8.78203 68.3791 9.30898 68.9081 10.0927C69.1541 10.8803 69.1235 11.6648 69.1182 12.482C69.1179 12.6381 69.1176 12.7942 69.1173 12.955C69.1163 13.4523 69.1139 13.9495 69.1114 14.4467C69.1105 14.7844 69.1096 15.122 69.1088 15.4597C69.1067 16.2863 69.1034 17.1129 69.0995 17.9395C68.3416 17.9395 67.5837 17.9395 66.8028 17.9395C66.799 17.7648 66.7953 17.5901 66.7913 17.4101C66.7764 16.7591 66.7598 16.1082 66.7421 15.4572C66.7348 15.176 66.7281 14.8948 66.7221 14.6136C66.7133 14.2083 66.7022 13.8031 66.6907 13.3978C66.6817 13.0325 66.6817 13.0325 66.6725 12.6598C66.6139 12.0331 66.5244 11.6023 66.2287 11.0496C65.6783 10.6039 65.6783 10.6039 64.9966 10.6788C64.1649 10.8977 63.9989 11.0946 63.5493 11.8152C63.4271 12.4984 63.4271 12.4984 63.4327 13.2483C63.4295 13.3829 63.4263 13.5175 63.4231 13.6561C63.4138 14.0832 63.4097 14.51 63.4057 14.9371C63.4004 15.2278 63.3946 15.5185 63.3886 15.8092C63.3744 16.5193 63.3649 17.2293 63.3579 17.9395C62.6 17.9395 61.8421 17.9395 61.0613 17.9395C61.0613 14.8448 61.0613 11.7501 61.0613 8.56161C61.8192 8.56161 62.5771 8.56161 63.3579 8.56161C63.3579 8.75109 63.3579 8.94056 63.3579 9.13577C63.6184 8.9463 63.6184 8.9463 63.8842 8.753C64.8675 8.19227 65.8952 8.2189 66.9942 8.37023Z" fill="#A3A3A3"/>
<path d="M84.0276 5.1167C84.7855 5.1167 85.5434 5.1167 86.3242 5.1167C86.3242 9.41139 86.3242 13.7061 86.3242 18.1309C85.5663 18.1309 84.8084 18.1309 84.0276 18.1309C84.0276 13.8362 84.0276 9.54153 84.0276 5.1167Z" fill="#A3A3A3"/>
</svg>
