<svg width="61" height="42" viewBox="0 0 61 42" fill="none" xmlns="http://www.w3.org/2000/svg">
<path d="M23.4962 2.86538C24.0083 3.29863 24.4613 3.75157 24.882 4.27465C24.9901 4.41186 24.9901 4.41186 25.1117 4.52861C25.1612 4.48095 25.2106 4.43329 25.2616 4.38418C26.8589 2.8656 28.7915 1.87276 30.9669 1.4719C31.0385 1.45856 31.1101 1.44523 31.1838 1.43149C33.7717 1.03452 36.5859 1.64202 38.7383 3.13642C38.9113 3.26355 39.0796 3.39487 39.247 3.5293C39.298 3.5681 39.349 3.60689 39.4016 3.64687C40.5015 4.502 41.3909 5.56239 42.0859 6.76236C42.1448 6.74099 42.2036 6.71962 42.2643 6.69761C44.0063 6.07156 45.7773 5.63373 47.6454 5.70427C47.7222 5.70601 47.7991 5.70775 47.8783 5.70955C50.6458 5.79689 53.3797 6.83539 55.5115 8.58463C55.5452 8.6122 55.579 8.63977 55.6138 8.66818C56.3189 9.24787 56.9589 9.86336 57.5224 10.5832C57.5655 10.6375 57.6085 10.6918 57.6529 10.7477C59.2614 12.8194 60.3573 15.5027 60.3733 18.1428C60.3737 18.1893 60.3741 18.2358 60.3745 18.2837C60.3962 21.4059 59.6289 24.387 57.6407 26.8661C57.5996 26.9182 57.5586 26.9702 57.5164 27.0239C57.0209 27.6408 56.486 28.2504 55.8664 28.7472C55.8014 28.8006 55.7365 28.8542 55.6716 28.9077C53.5378 30.6512 50.8065 31.8586 48.0088 31.8746C47.9605 31.875 47.9122 31.8754 47.8624 31.8758C47.7075 31.8768 47.5526 31.8772 47.3977 31.8773C47.3451 31.8775 47.2925 31.8776 47.2383 31.8777C45.253 31.8788 45.253 31.8788 44.7474 31.6275C44.7316 31.6698 44.7158 31.7121 44.6995 31.7556C44.4669 32.303 44.0706 32.7693 43.6828 33.2147C43.6328 33.2723 43.5827 33.33 43.5312 33.3894C41.8686 35.2687 39.4594 36.3366 36.9643 36.5001C35.3064 36.5752 33.7807 36.2158 32.2681 35.566C32.2498 35.6339 32.2315 35.7018 32.2126 35.7717C31.8583 36.8151 31.1038 37.7999 30.3443 38.5866C30.239 38.6973 30.141 38.8069 30.0442 38.9244C29.858 39.1456 29.6526 39.3213 29.4292 39.5044C29.3394 39.5783 29.3394 39.5783 29.2478 39.6537C27.7835 40.8385 25.7387 41.9608 23.8037 41.9846C23.7333 41.9856 23.663 41.9865 23.5905 41.9875C23.2664 41.9902 22.9423 41.9926 22.6181 41.9939C22.4487 41.9947 22.2793 41.9963 22.1099 41.9987C20.2702 42.0244 18.6929 41.6675 17.0681 40.7976C17.0143 40.7694 17.0143 40.7694 16.9594 40.7405C16.2336 40.3572 15.6135 39.8822 15.0104 39.3292C14.8967 39.2258 14.7807 39.1277 14.6617 39.0305C14.4333 38.8361 14.2425 38.6181 14.0518 38.3876C13.9776 38.2984 13.9776 38.2984 13.9019 38.2075C13.293 37.4643 12.8122 36.6682 12.3959 35.8051C12.2801 35.5674 12.1602 35.3317 12.0409 35.0957C12.0062 35.1011 11.9715 35.1064 11.9358 35.1119C9.09197 35.5399 6.3833 34.9913 4.03368 33.3077C2.30509 32.032 1.0532 30.2301 0.393348 28.1997C0.377361 28.1507 0.361374 28.1017 0.344903 28.0513C0.296056 27.8922 0.253037 27.7328 0.21222 27.5715C0.195857 27.5069 0.179494 27.4423 0.162635 27.3758C0.0124259 26.6962 0.00375318 26.0222 0.0051598 25.3283C0.00521706 25.1301 0.00275248 24.932 0.000134904 24.7337C-0.0122877 22.473 0.833721 20.2209 2.34139 18.5189C2.38523 18.4689 2.42907 18.4189 2.47423 18.3674C2.60543 18.22 2.7389 18.0752 2.87368 17.9311C2.91211 17.8891 2.95053 17.847 2.99012 17.8037C3.5373 17.2295 4.20416 16.7507 4.88457 16.344C4.84917 16.1519 4.80313 15.9724 4.7374 15.7885C4.50235 15.118 4.30577 14.4557 4.17484 13.7575C4.16219 13.6918 4.14953 13.6261 4.13649 13.5584C3.63641 10.5726 4.38713 7.42015 6.14015 4.95542C6.49435 4.46771 6.89129 4.02207 7.30945 3.58808C7.33735 3.55876 7.36524 3.52943 7.39398 3.49922C8.93663 1.88343 10.9837 0.785793 13.1647 0.296242C13.2151 0.284715 13.2656 0.273188 13.3176 0.261311C16.9502 -0.530442 20.6785 0.516637 23.4962 2.86538Z" fill="#A3A3A3"/>
<path d="M38.0574 17.063C38.1191 17.0637 38.1809 17.0644 38.2445 17.0651C38.9663 17.0858 39.4565 17.291 39.977 17.7809C40.5327 18.3847 40.6951 19.0484 40.6872 19.842C40.6868 19.9073 40.6863 19.9727 40.6858 20.0401C40.6689 20.8545 40.4501 21.6015 39.8284 22.1837C39.1935 22.6851 38.4024 22.7839 37.6097 22.741C36.983 22.6776 36.4868 22.3482 36.0802 21.8984C35.4711 21.1004 35.3535 20.1306 35.4868 19.1641C35.6273 18.4465 35.9904 17.8887 36.5738 17.4375C37.0589 17.1544 37.4936 17.0545 38.0574 17.063Z" fill="#FAFAFA"/>
<path d="M17.5857 17.0509C18.0391 17.432 18.2873 17.8392 18.3679 18.4375C18.3731 18.5702 18.3752 18.703 18.375 18.8357C18.375 18.952 18.375 18.952 18.375 19.0707C18.3746 19.1544 18.3743 19.238 18.374 19.3217C18.3739 19.408 18.3738 19.4943 18.3737 19.5807C18.3735 19.8069 18.3729 20.0331 18.3722 20.2593C18.3716 20.4906 18.3713 20.7218 18.371 20.9531C18.3703 21.4061 18.3692 21.859 18.3679 22.312C17.3556 22.731 15.8475 22.9192 14.79 22.5603C14.2925 22.3438 13.8944 22.0306 13.6667 21.5231C13.5249 21.0821 13.5221 20.5679 13.6938 20.1365C14.0171 19.5204 14.4792 19.1753 15.1377 18.9626C15.4398 18.8782 15.7241 18.8553 16.0367 18.8593C16.1051 18.8597 16.1051 18.8597 16.175 18.86C16.5234 18.8656 16.8538 18.9064 17.1907 18.9999C17.1751 18.6028 17.1513 18.3106 16.8809 18C16.5877 17.7563 16.2787 17.7815 15.9166 17.7852C15.8557 17.7855 15.7948 17.7857 15.7321 17.786C15.2626 17.7953 14.8961 17.8737 14.4644 18.0625C14.3823 18.0851 14.2998 18.1067 14.2166 18.125C14.1612 18.0058 14.1072 17.8859 14.0539 17.7657C14.0237 17.699 13.9935 17.6323 13.9624 17.5636C13.9068 17.3751 13.9068 17.3751 13.945 17.2338C14.6633 16.3231 16.722 16.5831 17.5857 17.0509Z" fill="#FAFAFA"/>
<path d="M23.9234 17.0678C24.0103 17.0652 24.0103 17.0652 24.0989 17.0626C24.7062 17.0574 25.158 17.2327 25.5973 17.6617C26.1593 18.2961 26.2643 19.0219 26.2485 19.846C26.2368 20.0394 26.2368 20.0394 26.1789 20.1575C25.0128 20.1575 23.8468 20.1575 22.6455 20.1575C22.8045 20.9802 22.8045 20.9802 23.3406 21.5159C24.0125 21.8848 24.8484 21.7117 25.5473 21.5085C25.6028 21.4915 25.6583 21.4744 25.7155 21.4568C25.8528 21.75 25.9722 22.0155 26.0051 22.3428C25.9196 22.3802 25.8339 22.417 25.748 22.4535C25.7003 22.4741 25.6526 22.4946 25.6035 22.5158C24.8025 22.8009 23.7773 22.8455 22.977 22.5391C22.2994 22.2031 21.8784 21.7487 21.5997 21.0393C21.3222 20.1625 21.4094 19.1034 21.7952 18.2818C22.25 17.4327 23.0072 17.0766 23.9234 17.0678Z" fill="#FAFAFA"/>
<path d="M53.401 17.5039C53.8415 17.8467 54.1064 18.3671 54.2323 18.9032C54.2529 19.1199 54.252 19.3335 54.2471 19.551C54.2468 19.6071 54.2465 19.6632 54.2462 19.7211C54.2415 20.1309 54.2415 20.1309 54.1733 20.1989C54.0628 20.2044 53.9522 20.2058 53.8416 20.2056C53.7707 20.2056 53.6998 20.2056 53.6267 20.2056C53.5496 20.2053 53.4724 20.205 53.3929 20.2047C53.3136 20.2045 53.2343 20.2045 53.155 20.2044C52.9459 20.2042 52.7368 20.2036 52.5277 20.2029C52.3145 20.2023 52.1013 20.2021 51.8881 20.2018C51.4694 20.2011 51.0508 20.2001 50.6322 20.1989C50.6574 20.3205 50.6833 20.442 50.7097 20.5633C50.724 20.631 50.7384 20.6986 50.7532 20.7683C50.8075 20.9586 50.881 21.0933 50.9863 21.259C50.9863 21.2979 50.9863 21.3368 50.9863 21.3768C51.0202 21.3937 51.0542 21.4105 51.0891 21.4279C51.1726 21.4697 51.2554 21.5128 51.3372 21.5577C51.9481 21.8527 52.68 21.8118 53.3139 21.6087C53.3734 21.5862 53.433 21.5636 53.4944 21.5404C53.6421 21.4946 53.6421 21.4946 53.8192 21.5535C53.8881 21.6948 53.8881 21.6948 53.9483 21.8701C53.9686 21.9276 53.9889 21.9852 54.0099 22.0445C54.0553 22.2014 54.0553 22.2014 54.0553 22.3781C53.9682 22.4155 53.8809 22.4521 53.7934 22.4885C53.7448 22.509 53.6962 22.5295 53.6461 22.5506C53.1964 22.7073 52.7706 22.7528 52.2958 22.7499C52.2386 22.7495 52.1814 22.7492 52.1225 22.7489C51.3162 22.7352 50.6929 22.535 50.0863 21.9916C49.4388 21.31 49.4284 20.4555 49.4396 19.575C49.4597 18.8579 49.6748 18.2934 50.1704 17.765C51.0667 16.9293 52.3687 16.8353 53.401 17.5039Z" fill="#FAFAFA"/>
<path d="M35.875 14.9896C35.8458 15.3285 35.7768 15.5988 35.652 15.9135C35.5874 15.9109 35.5229 15.9082 35.4564 15.9054C35.3705 15.9033 35.2847 15.9011 35.1989 15.8991C35.1565 15.8972 35.1141 15.8952 35.0704 15.8932C34.7718 15.8879 34.6062 15.9388 34.3695 16.1445C34.1692 16.4519 34.1152 16.8277 34.0349 17.1839C34.4029 17.1839 34.771 17.1839 35.1501 17.1839C35.216 17.3887 35.1929 17.4998 35.1571 17.7108C35.1469 17.7729 35.1367 17.835 35.1262 17.899C35.0944 18.0501 35.0944 18.0501 35.0386 18.1078C34.9515 18.1129 34.8642 18.114 34.777 18.1135C34.7244 18.1133 34.6717 18.1131 34.6175 18.1129C34.5621 18.1124 34.5067 18.1119 34.4496 18.1114C34.394 18.1112 34.3384 18.1109 34.2812 18.1107C34.1433 18.11 34.0055 18.109 33.8676 18.1078C33.8632 18.14 33.8588 18.1722 33.8543 18.2053C33.6911 19.3775 33.4855 20.5411 33.277 21.7053C33.234 21.9463 33.192 22.1875 33.1531 22.4293C33.1459 22.4733 33.1388 22.5172 33.1314 22.5625C33.1124 22.6799 33.0939 22.7974 33.0754 22.9149C32.9258 23.6489 32.622 24.2817 32.0345 24.7354C31.694 24.939 31.3716 24.9394 30.989 24.9361C30.9103 24.9368 30.9103 24.9368 30.83 24.9375C30.7794 24.9374 30.7288 24.9372 30.6767 24.937C30.6309 24.9369 30.5852 24.9368 30.538 24.9367C30.3992 24.9204 30.3077 24.8782 30.1875 24.8062C30.2154 24.4771 30.2793 24.2407 30.4105 23.9401C30.4717 23.9421 30.5329 23.9441 30.5959 23.9461C30.677 23.9478 30.7581 23.9493 30.8392 23.9509C30.8794 23.9523 30.9196 23.9538 30.9611 23.9553C31.2236 23.959 31.3715 23.9278 31.5815 23.7668C31.9004 23.3008 31.9959 22.7677 32.0798 22.2149C32.0932 22.1327 32.1066 22.0506 32.1202 21.9684C32.149 21.7938 32.1773 21.6191 32.2054 21.4443C32.2756 21.0114 32.3535 20.58 32.4308 20.1485C32.4555 20.0103 32.48 19.872 32.5045 19.7337C32.6007 19.1907 32.7024 18.649 32.8082 18.1078C32.5322 18.1078 32.2562 18.1078 31.9718 18.1078C32.0017 17.773 32.0479 17.5145 32.1391 17.1839C32.4151 17.1839 32.6911 17.1839 32.9755 17.1839C32.9812 17.1196 32.987 17.0553 32.9929 16.989C33.0649 16.4031 33.2652 15.7428 33.7004 15.3361C34.384 14.8169 35.0706 14.7911 35.875 14.9896Z" fill="#FAFAFA"/>
<path d="M30.869 17.1701C30.8377 17.5124 30.7618 17.792 30.6487 18.1114C30.3928 18.0608 30.1643 17.963 29.9229 17.8565C29.6427 17.7502 29.3702 17.724 29.0761 17.7192C28.9857 17.7168 28.9857 17.7168 28.8935 17.7143C28.7015 17.7373 28.6002 17.7925 28.4464 17.9231C28.3601 18.1198 28.3444 18.3393 28.3913 18.5507C28.5637 18.7398 28.7383 18.8503 28.9591 18.9507C29.0166 18.9772 29.0741 19.0036 29.1333 19.0309C29.2715 19.0911 29.4096 19.1494 29.5488 19.2059C30.142 19.4475 30.64 19.6677 30.9791 20.3078C31.0994 20.719 31.091 21.2162 30.9447 21.6177C30.7301 22.0837 30.4751 22.3759 30.0431 22.5669C29.9961 22.5893 29.9491 22.6118 29.9007 22.635C28.996 22.9111 28.0507 22.6663 27.2583 22.1543C27.1923 22.11 27.1923 22.11 27.125 22.0648C27.1628 21.7201 27.232 21.4435 27.3452 21.1235C27.5767 21.1633 27.7616 21.2544 27.9715 21.3706C28.4709 21.6364 28.9508 21.8068 29.5048 21.6547C29.7022 21.5673 29.842 21.4686 29.933 21.249C29.9651 21.0294 29.9651 21.0294 29.933 20.8098C29.773 20.5795 29.613 20.5007 29.3714 20.4102C29.2715 20.3715 29.2715 20.3715 29.1696 20.332C29.0995 20.3055 29.0293 20.2791 28.9591 20.2528C28.2956 20.004 27.7264 19.7633 27.3396 19.0694C27.2093 18.6946 27.2404 18.18 27.3384 17.7979C27.5627 17.2453 27.9193 16.9429 28.4116 16.7257C29.2506 16.484 30.1245 16.695 30.869 17.1701Z" fill="#FAFAFA"/>
<path d="M12.4667 17.106C12.5159 17.1681 12.5159 17.1681 12.566 17.2315C12.551 17.5442 12.4213 17.8303 12.3176 18.1098C12.0852 18.041 11.8591 17.9456 11.6315 17.855C11.3925 17.7663 11.1758 17.7226 10.9265 17.7177C10.8762 17.7161 10.826 17.7145 10.7743 17.7128C10.6052 17.7367 10.5158 17.7942 10.3799 17.9216C10.2634 18.1424 10.2517 18.2264 10.2806 18.4863C10.4566 18.7565 10.6381 18.8758 10.8954 18.9843C10.9663 19.0163 11.0371 19.0484 11.1079 19.0806C11.2141 19.1278 11.3202 19.1748 11.4264 19.2217C11.9036 19.4357 12.3252 19.6647 12.6012 20.2278C12.676 20.4647 12.6901 20.6738 12.6871 20.9252C12.6868 20.9696 12.6865 21.014 12.6862 21.0597C12.678 21.4062 12.6317 21.6609 12.4667 21.9369C12.4377 21.9887 12.4086 22.0406 12.3788 22.094C12.2534 22.2712 12.142 22.3522 11.9729 22.4545C11.8969 22.5016 11.8969 22.5016 11.8194 22.5496C11.1935 22.8778 10.3569 22.7692 9.73888 22.4667C9.54105 22.3502 9.36512 22.2226 9.1875 22.0624C9.21217 21.7072 9.26427 21.4427 9.38624 21.1213C9.59039 21.1595 9.74484 21.2464 9.92656 21.3683C10.3828 21.6602 10.8262 21.7958 11.3383 21.6546C11.4816 21.5868 11.5705 21.5004 11.6717 21.3566C11.7414 21.1145 11.7375 20.9897 11.6717 20.7449C11.3644 20.3712 10.8795 20.2319 10.4793 20.094C10.0131 19.9187 9.62896 19.6603 9.38624 19.1137C9.23969 18.7267 9.23651 18.2633 9.33655 17.855C9.51264 17.3441 9.8224 17.0125 10.2161 16.7845C10.9264 16.4428 11.808 16.6968 12.4667 17.106Z" fill="#FAFAFA"/>
<path d="M47.4152 17.0626C47.4624 17.0627 47.5096 17.0628 47.5582 17.0629C48.0448 17.0711 48.4891 17.1672 48.9508 17.3166C48.8884 17.6374 48.8146 17.9127 48.6475 18.2002C48.5462 18.1862 48.5462 18.1862 48.4428 18.1719C48.1469 18.1363 47.8534 18.1262 47.5555 18.1229C47.4781 18.1204 47.4781 18.1204 47.3991 18.1178C47.0355 18.1142 46.7649 18.1736 46.4635 18.377C46.0041 18.8353 45.8896 19.4124 45.896 20.029C45.9133 20.5353 46.0256 21.012 46.4028 21.3813C46.7989 21.6647 47.1586 21.6865 47.6313 21.6868C47.7061 21.6879 47.7061 21.6879 47.7823 21.689C48.1114 21.6898 48.3921 21.6474 48.7082 21.558C48.7608 21.6705 48.8125 21.7835 48.8636 21.8967C48.8925 21.9596 48.9214 22.0225 48.9511 22.0872C49.0112 22.2639 49.0213 22.3317 48.9508 22.5005C47.9322 22.7747 46.9188 22.9134 45.9326 22.4306C45.2952 22.0507 44.9128 21.4778 44.7115 20.7855C44.6773 20.6103 44.6567 20.4399 44.6435 20.262C44.6385 20.2023 44.6336 20.1425 44.6285 20.0809C44.5929 19.2285 44.8245 18.4211 45.4248 17.7849C45.98 17.2763 46.6627 17.0574 47.4152 17.0626Z" fill="#FAFAFA"/>
<path d="M19.7414 14.8835C19.7958 14.8838 19.8502 14.884 19.9062 14.8842C19.9607 14.884 20.0151 14.8838 20.0711 14.8835C20.4772 14.8841 20.4772 14.8841 20.554 14.9484C20.5606 15.0438 20.5623 15.1393 20.5622 15.2349C20.5623 15.2969 20.5624 15.3589 20.5625 15.4229C20.5623 15.4915 20.562 15.5602 20.5618 15.6309C20.5618 15.7027 20.5618 15.7746 20.5618 15.8486C20.5618 16.0461 20.5614 16.2437 20.5609 16.4412C20.5605 16.6475 20.5605 16.8537 20.5604 17.06C20.5602 17.4508 20.5596 17.8416 20.5589 18.2324C20.5582 18.6772 20.5578 19.122 20.5574 19.5668C20.5567 20.482 20.5555 21.3973 20.554 22.3125C20.1265 22.3125 19.699 22.3125 19.2585 22.3125C19.2569 21.3533 19.2557 20.3942 19.255 19.435C19.2546 18.9897 19.2541 18.5443 19.2533 18.099C19.2527 17.711 19.2522 17.323 19.2521 16.935C19.252 16.7294 19.2518 16.5238 19.2513 16.3183C19.2507 16.0891 19.2507 15.86 19.2507 15.6309C19.2505 15.5622 19.2503 15.4936 19.25 15.4229C19.2501 15.3608 19.2502 15.2988 19.2503 15.2349C19.2502 15.1806 19.2502 15.1263 19.2501 15.0705C19.2678 14.8136 19.4834 14.8839 19.7414 14.8835Z" fill="#FAFAFA"/>
<path d="M38.0519 17.9425C38.0931 17.9409 38.1342 17.9393 38.1767 17.9376C38.4795 17.9342 38.6454 17.9934 38.8857 18.1794C38.9927 18.2815 38.9927 18.2815 39.0759 18.3854C39.104 18.4191 39.132 18.4528 39.1609 18.4875C39.3737 18.8557 39.3736 19.2472 39.3721 19.6557C39.3731 19.7067 39.374 19.7578 39.375 19.8104C39.3754 20.2967 39.2837 20.7632 38.9442 21.1457C38.5131 21.4513 38.1263 21.4609 37.5984 21.4203C37.2882 21.2875 37.0501 21.0609 36.904 20.7701C36.7613 20.4023 36.7509 20.0546 36.7535 19.666C36.7524 19.6047 36.7512 19.5434 36.75 19.4802C36.7503 19.0233 36.8141 18.6223 37.1344 18.2633C37.174 18.2344 37.2137 18.2056 37.2546 18.1759C37.3146 18.1308 37.3146 18.1308 37.3757 18.0847C37.5945 17.9394 37.7918 17.9457 38.0519 17.9425Z" fill="#A3A3A3"/>
<path d="M44.1875 17.1986C44.1629 17.5334 44.0718 17.7955 43.945 18.0964C43.9004 18.0938 43.8559 18.0912 43.8101 18.0885C43.3083 18.0625 43.3083 18.0625 42.8778 18.3209C42.6454 18.6457 42.5274 19.0103 42.5236 19.4322C42.5228 19.4949 42.522 19.5576 42.5211 19.6222C42.5207 19.689 42.5203 19.7559 42.5199 19.8247C42.5191 19.8938 42.5182 19.963 42.5174 20.0342C42.5148 20.2545 42.5129 20.4748 42.511 20.6951C42.5089 20.9164 42.5066 21.1377 42.5041 21.359C42.5025 21.4966 42.5012 21.6343 42.5002 21.7719C42.4995 21.8337 42.4989 21.8955 42.4982 21.9592C42.4977 22.0139 42.4973 22.0686 42.4968 22.1249C42.4898 22.2487 42.4898 22.2487 42.4413 22.3048C42.3033 22.3104 42.1668 22.3126 42.0289 22.3118C41.9902 22.3121 41.9515 22.3123 41.9117 22.3125C41.6228 22.3119 41.6228 22.3119 41.5681 22.2487C41.5635 22.0899 41.562 21.9324 41.5626 21.7736C41.5626 21.7238 41.5626 21.674 41.5626 21.6227C41.5626 21.4572 41.563 21.2917 41.5634 21.1263C41.5635 21.0119 41.5636 20.8974 41.5636 20.783C41.5638 20.4813 41.5643 20.1796 41.5648 19.8778C41.5653 19.5702 41.5655 19.2625 41.5658 18.9549C41.5663 18.3507 41.5671 17.7466 41.5681 17.1425C41.8563 17.1425 42.1444 17.1425 42.4413 17.1425C42.4573 17.2906 42.4733 17.4388 42.4898 17.5914C42.5288 17.5497 42.5678 17.5081 42.608 17.4652C43.0697 17.0292 43.6298 16.9586 44.1875 17.1986Z" fill="#FAFAFA"/>
<path d="M16.2174 19.688C16.282 19.6879 16.3467 19.6877 16.4132 19.6875C16.6305 19.6971 16.8467 19.7315 17.0625 19.7644C17.0625 20.3921 17.0625 21.0197 17.0625 21.6663C15.7618 21.955 15.7618 21.955 15.2263 21.5984C15.0106 21.3563 14.9033 21.1256 14.875 20.7663C14.8953 20.4697 14.9534 20.2575 15.115 20.0361C15.4593 19.7457 15.8052 19.6869 16.2174 19.688Z" fill="#A3A3A3"/>
<path d="M52.3328 18.0176C52.5869 18.1757 52.7478 18.3609 52.8854 18.6374C52.9112 18.9406 52.9112 18.9406 52.9375 19.25C52.2156 19.25 51.4937 19.25 50.75 19.25C50.8031 18.8527 50.8762 18.495 51.1553 18.2077C51.4969 17.9408 51.9286 17.8601 52.3328 18.0176Z" fill="#A3A3A3"/>
<path d="M24.4792 18.0245C24.9212 18.2307 25.158 18.4864 25.3383 18.8576C25.375 18.9722 25.375 18.9722 25.375 19.25C24.3644 19.25 23.3537 19.25 22.3125 19.25C22.4601 18.732 22.5909 18.3829 23.1672 18.0831C23.553 17.9028 24.0636 17.898 24.4792 18.0245Z" fill="#A3A3A3"/>
</svg>
