<svg width="1200" height="994" viewBox="0 0 1200 994" fill="none" xmlns="http://www.w3.org/2000/svg">
<g opacity="0.6" filter="url(#filter0_f_52_9957)">
<circle cx="701.5" cy="531.668" r="289.5" fill="#B3FF4C" fill-opacity="0.1"/>
</g>
<g opacity="0.3">
<path d="M1280.89 537.066C1283.31 520.805 1292.64 507.376 1317.7 498.152C1402.34 467.097 1504.7 471.592 1574.96 416.064C1611 387.525 1627.13 347.665 1626.69 304.915C1624.2 102.938 1446.51 17.8767 1371.88 4.8319C1295.41 -8.54981 1241.09 55.7512 1212.7 103.94C1177.69 163.304 1149.45 228.859 1087.36 271.674C1021.79 316.875 882.705 429.609 839.298 494.851C808.674 540.881 785.295 623.575 821.721 670.928C858.147 718.281 951.021 730.594 1014.82 744.676C1078.63 758.759 1077.91 978.027 1139.89 965.477C1223.22 948.6 1252.97 857.387 1268.39 795.514C1284.02 732.782 1289.09 667.912 1285.75 602.736C1284.44 578.628 1278.04 555.944 1280.89 537.066Z" stroke="#4CC722" stroke-width="1.6412" stroke-miterlimit="10"/>
<path d="M1377.7 -7.03588C1296.19 -21.3203 1238.27 47.3473 1207.95 98.6805C1170.57 161.925 1140.55 231.949 1074.22 277.543C1004.27 325.719 863.347 428.024 817.077 497.646C784.348 546.78 765.542 631.005 804.442 681.576C839.207 726.771 924.214 740.557 984.288 755.915C1046.17 771.753 1052.3 966.452 1113.76 957.464C1198.78 944.939 1238.03 865.073 1263.03 808.326C1288.18 751.383 1301.5 690.282 1305.11 627.379C1306.43 604.075 1302.84 581.857 1307.01 562.81C1310.43 546.538 1319.77 532.723 1342.51 522.14C1376.81 506.233 1412.75 495.066 1447.43 483.013C1477.03 472.763 1505.73 461.706 1531.65 445.728C1544.22 437.993 1555.89 428.696 1567.05 417.628C1597.28 387.461 1611.31 347.252 1610.85 302.966C1610 237.253 1594.37 181.648 1569.48 136.028C1522.93 50.4907 1435.45 3.04859 1377.7 -7.03588Z" stroke="#4CC722" stroke-width="1.6412" stroke-miterlimit="10"/>
<path d="M1383.5 -19.0505C1296.94 -34.2389 1235.35 38.7105 1203.16 93.2835C1163.47 160.505 1131.53 234.824 1061.09 283.382C986.757 334.537 843.895 426.455 794.687 500.371C759.954 552.561 745.693 638.464 786.93 692.075C820.102 735.201 897.337 750.411 953.505 767.007C1013.53 784.694 1026.49 954.941 1087.32 949.193C1174.09 941.117 1222.62 872.479 1257.29 820.954C1291.71 769.677 1313.61 712.571 1324.18 651.943C1328.11 629.587 1327.33 607.834 1332.84 588.475C1337.38 572.14 1346.76 557.795 1367.07 545.904C1398.39 527.578 1429.63 512.328 1459.17 496.168C1484.18 482.539 1507.95 468.404 1529.66 450.112C1539.92 441.397 1549.46 431.014 1558.75 418.989C1583.27 387.518 1595.01 346.543 1594.68 300.9C1594.16 236.88 1582.95 180.271 1562.83 131.699C1528.05 47.2453 1449.26 -7.5458 1383.5 -19.0505Z" stroke="#4CC722" stroke-width="1.6412" stroke-miterlimit="10"/>
<path d="M1389.3 -31.1185C1297.58 -47.1594 1232.42 30.0227 1198.2 87.799C1156.19 159.001 1122.3 237.761 1047.71 289.051C969.066 343.279 824.297 424.65 772.15 502.864C735.413 558.112 725.631 645.602 769.347 702.438C800.854 743.4 870.341 760.269 922.701 778.052C980.765 797.642 1000.77 943.297 1060.93 940.938C1149.52 937.406 1207.16 879.975 1251.71 833.575C1295.5 788.063 1325.91 734.867 1343.54 676.466C1350.02 654.968 1352.12 633.774 1358.89 614.154C1364.54 597.757 1373.84 582.934 1391.8 569.825C1420.13 549.078 1446.67 529.741 1471.16 509.415C1491.47 492.457 1510.47 475.278 1527.91 454.58C1536.01 444.922 1543.23 433.557 1550.86 420.47C1569.72 387.785 1579.17 346.045 1578.9 298.953C1578.42 236.642 1571.51 179.227 1556.52 127.4C1532.24 44.4256 1463.09 -18.1922 1389.3 -31.1185Z" stroke="#4CC722" stroke-width="1.6412" stroke-miterlimit="10"/>
<path d="M1395.06 -43.2348C1298.29 -60.1801 1229.46 21.2853 1193.38 82.3027C1148.88 157.445 1113.24 240.54 1034.55 294.795C951.518 352.003 804.82 422.953 749.909 505.503C711.064 563.861 705.942 652.97 751.962 712.991C781.799 751.784 843.491 770.455 892.101 789.138C948.163 810.776 975.108 931.852 1034.84 932.637C1125.39 933.838 1191.83 887.409 1246.33 846.235C1299.15 806.419 1338.25 757.182 1362.85 701.067C1371.94 680.522 1376.86 659.797 1384.88 639.918C1391.54 623.511 1400.88 608.159 1416.51 593.688C1441.81 570.285 1463.64 547.236 1483 522.65C1498.86 502.49 1512.95 482.084 1525.83 458.991C1531.77 448.391 1536.77 435.991 1542.44 421.855C1555.89 388.089 1562.73 345.363 1562.59 296.916C1562.27 236.269 1559.12 178.312 1549.58 123.075C1535.69 41.7841 1477.05 -28.8473 1395.06 -43.2348Z" stroke="#4CC722" stroke-width="1.6412" stroke-miterlimit="10"/>
<path d="M1400.71 -55.3977C1298.91 -73.2456 1226.41 12.4944 1188.47 76.7463C1141.67 155.86 1104.17 243.332 1021.36 300.313C933.946 360.495 785.371 420.86 727.496 507.841C686.651 569.25 686.018 659.928 734.511 723.166C762.672 759.781 816.555 780.255 861.301 799.887C915.421 823.662 949.414 920.067 1008.36 923.92C1100.82 930.002 1175.95 894.265 1240.55 858.511C1302.33 824.312 1350.19 779.135 1381.97 725.213C1393.5 705.585 1401.41 685.372 1410.85 665.276C1418.52 648.862 1427.82 632.891 1441.15 617.295C1463.32 591.288 1480.82 564.462 1494.77 535.63C1506.06 512.321 1515.37 488.871 1523.82 463.189C1527.68 451.738 1530.62 438.343 1534.27 423.069C1542.54 388.354 1546.5 344.663 1546.44 294.632C1546.28 235.66 1546.29 177.105 1542.86 118.383C1538.17 39.131 1490.73 -39.5891 1400.71 -55.3977Z" stroke="#4CC722" stroke-width="1.6412" stroke-miterlimit="10"/>
<path d="M1406.1 -67.4568C1299.28 -86.2025 1223.24 3.73738 1183.38 71.1157C1134.28 154.179 1094.88 245.916 1007.98 305.841C916.29 369.073 765.876 418.832 705.082 510.077C662.247 574.521 666.073 666.886 716.991 733.091C743.539 767.608 789.421 789.839 830.393 810.364C882.453 836.323 923.56 908.11 981.806 914.979C1076.13 926.086 1160.06 900.86 1234.75 870.537C1305.5 841.824 1362.18 800.813 1401 749.296C1415.07 730.539 1425.8 710.806 1436.56 690.55C1445.34 674.082 1454.5 657.548 1465.53 640.83C1484.48 612.134 1497.69 581.773 1506.35 548.505C1513.17 522 1517.73 495.366 1521.62 467.297C1523.31 454.908 1524.19 440.522 1525.72 424.164C1529.09 388.498 1529.91 343.723 1530.09 292.304C1530.07 235.024 1532.72 175.771 1535.89 113.841C1539.8 36.207 1504.15 -50.3744 1406.1 -67.4568Z" stroke="#4CC722" stroke-width="1.6412" stroke-miterlimit="10"/>
<path d="M1411.38 -79.6845C1299.46 -99.2728 1219.85 -5.00345 1178.15 65.5821C1126.76 152.583 1085.53 248.66 994.424 311.339C898.389 377.52 746.124 416.807 682.492 512.394C637.499 579.824 645.99 673.757 699.362 743.152C724.222 775.476 762.031 799.748 799.431 821.058C849.286 849.392 897.534 896.406 955.177 906.238C1051.13 922.472 1144 907.565 1228.67 882.732C1308.31 859.417 1373.7 822.631 1419.65 773.475C1436.26 755.591 1449.81 736.34 1461.89 715.929C1471.6 699.369 1480.72 682.223 1489.56 664.334C1505.08 633.059 1514.33 598.866 1517.47 561.415C1519.99 531.757 1519.7 501.997 1518.84 471.507C1518.45 458.272 1517.37 442.844 1516.7 425.315C1515.27 388.651 1512.86 342.851 1513.16 290.104C1513.51 234.421 1518.19 174.27 1528.56 109.35C1540.84 33.0725 1517.42 -61.1876 1411.38 -79.6845Z" stroke="#4CC722" stroke-width="1.6412" stroke-miterlimit="10"/>
<path d="M1516.49 475.381C1504.41 403.549 1476.24 273.943 1521.24 104.77C1541.34 29.5044 1530.67 -71.9278 1416.58 -91.9284C1299.67 -112.41 1216.43 -13.9121 1172.81 59.7818C1119.08 150.62 1076.01 251.027 980.854 316.635C880.557 385.848 726.488 414.521 659.952 514.348C612.98 584.795 626.031 680.34 681.782 752.827C737.533 825.314 830.921 875.27 928.539 896.864C1026.26 918.405 1127.95 913.49 1222.72 894.329C1415.05 855.354 1538.48 748.117 1528.94 573.889C1527.16 541.081 1522.02 508.199 1516.49 475.381Z" stroke="#4CC722" stroke-width="1.6412" stroke-miterlimit="10"/>
</g>
<g opacity="0.74">
<path d="M-36.4176 162.128C-50.3176 163.944 -63.4176 168.485 -73.2176 177.071C-82.3176 184.997 -87.8176 195.235 -91.4176 205.72C-96.5176 220.911 -97.9176 236.763 -97.5176 252.449C-96.9176 271.273 -94.4176 290.262 -97.7176 309.003C-103.918 344.422 -125.418 377.611 -146.218 408.489C-151.018 415.672 -156.718 422.607 -164.518 427.89C-173.718 434.165 -184.818 436.394 -196.418 437.55C-201.518 438.045 -208.518 438.623 -211.118 442.917C-213.918 447.54 -209.418 454.227 -206.518 458.273C-198.618 469.336 -184.718 475.693 -171.118 481.06C-155.618 487.086 -140.218 493.031 -126.018 500.957C-94.9176 518.377 -69.5176 542.98 -59.3176 573.197C-53.4176 590.7 -51.3176 610.515 -56.4176 628.348C-60.9176 644.117 -72.1176 657.822 -77.8176 673.261C-84.6176 691.589 -65.3176 702.487 -47.1176 708.597C-24.4176 716.11 0.0823784 718.917 23.7824 723.045C68.1824 730.805 112.682 739.392 155.982 750.703C175.582 755.821 195.782 761.023 216.582 760.527C234.182 760.115 250.582 754.996 264.682 746.409C290.882 730.64 311.382 704.799 315.482 677.967C318.382 659.391 314.482 640.732 314.982 622.073C315.382 603.662 322.282 587.233 331.982 570.886C340.682 556.025 350.582 541.329 355.282 525.147C359.782 509.46 358.782 493.196 354.082 477.675C348.882 460.419 339.382 444.568 331.482 428.138C323.282 411.048 319.882 392.72 319.282 374.391C318.682 356.558 320.482 338.808 322.082 321.057C322.882 312.223 323.682 303.389 324.082 294.555C324.482 285.639 323.982 276.722 324.082 267.805C324.182 261.448 326.982 255.752 330.382 250.137C332.382 246.835 334.982 243.12 334.782 239.322C334.582 235.359 330.982 232.304 327.382 230.075C320.582 225.782 312.282 223.14 303.882 221.819C265.282 215.71 228.182 236.267 189.782 229.332C174.282 226.525 159.482 221.159 145.282 215.462C130.282 209.518 115.682 202.83 101.282 195.978C89.0824 190.281 77.0824 184.254 64.3824 179.383C48.3824 173.191 31.4824 168.237 14.2824 165.017C-2.11762 161.715 -19.4176 160.146 -36.4176 162.128C-37.1176 162.21 -36.8176 163.119 -36.1176 163.036C-0.217628 158.825 38.2824 169.228 70.0824 182.438C96.5824 193.418 121.382 206.876 148.182 217.361C161.282 222.48 174.982 227.351 189.182 229.91C205.382 232.882 221.882 230.736 237.882 227.929C257.582 224.461 277.482 219.92 297.782 221.737C309.782 222.81 338.882 229.084 333.082 243.367C331.282 247.743 328.082 251.624 326.082 255.999C323.282 261.944 323.282 267.64 323.482 273.915C323.982 291.335 322.282 308.755 320.782 326.093C317.682 359.778 315.282 394.536 330.082 426.735C337.382 442.669 346.682 457.86 352.182 474.29C357.882 491.297 359.382 508.965 353.982 526.22C349.082 542.237 339.082 556.685 330.482 571.463C322.182 585.829 315.582 600.442 314.382 616.459C313.082 634.375 316.682 652.208 315.482 670.041C314.482 685.149 308.982 699.267 299.782 712.312C280.982 739.062 248.882 760.61 209.882 759.289C189.182 758.546 169.382 752.849 149.782 747.813C128.982 742.447 107.682 737.988 86.4824 733.695C53.9824 727.09 21.1824 721.806 -11.5176 715.945C-23.2176 713.798 -35.0176 711.321 -46.2176 707.606C-56.4176 704.221 -67.7176 699.598 -74.0176 691.837C-82.2176 681.764 -75.9176 670.454 -70.6176 660.546C-63.2176 646.511 -54.9176 633.219 -53.1176 617.78C-49.5176 587.233 -60.3176 556.355 -83.1176 532.165C-103.918 510.038 -132.418 494.434 -163.018 482.876C-176.818 477.757 -191.818 472.391 -201.618 462.236C-207.118 456.539 -216.618 443.329 -204.118 439.779C-195.918 437.468 -186.918 437.963 -178.618 435.569C-161.718 430.698 -151.618 418.809 -143.318 406.342C-133.518 391.481 -123.918 376.538 -115.718 360.934C-107.718 345.578 -100.818 329.643 -97.2176 313.131C-93.4176 295.628 -95.0176 277.878 -95.9176 260.21C-96.7176 243.698 -96.3176 227.268 -91.8176 211.086C-88.6176 199.445 -83.3176 187.722 -73.5176 178.64C-63.7176 169.641 -50.4176 164.852 -36.1176 162.953C-35.4176 162.953 -35.7176 162.045 -36.4176 162.128Z" fill="url(#paint0_linear_52_9957)"/>
<path d="M-86.3176 233.955C-89.2176 251.788 -87.0176 269.703 -87.1176 287.619C-87.2176 305.948 -91.6176 323.285 -99.2176 340.458C-106.518 357.053 -116.118 372.904 -125.818 388.591C-130.218 395.691 -134.518 402.956 -139.218 409.974C-143.718 416.661 -149.118 423.184 -157.018 427.312C-165.518 431.687 -175.618 432.018 -185.118 433.917C-191.218 435.072 -195.918 437.467 -197.518 442.751C-199.418 448.943 -195.018 452.74 -191.118 457.694C-186.618 463.556 -181.118 469.005 -175.018 473.793C-163.018 483.205 -148.618 489.728 -134.618 496.828C-119.418 504.588 -105.018 513.588 -92.3176 524.073C-64.6176 546.777 -46.6176 576.086 -45.5176 608.615C-45.2176 617.284 -46.3176 625.87 -49.4176 634.209C-52.2176 641.722 -56.1176 648.905 -59.5176 656.17C-63.6176 664.921 -68.9176 674.911 -63.2176 683.91C-58.7176 691.01 -49.6176 695.551 -41.2176 698.936C-30.5176 703.147 -19.1176 705.871 -7.71762 708.183C1.98238 710.165 11.6824 711.651 21.3824 713.384C42.1824 717.182 62.8824 721.393 83.4824 725.934C103.782 730.392 124.282 734.685 144.082 740.464C162.082 745.666 179.982 752.023 198.982 754.087C216.482 755.986 233.282 753.179 248.482 745.666C262.182 738.896 273.882 729.401 283.282 718.751C292.782 707.935 300.182 695.634 303.782 682.589C307.982 666.985 307.582 650.473 308.482 634.622C309.482 617.366 311.582 600.359 319.382 584.177C326.482 569.399 336.482 555.693 343.682 540.833C350.982 525.807 353.982 510.037 351.582 493.856C349.282 478.169 342.582 463.143 335.182 448.612C331.182 440.604 326.682 432.843 323.482 424.587C320.182 416.166 318.082 407.58 316.782 398.828C314.282 381.903 314.982 364.731 316.382 347.806C317.782 330.633 319.982 313.461 320.382 296.205C320.582 288.445 319.182 280.189 321.582 272.593C323.182 267.639 326.182 263.264 328.382 258.475C332.882 248.733 324.882 242.376 314.782 237.918C300.182 231.478 282.882 230.982 266.882 232.799C246.182 235.11 226.082 241.22 204.982 241.468C191.482 241.633 178.482 237.918 166.082 233.624C137.982 223.882 111.982 210.425 85.6824 197.876C58.2824 184.996 27.5824 176.905 -3.91763 175.254C-19.0176 174.428 -35.3176 175.006 -49.2176 180.29C-60.5176 184.583 -69.2176 192.014 -74.9176 201.096C-81.3176 211.168 -84.3176 222.561 -86.2176 233.79C-86.3176 234.367 -85.2176 234.615 -85.1176 234.037C-81.1176 211.085 -71.3176 186.647 -41.8176 178.969C-25.6176 174.759 -7.61763 175.419 8.88237 177.235C26.0824 179.217 43.1824 182.932 59.3824 188.216C84.9824 196.637 107.982 210.342 132.082 221.075C155.182 231.395 181.382 243.532 208.482 242.293C244.382 240.725 285.882 221.901 319.282 241.385C325.282 244.853 330.082 249.311 328.082 255.668C326.682 259.961 323.782 263.842 321.882 267.97C319.182 273.831 318.882 279.28 319.082 285.472C319.282 293.811 318.982 302.232 318.382 310.571C316.182 342.852 309.982 375.629 317.082 407.827C324.182 440.026 349.082 467.519 351.082 500.873C352.082 518.046 346.482 534.063 337.882 549.419C330.282 563.041 321.082 576.086 315.382 590.369C309.282 605.56 308.082 621.742 307.182 637.594C306.382 653.28 306.782 669.71 301.882 685.066C293.582 711.073 270.282 736.501 240.582 748.06C202.882 762.673 164.082 743.849 127.982 735.098C91.2824 726.181 54.0824 717.925 16.5824 711.485C-4.91763 707.77 -27.9176 704.55 -47.1176 695.138C-55.7176 690.928 -64.2176 684.571 -64.6176 675.737C-64.9176 669.627 -61.6176 663.188 -58.9176 657.573C-55.6176 650.473 -51.8176 643.538 -48.9176 636.273C-37.8176 608.285 -46.7176 575.508 -64.8176 550.822C-81.9176 527.623 -107.318 509.212 -135.218 495.177C-149.618 487.911 -164.218 481.141 -176.218 471.234C-182.718 465.868 -187.718 459.841 -192.618 453.483C-195.318 449.933 -197.618 447.291 -196.218 442.833C-194.618 437.879 -190.318 435.733 -184.618 434.66C-176.518 433.091 -167.918 432.678 -160.218 429.706C-153.518 427.147 -148.218 422.936 -143.918 418.065C-138.818 412.368 -135.218 405.846 -131.318 399.571C-126.718 392.141 -122.118 384.793 -117.618 377.28C-109.018 362.997 -101.018 348.466 -95.0176 333.358C-88.6176 317.258 -85.7176 301.159 -85.8176 284.152C-86.0176 267.309 -87.7176 250.384 -85.0176 233.624C-85.0176 233.294 -86.2176 233.294 -86.3176 233.955Z" fill="url(#paint1_linear_52_9957)"/>
<path d="M-76.5176 242.129C-79.4176 258.971 -77.6176 275.979 -78.3176 292.986C-79.1176 310.737 -84.7177 327.331 -92.7177 343.678C-100.418 359.365 -109.818 374.308 -118.718 389.5C-125.518 400.976 -131.018 416.745 -144.918 423.927C-152.718 427.89 -161.818 428.055 -170.618 429.376C-176.118 430.202 -182.918 431.275 -185.018 436.146C-186.918 440.522 -186.018 447.705 -184.118 451.998C-183.218 453.98 -181.518 455.383 -179.718 456.704C-175.818 459.511 -173.918 463.391 -171.118 466.942C-162.618 477.592 -150.918 486.013 -138.518 493.526C-124.718 501.947 -110.718 509.873 -97.9176 519.368C-84.7176 529.192 -72.5177 540.09 -62.6177 552.309C-57.6177 558.419 -53.1177 564.858 -49.3177 571.546C-45.0177 579.224 -42.3177 587.315 -40.2177 595.571C-38.1177 603.91 -36.8177 612.579 -37.6177 621.082C-38.4177 629.503 -41.6177 637.512 -44.9177 645.52C-48.7177 654.684 -56.0177 666.491 -50.8177 676.233C-47.1177 683.25 -38.6177 687.791 -30.7177 691.094C-20.3177 695.387 -9.01766 698.111 2.18234 700.506C11.8823 702.57 21.7823 704.138 31.5823 706.037C51.5823 710.083 71.4823 714.541 91.2823 719.329C109.882 723.87 128.782 728.246 146.682 734.273C163.082 739.887 179.482 746.574 197.282 748.473C229.782 751.941 257.982 733.447 275.382 712.559C284.182 701.992 291.082 689.938 293.882 677.306C297.282 662.115 298.782 646.511 301.482 631.237C304.182 615.716 306.682 599.699 313.482 584.921C320.082 570.473 329.882 557.098 336.982 542.815C344.182 528.449 347.582 513.341 345.682 497.819C343.782 482.628 337.582 468.18 330.582 454.227C326.682 446.466 322.282 438.953 319.082 430.945C315.682 422.606 313.382 414.02 312.082 405.351C309.582 389.004 310.282 372.492 311.782 356.063C313.182 339.716 315.382 323.451 315.882 307.022C316.082 299.426 314.982 291.665 317.482 284.235C319.082 279.529 321.882 275.236 323.582 270.53C327.282 260.54 318.182 253.852 308.282 249.394C294.282 243.202 277.682 242.542 262.182 244.358C241.582 246.752 221.582 252.944 200.482 252.697C187.982 252.531 175.682 248.486 164.382 244.275C138.282 234.616 114.082 221.736 89.4823 209.683C78.7823 204.399 68.0823 199.693 56.0823 196.473C40.4823 192.345 24.0823 189.951 7.68234 189.042C-19.3177 187.556 -49.7176 189.538 -64.7176 210.838C-71.5176 220.333 -74.4176 231.313 -76.5176 242.129C-76.6176 242.707 -75.5177 242.954 -75.4177 242.377C-73.3177 231.066 -70.1177 219.425 -62.6177 209.683C-55.2177 200.023 -43.7177 193.913 -30.2177 191.519C-14.0177 188.712 3.28234 189.29 19.5823 190.941C35.7823 192.592 52.0823 195.647 67.1823 200.931C77.8823 204.646 87.6823 210.013 97.5823 214.966C109.682 220.993 121.782 227.103 134.182 232.799C145.982 238.248 157.982 243.45 170.582 247.66C180.982 251.128 191.682 253.935 203.082 253.687C238.482 253.109 278.182 233.955 311.382 252.284C317.382 255.586 323.982 260.292 323.182 266.814C322.582 271.52 319.482 275.896 317.582 280.189C315.182 285.556 314.482 290.757 314.582 296.454C314.682 304.545 314.382 312.553 313.682 320.644C311.382 351.522 305.382 382.812 312.282 413.607C315.882 429.542 324.082 443.659 331.382 458.603C338.482 473.216 344.382 488.407 344.982 504.259C345.582 520.771 339.782 536.045 331.382 550.823C323.982 563.785 315.382 576.334 309.982 589.957C304.382 604.322 302.182 619.761 299.682 634.622C297.182 649.235 295.982 664.261 292.282 678.71C285.682 704.386 263.682 729.319 235.582 741.621C218.682 749.051 200.982 749.382 182.782 744.923C166.082 740.878 150.582 733.943 134.182 729.402C99.0823 719.577 62.9823 710.908 26.8823 704.138C5.88234 700.258 -16.7177 697.121 -35.4177 687.874C-43.7177 683.746 -51.7177 677.471 -51.5177 668.885C-51.3177 662.032 -47.7177 654.932 -45.0177 648.492C-42.1177 641.475 -39.0177 634.457 -37.4177 627.109C-34.2177 612.083 -38.0177 596.727 -43.1177 582.279C-47.7177 569.069 -56.8176 556.768 -66.7176 545.869C-86.0176 524.486 -111.018 508.965 -136.818 493.361C-150.318 485.187 -163.118 476.106 -171.818 464.134C-173.818 461.493 -175.018 458.685 -177.818 456.621C-181.418 454.062 -183.218 451.668 -183.918 447.787C-184.518 444.65 -185.118 441.348 -184.418 438.128C-183.318 433.009 -178.018 431.606 -172.618 430.532C-164.718 429.046 -156.418 429.129 -148.918 426.569C-143.218 424.588 -138.618 421.285 -134.918 417.24C-130.618 412.534 -127.618 407.085 -124.718 401.801C-120.818 394.866 -116.718 387.931 -112.518 381.078C-95.8176 353.173 -78.5176 324.607 -77.2176 292.904C-76.5176 276.061 -78.4177 259.136 -75.4177 242.294C-75.2177 241.799 -76.4176 241.551 -76.5176 242.129Z" fill="url(#paint2_linear_52_9957)"/>
<path d="M-66.7176 250.468C-69.7176 266.485 -68.2176 282.667 -69.7176 298.766C-71.3176 315.857 -78.4176 331.791 -86.7176 347.312C-94.5176 361.843 -103.418 375.961 -111.318 390.409C-117.218 401.307 -121.218 415.59 -135.118 421.452C-142.718 424.671 -151.418 424.341 -159.618 425.332C-164.618 425.91 -172.118 426.901 -174.918 430.946C-177.618 434.744 -175.718 440.193 -174.318 444.073C-172.718 448.779 -171.818 454.806 -167.418 458.439C-165.318 460.09 -162.718 461.163 -160.518 462.732C-156.918 465.374 -154.618 469.915 -151.818 473.135C-146.818 478.831 -141.418 484.115 -135.518 489.151C-124.018 499.059 -111.118 507.645 -98.9176 516.974C-86.3176 526.634 -74.3176 536.954 -63.8176 548.265C-52.8176 559.988 -41.7176 573.446 -36.6176 587.729C-33.7176 595.737 -30.7176 603.663 -29.6176 612.002C-28.4176 620.423 -29.8176 628.596 -32.3176 636.77C-34.5176 644.118 -37.4176 651.3 -38.9176 658.813C-39.6176 662.529 -39.8176 665.996 -38.0176 669.464C-34.6176 676.151 -26.5176 680.527 -19.0176 683.664C-8.71756 687.957 2.48243 690.682 13.5824 692.994C23.6824 695.14 33.8824 696.874 43.8824 699.103C62.8824 703.396 81.7824 708.102 100.482 713.221C118.182 718.092 135.782 722.963 152.482 729.816C166.482 735.595 181.082 741.952 196.982 743.108C226.882 745.254 253.382 724.532 268.182 705.13C276.282 694.562 281.782 683.004 284.082 670.62C286.682 656.172 290.682 641.971 294.782 627.771C298.782 613.818 301.782 599.122 307.582 585.582C313.882 571.051 323.682 557.759 330.882 543.476C337.682 530.019 341.182 515.984 339.682 501.453C338.182 486.84 332.482 472.887 325.782 459.429C318.282 444.238 310.482 429.873 307.582 413.443C304.782 397.096 305.482 380.501 307.082 364.072C308.582 348.138 310.782 332.286 311.282 316.352C311.482 309.252 310.882 302.234 313.382 295.299C315.082 290.593 317.882 286.135 318.882 281.264C320.982 271.109 309.482 263.843 299.582 259.88C286.082 254.431 270.382 254.101 255.682 255.917C236.182 258.477 216.782 264.421 196.782 263.596C185.282 263.1 173.882 258.972 163.582 255.009C138.982 245.432 116.182 233.048 93.0824 221.242C83.6824 216.453 74.3824 211.582 63.8824 208.61C49.5824 204.565 34.2824 202.914 19.2824 202.253C-6.01756 201.18 -38.8176 200.932 -54.4176 220.416C-61.5176 229.416 -64.5176 240.148 -66.7176 250.468C-66.8176 251.046 -65.7176 251.294 -65.6176 250.716C-63.4176 239.983 -60.3176 228.838 -52.5176 219.838C-43.8176 209.931 -30.8176 205.803 -16.6176 204.317C-1.11757 202.666 14.6824 202.666 30.1824 203.987C44.9824 205.225 60.4824 207.537 73.8824 213.151C83.2824 217.031 92.0824 221.985 100.982 226.526C112.282 232.388 123.682 238.249 135.182 243.781C146.482 249.23 158.082 254.431 170.182 258.642C178.882 261.697 188.082 264.504 197.582 264.751C232.582 265.742 269.582 246.093 302.982 262.605C309.482 265.825 317.382 270.861 317.982 277.713C318.382 282.254 315.782 286.63 313.982 290.841C308.582 303.225 310.382 316.434 309.382 329.396C306.982 359.449 300.882 389.831 307.682 419.8C311.182 435.157 319.382 448.862 326.282 463.227C332.882 477.097 338.282 491.546 338.782 506.572C339.282 522.506 333.382 537.284 325.282 551.567C318.082 564.116 309.782 576.253 304.782 589.545C299.782 602.92 296.682 616.955 292.782 630.495C288.882 644.2 285.282 657.905 282.682 671.775C277.982 696.791 257.982 721.064 231.882 734.356C216.982 741.952 201.082 744.346 184.182 740.301C168.282 736.503 154.282 729.155 139.182 723.789C123.082 718.092 106.082 713.799 89.3824 709.423C72.5824 704.965 55.5824 700.672 38.4824 697.122C17.8824 692.828 -4.31757 690.104 -22.9176 680.94C-31.1176 676.894 -39.0176 670.867 -38.3176 662.281C-37.2176 647.668 -28.2176 634.293 -28.0176 619.432C-27.9176 612.167 -29.7176 604.984 -31.9176 597.966C-34.0176 591.444 -36.0176 584.922 -39.5176 578.812C-46.6176 566.511 -55.7176 555.035 -66.1176 544.384C-76.5176 533.651 -88.2176 523.827 -100.518 514.497C-111.918 505.829 -124.018 497.738 -134.818 488.408C-141.218 482.877 -147.118 477.015 -152.418 470.823C-154.618 468.263 -156.318 464.878 -158.818 462.649C-161.118 460.585 -164.718 459.512 -167.118 457.448C-169.818 455.054 -170.318 451.834 -171.418 448.862C-172.518 445.972 -173.618 443.082 -174.418 440.028C-175.118 437.221 -175.818 433.671 -173.718 431.111C-171.118 427.974 -165.018 427.066 -160.818 426.488C-153.218 425.414 -145.218 425.745 -137.918 423.516C-132.518 421.864 -128.018 418.975 -124.518 415.26C-120.718 411.214 -118.218 406.426 -115.818 401.72C-112.618 395.28 -109.318 389.005 -105.718 382.731C-90.4176 355.898 -71.4176 328.901 -68.5176 298.766C-67.0176 282.75 -68.5176 266.65 -65.5176 250.716C-65.4176 250.138 -66.5176 249.891 -66.7176 250.468Z" fill="url(#paint3_linear_52_9957)"/>
<path d="M-56.9177 258.807C-60.3177 274.824 -58.7177 291.171 -61.9177 307.188C-65.1177 323.287 -73.8177 338.561 -82.2177 353.174C-89.8177 366.384 -98.1177 379.428 -104.018 393.133C-108.718 404.031 -113.318 416.498 -128.518 419.883C-135.818 421.534 -143.418 421.039 -150.818 421.864C-155.818 422.442 -162.718 423.598 -165.818 427.231C-168.418 430.286 -167.318 434.496 -166.118 437.799C-164.318 443.082 -161.218 447.954 -158.918 452.99C-156.918 457.365 -155.418 460.42 -150.518 463.145C-143.618 467.025 -138.118 471.318 -132.718 476.602C-121.718 487.252 -112.618 499.141 -101.718 509.874C-91.2177 520.277 -79.6177 529.854 -69.1177 540.339C-57.5177 551.98 -46.7177 564.282 -37.7177 577.491C-35.7177 580.463 -33.6177 583.436 -31.9177 586.573C-29.8177 590.288 -28.5177 594.334 -26.9177 598.214C-23.8177 605.727 -20.5177 613.405 -20.7177 621.496C-20.8177 629.752 -23.3177 637.843 -24.9177 646.017C-25.9177 650.888 -27.4177 656.337 -25.9177 661.125C-23.7177 668.06 -15.9177 672.601 -8.71765 675.738C1.18235 680.032 12.0823 682.756 22.7823 685.15C33.2823 687.462 43.7823 689.361 54.1823 691.92C72.0823 696.379 89.8824 701.332 107.382 706.781C123.182 711.735 138.382 716.854 152.882 723.954C164.882 729.816 177.682 736.338 191.882 737.494C205.782 738.65 218.982 733.366 229.882 726.678C241.682 719.496 251.582 710.249 259.182 699.929C266.882 689.443 271.182 678.545 273.782 666.574C276.482 653.612 281.682 641.063 286.582 628.679C291.582 616.047 295.882 603.333 300.182 590.536C304.982 576.335 314.082 563.538 321.582 550.246C328.782 537.449 333.982 523.992 333.982 509.709C333.882 495.178 328.982 481.143 322.682 467.686C315.882 453.237 307.482 439.615 304.082 424.259C300.582 408.572 300.982 392.555 302.282 376.786C303.582 361.265 305.982 345.743 306.882 330.14C307.282 322.792 306.682 315.444 308.982 308.261C310.482 303.555 312.982 299.014 313.882 294.143C315.682 283.988 305.382 276.393 295.482 271.934C282.482 266.155 267.182 265.412 252.882 267.146C233.782 269.457 214.982 275.484 195.382 274.659C184.882 274.246 174.682 270.366 165.382 266.733C141.582 257.321 119.582 245.019 97.3824 233.213C89.2824 228.92 81.0823 224.049 72.1823 220.912C59.2823 216.288 44.5823 215.215 30.6823 214.885C15.4823 214.555 0.182343 215.545 -14.8177 217.527C-26.4177 219.095 -36.9177 222.728 -44.2177 230.654C-51.6177 238.91 -54.7177 249.065 -56.9177 258.807C-57.0177 259.385 -55.9177 259.633 -55.8177 259.055C-53.5177 248.57 -50.1177 237.341 -41.3177 229.25C-31.6177 220.334 -17.8177 218.683 -4.11766 217.444C22.8823 214.885 54.8823 213.564 79.1823 225.287C99.2823 234.947 118.282 246.093 138.282 255.917C148.982 261.201 159.882 266.238 171.382 270.283C179.482 273.173 187.982 275.732 196.882 275.815C230.582 276.227 267.082 257.404 298.582 274.906C305.082 278.539 312.282 283.823 312.782 290.758C313.082 295.629 310.482 300.5 308.782 305.041C304.182 317.425 305.682 330.965 304.482 343.845C301.682 372.823 295.982 402.545 304.482 431.276C308.782 445.724 317.482 458.934 323.582 472.887C329.582 486.592 333.682 500.957 332.482 515.653C330.082 544.55 305.482 567.254 297.682 594.911C290.682 619.597 277.182 642.962 272.282 668.06C267.482 692.663 249.082 716.193 223.282 729.32C209.482 736.338 195.082 738.732 179.582 734.274C165.382 730.146 153.282 722.55 139.882 716.936C125.682 710.992 110.182 706.699 95.2823 702.24C79.6823 697.617 63.8824 693.159 47.8824 689.526C27.4824 684.903 4.68234 682.343 -13.3177 672.519C-17.3177 670.289 -21.2177 667.565 -23.4177 663.932C-26.6177 658.731 -25.0177 652.621 -23.9177 647.09C-22.6177 640.32 -20.7177 633.715 -19.9177 626.862C-19.0177 619.762 -20.1177 613.157 -22.5177 606.305C-24.7177 600.113 -26.8177 593.343 -30.1177 587.481C-33.7177 580.876 -38.3177 574.519 -43.0177 568.41C-51.7177 557.016 -61.6177 546.366 -72.0177 536.128C-82.0177 526.386 -93.1177 517.304 -102.818 507.397C-113.218 496.747 -122.118 485.271 -133.018 474.951C-137.718 470.493 -142.318 466.447 -148.418 463.31C-152.118 461.328 -155.118 459.347 -156.618 455.797C-157.518 453.733 -158.418 451.586 -159.418 449.522C-161.918 444.486 -165.118 439.367 -166.018 433.918C-167.218 426.57 -159.518 424.011 -151.918 422.938C-139.118 421.204 -125.318 423.185 -115.518 414.682C-107.518 407.747 -105.018 397.674 -100.818 389.005C-87.3177 361.1 -65.0177 334.598 -60.1177 304.298C-57.7177 289.272 -58.8177 274.081 -55.7177 259.055C-55.6177 258.477 -56.7177 258.229 -56.9177 258.807Z" fill="url(#paint4_linear_52_9957)"/>
<path d="M-47.0177 267.145C-50.6177 282.502 -49.6177 298.353 -54.4177 313.462C-59.2177 328.653 -68.4177 342.853 -76.6177 356.971C-83.6177 369.025 -90.0177 381.162 -94.8177 393.958C-99.2177 405.682 -105.618 415.92 -121.818 417.406C-132.218 418.396 -149.818 415.672 -157.118 423.845C-162.518 429.79 -155.418 439.697 -152.118 445.146C-149.418 449.604 -146.518 453.898 -144.418 458.521C-142.418 462.814 -139.118 465.373 -134.418 467.685C-119.818 474.868 -109.618 485.931 -100.518 497.655C-92.3177 508.14 -84.6177 518.708 -75.6177 528.78C-65.6177 540.008 -55.5177 551.154 -46.0177 562.712C-40.8177 569.07 -35.8177 575.509 -31.1177 582.114C-28.9177 585.169 -26.8177 588.224 -24.8177 591.278C-22.6177 594.581 -21.5177 598.214 -19.7177 601.764C-16.5177 608.203 -12.6177 614.478 -12.1177 621.496C-11.6177 629.339 -13.1177 637.265 -13.4177 645.108C-13.6177 649.566 -14.0177 654.19 -11.4177 658.235C-9.51769 661.042 -6.61768 663.354 -3.51768 665.253C5.18231 670.537 15.9823 673.426 26.1823 675.986C36.5823 678.545 47.2823 680.444 57.6823 683.086C74.6823 687.379 91.4823 692.745 107.782 698.525C121.682 703.478 135.582 708.349 147.982 715.615C158.882 721.972 170.182 729.485 183.582 731.714C196.382 733.861 208.582 729.155 218.882 723.293C230.482 716.688 240.282 707.854 247.882 698.029C255.682 687.957 260.482 677.224 262.982 665.5C265.482 653.777 271.282 642.549 276.782 631.568C282.382 620.422 288.582 609.277 292.682 597.636C294.782 591.609 296.382 585.499 299.182 579.555C302.382 572.702 306.382 566.18 310.382 559.658C317.682 547.521 324.782 535.137 326.982 521.515C329.182 507.645 326.282 493.774 321.082 480.565C315.282 466.117 306.082 452.577 301.382 437.881C296.582 422.855 296.082 407.251 297.182 391.812C298.182 376.703 300.682 361.595 301.982 346.486C302.682 338.973 302.082 331.212 303.782 323.865C304.982 318.416 307.582 313.214 308.582 307.765C310.282 297.693 301.882 289.85 292.082 284.731C279.782 278.291 264.782 277.053 250.682 278.539C232.382 280.438 214.882 285.969 196.282 285.969C186.182 285.969 176.582 282.584 167.682 279.034C144.882 269.952 123.882 257.899 102.782 246.34C94.4823 241.799 86.1823 237.093 77.4823 233.048C66.9823 228.177 54.7823 227.103 42.9823 227.021C28.3823 226.938 13.7823 228.424 -0.617691 230.406C-12.7177 231.975 -25.0177 233.295 -33.7177 241.139C-41.7177 248.239 -44.7177 257.981 -47.0177 267.145C-47.2177 267.723 -46.0177 267.971 -45.9177 267.393C-43.4177 257.403 -39.9177 246.423 -30.2177 239.488C-20.0177 232.222 -4.51768 231.644 8.28232 230.158C22.9823 228.424 38.0823 227.186 52.8823 228.342C64.4823 229.167 74.0823 232.305 83.8823 237.341C103.782 247.578 122.782 258.889 142.882 268.879C159.482 277.135 178.782 287.455 198.882 286.877C231.082 285.969 267.082 268.797 295.982 288.363C301.882 292.409 307.382 297.693 307.482 304.298C307.582 309.499 305.082 314.618 303.582 319.571C301.782 325.516 301.582 331.295 301.282 337.404C300.882 344.752 300.182 352.018 299.282 359.366C295.982 387.766 291.282 417.075 302.482 444.733C307.982 458.356 316.382 471.07 321.282 484.94C326.382 499.223 328.182 514.167 323.982 528.863C319.982 542.733 311.382 555.117 303.982 567.914C300.882 573.363 297.882 578.812 295.582 584.591C293.282 590.205 291.982 595.984 289.782 601.599C280.982 623.395 265.782 643.87 261.382 666.656C256.682 690.434 237.582 713.633 212.082 725.605C205.582 728.659 198.382 731.219 190.782 731.301C183.482 731.384 176.382 729.237 169.982 726.513C158.282 721.477 148.582 713.964 137.082 708.68C123.582 702.488 108.782 697.699 94.4823 693.076C80.6823 688.535 66.7823 684.159 52.4823 680.939C41.7823 678.545 31.0823 676.481 20.5823 673.591C10.6823 670.867 -0.617688 667.565 -7.81769 661.042C-11.9177 657.244 -12.6177 653.282 -12.6177 648.328C-12.6177 640.65 -11.4177 633.054 -11.2177 625.376C-11.0177 618.771 -13.0177 612.992 -16.1177 606.882C-18.7177 601.846 -20.5177 596.315 -23.6177 591.526C-39.6177 567.088 -60.0177 544.962 -79.9177 522.671C-96.5177 504.094 -107.818 479.574 -132.918 467.52C-135.918 466.117 -138.818 464.63 -140.918 462.401C-142.818 460.42 -143.518 457.943 -144.718 455.714C-147.018 451.338 -149.918 447.21 -152.418 442.917C-154.918 438.624 -158.018 433.67 -157.918 428.799C-157.818 422.194 -148.518 420.048 -141.918 419.387C-130.018 418.149 -116.818 420.378 -106.718 413.773C-98.0177 407.994 -95.3177 398.334 -92.1177 389.913C-81.9177 362.668 -59.9177 338.808 -52.5177 310.902C-48.7177 296.619 -49.4177 281.924 -46.0177 267.641C-45.8177 266.815 -46.9177 266.567 -47.0177 267.145Z" fill="url(#paint5_linear_52_9957)"/>
<path d="M-37.2176 275.484C-41.2176 290.18 -41.2176 305.453 -47.8176 319.571C-54.3176 333.606 -63.3176 346.899 -70.8176 360.604C-74.1176 366.631 -77.3176 372.74 -79.8176 379.015C-81.7176 383.803 -83.0176 388.84 -84.7176 393.711C-86.5176 398.829 -88.8176 404.031 -93.3176 407.911C-98.6176 412.452 -105.818 414.021 -113.318 414.268C-124.318 414.681 -139.818 412.369 -148.118 420.047C-153.618 425.166 -148.618 433.505 -145.618 438.624C-142.918 443.247 -139.718 447.623 -136.618 451.998C-133.918 455.879 -132.018 460.007 -129.518 463.887C-126.918 467.85 -122.318 470.244 -117.618 472.308C-110.718 475.363 -104.918 478.996 -99.5176 483.702C-89.1176 492.866 -82.1176 504.094 -75.4176 515.24C-68.6176 526.633 -60.9176 537.614 -52.8176 548.512C-43.3176 561.309 -33.6176 574.023 -24.3176 586.82C-22.0176 590.04 -19.7176 593.177 -17.4176 596.397C-15.4176 599.204 -14.4176 602.176 -12.6176 605.066C-8.81761 611.175 -4.21762 616.294 -3.41762 623.394C-2.61762 630.99 -2.41762 638.586 -0.917618 646.099C-0.217618 649.566 1.28239 652.456 4.28239 655.015C11.1824 660.959 21.5824 664.014 30.7824 666.574C41.7824 669.628 53.1824 671.775 64.2824 674.582C79.7824 678.462 94.7824 684.076 109.282 689.938C122.082 695.14 134.782 700.258 145.682 708.019C154.382 714.211 163.182 721.394 174.082 724.861C185.882 728.577 197.082 725.027 207.282 719.743C218.982 713.633 228.882 705.212 236.582 695.8C244.382 686.223 249.882 675.573 252.182 664.262C254.282 653.612 260.382 643.622 266.182 634.045C272.282 623.89 278.982 613.982 284.282 603.497C289.882 592.599 292.482 580.958 298.482 570.143C305.282 558.006 313.582 546.365 318.082 533.403C322.582 520.441 322.482 506.901 318.782 493.857C314.782 479.739 307.182 466.942 300.782 453.567C293.882 439.119 291.782 423.515 292.182 408.076C292.582 393.298 294.982 378.602 296.782 363.906C297.682 356.476 297.982 349.045 298.682 341.532C299.282 335.258 301.682 329.396 302.982 323.286C308.082 300.417 276.582 288.446 253.382 289.354C235.682 290.014 218.782 295.629 201.082 296.702C190.082 297.445 181.082 295.381 171.182 291.501C149.182 282.997 129.082 271.108 109.182 259.797C100.582 254.926 92.0824 249.973 83.2824 245.349C74.7824 240.891 66.4824 238.331 56.2824 238.001C41.7824 237.506 27.2824 239.9 13.1824 242.212C6.48239 243.368 -0.117612 244.524 -6.81761 245.597C-12.4176 246.505 -17.6176 247.909 -22.1176 250.798C-31.4176 256.908 -34.7176 266.65 -37.2176 275.484C-37.4176 276.062 -36.3176 276.309 -36.1176 275.731C-33.2176 265.659 -29.2176 254.513 -17.1176 249.477C-11.0176 246.918 -3.91762 246.34 2.58238 245.184C9.38238 244.028 16.1824 242.79 23.0824 241.799C36.9824 239.735 52.1824 237.588 66.2824 240.148C75.2824 241.799 82.8824 246.422 90.3824 250.633C109.582 261.283 128.382 272.512 148.182 282.419C156.982 286.877 166.082 291.088 175.682 294.39C185.082 297.61 193.482 298.518 203.682 297.61C220.382 296.124 236.382 291.005 253.182 290.427C268.082 289.849 282.882 293.317 293.382 302.233C299.082 307.105 302.882 312.719 302.182 319.654C301.682 325.268 299.282 330.717 298.082 336.331C296.682 342.771 296.882 349.293 296.282 355.815C295.582 362.833 294.682 369.851 293.782 376.868C290.182 404.609 287.982 432.184 301.682 458.438C308.482 471.4 315.382 484.527 318.582 498.48C321.882 513.011 320.082 527.459 313.582 541.247C307.782 553.466 299.482 564.776 293.582 576.995C290.882 582.609 289.282 588.389 287.182 594.168C285.382 599.039 282.982 603.745 280.382 608.286C269.982 626.862 254.882 644.86 250.682 665.335C245.982 688.535 225.882 711.487 200.382 722.137C193.782 724.861 186.882 726.76 179.382 725.522C173.382 724.531 167.982 721.972 162.982 719.082C153.482 713.551 145.682 706.12 135.882 701.001C123.182 694.397 109.182 688.948 95.4824 683.994C83.3824 679.536 71.0824 675.49 58.2824 672.518C47.1824 669.959 35.9824 667.647 25.1824 664.262C16.2824 661.455 3.88239 657.327 0.782394 649.071C-1.91761 641.888 -1.61761 633.549 -2.21761 626.119C-2.71761 620.422 -4.11761 616.046 -7.51761 611.01C-11.0176 605.892 -13.4176 600.443 -17.0176 595.489C-21.5176 589.132 -26.2176 582.775 -30.9176 576.5C-39.9176 564.446 -49.0176 552.475 -57.8176 540.421C-65.0176 530.431 -71.4176 520.111 -77.8176 509.791C-84.1176 499.553 -91.2176 489.564 -101.118 481.473C-105.818 477.592 -110.818 474.62 -116.718 472.061C-123.418 469.089 -127.418 466.199 -130.418 460.42C-134.718 452.329 -141.118 445.063 -145.618 437.055C-147.818 433.175 -150.618 428.138 -149.318 423.763C-147.518 417.983 -138.018 416.25 -131.918 415.754C-120.318 414.846 -107.218 417.323 -96.8176 411.626C-88.2176 406.838 -85.1176 398.169 -82.6176 390.243C-78.6176 377.776 -73.0176 366.053 -66.2176 354.412C-59.1176 342.11 -50.9176 329.974 -45.6176 317.012C-40.1176 303.72 -40.0176 289.519 -36.3176 275.897C-35.9176 275.154 -37.1176 274.906 -37.2176 275.484Z" fill="url(#paint6_linear_52_9957)"/>
<path d="M-27.4176 283.821C-29.7176 291.004 -31.2176 298.435 -33.3176 305.617C-35.6176 313.213 -39.1176 320.231 -43.3176 327.248C-50.9176 340.045 -59.3176 352.594 -65.4176 365.887C-69.9176 375.711 -71.2176 386.197 -75.6176 396.021C-77.8176 400.81 -81.2176 405.351 -86.7176 407.993C-93.0176 411.047 -100.518 411.047 -107.618 410.965C-118.118 410.717 -132.918 409.396 -140.318 417.322C-145.018 422.441 -140.818 429.954 -137.918 434.907C-132.918 443.494 -126.018 451.172 -120.418 459.511C-118.018 462.978 -116.618 467.024 -113.418 470.078C-109.418 473.794 -103.918 475.858 -98.6176 478.087C-71.1176 489.893 -62.9176 514.744 -51.9176 536.622C-45.7176 548.924 -38.5176 560.978 -30.8176 572.701C-26.5176 579.223 -22.0176 585.663 -17.4176 592.02C-14.9176 595.405 -12.4176 598.708 -9.91759 602.093C-8.51759 603.992 -7.61758 605.973 -6.21758 607.872C-3.31757 611.835 1.88242 614.312 4.18242 618.687C4.78242 619.843 4.68242 620.834 4.98242 621.99C5.38242 623.476 6.38242 625.045 6.98242 626.531C8.28242 630.081 9.08242 633.796 10.1824 637.429C11.3824 641.474 12.6824 645.272 16.1824 648.327C19.4824 651.216 23.8824 653.28 28.2824 654.932C38.9824 659.142 50.6824 661.536 61.9824 664.178C75.8824 667.481 89.1824 671.857 102.082 677.388C108.882 680.36 115.482 683.498 121.982 686.965C127.782 690.02 133.782 692.91 138.782 696.79C146.882 703.23 153.482 710.825 162.582 716.274C171.582 721.641 180.382 722.301 190.482 718.503C203.082 713.797 213.782 705.872 222.282 696.872C230.682 688.038 237.182 677.718 240.382 666.738C241.582 662.362 242.182 658.069 244.082 653.941C246.282 648.987 249.282 644.281 252.382 639.575C258.882 629.833 266.182 620.421 272.882 610.762C278.682 602.34 282.782 594.167 285.982 584.92C290.582 571.628 299.382 559.739 306.182 547.19C312.782 534.806 316.582 521.926 315.082 508.304C313.582 494.516 307.682 481.472 301.182 468.757C297.582 461.657 293.682 454.722 291.382 447.292C289.082 439.861 287.982 432.1 287.582 424.422C286.982 409.561 289.282 394.783 291.382 380.087C292.382 372.822 293.382 365.557 293.882 358.209C294.382 351.439 296.082 344.916 297.482 338.312C299.782 327.414 296.282 318.58 286.382 310.984C277.182 303.966 265.082 300.829 252.782 300.664C236.082 300.499 220.082 305.617 203.682 307.351C191.882 308.59 182.882 307.434 172.282 303.306C151.282 295.215 132.182 283.491 113.282 272.511C104.482 267.392 95.7824 262.191 86.8824 257.237C79.7824 253.357 73.0824 249.559 64.3824 248.816C51.2824 247.742 37.7824 250.797 25.2824 253.604C18.6824 255.09 12.0824 256.742 5.48242 258.145C-0.0175781 259.301 -6.01758 259.879 -11.1176 262.025C-21.0176 266.319 -24.6176 275.483 -27.4176 283.821C-27.6176 284.399 -26.5176 284.647 -26.3176 284.069C-22.7176 273.254 -17.7176 263.594 -3.21758 260.952C9.68242 258.558 22.1824 255.255 34.9824 252.696C46.8824 250.302 61.5824 247.495 73.3824 251.788C80.8824 254.512 87.6824 258.971 94.3824 262.851C113.082 273.667 131.482 284.977 150.982 294.885C159.182 299.095 167.582 303.141 176.582 306.113C185.782 309.168 193.982 309.58 203.882 308.507C220.182 306.773 236.182 301.655 252.782 301.82C267.182 301.985 280.782 306.361 289.982 315.69C295.282 321.056 297.882 326.918 297.082 333.853C296.482 339.715 294.382 345.494 293.382 351.356C292.282 358.209 292.182 365.144 291.282 371.996C290.382 379.014 289.282 386.032 288.382 393.132C286.482 407.25 285.282 421.615 287.482 435.816C289.682 449.768 296.482 461.822 302.782 474.702C309.082 487.499 314.282 500.956 314.282 514.909C314.282 529.77 307.582 543.144 299.782 556.189C293.182 567.252 287.082 577.985 283.282 589.874C280.382 599.038 273.982 607.542 268.182 615.633C261.682 624.714 254.782 633.548 248.982 642.878C246.582 646.676 244.382 650.473 242.682 654.519C240.882 658.647 240.382 662.857 239.182 667.068C235.582 679.039 227.882 690.268 218.182 699.597C209.282 708.101 196.982 716.935 183.382 719.742C170.782 722.301 160.182 714.045 152.282 707.11C144.882 700.67 138.382 694.561 129.382 689.607C116.482 682.589 103.182 676.232 89.0824 671.031C78.2824 667.068 67.1824 664.261 55.7824 661.619C44.5824 658.977 32.6824 656.418 22.8824 651.216C17.6824 648.492 14.4824 645.272 12.7824 640.401C11.6824 637.511 10.9824 634.457 10.1824 631.484C9.18242 627.852 7.48241 624.384 6.58241 620.834C5.58241 617.119 3.18241 614.642 0.0824127 611.835C-4.21759 608.037 -6.61759 603.827 -9.91759 599.451C-19.3176 587.149 -28.0176 574.518 -36.0176 561.638C-42.9176 550.492 -49.1176 539.099 -54.5176 527.375C-59.1176 517.386 -63.7176 507.231 -70.7176 498.149C-77.6176 489.232 -86.7176 481.719 -98.1176 476.848C-104.018 474.371 -110.218 471.977 -113.918 467.189C-116.418 463.886 -118.018 460.006 -120.418 456.621C-126.118 448.613 -132.718 441.017 -137.318 432.596C-139.218 429.046 -141.418 424.587 -140.318 420.624C-138.818 415.175 -130.818 412.864 -124.918 412.121C-113.018 410.635 -100.218 413.854 -88.7176 410.057C-79.4176 407.002 -74.9176 399.737 -72.3176 392.224C-68.8176 381.986 -66.6176 371.914 -61.7176 362.006C-55.0176 348.466 -46.2176 335.752 -38.7176 322.542C-31.7176 310.241 -29.8176 297.031 -25.7176 283.987C-26.1176 283.491 -27.2176 283.244 -27.4176 283.821Z" fill="url(#paint7_linear_52_9957)"/>
<path d="M-17.6177 292.161C-20.4177 299.014 -22.7177 306.031 -26.0177 312.719C-29.5177 319.737 -34.3177 326.259 -38.7177 332.864C-46.5177 344.67 -54.1177 357.054 -58.0177 370.181C-60.7177 379.345 -61.0177 389.665 -66.9177 398.004C-74.3177 408.407 -88.4177 407.994 -101.318 407.499C-111.518 407.086 -125.418 406.59 -132.118 414.434C-136.318 419.305 -133.018 426.157 -130.318 431.028C-125.518 439.697 -118.618 447.458 -112.318 455.466C-109.718 458.769 -107.018 462.071 -104.918 465.621C-102.418 469.749 -100.318 473.382 -95.7177 476.354C-90.9177 479.409 -85.2177 481.308 -79.9177 483.537C-73.3177 486.344 -67.4177 490.142 -62.4177 494.683C-52.7177 503.517 -47.1177 514.662 -43.0177 525.973C-39.0177 537.036 -35.9177 548.347 -31.3177 559.328C-26.1177 571.629 -19.7177 583.518 -11.9177 594.829C-8.01769 600.443 -3.71769 606.057 0.582306 611.423C2.38231 613.735 5.68231 614.891 8.38231 616.377C13.1823 619.101 15.8823 624.303 18.5823 628.596C21.3823 633.054 23.6823 638.173 28.1823 641.806C35.9823 648.08 48.0823 650.722 58.1823 653.199C71.2823 656.501 84.2823 659.308 96.5823 664.51C110.182 670.206 123.182 677.802 134.282 686.388C141.482 692.003 146.082 699.763 152.482 706.038C157.882 711.239 165.282 716.936 174.282 715.78C186.282 714.294 198.082 706.038 206.182 699.103C215.782 690.847 223.382 680.857 227.882 670.041C229.782 665.501 230.282 660.712 231.982 656.089C233.482 651.878 235.982 647.833 238.682 644.035C250.382 626.945 267.182 612.166 277.182 594.251C279.382 590.288 280.382 586.16 281.882 581.949C284.382 575.179 288.082 568.739 291.882 562.382C299.082 550.246 306.782 538.192 308.882 524.57C310.882 511.607 307.682 498.728 302.482 486.592C296.582 472.721 287.682 459.759 284.782 445.146C281.882 430.45 283.382 415.507 285.482 400.811C287.582 386.115 288.882 371.172 291.882 356.559C294.082 345.495 294.282 336.001 285.582 326.754C278.082 318.746 267.082 313.957 254.982 312.719C239.382 311.15 224.182 315.443 208.982 317.755C201.582 318.911 193.382 320.149 185.882 318.993C181.882 318.333 177.982 317.095 174.182 315.691C153.782 308.013 135.382 296.372 117.382 285.556C108.582 280.273 99.8823 274.906 91.0823 269.705C85.0823 266.155 78.2823 261.366 70.9823 259.88C60.2823 257.651 48.1823 260.953 38.0823 263.76C25.9823 267.145 14.1823 271.521 1.68231 274.08C-9.91769 276.31 -14.0177 283.41 -17.6177 292.161C-17.8177 292.739 -16.7177 292.987 -16.5177 292.409C-14.5177 287.455 -12.4177 281.841 -7.31769 278.291C-2.51769 274.906 4.38231 274.493 10.1823 272.925C22.2823 269.705 33.9823 265.329 46.2823 262.522C57.0823 260.045 68.0823 258.477 77.9823 263.513C85.1823 267.145 91.9823 271.356 98.7823 275.401C116.982 286.382 134.882 297.61 153.982 307.518C161.682 311.48 169.582 315.278 177.982 318.003C187.882 321.14 197.882 320.314 208.182 318.746C224.182 316.352 240.182 311.646 256.582 313.792C270.582 315.691 283.282 322.874 289.282 333.689C292.882 340.046 292.282 346.899 290.982 353.669C289.882 359.613 288.782 365.475 288.182 371.585C286.782 385.537 283.882 399.408 282.482 413.36C281.182 426.735 281.282 440.358 285.482 453.32C289.782 466.694 298.382 478.913 303.282 492.206C308.482 506.324 309.882 521.019 304.682 535.302C299.982 548.099 291.382 559.575 284.982 571.794C280.382 580.628 278.582 590.123 272.882 598.626C267.182 607.048 260.382 614.973 253.682 622.899C247.082 630.743 240.282 638.668 235.082 647.172C230.282 654.933 229.582 663.354 225.882 671.445C220.682 683.003 211.882 693.571 200.882 701.91C192.382 708.35 177.282 718.339 165.082 713.716C155.382 710.001 149.082 701.167 143.182 694.232C137.182 687.214 130.082 682.013 121.782 676.729C110.782 669.711 98.6823 663.602 85.7823 659.391C74.1823 655.593 61.7823 653.447 49.9823 650.062C44.2823 648.493 38.5823 646.677 33.4823 644.035C27.8823 641.145 24.9823 637.1 21.9823 632.311C19.2823 628.018 16.6823 623.56 13.7823 619.349C11.8823 616.542 7.68231 615.056 4.58231 613.322C-0.017694 610.763 -3.11769 605.066 -6.11769 601.186C-10.4177 595.489 -14.4177 589.545 -18.0177 583.518C-24.9177 571.959 -30.4177 559.905 -34.8177 547.521C-41.8177 527.624 -46.1177 505.828 -65.3177 490.967C-69.9177 487.417 -75.1177 484.528 -80.7177 482.216C-86.3177 479.904 -92.3177 477.923 -97.0177 474.29C-101.218 471.07 -102.818 466.86 -105.518 462.897C-107.918 459.347 -110.718 455.962 -113.418 452.577C-119.418 445.064 -125.918 437.633 -130.218 429.377C-132.018 425.992 -133.918 421.782 -132.918 417.984C-131.718 413.03 -125.018 410.223 -119.718 409.15C-107.818 406.755 -95.6177 410.058 -83.6177 408.324C-73.7177 406.838 -67.0177 401.637 -63.5177 394.041C-59.6177 385.537 -59.2177 376.291 -56.1177 367.539C-51.2177 353.669 -42.9177 340.872 -34.5177 328.323C-30.9177 322.874 -27.2177 317.507 -24.4177 311.646C-21.4177 305.371 -19.2177 298.849 -16.7177 292.492C-16.2177 291.831 -17.4177 291.583 -17.6177 292.161Z" fill="url(#paint8_linear_52_9957)"/>
<path d="M-7.71763 300.417C-12.3176 306.114 -15.4176 312.554 -19.7176 318.415C-24.3176 324.69 -29.5176 330.634 -33.7176 337.074C-40.8176 347.972 -45.9176 359.448 -48.2176 371.749C-49.9176 380.749 -50.6176 391.729 -58.7176 398.664C-68.2176 406.838 -83.1176 404.361 -95.3176 403.866C-105.218 403.453 -117.918 403.866 -124.018 411.461C-128.118 416.497 -124.818 423.35 -122.118 428.304C-117.318 436.972 -110.418 444.733 -103.918 452.576C-100.918 456.209 -97.8176 459.759 -95.0176 463.474C-92.5176 466.777 -90.8176 470.409 -88.3176 473.712C-81.6176 482.711 -68.7176 485.27 -58.3176 490.224C-44.9176 496.664 -35.8176 507.066 -30.6176 519.038C-26.1176 529.44 -24.3176 540.338 -22.5176 551.154C-20.4176 563.538 -17.0176 575.757 -11.6176 587.48C-7.11764 597.057 -0.517645 608.946 7.88235 615.881C9.08235 616.872 10.3824 617.202 12.4824 617.698C14.7824 618.193 17.0824 618.688 19.1824 619.514C20.9824 620.257 21.9824 621.495 23.3824 622.651C28.7824 626.697 33.3824 631.568 39.0824 635.283C43.2824 638.09 48.3824 639.824 53.3824 641.393C66.7824 645.521 81.0824 647.75 94.2824 652.456C107.582 657.244 118.682 664.592 128.282 673.426C131.682 676.563 134.882 679.536 137.282 683.251C139.682 686.883 141.782 690.599 144.082 694.231C147.882 699.928 152.882 707.606 160.882 709.835C170.282 712.56 182.182 704.882 188.882 700.258C199.782 692.828 208.582 683.168 214.282 672.518C218.682 664.344 219.082 655.263 224.182 647.42C235.082 630.495 252.082 616.707 265.082 600.938C267.882 597.553 270.482 594.168 272.582 590.453C274.682 586.655 275.482 582.609 277.082 578.646C282.182 565.932 291.082 554.539 296.982 542.072C302.882 529.523 304.082 516.396 300.782 503.186C297.282 489.233 289.082 476.932 283.482 463.557C277.382 449.026 277.382 433.505 279.282 418.396C281.182 403.535 283.582 388.592 286.082 373.814C288.082 361.76 289.682 350.366 281.182 339.633C274.682 331.46 264.682 326.011 253.082 324.277C226.682 320.314 199.782 336.579 174.482 327.167C154.782 319.819 137.082 308.178 119.882 297.527C110.982 291.996 102.182 286.382 93.1824 280.933C87.2824 277.3 81.0824 273.007 74.3824 270.448C65.7824 267.145 55.1823 270.365 46.9823 273.09C35.2823 276.97 24.4824 282.254 12.7824 286.052C8.28236 287.538 2.98236 287.95 -0.917641 290.345C-4.91764 292.822 -6.81763 296.537 -8.01763 300.5C-8.21763 301.078 -7.11764 301.325 -6.91764 300.747C-5.71764 296.95 -3.91764 293.234 0.0823593 290.923C3.48236 289.024 7.78236 288.611 11.4824 287.455C18.4824 285.391 25.0824 282.501 31.6824 279.859C43.6824 275.071 62.0823 265.989 75.4823 272.099C85.1823 276.475 93.9824 282.667 102.782 288.116C114.782 295.629 126.782 303.224 139.082 310.407C149.882 316.764 160.982 323.121 173.082 327.745C176.982 329.231 181.082 330.634 185.382 331.13C194.582 332.038 204.582 330.056 213.482 328.488C232.882 325.02 254.682 320.81 271.582 332.286C279.882 337.9 285.682 346.321 286.582 355.155C287.482 363.741 284.882 372.41 283.782 380.914C281.382 399.572 276.482 418.314 276.882 437.138C277.082 446.219 278.682 455.218 282.282 463.805C285.882 472.391 290.982 480.564 294.682 489.151C298.482 497.902 301.282 507.066 301.482 516.478C301.782 526.633 298.782 536.293 293.982 545.54C289.782 553.631 284.582 561.226 280.282 569.317C276.882 575.592 275.382 582.279 272.382 588.554C266.982 599.617 256.582 609.194 247.782 618.441C239.082 627.687 229.582 636.934 222.982 647.337C220.282 651.63 219.282 655.758 217.982 660.381C215.882 668.06 211.882 675.325 206.882 681.93C201.482 688.948 194.782 695.305 186.882 700.423C180.882 704.304 170.482 710.909 162.282 709.257C155.782 707.936 151.282 702.405 147.982 698.029C144.582 693.406 141.782 688.535 138.782 683.746C132.282 673.591 120.782 664.592 109.382 658.235C94.2824 649.896 77.0824 646.759 60.0824 642.301C51.8824 640.154 43.4824 637.677 37.1824 632.641C31.8824 628.431 27.0824 623.642 21.6824 619.597C19.7824 618.193 10.6824 615.056 8.68236 616.294C8.98236 616.129 9.08236 615.799 8.78236 615.551C-4.21764 602.176 -12.4176 586.242 -17.3176 569.647C-21.4176 555.942 -22.4176 541.742 -26.4176 528.037C-30.1176 515.488 -36.7176 503.351 -48.7176 494.765C-61.1176 485.931 -81.2176 483.867 -88.9176 470.987C-94.5176 461.575 -102.218 453.319 -109.318 444.568C-113.218 439.779 -117.118 434.908 -120.218 429.707C-122.718 425.579 -125.518 420.625 -124.918 415.837C-124.118 409.315 -115.318 405.93 -108.418 405.021C-100.418 403.948 -92.3176 405.021 -84.3176 405.352C-71.4176 405.93 -59.0176 403.618 -53.2176 393.215C-50.2176 387.766 -49.1176 381.739 -48.0176 375.878C-46.6176 368.365 -45.0176 361.017 -41.9176 353.834C-37.6176 344.092 -31.6176 334.927 -24.8176 326.259C-21.6176 322.131 -18.3176 318.168 -15.5176 313.792C-12.8176 309.416 -10.2176 304.958 -6.91764 300.912C-6.31764 300.335 -7.31763 299.922 -7.71763 300.417Z" fill="url(#paint9_linear_52_9957)"/>
<path d="M2.18234 308.673C-13.4177 320.396 -26.9177 334.184 -33.0177 351.109C-37.4177 363.328 -35.8177 376.868 -41.7177 388.756C-49.1177 403.617 -67.9177 401.553 -83.9177 400.563C-94.9177 399.902 -114.218 400.067 -117.318 411.708C-119.618 420.295 -111.518 430.202 -106.318 436.972C-98.4177 447.292 -89.0177 456.704 -81.1177 467.024C-77.7177 471.4 -75.6177 476.518 -71.3177 480.399C-65.8177 485.517 -58.0177 488.325 -50.6177 491.132C-41.7177 494.434 -33.3177 498.149 -26.5177 504.176C-20.1177 509.873 -15.7177 516.808 -13.0177 524.156C-6.81765 540.42 -8.91766 557.428 -6.81766 574.188C-4.61766 591.525 1.58235 608.533 15.9823 621.743C16.1823 621.495 16.4823 621.247 16.6823 620.999C17.8823 621.66 22.0823 620.834 23.8823 620.834C26.4823 620.834 28.5823 621.165 30.8823 621.825C39.8823 624.302 47.4824 629.421 56.3824 632.145C75.3824 638.007 96.4824 639.658 113.382 649.648C125.782 656.996 133.182 668.389 137.782 680.113C140.782 687.791 144.382 700.258 153.782 704.303C158.382 706.285 163.282 704.221 167.482 702.487C175.682 699.102 182.882 694.148 188.982 688.534C195.282 682.755 200.482 676.15 204.282 669.05C207.282 663.436 207.982 657.574 210.282 651.795C214.382 641.392 225.382 632.31 233.882 624.137C243.382 615.055 253.282 606.221 261.782 596.562C264.882 593.011 267.982 589.296 269.682 585.086C270.982 581.948 271.682 578.728 272.982 575.674C274.982 570.968 277.582 566.344 280.282 561.886C289.882 545.622 298.782 530.1 295.982 511.524C294.682 502.938 291.382 494.682 287.582 486.591C283.382 477.757 277.982 469.253 275.582 459.841C270.482 439.779 276.282 419.386 279.682 399.489C282.482 383.142 286.882 365.227 275.282 350.531C266.782 339.715 252.382 334.927 237.182 335.257C226.782 335.422 216.782 337.899 206.682 339.633C198.282 341.036 188.682 342.935 180.182 340.789C168.882 337.982 158.482 331.707 148.882 326.175C125.882 312.883 104.782 297.444 81.6823 284.235C78.4823 282.418 75.0823 280.189 71.0823 279.611C65.9823 278.868 60.5824 280.354 55.8824 281.923C41.6824 286.794 29.6823 295.215 15.7823 300.499C9.58235 302.811 4.48234 303.224 1.68234 309.085C1.38234 309.663 2.48235 309.911 2.78235 309.333C5.68235 303.141 15.1823 301.985 21.7823 299.013C28.4823 295.958 34.8823 292.408 41.5823 289.188C48.0823 285.968 54.8823 282.749 62.2823 281.097C68.1823 279.859 72.6823 280.519 77.6823 283.161C99.5823 294.802 119.182 309.581 140.282 322.295C150.682 328.57 161.382 334.927 172.982 339.468C176.482 340.789 180.082 342.11 183.982 342.44C193.582 343.431 204.082 341.036 213.382 339.385C231.682 336 252.282 333.193 267.582 344.586C285.382 357.879 281.982 377.446 279.282 395.031C276.382 413.69 270.782 432.431 272.882 451.337C274.882 469.913 287.682 485.517 292.982 503.351C295.882 513.175 296.382 523.33 293.582 533.155C291.082 541.989 286.082 550.162 281.182 558.336C276.682 565.766 272.182 573.362 269.682 581.453C268.282 585.911 266.182 589.709 262.982 593.589C254.682 603.827 244.282 612.826 234.582 622.073C226.082 630.164 216.682 638.502 210.882 648.245C208.282 652.62 207.882 657.491 206.182 662.115C203.282 669.958 198.482 677.223 192.482 683.746C186.282 690.35 178.782 696.295 169.982 700.505C163.582 703.56 156.782 706.615 150.882 701.496C142.482 694.231 140.282 682.92 136.182 673.756C131.182 662.61 121.482 652.62 109.182 646.511C92.7823 638.42 73.3824 636.686 55.8824 631.154C47.2824 628.43 39.7823 623.807 31.1823 620.999C27.3823 619.761 22.8823 619.844 18.7823 620.174C18.0823 620.256 13.4823 620.752 15.7823 621.99C16.3823 622.32 16.8823 621.66 16.4823 621.247C2.28235 608.285 -3.81766 591.443 -5.91766 574.353C-7.61766 560.483 -6.41765 546.53 -9.51765 532.825C-12.5177 519.78 -19.4177 507.313 -32.2177 498.975C-46.0177 489.976 -66.9177 488.242 -75.4177 474.207C-81.2177 464.712 -89.0177 456.374 -96.5177 447.787C-104.118 438.871 -113.618 428.881 -116.318 417.983C-117.718 412.204 -115.118 407.745 -108.918 404.608C-101.618 400.893 -92.4177 401.306 -84.2177 401.801C-70.9177 402.627 -54.6177 405.103 -45.0177 395.361C-35.8177 386.032 -37.0177 371.914 -34.7177 360.686C-30.4177 340.128 -15.7177 323.533 2.78235 309.746C3.58235 308.92 2.68234 308.26 2.18234 308.673Z" fill="url(#paint10_linear_52_9957)"/>
<path d="M12.1824 316.847C2.28243 319.654 -7.01757 322.461 -13.5176 329.644C-18.9176 335.588 -21.9176 342.936 -23.5176 350.202C-26.3176 362.503 -23.9176 377.034 -31.6176 388.262C-41.3176 402.297 -62.7176 397.426 -78.5176 396.683C-89.6176 396.188 -107.718 398.087 -109.418 409.728C-110.918 419.47 -101.618 430.12 -95.5176 437.716C-86.9176 448.284 -77.1176 458.108 -68.5176 468.759C-65.0176 473.134 -62.7176 478.253 -58.7176 482.381C-53.2176 488.078 -45.4176 491.463 -37.4176 494.435C-28.2176 497.82 -18.9176 500.875 -11.4176 506.571C-4.41758 511.855 0.58242 518.708 3.58242 526.138C16.7824 558.997 -10.3176 599.7 23.6824 627.11C24.1824 627.523 24.9824 626.862 24.4824 626.449C22.5824 624.633 37.3824 621.909 39.1824 621.826C48.4824 621.083 58.6824 625.129 67.7824 626.449C87.5824 629.257 113.982 631.898 126.782 646.429C134.182 654.85 134.482 666.326 136.682 676.316C137.782 681.352 139.082 686.471 141.382 691.26C142.782 694.149 144.682 697.864 148.282 699.351C152.682 701.167 158.382 697.947 162.082 696.213C169.782 692.581 176.482 687.627 182.082 681.93C187.482 676.481 191.982 670.454 195.182 663.932C197.782 658.648 197.982 652.786 200.882 647.75C206.082 638.503 216.082 630.66 224.482 623.312C234.482 614.561 244.882 606.14 254.182 596.975C257.582 593.673 260.882 590.288 263.482 586.49C266.682 581.784 267.482 576.17 269.882 571.216C277.782 554.952 290.482 540.421 290.882 522.258C291.082 513.754 288.882 505.333 285.582 497.242C281.982 488.326 276.482 479.987 273.082 471.07C265.682 451.669 271.482 431.276 275.582 411.874C278.982 395.61 281.782 377.364 271.182 362.421C263.682 351.853 250.282 346.651 235.682 346.486C225.982 346.404 216.582 348.468 207.182 350.119C198.782 351.605 188.782 353.917 180.282 351.853C169.682 349.376 159.982 343.266 151.182 338.148C128.582 324.855 107.882 309.499 85.5824 295.794C78.5824 291.501 72.7824 287.455 63.6824 290.015C50.6824 293.648 39.7824 302.234 28.9824 308.921C23.4824 312.224 18.3824 315.031 12.1824 316.847C11.4824 317.012 11.7824 318.003 12.4824 317.755C24.8824 314.205 34.6824 306.114 45.1824 299.84C53.8824 294.638 66.2824 286.547 76.9824 292.244C86.4824 297.28 95.0824 303.39 103.882 309.252C114.882 316.517 125.782 323.865 136.982 330.965C147.382 337.487 157.882 344.092 169.382 349.211C172.882 350.779 176.682 352.348 180.682 353.091C187.682 354.412 195.682 353.009 202.582 351.853C221.182 348.798 241.882 343.266 259.082 353.091C277.582 363.576 278.782 384.629 276.182 401.307C273.282 420.13 266.382 438.789 268.582 457.861C270.582 475.694 283.582 490.802 287.882 508.223C290.282 518.13 289.982 528.202 286.282 537.944C282.982 546.778 277.482 554.787 272.682 563.125C270.782 566.51 268.882 569.895 267.382 573.363C265.982 576.583 265.282 579.885 263.882 583.105C262.082 587.151 258.582 590.701 255.382 594.003C246.582 603.085 236.482 611.258 226.682 619.679C217.982 627.193 208.782 634.788 201.982 643.622C199.482 646.842 198.382 649.814 197.482 653.529C195.682 661.29 191.582 668.638 186.382 675.16C180.782 682.178 173.582 688.618 164.982 693.324C159.982 696.048 151.382 701.415 146.282 696.626C142.482 693.076 140.882 687.627 139.582 683.169C138.182 678.38 137.182 673.592 136.382 668.721C134.482 658.4 132.082 647.668 121.882 640.65C106.482 630.082 85.4824 627.853 66.3824 625.129C57.6824 623.89 48.5824 620.175 39.6824 620.67C35.3824 620.835 30.5824 621.909 26.6824 623.23C24.7824 623.89 21.7824 625.129 23.6824 627.027C23.9824 626.78 24.1824 626.615 24.4824 626.367C-6.11756 601.681 13.6824 565.602 7.48243 535.303C4.78243 522.175 -2.71758 509.956 -16.1176 502.196C-31.4176 493.362 -52.4176 491.711 -61.7176 476.767C-67.6176 467.19 -75.7176 458.769 -83.4176 450.183C-92.0176 440.523 -101.618 430.451 -106.518 419.057C-108.318 414.929 -109.618 410.058 -106.718 406.013C-101.718 399.077 -91.3176 397.509 -82.4176 397.591C-67.9176 397.757 -50.2176 402.793 -37.2176 395.115C-25.1176 387.849 -25.1176 373.153 -24.0176 362.09C-23.1176 353.587 -21.7176 344.918 -17.3176 337.074C-14.9176 332.699 -11.6176 328.653 -7.11758 325.599C-1.41758 321.636 5.68243 319.819 12.6824 317.838C13.2824 317.59 12.9824 316.682 12.1824 316.847Z" fill="url(#paint11_linear_52_9957)"/>
</g>
<defs>
<filter id="filter0_f_52_9957" x="212" y="42.168" width="979" height="979" filterUnits="userSpaceOnUse" color-interpolation-filters="sRGB">
<feFlood flood-opacity="0" result="BackgroundImageFix"/>
<feBlend mode="normal" in="SourceGraphic" in2="BackgroundImageFix" result="shape"/>
<feGaussianBlur stdDeviation="100" result="effect1_foregroundBlur_52_9957"/>
</filter>
<linearGradient id="paint0_linear_52_9957" x1="73.0904" y1="161.254" x2="73.0904" y2="760.56" gradientUnits="userSpaceOnUse">
<stop stop-color="#4CC722"/>
<stop offset="1" stop-color="#006B3C"/>
</linearGradient>
<linearGradient id="paint1_linear_52_9957" x1="77.2104" y1="174.947" x2="77.2104" y2="754.661" gradientUnits="userSpaceOnUse">
<stop stop-color="#4CC722"/>
<stop offset="1" stop-color="#006B3C"/>
</linearGradient>
<linearGradient id="paint2_linear_52_9957" x1="80.0662" y1="188.66" x2="80.0662" y2="748.894" gradientUnits="userSpaceOnUse">
<stop stop-color="#4CC722"/>
<stop offset="1" stop-color="#006B3C"/>
</linearGradient>
<linearGradient id="paint3_linear_52_9957" x1="81.8711" y1="201.859" x2="81.8711" y2="743.262" gradientUnits="userSpaceOnUse">
<stop stop-color="#4CC722"/>
<stop offset="1" stop-color="#006B3C"/>
</linearGradient>
<linearGradient id="paint4_linear_52_9957" x1="83.2872" y1="214.822" x2="83.2872" y2="737.653" gradientUnits="userSpaceOnUse">
<stop stop-color="#4CC722"/>
<stop offset="1" stop-color="#006B3C"/>
</linearGradient>
<linearGradient id="paint5_linear_52_9957" x1="84.3219" y1="227.018" x2="84.3219" y2="732.243" gradientUnits="userSpaceOnUse">
<stop stop-color="#4CC722"/>
<stop offset="1" stop-color="#006B3C"/>
</linearGradient>
<linearGradient id="paint6_linear_52_9957" x1="85.4647" y1="237.936" x2="85.4647" y2="726.396" gradientUnits="userSpaceOnUse">
<stop stop-color="#4CC722"/>
<stop offset="1" stop-color="#006B3C"/>
</linearGradient>
<linearGradient id="paint7_linear_52_9957" x1="86.4891" y1="248.596" x2="86.4891" y2="720.911" gradientUnits="userSpaceOnUse">
<stop stop-color="#4CC722"/>
<stop offset="1" stop-color="#006B3C"/>
</linearGradient>
<linearGradient id="paint8_linear_52_9957" x1="87.6825" y1="259.146" x2="87.6825" y2="715.931" gradientUnits="userSpaceOnUse">
<stop stop-color="#4CC722"/>
<stop offset="1" stop-color="#006B3C"/>
</linearGradient>
<linearGradient id="paint9_linear_52_9957" x1="88.3199" y1="269.047" x2="88.3199" y2="710.405" gradientUnits="userSpaceOnUse">
<stop stop-color="#4CC722"/>
<stop offset="1" stop-color="#006B3C"/>
</linearGradient>
<linearGradient id="paint10_linear_52_9957" x1="89.3931" y1="279.414" x2="89.3931" y2="705.113" gradientUnits="userSpaceOnUse">
<stop stop-color="#4CC722"/>
<stop offset="1" stop-color="#006B3C"/>
</linearGradient>
<linearGradient id="paint11_linear_52_9957" x1="90.6581" y1="289.217" x2="90.6581" y2="699.889" gradientUnits="userSpaceOnUse">
<stop stop-color="#4CC722"/>
<stop offset="1" stop-color="#006B3C"/>
</linearGradient>
</defs>
</svg>
